<?xml version="1.0" encoding="UTF-8"?>
<svg version="1.1" xmlns="http://www.w3.org/2000/svg" width="200" height="201">
<path d="M0 0 C1.01998581 0.00306656 1.01998581 0.00306656 2.06057739 0.00619507 C12.1415839 0.05558051 21.18268496 0.74150811 30.625 4.4375 C31.36234375 4.68757812 32.0996875 4.93765625 32.859375 5.1953125 C34.81544655 5.8760254 36.71180793 6.64467916 38.625 7.4375 C39.53507813 7.78425781 40.44515625 8.13101562 41.3828125 8.48828125 C53.06593908 13.07487954 63.50074564 19.77210562 72.625 28.4375 C72.625 29.0975 72.625 29.7575 72.625 30.4375 C73.615 30.7675 74.605 31.0975 75.625 31.4375 C78.5398808 34.56990921 81.05608532 38.01882961 83.625 41.4375 C84.14449219 42.1078125 84.66398438 42.778125 85.19921875 43.46875 C88.71123652 48.31822111 91.25828932 53.57822213 93.75 59 C94.07484375 59.68900391 94.3996875 60.37800781 94.734375 61.08789062 C100.13934331 73.27104074 102.30870206 85.62840704 102.14648438 98.86474609 C102.12499106 100.93836218 102.14646309 103.00851689 102.171875 105.08203125 C102.20078456 118.20648753 99.49562514 130.68024483 93.9375 142.625 C93.59501221 143.37346191 93.25252441 144.12192383 92.8996582 144.89306641 C85.00255058 161.59470772 72.85089575 175.12915707 57.625 185.4375 C56.81546875 185.99050781 56.0059375 186.54351562 55.171875 187.11328125 C34.12556224 200.59825316 6.8267608 204.9658251 -17.62280273 200.36132812 C-37.60268059 195.92383045 -54.69017066 186.67089697 -69.375 172.4375 C-69.97441406 171.9115625 -70.57382813 171.385625 -71.19140625 170.84375 C-80.01548318 162.81813943 -86.55563799 151.62864137 -90.375 140.4375 C-90.890625 139.261875 -91.40625 138.08625 -91.9375 136.875 C-96.84545887 125.1385766 -98.74847055 114.18718677 -98.74560547 101.48339844 C-98.74995027 99.33706506 -98.78628498 97.19284258 -98.82421875 95.046875 C-98.96775959 77.29510572 -93.50985379 60.70174915 -84.1875 45.625 C-83.74712402 44.912229 -83.30674805 44.19945801 -82.85302734 43.46508789 C-81.75403367 41.74904495 -80.57142927 40.08709009 -79.375 38.4375 C-78.715 38.4375 -78.055 38.4375 -77.375 38.4375 C-77.12363281 37.8703125 -76.87226562 37.303125 -76.61328125 36.71875 C-73.41015665 30.81772549 -67.91240693 25.18339292 -62.375 21.4375 C-61.715 21.4375 -61.055 21.4375 -60.375 21.4375 C-60.375 20.7775 -60.375 20.1175 -60.375 19.4375 C-42.42990972 6.1695875 -22.29207344 -0.16866119 0 0 Z " fill="#2457A1" transform="translate(98.375,-0.4375)"/>
<path d="M0 0 C2.12109375 0.5546875 2.12109375 0.5546875 5.12109375 2.5546875 C6.35991953 6.49640588 6.50050358 10.4570613 6.12109375 14.5546875 C4.30859375 16.4921875 4.30859375 16.4921875 2.12109375 17.5546875 C1.13109375 17.5546875 0.14109375 17.5546875 -0.87890625 17.5546875 C-0.7190625 18.19792969 -0.55921875 18.84117188 -0.39453125 19.50390625 C0.27697303 23.47697323 0.34451952 27.34451371 0.37109375 31.3671875 C0.39171875 32.13611328 0.41234375 32.90503906 0.43359375 33.69726562 C0.47726595 40.16621031 -0.63929316 45.71784425 -4.75390625 50.9296875 C-7.03930468 52.67734512 -9.15773907 53.64763177 -11.87890625 54.5546875 C-8.98914439 56.61452945 -8.98914439 56.61452945 -5.94140625 57.8046875 C-1.45317041 60.3693937 0.50838281 63.71655469 2.12109375 68.5546875 C2.8291371 79.9762392 3.46611999 91.44608608 -4.50390625 100.5546875 C-13.57915823 105.9326146 -22.75589123 105.96786303 -33.07421875 105.84765625 C-34.34193115 105.84463501 -35.60964355 105.84161377 -36.91577148 105.83850098 C-41.61190026 105.82290809 -46.30791218 105.78102483 -51.00390625 105.7421875 C-66.78203125 105.649375 -66.78203125 105.649375 -82.87890625 105.5546875 C-82.87890625 72.8846875 -82.87890625 40.2146875 -82.87890625 6.5546875 C-72.46328125 6.5340625 -62.04765625 6.5134375 -51.31640625 6.4921875 C-48.03888428 6.4830835 -44.7613623 6.47397949 -41.38452148 6.46459961 C-38.77718141 6.46167809 -36.16984087 6.45913009 -33.5625 6.45703125 C-32.89243423 6.45441788 -32.22236847 6.4518045 -31.53199768 6.44911194 C-29.53753836 6.4417283 -27.54305697 6.44134773 -25.54858398 6.44116211 C-24.42717514 6.4389415 -23.3057663 6.43672089 -22.15037537 6.43443298 C-18.66871787 6.56241372 -15.3171653 7.00501052 -11.87890625 7.5546875 C-11.79640625 6.9771875 -11.71390625 6.3996875 -11.62890625 5.8046875 C-9.50332138 -0.57206712 -5.97550735 -0.82629275 0 0 Z " fill="#FCFCFD" transform="translate(139.87890625,42.4453125)"/>
<path d="M0 0 C1.01998581 0.00306656 1.01998581 0.00306656 2.06057739 0.00619507 C12.1415839 0.05558051 21.18268496 0.74150811 30.625 4.4375 C31.36234375 4.68757812 32.0996875 4.93765625 32.859375 5.1953125 C34.81544655 5.8760254 36.71180793 6.64467916 38.625 7.4375 C39.53507813 7.78425781 40.44515625 8.13101562 41.3828125 8.48828125 C53.06593908 13.07487954 63.50074564 19.77210562 72.625 28.4375 C72.625 29.0975 72.625 29.7575 72.625 30.4375 C73.615 30.7675 74.605 31.0975 75.625 31.4375 C78.5398808 34.56990921 81.05608532 38.01882961 83.625 41.4375 C84.14449219 42.1078125 84.66398438 42.778125 85.19921875 43.46875 C88.71123652 48.31822111 91.25828932 53.57822213 93.75 59 C94.07484375 59.68900391 94.3996875 60.37800781 94.734375 61.08789062 C100.13934331 73.27104074 102.30870206 85.62840704 102.14648438 98.86474609 C102.12499106 100.93836218 102.14646309 103.00851689 102.171875 105.08203125 C102.20078456 118.20648753 99.49562514 130.68024483 93.9375 142.625 C93.59501221 143.37346191 93.25252441 144.12192383 92.8996582 144.89306641 C85.00255058 161.59470772 72.85089575 175.12915707 57.625 185.4375 C56.81546875 185.99050781 56.0059375 186.54351562 55.171875 187.11328125 C34.12556224 200.59825316 6.8267608 204.9658251 -17.62280273 200.36132812 C-37.60268059 195.92383045 -54.69017066 186.67089697 -69.375 172.4375 C-69.97441406 171.9115625 -70.57382813 171.385625 -71.19140625 170.84375 C-80.01548318 162.81813943 -86.55563799 151.62864137 -90.375 140.4375 C-90.890625 139.261875 -91.40625 138.08625 -91.9375 136.875 C-96.84545887 125.1385766 -98.74847055 114.18718677 -98.74560547 101.48339844 C-98.74995027 99.33706506 -98.78628498 97.19284258 -98.82421875 95.046875 C-98.96775959 77.29510572 -93.50985379 60.70174915 -84.1875 45.625 C-83.74712402 44.912229 -83.30674805 44.19945801 -82.85302734 43.46508789 C-81.75403367 41.74904495 -80.57142927 40.08709009 -79.375 38.4375 C-78.715 38.4375 -78.055 38.4375 -77.375 38.4375 C-77.12363281 37.8703125 -76.87226562 37.303125 -76.61328125 36.71875 C-73.41015665 30.81772549 -67.91240693 25.18339292 -62.375 21.4375 C-61.715 21.4375 -61.055 21.4375 -60.375 21.4375 C-60.375 20.7775 -60.375 20.1175 -60.375 19.4375 C-42.42990972 6.1695875 -22.29207344 -0.16866119 0 0 Z M-65.375 31.4375 C-65.48348223 33.47571424 -65.58067794 35.51563858 -65.60058594 37.55664062 C-65.67508954 45.01296152 -65.88229256 50.46382254 -70.75390625 56.43359375 C-73.66602766 60.03339684 -75.4580394 64.24757183 -77.375 68.4375 C-77.6740625 69.08203125 -77.973125 69.7265625 -78.28125 70.390625 C-85.05882807 86.52126082 -84.78177534 110.17335182 -78.625 126.4375 C-74.17791194 137.19946458 -74.17791194 137.19946458 -67.5625 146.625 C-64.64381405 150.29601804 -65.19226804 154.35247524 -65.1875 158.8125 C-65.11432412 163.25722212 -65.00465796 166.43916073 -62.59375 170.26171875 C-59.99336235 172.68058583 -57.38688879 174.55506951 -54.375 176.4375 C-52.76625 177.47777344 -52.76625 177.47777344 -51.125 178.5390625 C-34.22485432 189.01263186 -18.09326216 192.84925025 1.625 192.4375 C1.625 188.8075 1.625 185.1775 1.625 181.4375 C3.5121875 181.5921875 3.5121875 181.5921875 5.4375 181.75 C21.08448726 181.66159894 38.24252134 175.05908367 50.3515625 165.22265625 C52.62758327 163.43547155 53.89286724 163.07537397 56.625 162.4375 C58.36683061 161.05579272 58.36683061 161.05579272 59.875 159.375 C60.39578125 158.82714844 60.9165625 158.27929688 61.453125 157.71484375 C61.83984375 157.29332031 62.2265625 156.87179688 62.625 156.4375 C62.625 160.77083333 62.625 165.10416667 62.625 169.4375 C80.25453105 153.49590278 92.48329656 130.81415956 93.76538086 106.80908203 C94.21633425 93.72581077 93.83802371 81.90102849 89.625 69.4375 C89.33625 68.54546875 89.0475 67.6534375 88.75 66.734375 C85.44759039 57.59377697 80.12583309 47.65613341 73.625 40.4375 C72.965 40.4375 72.305 40.4375 71.625 40.4375 C71.295 45.3875 70.965 50.3375 70.625 55.4375 C68.645 52.715 68.645 52.715 66.625 49.9375 C55.90798349 35.61086584 42.68949452 25.94958437 25.625 20.4375 C24.72652344 20.09976562 23.82804687 19.76203125 22.90234375 19.4140625 C18.40916144 18.07521199 13.88630355 17.46065656 9.25 16.8125 C8.32316406 16.6784375 7.39632812 16.544375 6.44140625 16.40625 C4.16997532 16.07841461 1.89757882 15.75728126 -0.375 15.4375 C-0.375 12.1375 -0.375 8.8375 -0.375 5.4375 C-24.25074666 4.46956432 -48.48111485 14.54361485 -65.375 31.4375 Z " fill="#E3E7EE" transform="translate(98.375,-0.4375)"/>
<path d="M0 0 C5.52205768 4.7952513 10.06288921 9.94474377 14.33203125 15.8671875 C15.32203125 17.1871875 16.31203125 18.5071875 17.33203125 19.8671875 C17.66203125 14.9171875 17.99203125 9.9671875 18.33203125 4.8671875 C22.3376015 6.20237758 23.232105 8.15146893 25.58203125 11.6171875 C26.3090625 12.66390625 27.03609375 13.710625 27.78515625 14.7890625 C29.60364675 18.40767492 29.18501024 19.07490301 28.33203125 22.8671875 C28.25333287 24.85157146 28.22419081 26.83830098 28.234375 28.82421875 C28.23759766 29.93603516 28.24082031 31.04785156 28.24414062 32.19335938 C28.25251953 33.34384766 28.26089844 34.49433594 28.26953125 35.6796875 C28.27629883 37.43442383 28.27629883 37.43442383 28.28320312 39.22460938 C28.29496195 42.10552108 28.31139699 44.98632794 28.33203125 47.8671875 C26.01908305 45.5542393 25.8362215 44.38813875 25.20703125 41.2421875 C25.03945312 40.42492187 24.871875 39.60765625 24.69921875 38.765625 C24.57804688 38.13914063 24.456875 37.51265625 24.33203125 36.8671875 C20.64366789 36.94867093 16.95688528 37.06146018 13.26953125 37.1796875 C11.71202148 37.21352539 11.71202148 37.21352539 10.12304688 37.24804688 C4.05104442 37.46008506 -0.22090762 38.22511494 -5.66796875 40.8671875 C-6.98796875 40.8671875 -8.30796875 40.8671875 -9.66796875 40.8671875 C-10.32796875 41.8571875 -10.98796875 42.8471875 -11.66796875 43.8671875 C-11.99796875 37.5971875 -12.32796875 31.3271875 -12.66796875 24.8671875 C-7.66796875 21.8671875 -7.66796875 21.8671875 -5.66796875 21.8671875 C-5.8689104 19.90575709 -6.10468128 17.94786959 -6.35546875 15.9921875 C-6.48308594 14.90164062 -6.61070312 13.81109375 -6.7421875 12.6875 C-7.38085642 9.67624685 -7.38085642 9.67624685 -10.05859375 8.5078125 C-13.14524457 7.750012 -15.50295104 7.46314269 -18.66796875 7.8671875 C-21.51577494 10.09925181 -22.51794541 11.41711749 -23.66796875 14.8671875 C-58.81296875 14.3721875 -58.81296875 14.3721875 -94.66796875 13.8671875 C-94.66796875 46.5371875 -94.66796875 79.2071875 -94.66796875 112.8671875 C-75.52796875 112.8671875 -56.38796875 112.8671875 -36.66796875 112.8671875 C-36.66796875 113.1971875 -36.66796875 113.5271875 -36.66796875 113.8671875 C-56.13796875 113.8671875 -75.60796875 113.8671875 -95.66796875 113.8671875 C-95.99796875 88.4571875 -96.32796875 63.0471875 -96.66796875 36.8671875 C-106.56796875 36.8671875 -116.46796875 36.8671875 -126.66796875 36.8671875 C-125.84083039 32.73149572 -124.84033304 29.52520902 -123.23046875 25.6796875 C-122.79863281 24.63425781 -122.36679688 23.58882812 -121.921875 22.51171875 C-120.66796875 19.8671875 -120.66796875 19.8671875 -118.66796875 17.8671875 C-118.41015625 17.12210938 -118.15234375 16.37703125 -117.88671875 15.609375 C-116.3063744 12.0536002 -113.91526976 9.66537607 -111.16796875 6.9921875 C-110.63260498 6.46625 -110.09724121 5.9403125 -109.5456543 5.3984375 C-102.42343183 -1.45882605 -94.8927764 -6.5472577 -85.66796875 -10.1328125 C-85.0234375 -10.39707031 -84.37890625 -10.66132813 -83.71484375 -10.93359375 C-55.35232485 -22.174836 -24.09008878 -19.25796263 0 0 Z " fill="#0A7ABC" transform="translate(151.66796875,35.1328125)"/>
<path d="M0 0 C1.01998581 0.00306656 1.01998581 0.00306656 2.06057739 0.00619507 C12.1415839 0.05558051 21.18268496 0.74150811 30.625 4.4375 C31.36234375 4.68757812 32.0996875 4.93765625 32.859375 5.1953125 C34.81544655 5.8760254 36.71180793 6.64467916 38.625 7.4375 C39.53507813 7.78425781 40.44515625 8.13101562 41.3828125 8.48828125 C53.06593908 13.07487954 63.50074564 19.77210562 72.625 28.4375 C72.625 29.0975 72.625 29.7575 72.625 30.4375 C73.615 30.7675 74.605 31.0975 75.625 31.4375 C78.5398808 34.56990921 81.05608532 38.01882961 83.625 41.4375 C84.14449219 42.1078125 84.66398438 42.778125 85.19921875 43.46875 C88.71123652 48.31822111 91.25828932 53.57822213 93.75 59 C94.07484375 59.68900391 94.3996875 60.37800781 94.734375 61.08789062 C100.13934331 73.27104074 102.30870206 85.62840704 102.14648438 98.86474609 C102.12499106 100.93836218 102.14646309 103.00851689 102.171875 105.08203125 C102.20078456 118.20648753 99.49562514 130.68024483 93.9375 142.625 C93.59501221 143.37346191 93.25252441 144.12192383 92.8996582 144.89306641 C85.00255058 161.59470772 72.85089575 175.12915707 57.625 185.4375 C56.81546875 185.99050781 56.0059375 186.54351562 55.171875 187.11328125 C34.12556224 200.59825316 6.8267608 204.9658251 -17.62280273 200.36132812 C-37.60268059 195.92383045 -54.69017066 186.67089697 -69.375 172.4375 C-69.97441406 171.9115625 -70.57382813 171.385625 -71.19140625 170.84375 C-80.01548318 162.81813943 -86.55563799 151.62864137 -90.375 140.4375 C-90.890625 139.261875 -91.40625 138.08625 -91.9375 136.875 C-96.84545887 125.1385766 -98.74847055 114.18718677 -98.74560547 101.48339844 C-98.74995027 99.33706506 -98.78628498 97.19284258 -98.82421875 95.046875 C-98.96775959 77.29510572 -93.50985379 60.70174915 -84.1875 45.625 C-83.74712402 44.912229 -83.30674805 44.19945801 -82.85302734 43.46508789 C-81.75403367 41.74904495 -80.57142927 40.08709009 -79.375 38.4375 C-78.715 38.4375 -78.055 38.4375 -77.375 38.4375 C-77.12363281 37.8703125 -76.87226562 37.303125 -76.61328125 36.71875 C-73.41015665 30.81772549 -67.91240693 25.18339292 -62.375 21.4375 C-61.715 21.4375 -61.055 21.4375 -60.375 21.4375 C-60.375 20.7775 -60.375 20.1175 -60.375 19.4375 C-42.42990972 6.1695875 -22.29207344 -0.16866119 0 0 Z M-33.3125 8.125 C-34.32872437 8.51473999 -34.32872437 8.51473999 -35.36547852 8.91235352 C-45.39459636 12.8911493 -54.10460623 18.55602732 -62.375 25.4375 C-63.07109375 25.99953125 -63.7671875 26.5615625 -64.484375 27.140625 C-66.15910146 28.5205996 -67.77393869 29.97269923 -69.375 31.4375 C-69.375 32.0975 -69.375 32.7575 -69.375 33.4375 C-70.365 33.7675 -71.355 34.0975 -72.375 34.4375 C-74.05735651 36.42465289 -75.56880112 38.37767661 -77.0625 40.5 C-77.50094238 41.12052246 -77.93938477 41.74104492 -78.39111328 42.38037109 C-93.62182823 64.53363644 -99.74687646 89.84973658 -95.125 116.4375 C-93.85321421 123.05711489 -92.12281324 129.27802873 -89.375 135.4375 C-89.11090332 136.03385254 -88.84680664 136.63020508 -88.57470703 137.24462891 C-77.23505614 162.43758465 -58.02459984 180.80908102 -32.09375 190.6875 C-19.01932333 195.00333016 -6.01079792 195.86495448 7.625 195.4375 C8.58019531 195.41945312 9.53539063 195.40140625 10.51953125 195.3828125 C28.95409838 194.44311942 47.55703791 184.90190457 61.625 173.4375 C62.88376953 172.42429688 62.88376953 172.42429688 64.16796875 171.390625 C81.23780955 156.88787654 93.36265349 134.8573539 95.625 112.4375 C96.57850473 92.53455496 96.17843318 74.31825729 86.625 56.4375 C86.06039062 55.32890625 85.49578125 54.2203125 84.9140625 53.078125 C80.2946976 44.30024592 74.57003082 37.46671301 67.625 30.4375 C67.04234375 29.78265625 66.4596875 29.1278125 65.859375 28.453125 C53.24179365 14.56104048 31.07214489 4.71825277 12.625 3.4375 C-3.02927969 2.74622797 -18.50511114 2.37220038 -33.3125 8.125 Z " fill="#231F20" transform="translate(98.375,-0.4375)"/>
<path d="M0 0 C0.92310229 12.92343205 -0.39992394 20.81817471 -7 32 C-14.59093232 47.60048223 -14.44307365 71.20083855 -9.1875 87.5234375 C-6.23998284 95.30979533 -2.86130567 104.02174586 2.8125 110.1875 C6.09251357 114.33666544 5.54976037 119.81552347 5.46020508 124.87182617 C5.47664516 129.04150037 5.74017368 130.70248282 8.53125 133.8984375 C9.3459375 134.59195313 10.160625 135.28546875 11 136 C11 136.66 11 137.32 11 138 C-1.16531427 133.95207242 -10.63531539 118.65307864 -16.30078125 107.67578125 C-27.87292399 84.21551515 -30.84612834 58.11488599 -22.74609375 33.0078125 C-11.45040366 0 -11.45040366 0 0 0 Z " fill="#F8F8F9" transform="translate(29,36)"/>
<path d="M0 0 C3.95485055 2.10001498 6.87398864 4.82338774 10 8 C10.63421875 8.57363281 11.2684375 9.14726563 11.921875 9.73828125 C16.78249514 14.24403311 20.31656946 19.51244022 24 25 C24.33 20.05 24.66 15.1 25 10 C29.00557025 11.33519008 29.90007375 13.28428143 32.25 16.75 C32.97703125 17.79671875 33.7040625 18.8434375 34.453125 19.921875 C36.2716155 23.54048742 35.85297899 24.20771551 35 28 C34.92130162 29.98438396 34.89215956 31.97111348 34.90234375 33.95703125 C34.90556641 35.06884766 34.90878906 36.18066406 34.91210938 37.32617188 C34.92048828 38.47666016 34.92886719 39.62714844 34.9375 40.8125 C34.94201172 41.98232422 34.94652344 43.15214844 34.95117188 44.35742188 C34.9629307 47.23833358 34.97936574 50.11914044 35 53 C32.6870518 50.6870518 32.50419025 49.52095125 31.875 46.375 C31.70742187 45.55773437 31.53984375 44.74046875 31.3671875 43.8984375 C31.24601562 43.27195313 31.12484375 42.64546875 31 42 C27.31163664 42.08148343 23.62485403 42.19427268 19.9375 42.3125 C18.37999023 42.34633789 18.37999023 42.34633789 16.79101562 42.38085938 C10.71901317 42.59289756 6.44706113 43.35792744 1 46 C-0.32 46 -1.64 46 -3 46 C-3.66 46.99 -4.32 47.98 -5 49 C-5.33 42.73 -5.66 36.46 -6 30 C-1 27 -1 27 1 27 C0.79905835 25.03856959 0.56328747 23.08068209 0.3125 21.125 C0.18488281 20.03445312 0.05726563 18.94390625 -0.07421875 17.8203125 C-0.71288767 14.80905935 -0.71288767 14.80905935 -3.390625 13.640625 C-6.47727582 12.8828245 -8.83498229 12.59595519 -12 13 C-14.84780619 15.23206431 -15.84997666 16.54992999 -17 20 C-40.43 19.67 -63.86 19.34 -88 19 C-88 18.67 -88 18.34 -88 18 C-69.85 18 -51.7 18 -33 18 C-32.34 16.02 -31.68 14.04 -31 12 C-24.28867821 1.18494004 -12.04226023 -1.77926329 0 0 Z " fill="#1B62A8" transform="translate(145,30)"/>
<path d="M0 0 C1.3137561 0.56255493 1.3137561 0.56255493 2.65405273 1.13647461 C8.74342643 3.94727977 8.74342643 3.94727977 10.6953125 7.4140625 C10.90800781 8.50847656 10.90800781 8.50847656 11.125 9.625 C11.785 9.625 12.445 9.625 13.125 9.625 C14.47954941 10.93677416 15.80975556 12.27381992 17.125 13.625 C18.54682784 14.72882198 19.9849015 15.81199719 21.4375 16.875 C23.00556586 18.11801075 24.568113 19.36801586 26.125 20.625 C26.84300781 21.16382812 27.56101563 21.70265625 28.30078125 22.2578125 C31.1058804 24.76497527 32.94641388 26.76716453 33.31884766 30.64160156 C33.34809658 35.68324892 32.79982973 40.63466247 32.125 45.625 C29.10407492 42.6912663 26.3972917 39.78962087 23.9375 36.375 C14.07132049 23.54683572 1.2514607 15.80955072 -13.875 10.625 C-14.76832031 10.28339844 -15.66164063 9.94179688 -16.58203125 9.58984375 C-21.24122888 8.22469332 -25.94451401 7.63812687 -30.75 7 C-31.72453125 6.8659375 -32.6990625 6.731875 -33.703125 6.59375 C-36.09305382 6.26572055 -38.48393746 5.94466077 -40.875 5.625 C-40.545 1.995 -40.215 -1.635 -39.875 -5.375 C-56.61419094 -3.81786596 -71.02597459 -0.50248213 -85.875 7.625 C-86.88626953 8.13160156 -86.88626953 8.13160156 -87.91796875 8.6484375 C-89.62947393 9.53468009 -91.25276137 10.58431862 -92.875 11.625 C-93.80699219 12.15609375 -94.73898438 12.6871875 -95.69921875 13.234375 C-101.39037143 16.89593275 -101.39037143 16.89593275 -104.39892578 22.73583984 C-104.75851349 25.9546539 -104.84234836 29.09260164 -104.72802734 32.32861328 C-104.70305176 33.08255371 -104.67807617 33.83649414 -104.65234375 34.61328125 C-104.60327881 35.28915283 -104.55421387 35.96502441 -104.50366211 36.66137695 C-104.875 38.625 -104.875 38.625 -108.875 42.625 C-108.875 37.015 -108.875 31.405 -108.875 25.625 C-112.34 28.1 -112.34 28.1 -115.875 30.625 C-114.50555898 27.67543472 -112.99669591 25.10031189 -110.875 22.625 C-110.215 22.625 -109.555 22.625 -108.875 22.625 C-108.64425781 22.05265625 -108.41351563 21.4803125 -108.17578125 20.890625 C-100.06114452 6.75702349 -78.14526464 -1.34797466 -63.32421875 -5.796875 C-42.58033249 -10.69335852 -19.39205456 -8.37474047 0 0 Z " fill="#EBEEF3" transform="translate(137.875,10.375)"/>
<path d="M0 0 C0 3.3 0 6.6 0 10 C8.25 11.32 16.5 12.64 25 14 C25 14.33 25 14.66 25 15 C21.10175054 15.07496634 17.7597078 14.9402668 14 14 C4.0204109 13.28364634 -6.29839658 13.4789994 -16 16 C-17.14082031 16.29132812 -18.28164062 16.58265625 -19.45703125 16.8828125 C-35.18938509 21.13842259 -46.15465368 27.83803904 -58 39 C-58.55171875 39.49886719 -59.1034375 39.99773438 -59.671875 40.51171875 C-62.48930948 43.13856207 -63.76564144 45.37921488 -65 49 C-65.57091518 50.33869766 -66.15600177 51.67138355 -66.75 53 C-67.09417969 53.77859375 -67.43835938 54.5571875 -67.79296875 55.359375 C-68.6612319 57.25887626 -69.5639758 59.14275411 -70.48828125 61.015625 C-71.00777344 62.08296875 -71.52726562 63.1503125 -72.0625 64.25 C-72.79146484 65.71179688 -72.79146484 65.71179688 -73.53515625 67.203125 C-77.84975087 77.44022862 -78.41218546 87.8490016 -78.1875 98.8125 C-78.17396484 100.08931641 -78.16042969 101.36613281 -78.14648438 102.68164062 C-78.11157893 105.78822548 -78.06255244 108.89387016 -78 112 C-78.66 112 -79.32 112 -80 112 C-81.74857791 105.97018173 -82.32122037 100.57687496 -82.25 94.3125 C-82.23767334 92.99149292 -82.23767334 92.99149292 -82.22509766 91.64379883 C-81.94824923 75.38267515 -78.08934793 56.08934793 -66 44 C-66 41.97224307 -66.00196008 39.94446216 -66.01513672 37.91674805 C-65.95130458 27.46166111 -65.95130458 27.46166111 -63.1796875 23.203125 C-60.88989085 21.20052318 -58.59396219 19.58354811 -56 18 C-54.893337 17.1281594 -53.78893875 16.2534314 -52.6875 15.375 C-37.19311252 4.80903325 -18.61846764 -0.48359656 0 0 Z " fill="#0B4667" transform="translate(98,5)"/>
<path d="M0 0 C1.01998581 0.00306656 1.01998581 0.00306656 2.06057739 0.00619507 C12.1415839 0.05558051 21.18268496 0.74150811 30.625 4.4375 C31.36234375 4.68757812 32.0996875 4.93765625 32.859375 5.1953125 C34.81557406 5.87606977 36.71188886 6.64407794 38.625 7.4375 C40.02492187 7.97503906 40.02492187 7.97503906 41.453125 8.5234375 C49.57141651 11.72587913 57.95433809 15.5340855 63.625 22.4375 C63.625 23.0975 63.625 23.7575 63.625 24.4375 C64.45451172 24.77007813 64.45451172 24.77007813 65.30078125 25.109375 C78.58668828 32.70132188 87.44973467 50.85498547 92.625 64.4375 C93.181875 65.571875 93.73875 66.70625 94.3125 67.875 C96.29058772 73.24409524 96.90186263 78.78001352 97.625 84.4375 C96.635 84.4375 95.645 84.4375 94.625 84.4375 C94.39425781 83.33792969 94.16351563 82.23835938 93.92578125 81.10546875 C92.02520532 72.35746296 89.87046634 64.38356 85.625 56.4375 C85.06039062 55.32890625 84.49578125 54.2203125 83.9140625 53.078125 C79.30098128 44.30772438 73.64692207 37.39009421 66.625 30.4375 C65.84511719 29.63570312 65.06523437 28.83390625 64.26171875 28.0078125 C46.5292099 10.78194676 22.91100701 4.22485795 -1.1875 4.125 C-2.32002197 4.11944092 -3.45254395 4.11388184 -4.61938477 4.1081543 C-14.62874664 4.19381704 -23.96120772 5.49194145 -33.3125 9.125 C-33.98998291 9.38482666 -34.66746582 9.64465332 -35.36547852 9.91235352 C-45.41337251 13.89859825 -54.05859489 19.59066045 -62.375 26.4375 C-63.365 27.18 -64.355 27.9225 -65.375 28.6875 C-82.08938708 42.90858072 -93.09090647 66.8424339 -95.375 88.4375 C-96.38425934 104.46820837 -94.9807751 120.63005917 -88.375 135.4375 C-88.11090332 136.03385254 -87.84680664 136.63020508 -87.57470703 137.24462891 C-76.84619197 161.07984286 -59.47499448 178.12419859 -35.375 188.4375 C-31.08181216 189.93967131 -26.76847569 191.26250069 -22.375 192.4375 C-22.705 193.0975 -23.035 193.7575 -23.375 194.4375 C-29.21865791 193.9304863 -33.86700252 192.74468992 -39.1875 190.3125 C-39.88254639 189.99974121 -40.57759277 189.68698242 -41.29370117 189.36474609 C-56.00982505 182.57896841 -67.89282317 172.70431359 -78.375 160.4375 C-78.94089844 159.83164063 -79.50679687 159.22578125 -80.08984375 158.6015625 C-93.54312521 144.01861619 -98.7499275 120.64727413 -98.74560547 101.48339844 C-98.74995027 99.33706506 -98.78628498 97.19284258 -98.82421875 95.046875 C-98.96775959 77.29510572 -93.50985379 60.70174915 -84.1875 45.625 C-83.74712402 44.912229 -83.30674805 44.19945801 -82.85302734 43.46508789 C-81.75403367 41.74904495 -80.57142927 40.08709009 -79.375 38.4375 C-78.715 38.4375 -78.055 38.4375 -77.375 38.4375 C-77.12363281 37.8703125 -76.87226562 37.303125 -76.61328125 36.71875 C-73.41015665 30.81772549 -67.91240693 25.18339292 -62.375 21.4375 C-61.715 21.4375 -61.055 21.4375 -60.375 21.4375 C-60.375 20.7775 -60.375 20.1175 -60.375 19.4375 C-42.42990972 6.1695875 -22.29207344 -0.16866119 0 0 Z " fill="#6E6D6E" transform="translate(98.375,-0.4375)"/>
<path d="M0 0 C4.58395782 -0.10771702 9.16539636 -0.18719721 13.75 -0.25 C15.05195312 -0.28351563 16.35390625 -0.31703125 17.6953125 -0.3515625 C18.94570312 -0.36445312 20.19609375 -0.37734375 21.484375 -0.390625 C22.63647461 -0.41157227 23.78857422 -0.43251953 24.97558594 -0.45410156 C28.63774977 0.09575513 29.77871661 1.09598882 32 4 C32.53125 6.40234375 32.53125 6.40234375 32.5 8.9375 C32.5103125 9.77152344 32.520625 10.60554688 32.53125 11.46484375 C31.80654598 14.92317395 30.49361039 16.50844112 28 19 C24.97558594 19.56762695 24.97558594 19.56762695 21.484375 19.48828125 C20.23398438 19.47216797 18.98359375 19.45605469 17.6953125 19.43945312 C16.39335938 19.39755859 15.09140625 19.35566406 13.75 19.3125 C11.77386719 19.27866211 11.77386719 19.27866211 9.7578125 19.24414062 C6.50472419 19.18520787 3.25221938 19.09552864 0 19 C0 12.73 0 6.46 0 0 Z " fill="#1C55A0" transform="translate(83,107)"/>
<path d="M0 0 C2.41320802 1.43774608 4.81604759 2.88252055 7.18359375 4.39453125 C19.24077585 11.97989885 31.47573231 16.78455555 45.6796875 17.75390625 C48 18 48 18 50 19 C50 22.3 50 25.6 50 29 C32.81390957 29.83608008 14.85211179 24.45975788 1 14 C-0.15770664 10.94128644 -0.10517756 7.99349494 -0.0625 4.75 C-0.05347656 3.85796875 -0.04445312 2.9659375 -0.03515625 2.046875 C-0.02355469 1.37140625 -0.01195312 0.6959375 0 0 Z " fill="#072D45" transform="translate(45,163)"/>
<path d="M0 0 C0 2.97 0 5.94 0 9 C-1.32 9.2475 -2.64 9.495 -4 9.75 C-6.00107189 10.16148802 -8.00093113 10.57888864 -10 11 C-11.20914063 11.24492187 -12.41828125 11.48984375 -13.6640625 11.7421875 C-22.0465388 13.56186724 -29.30462662 16.26946942 -36.85986328 20.35791016 C-41.74554337 23 -41.74554337 23 -45 23 C-45.77397545 13.98748591 -45.77397545 13.98748591 -43.1875 10.6875 C-42.135625 10.130625 -41.08375 9.57375 -40 9 C-39.25621094 8.60425781 -38.51242188 8.20851563 -37.74609375 7.80078125 C-25.54603885 1.74620855 -13.52087301 -0.7500022 0 0 Z " fill="#032A42" transform="translate(95,6)"/>
<path d="M0 0 C5.6731749 4.89956014 7.15299095 13.84849657 8 21 C8.24127378 25.06393305 8.30190369 29.11695905 8.3125 33.1875 C8.32047607 34.70114136 8.32047607 34.70114136 8.32861328 36.24536133 C8.23958935 45.79356817 6.35905231 54.49150677 3.5 63.5625 C3.28730469 64.27212891 3.07460937 64.98175781 2.85546875 65.71289062 C2.29924113 67.4958902 1.65650128 69.2514341 1 71 C0.01 71.495 0.01 71.495 -1 72 C-1.02312524 62.76002448 -1.04091601 53.52005886 -1.05181217 44.28006077 C-1.05704061 39.99000085 -1.06413753 35.69996067 -1.07543945 31.40991211 C-1.08626975 27.273206 -1.09227714 23.13651892 -1.09487724 18.99979973 C-1.09673124 17.41807696 -1.10035136 15.83635529 -1.10573006 14.25464058 C-1.1129424 12.04677162 -1.11399086 9.83898227 -1.11352539 7.63110352 C-1.115746 6.37201675 -1.11796661 5.11292999 -1.12025452 3.81568909 C-1 1 -1 1 0 0 Z " fill="#0F5483" transform="translate(184,64)"/>
<path d="M0 0 C4.27100028 -0.05379846 8.54132732 -0.09357782 12.8125 -0.125 C14.02744141 -0.14175781 15.24238281 -0.15851563 16.49414062 -0.17578125 C17.65751953 -0.18222656 18.82089844 -0.18867187 20.01953125 -0.1953125 C21.62985229 -0.21102295 21.62985229 -0.21102295 23.27270508 -0.22705078 C26 0 26 0 29 2 C29.43359375 4.71484375 29.43359375 4.71484375 29.4375 7.9375 C29.46650391 9.52884766 29.46650391 9.52884766 29.49609375 11.15234375 C29 14 29 14 27.33520508 15.65966797 C24.40221491 17.34310926 22.50946398 17.34453261 19.140625 17.29296875 C18.02558594 17.28330078 16.91054687 17.27363281 15.76171875 17.26367188 C14.02341797 17.2259668 14.02341797 17.2259668 12.25 17.1875 C10.48849609 17.16719727 10.48849609 17.16719727 8.69140625 17.14648438 C5.79407483 17.11115106 2.89697935 17.0573449 0 17 C0 11.39 0 5.78 0 0 Z " fill="#15549F" transform="translate(84,71)"/>
<path d="M0 0 C3.26338206 2.33098719 3.96230305 5.21284959 5 9 C5.1171875 12.5078125 5.1171875 12.5078125 4.875 16.125 C4.81054688 17.32382812 4.74609375 18.52265625 4.6796875 19.7578125 C3.90175528 23.4686386 2.97901487 24.72451631 0 27 C-2.75 27.75 -2.75 27.75 -5 28 C-5 28.66 -5 29.32 -5 30 C-5.99 30 -6.98 30 -8 30 C-8 33.63 -8 37.26 -8 41 C-8.33 41 -8.66 41 -9 41 C-9.495 31.595 -9.495 31.595 -10 22 C-5 19 -5 19 -3 19 C-3.20094165 17.03856959 -3.43671253 15.08068209 -3.6875 13.125 C-3.81511719 12.03445312 -3.94273437 10.94390625 -4.07421875 9.8203125 C-4.71288767 6.80905935 -4.71288767 6.80905935 -7.390625 5.640625 C-10.47727582 4.8828245 -12.83498229 4.59595519 -16 5 C-18.84780619 7.23206431 -19.84997666 8.54992999 -21 12 C-23.31 12 -25.62 12 -28 12 C-26.83399692 3.85538145 -26.83399692 3.85538145 -23.5625 0.5 C-16.85207479 -3.42805378 -6.97482965 -3.39799393 0 0 Z " fill="#759FD0" transform="translate(149,38)"/>
<path d="M0 0 C1.77734375 0.99609375 1.77734375 0.99609375 4.96484375 3.24609375 C6.32609375 4.20515625 6.32609375 4.20515625 7.71484375 5.18359375 C12.69663108 9.75023214 13.55628415 13.95641684 13.953125 20.53515625 C13.97807956 26.3079789 12.62219508 29.84669411 8.71484375 33.99609375 C5.73060896 36.7801283 2.75993617 38.67251884 -1.03515625 40.24609375 C-1.36515625 39.25609375 -1.69515625 38.26609375 -2.03515625 37.24609375 C-1.04515625 37.24609375 -0.05515625 37.24609375 0.96484375 37.24609375 C0.96484375 36.58609375 0.96484375 35.92609375 0.96484375 35.24609375 C1.91359375 34.79234375 2.86234375 34.33859375 3.83984375 33.87109375 C6.96798054 32.44371121 6.96798054 32.44371121 8.96484375 30.24609375 C10.20337569 22.63511519 10.45500249 15.57009003 7.96484375 8.24609375 C0.37131717 5.90962403 -8.68224716 4.21789447 -16.16015625 7.74609375 C-19.91825474 10.53189473 -19.91825474 10.53189473 -21.03515625 18.24609375 C-42.48515625 18.24609375 -63.93515625 18.24609375 -86.03515625 18.24609375 C-86.03515625 17.91609375 -86.03515625 17.58609375 -86.03515625 17.24609375 C-67.88515625 17.24609375 -49.73515625 17.24609375 -31.03515625 17.24609375 C-30.37515625 15.26609375 -29.71515625 13.28609375 -29.03515625 11.24609375 C-23.26706769 1.95102109 -10.72528231 -3.97308922 0 0 Z " fill="#679ACC" transform="translate(143.03515625,30.75390625)"/>
<path d="M0 0 C9.30623687 1.05752692 18.34368963 3.44501434 27 7 C27.93714844 7.35964844 28.87429687 7.71929688 29.83984375 8.08984375 C37.95389016 11.29248754 46.33193872 15.09975149 52 22 C52 22.66 52 23.32 52 24 C52.82951172 24.33257813 52.82951172 24.33257813 53.67578125 24.671875 C66.96168828 32.26382188 75.82473467 50.41748547 81 64 C81.556875 65.134375 82.11375 66.26875 82.6875 67.4375 C84.66558772 72.80659524 85.27686263 78.34251352 86 84 C85.01 84 84.02 84 83 84 C82.76925781 82.90042969 82.53851563 81.80085938 82.30078125 80.66796875 C80.40020532 71.91996296 78.24546634 63.94606 74 56 C73.43539062 54.89140625 72.87078125 53.7828125 72.2890625 52.640625 C67.67598128 43.87022438 62.02192207 36.95259421 55 30 C53.83017578 28.79730469 53.83017578 28.79730469 52.63671875 27.5703125 C45.67168442 20.80427915 37.59954069 16.34743472 29 12 C28.00097656 11.49339844 27.00195312 10.98679687 25.97265625 10.46484375 C17.08563336 6.3890282 7.55207911 4.7885169 -2 3 C-1.34 2.67 -0.68 2.34 0 2 C0 1.34 0 0.68 0 0 Z " fill="#424042" transform="translate(110,0)"/>
<path d="M0 0 C1.22912109 0.01353516 2.45824219 0.02707031 3.72460938 0.04101562 C6.71272513 0.07589635 9.69985873 0.12490302 12.6875 0.1875 C12.6875 0.8475 12.6875 1.5075 12.6875 2.1875 C10.19825244 3.43212378 8.41262962 3.36158209 5.62890625 3.43359375 C4.60216797 3.46646484 3.57542969 3.49933594 2.51757812 3.53320312 C0.3744289 3.59341114 -1.76880176 3.65080042 -3.91210938 3.70507812 C-13.76214374 4.02913264 -23.03341692 5.29427715 -32.25 8.875 C-33.26622437 9.26473999 -33.26622437 9.26473999 -34.30297852 9.66235352 C-44.35087251 13.64859825 -52.99609489 19.34066045 -61.3125 26.1875 C-62.3025 26.93 -63.2925 27.6725 -64.3125 28.4375 C-71.75183242 34.77015487 -77.22074629 43.20017738 -82.21801758 51.50366211 C-84.22468553 54.77666939 -86.04542423 57.13181187 -89.3125 59.1875 C-87.97906822 54.72717068 -86.2001547 50.99122787 -83.8125 47 C-83.2040625 45.97519531 -82.595625 44.95039062 -81.96875 43.89453125 C-80.78964577 41.96736325 -79.56571289 40.06731934 -78.3125 38.1875 C-77.6525 38.1875 -76.9925 38.1875 -76.3125 38.1875 C-76.06113281 37.6203125 -75.80976562 37.053125 -75.55078125 36.46875 C-72.34765665 30.56772549 -66.84990693 24.93339292 -61.3125 21.1875 C-60.6525 21.1875 -59.9925 21.1875 -59.3125 21.1875 C-59.3125 20.5275 -59.3125 19.8675 -59.3125 19.1875 C-41.74676284 6.20006667 -21.86794924 -0.46629307 0 0 Z " fill="#848384" transform="translate(97.3125,-0.1875)"/>
<path d="M0 0 C0.66 0.33 1.32 0.66 2 1 C1.27296875 1.44988281 0.5459375 1.89976563 -0.203125 2.36328125 C-8.30472762 7.5462296 -15.10362204 13.31134427 -22 20 C-22.7528125 20.72316406 -23.505625 21.44632813 -24.28125 22.19140625 C-26.35467731 24.37321726 -26.99050787 26.16080338 -28 29 C-28.5722762 30.3381164 -29.15712168 31.67088343 -29.75 33 C-30.09417969 33.77859375 -30.43835937 34.5571875 -30.79296875 35.359375 C-31.6612319 37.25887626 -32.5639758 39.14275411 -33.48828125 41.015625 C-34.00777344 42.08296875 -34.52726562 43.1503125 -35.0625 44.25 C-35.79146484 45.71179688 -35.79146484 45.71179688 -36.53515625 47.203125 C-40.84975087 57.44022862 -41.41218546 67.8490016 -41.1875 78.8125 C-41.17396484 80.08931641 -41.16042969 81.36613281 -41.14648438 82.68164062 C-41.11157893 85.78822548 -41.06255244 88.89387016 -41 92 C-41.66 92 -42.32 92 -43 92 C-44.74857791 85.97018173 -45.32122037 80.57687496 -45.25 74.3125 C-45.23767334 72.99149292 -45.23767334 72.99149292 -45.22509766 71.64379883 C-44.83110137 48.50181283 -36.13196942 29.69038524 -19.65869141 13.51171875 C-15.18813536 9.43728792 -10.12923499 6.18081418 -5 3 C-4.09121094 2.40445312 -3.18242188 1.80890625 -2.24609375 1.1953125 C-1.50488281 0.80085938 -0.76367188 0.40640625 0 0 Z " fill="#143367" transform="translate(61,25)"/>
<path d="M0 0 C15.91947556 9.59684697 15.91947556 9.59684697 18.78515625 17.0390625 C19.07316438 19.07540166 19.07460621 20.94636582 19 23 C19.10248047 24.15048828 19.10248047 24.15048828 19.20703125 25.32421875 C19.50130712 29.46461185 19.55651757 31.31253712 16.875 34.625 C15.92625 35.40875 14.9775 36.1925 14 37 C13.00631706 38.2174614 12.02766138 39.44730583 11.0625 40.6875 C8.35707597 43.87157597 6.22483342 45.28087942 2 46 C-0.875 45.625 -0.875 45.625 -3 45 C-3 43.35 -3 41.7 -3 40 C-2.34 39.814375 -1.68 39.62875 -1 39.4375 C4.47245615 36.81528143 8.91144291 33.26419875 11.5625 27.75 C12.26431734 21.73442277 12.09388195 15.89556986 9.9375 10.1875 C7.48123043 7.41429242 4.69672644 5.4163231 1.64453125 3.33203125 C1.10183594 2.89246094 0.55914062 2.45289063 0 2 C0 1.34 0 0.68 0 0 Z " fill="#397BBA" transform="translate(144,30)"/>
<path d="M0 0 C6.95121905 4.04255292 14.24111223 8.70866348 18 16 C18.77548511 21.68557865 17.89399133 27.37503266 17 33 C13.15662989 29.26192771 9.91132015 25.3930837 6.71484375 21.10546875 C4.97749692 18.79700934 4.97749692 18.79700934 2.0625 16.8125 C-1.52869456 11.91541651 -0.35707433 5.86395398 0 0 Z " fill="#7A96BA" transform="translate(153,23)"/>
<path d="M0 0 C1.88151564 6.66930096 3.71895205 15.23442066 0.75 21.73828125 C-1.02850712 24.0368429 -2.88655836 26.00686813 -5 28 C-5.66902344 28.69222656 -6.33804688 29.38445312 -7.02734375 30.09765625 C-8.65308696 31.76994425 -10.30536934 33.3980847 -12 35 C-12 30.66666667 -12 26.33333333 -12 22 C-14.31 24.31 -16.62 26.62 -19 29 C-19.66 28.34 -20.32 27.68 -21 27 C-20.43152344 26.46632812 -19.86304688 25.93265625 -19.27734375 25.3828125 C-11.39563098 17.77742021 -5.68464747 9.3021504 0 0 Z " fill="#6888B0" transform="translate(173,134)"/>
<path d="M0 0 C0.66 0 1.32 0 2 0 C2 10.89 2 21.78 2 33 C2.66 33 3.32 33 4 33 C2.46197215 38.84450583 -0.4560838 44.12711522 -4 49 C-4.66 49 -5.32 49 -6 49 C-7.85823462 28.92755999 -7.85823462 28.92755999 -4.125 21.78515625 C-1.38543095 15.00282037 -0.97730712 7.2113419 0 0 Z " fill="#3A6997" transform="translate(180,103)"/>
<path d="M0 0 C0 0.66 0 1.32 0 2 C-0.92039063 2.20753906 -1.84078125 2.41507812 -2.7890625 2.62890625 C-12.34795003 4.95535647 -20.3656106 8.27404367 -29 13 C-30.01126953 13.50660156 -30.01126953 13.50660156 -31.04296875 14.0234375 C-32.75447393 14.90968009 -34.37776137 15.95931862 -36 17 C-36.93199219 17.53109375 -37.86398438 18.0621875 -38.82421875 18.609375 C-44.51537143 22.27093275 -44.51537143 22.27093275 -47.52392578 28.11083984 C-47.88351349 31.3296539 -47.96734836 34.46760164 -47.85302734 37.70361328 C-47.82805176 38.45755371 -47.80307617 39.21149414 -47.77734375 39.98828125 C-47.72827881 40.66415283 -47.67921387 41.34002441 -47.62866211 42.03637695 C-48 44 -48 44 -52 48 C-52 42.39 -52 36.78 -52 31 C-55.465 33.475 -55.465 33.475 -59 36 C-57.63055898 33.05043472 -56.12169591 30.47531189 -54 28 C-53.34 28 -52.68 28 -52 28 C-51.76925781 27.42765625 -51.53851563 26.8553125 -51.30078125 26.265625 C-43.08560569 11.95691081 -21.05287575 4.10007732 -6.15625 -0.6171875 C-3.77297487 -1.04030519 -2.27801872 -0.75588803 0 0 Z " fill="#DFE1E3" transform="translate(81,5)"/>
<path d="M0 0 C4.00557025 1.33519008 4.90007375 3.28428143 7.25 6.75 C7.97703125 7.79671875 8.7040625 8.8434375 9.453125 9.921875 C11.2716155 13.54048742 10.85297899 14.20771551 10 18 C9.92130162 19.98438396 9.89215956 21.97111348 9.90234375 23.95703125 C9.90556641 25.06884766 9.90878906 26.18066406 9.91210938 27.32617188 C9.92048828 28.47666016 9.92886719 29.62714844 9.9375 30.8125 C9.94201172 31.98232422 9.94652344 33.15214844 9.95117188 34.35742188 C9.9629307 37.23833358 9.97936574 40.11914044 10 43 C7.37203068 40.37203068 7.11207204 38.15456075 6.1875 34.5625 C4.93197788 29.87807086 3.51371612 25.87034441 1.1875 21.625 C-2.24243523 14.65010123 -0.94627289 7.4671237 0 0 Z " fill="#48729F" transform="translate(170,40)"/>
<path d="M0 0 C2.82437223 2.68345995 5.04509989 5.37701563 7.1875 8.625 C20.99846847 28.59372511 39.806892 40.86246211 63 47 C62.505 47.99 62.505 47.99 62 49 C56.15634209 48.4929863 51.50799748 47.30718992 46.1875 44.875 C45.49245361 44.56224121 44.79740723 44.24948242 44.08129883 43.92724609 C29.37423002 37.14564381 17.4630548 27.27475106 7 15 C6.39929688 14.33613281 5.79859375 13.67226562 5.1796875 12.98828125 C2.37832721 9.86889214 0.04157573 7.16630292 -1 3 C-0.67 2.01 -0.34 1.02 0 0 Z " fill="#414041" transform="translate(13,145)"/>
<path d="M0 0 C3.5711751 1.70304214 6.91419356 3.72747852 10.3125 5.75 C26.39155296 15.07619155 41.60616796 18.18913501 60 19 C60 15.37 60 11.74 60 8 C61.98 8 63.96 8 66 8 C65.67 11.63 65.34 15.26 65 19 C52.68717913 23.10427362 37.84741893 21.70609958 26 17 C24.96746094 16.62488281 23.93492188 16.24976563 22.87109375 15.86328125 C14.0000844 12.45309758 5.57728831 7.95791842 -1 1 C-0.67 0.67 -0.34 0.34 0 0 Z " fill="#DCDEE0" transform="translate(40,173)"/>
<path d="M0 0 C0.66 0 1.32 0 2 0 C4.26264144 3.98224893 5.17187423 5.65881079 4 10 C3.88434061 12.32202213 3.82353066 14.6469579 3.79467773 16.97167969 C3.78477814 17.6647673 3.77487854 18.35785492 3.76467896 19.07194519 C3.73317581 21.35522078 3.70835098 23.63851714 3.68359375 25.921875 C3.66301455 27.508001 3.64201782 29.09412164 3.62062073 30.68023682 C3.56549979 34.84930061 3.51604663 39.01841308 3.46777344 43.18756104 C3.41748544 47.44409503 3.36183751 51.70055858 3.30664062 55.95703125 C3.19918113 64.30462789 3.0977092 72.65228357 3 81 C2.67 81 2.34 81 2 81 C1.96241577 79.61047119 1.96241577 79.61047119 1.92407227 78.19287109 C1.82771578 74.68514526 1.72857773 71.17751912 1.62768555 67.66992188 C1.58494133 66.16506928 1.54323809 64.66018668 1.50268555 63.15527344 C1.25954052 46.99798418 1.25954052 46.99798418 -0.5246582 30.97875977 C-1.00772189 27.95161028 -1.12934632 25.1141397 -1.1328125 22.05078125 C-1.13410156 20.95572266 -1.13539063 19.86066406 -1.13671875 18.73242188 C-1.13285156 17.60384766 -1.12898437 16.47527344 -1.125 15.3125 C-1.12886719 14.17232422 -1.13273438 13.03214844 -1.13671875 11.85742188 C-1.13478516 10.22063477 -1.13478516 10.22063477 -1.1328125 8.55078125 C-1.13168457 7.55731689 -1.13055664 6.56385254 -1.12939453 5.5402832 C-1 3 -1 3 0 0 Z " fill="#2F6492" transform="translate(180,55)"/>
<path d="M0 0 C2 1.375 2 1.375 4 3 C4 3.66 4 4.32 4 5 C4.598125 5.2475 5.19625 5.495 5.8125 5.75 C8.45090969 7.25766268 9.44736526 8.37777245 11 11 C11.51171875 14.453125 11.51171875 14.453125 11.6875 18.25 C11.75324219 19.51328125 11.81898437 20.7765625 11.88671875 22.078125 C11.92410156 23.04234375 11.96148437 24.0065625 12 25 C7.20326326 22.68805932 2.94838347 20.58403431 0 16 C-1.00483075 10.73550162 -0.45825271 5.30172927 0 0 Z " fill="#325D77" transform="translate(34,151)"/>
<path d="M0 0 C2.12109375 0.5546875 2.12109375 0.5546875 5.12109375 2.5546875 C6.35991953 6.49640588 6.50050358 10.4570613 6.12109375 14.5546875 C4.30859375 16.4921875 4.30859375 16.4921875 2.12109375 17.5546875 C1.13109375 17.5546875 0.14109375 17.5546875 -0.87890625 17.5546875 C-1.20890625 18.2146875 -1.53890625 18.8746875 -1.87890625 19.5546875 C-2.53890625 17.5746875 -3.19890625 15.5946875 -3.87890625 13.5546875 C-2.55890625 12.8946875 -1.23890625 12.2346875 0.12109375 11.5546875 C0.12109375 9.9046875 0.12109375 8.2546875 0.12109375 6.5546875 C-2.79524754 6.3044718 -2.79524754 6.3044718 -5.87890625 6.5546875 C-6.86890625 8.0396875 -6.86890625 8.0396875 -7.87890625 9.5546875 C-10.18890625 9.2246875 -12.49890625 8.8946875 -14.87890625 8.5546875 C-13.88890625 8.2246875 -12.89890625 7.8946875 -11.87890625 7.5546875 C-11.73453125 6.9565625 -11.59015625 6.3584375 -11.44140625 5.7421875 C-9.77601976 -0.73431553 -5.72525078 -0.79168729 0 0 Z " fill="#CAD5EB" transform="translate(139.87890625,42.4453125)"/>
<path d="M0 0 C0.99 0.99 0.99 0.99 2 2 C-15.90642439 17.51890114 -39.98103553 22.32020198 -63 22 C-63 21.34 -63 20.68 -63 20 C-60.26182856 19.08727619 -58.30132823 18.80590826 -55.45703125 18.640625 C-34.76529918 17.24538569 -17.18097572 11.86808938 0 0 Z " fill="#444244" transform="translate(155,176)"/>
<path d="M0 0 C3.91849409 0.63843925 7.55046126 1.83477949 10.61328125 4.42578125 C12.26239655 8.79547094 12.27987339 13.84851524 11.61328125 18.42578125 C8.97443371 22.01754595 6.971311 23.64756165 2.61328125 24.42578125 C2.28328125 25.08578125 1.95328125 25.74578125 1.61328125 26.42578125 C1.30078125 24.11328125 1.30078125 24.11328125 1.61328125 21.42578125 C3.99657585 19.60695116 5.57146462 18.42578125 8.61328125 18.42578125 C8.4123396 16.46435084 8.17656872 14.50646334 7.92578125 12.55078125 C7.79816406 11.46023437 7.67054688 10.3696875 7.5390625 9.24609375 C6.90039358 6.2348406 6.90039358 6.2348406 4.22265625 5.06640625 C1.13600543 4.30860575 -1.22170104 4.02173644 -4.38671875 4.42578125 C-7.23452494 6.65784556 -8.23669541 7.97571124 -9.38671875 11.42578125 C-11.69671875 11.42578125 -14.00671875 11.42578125 -16.38671875 11.42578125 C-15.39671875 11.09578125 -14.40671875 10.76578125 -13.38671875 10.42578125 C-12.69631301 8.76880746 -12.03365525 7.10020515 -11.38671875 5.42578125 C-8.53333401 0.07568486 -5.67712202 -0.29436929 0 0 Z " fill="#A3BADE" transform="translate(137.38671875,38.57421875)"/>
<path d="M0 0 C0.99 0.99 1.98 1.98 3 3 C2.67 3.99 2.34 4.98 2 6 C1.88251223 8.10028785 1.82315675 10.20399448 1.79467773 12.30737305 C1.77473251 13.60849533 1.75478729 14.90961761 1.73423767 16.25016785 C1.71725454 17.6706836 1.70037569 19.0912006 1.68359375 20.51171875 C1.66301863 21.96475306 1.64202201 23.41778146 1.62062073 24.87080383 C1.56545766 28.6929953 1.51602302 32.51524026 1.46777344 36.33752441 C1.41751628 40.23873652 1.36185222 44.13987105 1.30664062 48.04101562 C1.19912959 55.69394469 1.09766902 63.34693833 1 71 C0.01 71.495 0.01 71.495 -1 72 C-1.02312524 62.76002448 -1.04091601 53.52005886 -1.05181217 44.28006077 C-1.05704061 39.99000085 -1.06413753 35.69996067 -1.07543945 31.40991211 C-1.08626975 27.273206 -1.09227714 23.13651892 -1.09487724 18.99979973 C-1.09673124 17.41807696 -1.10035136 15.83635529 -1.10573006 14.25464058 C-1.1129424 12.04677162 -1.11399086 9.83898227 -1.11352539 7.63110352 C-1.115746 6.37201675 -1.11796661 5.11292999 -1.12025452 3.81568909 C-1 1 -1 1 0 0 Z " fill="#235E8C" transform="translate(184,64)"/>
<path d="M0 0 C1.36421031 2.72842061 0.87807211 4.60953318 0.5625 7.625 C0.46066406 8.62789062 0.35882813 9.63078125 0.25390625 10.6640625 C0.17011719 11.43492188 0.08632813 12.20578125 0 13 C0.66 13.33 1.32 13.66 2 14 C-1.66666667 17.66666667 -5.33333333 21.33333333 -9 25 C-10.38026906 10.0044843 -10.38026906 10.0044843 -6.99609375 5.08984375 C-4.75002407 3.15309196 -2.5574407 1.4969147 0 0 Z " fill="#4A6F89" transform="translate(42,23)"/>
<path d="M0 0 C1.48285242 0.95262034 2.96118201 1.91228405 4.4375 2.875 C5.67306641 3.67550781 5.67306641 3.67550781 6.93359375 4.4921875 C9 6 9 6 10 8 C9.91161539 10.37783105 9.75653579 12.75345146 9.5625 15.125 C9.46066406 16.40632813 9.35882813 17.68765625 9.25390625 19.0078125 C9.17011719 19.99523437 9.08632812 20.98265625 9 22 C7.87411986 21.04270084 6.7493285 20.08412105 5.625 19.125 C4.99851563 18.59132813 4.37203125 18.05765625 3.7265625 17.5078125 C2.44163349 16.38567993 1.20628025 15.20628025 0 14 C-0.1953125 10.7421875 -0.1953125 10.7421875 -0.125 6.875 C-0.10695312 5.59367187 -0.08890625 4.31234375 -0.0703125 2.9921875 C-0.04710937 2.00476563 -0.02390625 1.01734375 0 0 Z " fill="#ADBDD5" transform="translate(153,23)"/>
<path d="M0 0 C1.9140625 1.10546875 1.9140625 1.10546875 4.7890625 3.10546875 C4.1290625 3.43546875 3.4690625 3.76546875 2.7890625 4.10546875 C2.1290625 3.77546875 1.4690625 3.44546875 0.7890625 3.10546875 C-9.21301771 2.34103 -9.21301771 2.34103 -18.2109375 6.10546875 C-19.54125 6.97171875 -19.54125 6.97171875 -20.8984375 7.85546875 C-23.86038966 10.73736814 -24.80016913 13.24441847 -26.2109375 17.10546875 C-27.8609375 17.10546875 -29.5109375 17.10546875 -31.2109375 17.10546875 C-29.70434009 10.92841936 -26.55303747 6.20296816 -21.14453125 2.80859375 C-14.5488347 -0.54391499 -7.22795535 -2.92438476 0 0 Z " fill="#4096CF" transform="translate(143.2109375,30.89453125)"/>
<path d="M0 0 C3.31381058 3.24404615 6.37181151 6.59493634 9.375 10.125 C20.39964713 22.22442809 34.48118927 30.82706309 50 36 C50 36.66 50 37.32 50 38 C31.24924075 36.09878233 14.70438232 20.7184994 3.13671875 6.75 C0 2.50880282 0 2.50880282 0 0 Z " fill="#201C1D" transform="translate(17,156)"/>
<path d="M0 0 C0.78703704 8.02777778 0.78703704 8.02777778 -2.125 11.625 C-3.07375 12.40875 -4.0225 13.1925 -5 14 C-5.99368294 15.2174614 -6.97233862 16.44730583 -7.9375 17.6875 C-10.64292403 20.87157597 -12.77516658 22.28087942 -17 23 C-19.875 22.625 -19.875 22.625 -22 22 C-22 21.01 -22 20.02 -22 19 C-20.989375 18.79375 -19.97875 18.5875 -18.9375 18.375 C-12.33797438 16.4875089 -8.26226033 11.83772901 -5 6 C-4.34 6 -3.68 6 -3 6 C-3 4.35 -3 2.7 -3 1 C-1 0 -1 0 0 0 Z " fill="#2F6CAF" transform="translate(163,53)"/>
<path d="M0 0 C0.66 0.33 1.32 0.66 2 1 C0.48344311 3.87347622 -0.78668126 5.83033884 -3.34765625 7.8671875 C-10.76971874 13.83544393 -16.03731373 22.22657831 -20.90527344 30.31591797 C-22.91212386 33.58892889 -24.73281758 35.94424477 -28 38 C-26.66656822 33.53967068 -24.8876547 29.80372787 -22.5 25.8125 C-21.8915625 24.78769531 -21.283125 23.76289062 -20.65625 22.70703125 C-19.47714577 20.77986325 -18.25321289 18.87981934 -17 17 C-16.34 17 -15.68 17 -15 17 C-14.62294922 16.14921875 -14.62294922 16.14921875 -14.23828125 15.28125 C-10.98035115 9.2792589 -5.50679094 3.95800599 0 0 Z " fill="#6B6A6B" transform="translate(36,21)"/>
<path d="M0 0 C9.29443688 1.05618601 18.36350034 3.41710431 27 7 C28.56234375 7.64388672 28.56234375 7.64388672 30.15625 8.30078125 C33.10801002 9.52493406 36.05553687 10.75841805 39 12 C38.01 12.99 37.02 13.98 36 15 C34.84886719 14.46890625 33.69773438 13.9378125 32.51171875 13.390625 C21.16818732 8.30687778 10.24408255 5.08409916 -2 3 C-1.34 2.67 -0.68 2.34 0 2 C0 1.34 0 0.68 0 0 Z " fill="#474547" transform="translate(110,0)"/>
<path d="M0 0 C3.3 0 6.6 0 10 0 C11.43233413 2.86466826 10.60763875 5.04581981 10.05859375 8.125 C10.03925781 8.74375 10.01992187 9.3625 10 10 C10.66 10.66 11.32 11.32 12 12 C7.71 11.67 3.42 11.34 -1 11 C-0.67 7.37 -0.34 3.74 0 0 Z " fill="#B8C6D5" transform="translate(98,5)"/>
<path d="M0 0 C1.24716797 0.00902344 2.49433594 0.01804688 3.77929688 0.02734375 C6.83223504 0.05073791 9.88476306 0.08351826 12.9375 0.125 C12.9375 0.785 12.9375 1.445 12.9375 2.125 C9.98743558 3.60003221 6.97163447 3.32231036 3.734375 3.37109375 C2.26431734 3.40404888 0.7942654 3.43726023 -0.67578125 3.47070312 C-2.99068028 3.51798096 -5.30555892 3.56238179 -7.62060547 3.60180664 C-9.85669773 3.64176249 -12.09230486 3.69326468 -14.328125 3.74609375 C-15.0127179 3.7545079 -15.69731079 3.76292206 -16.40264893 3.77159119 C-20.65283355 3.87978044 -24.07778195 4.70026983 -28.0625 6.125 C-30.4375 5.75 -30.4375 5.75 -32.0625 5.125 C-30.75221889 4.66036131 -29.43909011 4.20375419 -28.125 3.75 C-27.02865234 3.36714844 -27.02865234 3.36714844 -25.91015625 2.9765625 C-17.1363728 0.35285222 -9.17114069 -0.12676749 0 0 Z " fill="#7D7C7D" transform="translate(97.0625,-0.12499999999999999)"/>
<path d="M0 0 C0.99 0 1.98 0 3 0 C-2.11548675 13.68209137 -12.74061478 24.99249182 -24 34 C-24.99 33.34 -25.98 32.68 -27 32 C-26.09121094 31.34257812 -26.09121094 31.34257812 -25.1640625 30.671875 C-15.24149116 23.16125177 -4.04090759 12.12272277 0 0 Z " fill="#424041" transform="translate(183,143)"/>
<path d="M0 0 C0.16834933 1.77067416 0.33461909 3.54154612 0.5 5.3125 C0.5928125 6.29863281 0.685625 7.28476563 0.78125 8.30078125 C1 11 1 11 1 14 C-0.53125 15.60546875 -0.53125 15.60546875 -2.5 17.1875 C-3.1496875 17.71730469 -3.799375 18.24710938 -4.46875 18.79296875 C-4.9740625 19.19128906 -5.479375 19.58960938 -6 20 C-5.67 19.01 -5.34 18.02 -5 17 C-4.93197033 15.27204648 -4.91504355 13.54164635 -4.9375 11.8125 C-4.958125 10.224375 -4.97875 8.63625 -5 7 C-7.31 9.31 -9.62 11.62 -12 14 C-12.66 13.34 -13.32 12.68 -14 12 C-13.36191406 11.37351563 -12.72382813 10.74703125 -12.06640625 10.1015625 C-11.24011719 9.28429687 -10.41382813 8.46703125 -9.5625 7.625 C-8.73878906 6.81289062 -7.91507813 6.00078125 -7.06640625 5.1640625 C-4.96565328 3.17651485 -4.96565328 3.17651485 -4 1 C-1 0 -1 0 0 0 Z " fill="#96ABC9" transform="translate(166,149)"/>
<path d="M0 0 C0.66 0.66 1.32 1.32 2 2 C1.79842285 2.51272461 1.5968457 3.02544922 1.38916016 3.55371094 C-5.27161891 20.63989091 -7.36850742 35.73292182 -8 54 C-8.33 54 -8.66 54 -9 54 C-9.06475242 46.66604185 -9.06745071 39.33396789 -9 32 C-8.99419922 31.2771582 -8.98839844 30.55431641 -8.98242188 29.80957031 C-8.83914422 20.53950613 -6.94122897 12.38585478 -3 4 C-2.34 3.67 -1.68 3.34 -1 3 C-0.67 2.01 -0.34 1.02 0 0 Z " fill="#424042" transform="translate(10,55)"/>
<path d="M0 0 C3.63 0 7.26 0 11 0 C11 3.3 11 6.6 11 10 C19.25 11.32 27.5 12.64 36 14 C36 14.33 36 14.66 36 15 C29.46474359 15.12567801 29.46474359 15.12567801 27.15917969 14.50219727 C24.30377467 13.83806699 21.63368836 13.88852034 18.703125 13.90234375 C16.89521484 13.90717773 16.89521484 13.90717773 15.05078125 13.91210938 C13.16939453 13.92467773 13.16939453 13.92467773 11.25 13.9375 C9.98027344 13.94201172 8.71054688 13.94652344 7.40234375 13.95117188 C4.26818164 13.96295444 1.13411459 13.97940584 -2 14 C1.46214649 11.94835763 2.59389235 12 7 12 C7.33 8.37 7.66 4.74 8 1 C5.36 1 2.72 1 0 1 C0 0.67 0 0.34 0 0 Z " fill="#155A7E" transform="translate(87,5)"/>
<path d="M0 0 C1.04027344 -0.01417969 2.08054688 -0.02835938 3.15234375 -0.04296875 C6.01296613 0.18357718 7.63920151 0.71016381 10.0625 2.1875 C10.0625 3.85416667 10.0625 5.52083333 10.0625 7.1875 C8.639375 6.445 8.639375 6.445 7.1875 5.6875 C2.56415526 3.77439183 -2.04783692 2.73751754 -6.9375 4.1875 C-9.01623547 6.39002054 -10.36333655 8.54779677 -11.78125 11.21875 C-12.1628125 11.8684375 -12.544375 12.518125 -12.9375 13.1875 C-13.5975 13.1875 -14.2575 13.1875 -14.9375 13.1875 C-14.56995492 5.83659847 -14.56995492 5.83659847 -11.5625 2.75 C-7.57146056 0.37438129 -4.57251691 0.0282603 0 0 Z " fill="#75A7D6" transform="translate(136.9375,35.8125)"/>
<path d="M0 0 C4.97030879 4.80997625 4.97030879 4.80997625 5.09765625 9.9140625 C5.09100226 11.48440463 5.07906939 13.05473119 5.0625 14.625 C5.05798828 15.42679688 5.05347656 16.22859375 5.04882812 17.0546875 C5.03703168 19.03649006 5.01909605 21.01825433 5 23 C2.34229828 20.9449897 0.25740826 19.31019283 -0.41259766 15.89990234 C-0.4913703 13.47929528 -0.4365799 11.10610367 -0.3125 8.6875 C-0.28994141 7.85154297 -0.26738281 7.01558594 -0.24414062 6.15429688 C-0.1855061 4.10208851 -0.09583215 2.05080798 0 0 Z " fill="#ACBDCD" transform="translate(29,144)"/>
<path d="M0 0 C1.81896125 3.04983728 2.22727883 4.67772293 1.375 8.125 C-0.98483436 17.25068858 -4.94447737 25.07968122 -10 33 C-10.99 32.34 -11.98 31.68 -13 31 C-12.55269531 30.30777344 -12.10539063 29.61554688 -11.64453125 28.90234375 C-5.99587283 19.76091146 -2.46394721 10.48488174 0 0 Z " fill="#DCE0E4" transform="translate(189,119)"/>
<path d="M0 0 C3.41158256 1.13719419 4.11854601 2.04342944 6 5 C6 5.66 6 6.32 6 7 C5.34 7 4.68 7 4 7 C4 12.61 4 18.22 4 24 C1.04755185 21.04755185 0.08561686 19.89639715 -1 16 C-0.983374 13.17080816 -0.87566104 10.49239709 -0.625 7.6875 C-0.56828125 6.94693359 -0.5115625 6.20636719 -0.453125 5.44335938 C-0.31258589 3.62806257 -0.15772905 1.81388403 0 0 Z " fill="#6889B0" transform="translate(170,40)"/>
<path d="M0 0 C0.33 0 0.66 0 1 0 C0.814375 1.216875 0.62875 2.43375 0.4375 3.6875 C-0.34860391 10.65171635 -0.22665208 18.32004376 2 25 C0.6875 27.6875 0.6875 27.6875 -1 30 C-1.66 30 -2.32 30 -3 30 C-5.01944214 8.18621465 -5.01944214 8.18621465 0 0 Z " fill="#557BA5" transform="translate(177,122)"/>
<path d="M0 0 C1.76462683 3.08809695 2 4.23312136 2 8 C1.34 8 0.68 8 0 8 C0 10.97 0 13.94 0 17 C0.66 17 1.32 17 2 17 C2.04254356 18.99954746 2.04080783 21.00041636 2 23 C1.67 23.33 1.34 23.66 1 24 C1 24.99 1 25.98 1 27 C1 27.99 1 28.98 1 30 C0.67 30.33 0.34 30.66 0 31 C-0.22528924 32.99541896 -0.44761095 34.99159864 -0.62109375 36.9921875 C-1 39 -1 39 -3 42 C-4.09834408 38.66496665 -3.8562402 36.43326841 -3.09765625 33.03125 C-1.87289489 26.84471404 -1.59754174 20.79237298 -1.4375 14.5 C-1.37762601 12.3853018 -1.31400132 10.27070547 -1.24609375 8.15625 C-1.22216553 7.23650391 -1.1982373 6.31675781 -1.17358398 5.36914062 C-1 3 -1 3 0 0 Z " fill="#3D3C3D" transform="translate(195,85)"/>
<path d="M0 0 C0.24887295 2.10192697 0.4734719 4.20673964 0.6875 6.3125 C0.81511719 7.48425781 0.94273438 8.65601563 1.07421875 9.86328125 C1 13 1 13 -0.23046875 14.91796875 C-2 16 -2 16 -6 16 C-6.76394015 6.30644837 -6.76394015 6.30644837 -4.921875 3.15625 C-1.72892442 0 -1.72892442 0 0 0 Z " fill="#1C4D68" transform="translate(48,20)"/>
<path d="M0 0 C1.98 0 3.96 0 6 0 C5.67 3.63 5.34 7.26 5 11 C2.0804957 11.9731681 -0.05444951 12.1929546 -3.10546875 12.31640625 C-4.08837891 12.35830078 -5.07128906 12.40019531 -6.08398438 12.44335938 C-7.62022461 12.50233398 -7.62022461 12.50233398 -9.1875 12.5625 C-10.22326172 12.60568359 -11.25902344 12.64886719 -12.32617188 12.69335938 C-14.8839819 12.79944366 -17.44188845 12.90150146 -20 13 C-20 12.67 -20 12.34 -20 12 C-15.48184719 11.11722245 -11.22487306 10.89410497 -6.625 10.9375 C-4.75714844 10.95103516 -4.75714844 10.95103516 -2.8515625 10.96484375 C-1.44003906 10.98224609 -1.44003906 10.98224609 0 11 C0 7.37 0 3.74 0 0 Z " fill="#AABAC8" transform="translate(100,181)"/>
<path d="M0 0 C0.66 0.33 1.32 0.66 2 1 C2 6.61 2 12.22 2 18 C0.02 18.99 0.02 18.99 -2 20 C-4.02367538 17.97632462 -3.43792233 13.99367397 -3.62109375 11.25 C-3.74613281 10.5075 -3.87117187 9.765 -4 9 C-4.66 8.67 -5.32 8.34 -6 8 C-4.02 5.36 -2.04 2.72 0 0 Z " fill="#7D98BB" transform="translate(169,141)"/>
<path d="M0 0 C0.99 0.33 1.98 0.66 3 1 C2.67 1.99 2.34 2.98 2 4 C1.88265016 6.06966464 1.82318373 8.14278334 1.79467773 10.21557617 C1.77473251 11.4966777 1.75478729 12.77777924 1.73423767 14.09770203 C1.7172546 15.49612304 1.70037575 16.89454531 1.68359375 18.29296875 C1.66301834 19.7235829 1.64202171 21.15419105 1.62062073 22.58479309 C1.56546067 26.34780006 1.51602471 30.11086135 1.46777344 33.8739624 C1.41751407 37.71485216 1.36185117 41.55566316 1.30664062 45.39648438 C1.19913327 52.93092287 1.09767189 60.46542691 1 68 C0.67 68 0.34 68 0 68 C0 45.56 0 23.12 0 0 Z " fill="#195988" transform="translate(184,66)"/>
<path d="M0 0 C3.74552784 4.11926815 5.43537424 8.13804028 7.1875 13.3125 C7.44724609 14.03373047 7.70699219 14.75496094 7.97460938 15.49804688 C9.65643291 20.34361082 10.52108255 24.89347053 11 30 C7.00826722 26.93967153 6.43134989 24.2143931 5.56640625 19.5234375 C4.61589347 15.28873917 3.14360017 9.14360017 0 6 C-0.04080783 4.00041636 -0.04254356 1.99954746 0 0 Z " fill="#DEE0E4" transform="translate(182,52)"/>
<path d="M0 0 C3.16115776 1.36983503 3.9927092 1.9890638 6 5 C5.67 5.33 5.34 5.66 5 6 C4.76518307 8.18292774 4.58636677 10.37203174 4.4375 12.5625 C4.31181641 14.35880859 4.31181641 14.35880859 4.18359375 16.19140625 C4.12300781 17.11824219 4.06242188 18.04507813 4 19 C3.34 19 2.68 19 2 19 C-0.52775351 15.20836973 -0.22443035 12.19125969 -0.125 7.8125 C-0.11597656 7.06291016 -0.10695312 6.31332031 -0.09765625 5.54101562 C-0.07412578 3.69387346 -0.03825561 1.84689588 0 0 Z " fill="#8FA6C5" transform="translate(162,31)"/>
<path d="M0 0 C2.62145514 2.1673448 3.88735058 3.32021905 4.453125 6.734375 C4.06310532 12.5246672 3.4346388 16.29794566 -0.6875 20.5625 C-3.9131805 23.35808977 -7.04369468 25.41747787 -11 27 C-11.33 26.01 -11.66 25.02 -12 24 C-11.01 24 -10.02 24 -9 24 C-9 23.34 -9 22.68 -9 22 C-8.05125 21.54625 -7.1025 21.0925 -6.125 20.625 C-2.99686321 19.19761746 -2.99686321 19.19761746 -1 17 C-0.5331364 13.75028168 -0.5331364 13.75028168 -0.375 10.0625 C-0.30023438 8.81597656 -0.22546875 7.56945313 -0.1484375 6.28515625 C-0.05384415 4.19165595 0 2.09563628 0 0 Z " fill="#6985BE" transform="translate(153,44)"/>
<path d="M0 0 C1.9375 0.3125 1.9375 0.3125 4 1 C4.33 1.99 4.66 2.98 5 4 C4.34 4 3.68 4 3 4 C3 10.93 3 17.86 3 25 C-0.92153964 19.11769054 -1.1996244 15.04276914 -0.625 8.1875 C-0.56828125 7.39923828 -0.5115625 6.61097656 -0.453125 5.79882812 C-0.31249026 3.86510039 -0.15766112 1.93241405 0 0 Z " fill="#577CA6" transform="translate(174,47)"/>
<path d="M0 0 C0.66 0.33 1.32 0.66 2 1 C1.27296875 1.44988281 0.5459375 1.89976563 -0.203125 2.36328125 C-10.83968621 9.1679531 -20.08562062 17.10702577 -28 27 C-28.33 26.01 -28.66 25.02 -29 24 C-21.78385646 15.45342518 -14.51016148 8.94069769 -5 3 C-4.08992188 2.40316406 -3.17984375 1.80632813 -2.2421875 1.19140625 C-1.50226562 0.79824219 -0.76234375 0.40507812 0 0 Z " fill="#07355A" transform="translate(61,25)"/>
<path d="M0 0 C0.10812003 2.75105422 0.18734945 5.49785087 0.25 8.25 C0.28351562 9.02730469 0.31703125 9.80460937 0.3515625 10.60546875 C0.45112665 16.42997175 0.45112665 16.42997175 -2.015625 19.546875 C-2.67046875 20.02640625 -3.3253125 20.5059375 -4 21 C-4.08086376 18.06195004 -4.1404283 15.12611925 -4.1875 12.1875 C-4.21263672 11.35412109 -4.23777344 10.52074219 -4.26367188 9.66210938 C-4.27333984 8.85966797 -4.28300781 8.05722656 -4.29296875 7.23046875 C-4.3086792 6.49207764 -4.32438965 5.75368652 -4.34057617 4.99291992 C-3.95360485 2.72851351 -2.66126154 0 0 0 Z " fill="#B3C3D2" transform="translate(33,32)"/>
<path d="M0 0 C0.66 0.33 1.32 0.66 2 1 C-4.18581878 7.82259424 -10.40054657 14.57073305 -17 21 C-17.66064453 19.19335938 -17.66064453 19.19335938 -18 17 C-16.99951172 15.41601562 -16.99951172 15.41601562 -15.4296875 13.90625 C-14.8625 13.35066406 -14.2953125 12.79507813 -13.7109375 12.22265625 C-13.10507812 11.65417969 -12.49921875 11.08570313 -11.875 10.5 C-11.29234375 9.93152344 -10.7096875 9.36304688 -10.109375 8.77734375 C-6.87953341 5.65612912 -3.56284019 2.74271471 0 0 Z " fill="#00639D" transform="translate(52,32)"/>
<path d="M0 0 C1.51742898 3.03485797 0.99702452 6.07232386 0.8125 9.375 C0.79380859 10.04789063 0.77511719 10.72078125 0.75585938 11.4140625 C0.55857454 14.93057816 0.22246052 16.73135244 -2.05078125 19.4765625 C-3.01564453 20.23066406 -3.01564453 20.23066406 -4 21 C-4.10812003 18.24894578 -4.18734945 15.50214913 -4.25 12.75 C-4.28351562 11.97269531 -4.31703125 11.19539063 -4.3515625 10.39453125 C-4.45112665 4.57002825 -4.45112665 4.57002825 -1.984375 1.453125 C-1.00210938 0.73382812 -1.00210938 0.73382812 0 0 Z " fill="#7793AA" transform="translate(37,27)"/>
<path d="M0 0 C2.12109375 0.5546875 2.12109375 0.5546875 5.12109375 2.5546875 C6.35991953 6.49640588 6.50050358 10.4570613 6.12109375 14.5546875 C4.30859375 16.4921875 4.30859375 16.4921875 2.12109375 17.5546875 C1.13109375 17.5546875 0.14109375 17.5546875 -0.87890625 17.5546875 C-1.20890625 18.2146875 -1.53890625 18.8746875 -1.87890625 19.5546875 C-1.87890625 18.5646875 -1.87890625 17.5746875 -1.87890625 16.5546875 C-1.07453125 16.0803125 -0.27015625 15.6059375 0.55859375 15.1171875 C3.19002445 13.83052483 3.19002445 13.83052483 3.99609375 11.7421875 C4.16116975 8.85335754 3.80732099 6.36198073 3.12109375 3.5546875 C0.83403544 2.41115834 -0.47155387 2.45134311 -3.00390625 2.4921875 C-4.28265625 2.5128125 -5.56140625 2.5334375 -6.87890625 2.5546875 C-7.86890625 4.5346875 -8.85890625 6.5146875 -9.87890625 8.5546875 C-11.52890625 8.5546875 -13.17890625 8.5546875 -14.87890625 8.5546875 C-13.88890625 8.2246875 -12.89890625 7.8946875 -11.87890625 7.5546875 C-11.73453125 6.9565625 -11.59015625 6.3584375 -11.44140625 5.7421875 C-9.77601976 -0.73431553 -5.72525078 -0.79168729 0 0 Z " fill="#BDCCE7" transform="translate(139.87890625,42.4453125)"/>
<path d="M0 0 C2.51171875 2.04296875 2.51171875 2.04296875 5 5 C5.26953125 8.55078125 5.26953125 8.55078125 4.8125 12.3125 C4.67457031 13.56675781 4.53664063 14.82101563 4.39453125 16.11328125 C4.26433594 17.06589844 4.13414063 18.01851562 4 19 C2.015625 18.01171875 2.015625 18.01171875 0 16 C-0.29561076 13.12961948 -0.37943016 10.66245255 -0.25 7.8125 C-0.23195312 7.06291016 -0.21390625 6.31332031 -0.1953125 5.54101562 C-0.14824109 3.6934629 -0.07649766 1.84656841 0 0 Z " fill="#6B8AA2" transform="translate(34,151)"/>
<path d="M0 0 C0.66 0 1.32 0 2 0 C2.04945386 4.35992871 2.08574488 8.71970862 2.10986328 13.07983398 C2.11991821 14.56293583 2.13356404 16.04601788 2.15087891 17.52905273 C2.17515006 19.66134531 2.18648799 21.79337569 2.1953125 23.92578125 C2.20578613 25.20880127 2.21625977 26.49182129 2.22705078 27.8137207 C2 31 2 31 0 34 C-0.75454689 29.9668832 -1.12817206 26.15193777 -1.1328125 22.05078125 C-1.13410156 20.95572266 -1.13539063 19.86066406 -1.13671875 18.73242188 C-1.13285156 17.60384766 -1.12898437 16.47527344 -1.125 15.3125 C-1.12886719 14.17232422 -1.13273438 13.03214844 -1.13671875 11.85742188 C-1.13478516 10.22063477 -1.13478516 10.22063477 -1.1328125 8.55078125 C-1.13168457 7.55731689 -1.13055664 6.56385254 -1.12939453 5.5402832 C-1 3 -1 3 0 0 Z " fill="#3B6A97" transform="translate(180,55)"/>
<path d="M0 0 C1.99954746 -0.04254356 4.00041636 -0.04080783 6 0 C7 1 7 1 7.375 3.375 C7.25125 4.24125 7.1275 5.1075 7 6 C4.5 7.8125 4.5 7.8125 2 9 C0.02 7.68 -1.96 6.36 -4 5 C-3.34 4.67 -2.68 4.34 -2 4 C-0.86649466 1.98330173 -0.86649466 1.98330173 0 0 Z " fill="#E8EBF6" transform="translate(134,48)"/>
<path d="M0 0 C0.33 0 0.66 0 1 0 C1.78501796 9.96100564 1.78501796 9.96100564 -1.125 13.8125 C-2.07375 14.534375 -3.0225 15.25625 -4 16 C-4.98520568 17.09878167 -5.96423294 18.20312963 -6.9375 19.3125 C-9.32794772 21.74020145 -9.77513518 21.97501502 -13.375 22.375 C-14.674375 22.189375 -14.674375 22.189375 -16 22 C-14.76321276 19.52642553 -13.62519778 19.05814985 -11.25 17.6875 C-4.81441722 13.8375572 -4.81441722 13.8375572 -1.25390625 7.4609375 C-0.74681385 4.97793333 -0.32687486 2.51254557 0 0 Z " fill="#567AB8" transform="translate(157,50)"/>
<path d="M0 0 C0.33 0 0.66 0 1 0 C1.32316568 3.55482252 1.45553291 5.37575119 -0.6875 8.3125 C-3.19598492 10.14301602 -4.94082833 10.66009204 -8 11 C-8 11.66 -8 12.32 -8 13 C-8.99 13 -9.98 13 -11 13 C-11 16.63 -11 20.26 -11 24 C-11.33 24 -11.66 24 -12 24 C-12 19.38 -12 14.76 -12 10 C-10.02 9.01 -8.04 8.02 -6 7 C-4.98199424 5.68036291 -3.97751635 4.34990354 -3 3 C-2.01 3 -1.02 3 0 3 C0 2.01 0 1.02 0 0 Z " fill="#8196C7" transform="translate(152,55)"/>
<path d="M0 0 C2.5 0.8125 2.5 0.8125 5 3 C5.46346554 6.69681924 5.28328381 10.29212965 5 14 C4.01 14.495 4.01 14.495 3 15 C1 14 1 14 0.37890625 12.265625 C-0.04706889 9.71855716 -0.09646629 7.33143831 -0.0625 4.75 C-0.05347656 3.85796875 -0.04445312 2.9659375 -0.03515625 2.046875 C-0.02355469 1.37140625 -0.01195312 0.6959375 0 0 Z " fill="#1D4E68" transform="translate(45,163)"/>
<path d="M0 0 C0.33 0 0.66 0 1 0 C0.99214478 1.10456543 0.99214478 1.10456543 0.98413086 2.23144531 C0.96333133 5.57095485 0.95033032 8.91045074 0.9375 12.25 C0.92912109 13.40886719 0.92074219 14.56773437 0.91210938 15.76171875 C0.90888672 16.87675781 0.90566406 17.99179688 0.90234375 19.140625 C0.89710693 20.16704102 0.89187012 21.19345703 0.88647461 22.25097656 C0.98663049 24.67625656 1.30076922 26.68697361 2 29 C1.01 29.66 0.02 30.32 -1 31 C-2.50540531 27.98918937 -2.41470427 24.80906517 -2.625 21.5 C-2.6765625 20.81035156 -2.728125 20.12070313 -2.78125 19.41015625 C-3.12345364 14.24690727 -3.12345364 14.24690727 -2 12 C-1.79777644 10.33727297 -1.63588613 8.66945815 -1.5 7 C-1.11111111 2.22222222 -1.11111111 2.22222222 0 0 Z " fill="#47719E" transform="translate(179,115)"/>
<path d="M0 0 C0.99 0.33 1.98 0.66 3 1 C2.7215625 1.53367188 2.443125 2.06734375 2.15625 2.6171875 C0.30527101 6.43170502 -1.20382976 10.38638032 -2.78125 14.3203125 C-4 17 -4 17 -6 19 C-6 9.625 -6 9.625 -3 4.8125 C-2.443125 3.91144531 -1.88625 3.01039062 -1.3125 2.08203125 C-0.6628125 1.05142578 -0.6628125 1.05142578 0 0 Z " fill="#133F67" transform="translate(31,50)"/>
<path d="M0 0 C0 0.66 0 1.32 0 2 C-1.51980469 2.39832031 -1.51980469 2.39832031 -3.0703125 2.8046875 C-4.42190177 3.16135689 -5.77346278 3.51813343 -7.125 3.875 C-7.79015625 4.04902344 -8.4553125 4.22304687 -9.140625 4.40234375 C-13.14797664 5.4631133 -17.07952899 6.64432311 -21 8 C-21.33 7.01 -21.66 6.02 -22 5 C-19.08919272 3.96189556 -16.17062342 2.94762359 -13.25 1.9375 C-12.425 1.64294922 -11.6 1.34839844 -10.75 1.04492188 C-9.95078125 0.77099609 -9.1515625 0.49707031 -8.328125 0.21484375 C-7.5949707 -0.04176025 -6.86181641 -0.29836426 -6.10644531 -0.56274414 C-3.72635182 -1.05680388 -2.28425328 -0.76066537 0 0 Z " fill="#D0D4D6" transform="translate(81,5)"/>
<path d="M0 0 C3.81602252 1.48774446 5.38020852 3.57031278 7.625 6.9375 C8.21539062 7.81277344 8.80578125 8.68804687 9.4140625 9.58984375 C9.93742188 10.38519531 10.46078125 11.18054688 11 12 C11.99 13.485 11.99 13.485 13 15 C13.125 17.6875 13.125 17.6875 13 20 C10.18544496 16.52913616 7.49669105 12.99353175 4.875 9.375 C4.19179687 8.43398438 3.50859375 7.49296875 2.8046875 6.5234375 C1.50416543 4.70495859 0.24012694 2.86019041 -1 1 C-0.67 0.67 -0.34 0.34 0 0 Z " fill="#DEE0E4" transform="translate(169,35)"/>
<path d="M0 0 C4.64033707 1.28009299 7.31346517 3.22764832 10.5 6.8125 C12.22229924 10.47238587 12.31986304 13.00171201 12 17 C11.731875 16.443125 11.46375 15.88625 11.1875 15.3125 C9.99300335 12.91066602 9.99300335 12.91066602 8.375 10.375 C7 8 7 8 7 6 C6.236875 5.71125 5.47375 5.4225 4.6875 5.125 C2 4 2 4 -1 2 C-3.60245498 1.85778935 -6.09117684 1.81197068 -8.6875 1.875 C-9.38939453 1.88402344 -10.09128906 1.89304688 -10.81445312 1.90234375 C-12.54311525 1.92586296 -14.27160145 1.96173287 -16 2 C-11.09781665 -1.26812223 -5.72853255 -0.54170521 0 0 Z " fill="#5097CD" transform="translate(144,33)"/>
<path d="M0 0 C1.65 1.65 3.3 3.3 5 5 C4.34 5 3.68 5 3 5 C3 8.96 3 12.92 3 17 C1.68 16.34 0.36 15.68 -1 15 C-1.02685412 12.68756208 -1.04632841 10.3750373 -1.0625 8.0625 C-1.07410156 6.77472656 -1.08570313 5.48695313 -1.09765625 4.16015625 C-1 1 -1 1 0 0 Z " fill="#456A87" transform="translate(39,156)"/>
<path d="M0 0 C0.66 0 1.32 0 2 0 C3.28849928 2.94514122 4.2239379 5.81341718 4.9375 8.9375 C5.80188771 12.5955888 7.25324315 15.66528238 9 19 C9 19.66 9 20.32 9 21 C9.66 21 10.32 21 11 21 C11.66 23.31 12.32 25.62 13 28 C9.58936514 24.91239884 7.53535428 21.73697465 5.375 17.6875 C4.78460937 16.59824219 4.19421875 15.50898438 3.5859375 14.38671875 C1.3142003 9.5354967 0 5.36994178 0 0 Z " fill="#314D81" transform="translate(19,119)"/>
<path d="M0 0 C0.66 0.33 1.32 0.66 2 1 C1.67 4.3 1.34 7.6 1 11 C2.24716797 10.33291016 2.24716797 10.33291016 3.51953125 9.65234375 C4.60621094 9.08644531 5.69289063 8.52054688 6.8125 7.9375 C7.89144531 7.36902344 8.97039063 6.80054688 10.08203125 6.21484375 C13 5 13 5 16 6 C13.73354942 7.34130761 11.46239903 8.67316234 9.1875 10 C8.54490234 10.3815625 7.90230469 10.763125 7.24023438 11.15625 C2.33984375 14 2.33984375 14 -1 14 C-1.02685938 11.85423363 -1.04633088 9.70837355 -1.0625 7.5625 C-1.07410156 6.36753906 -1.08570313 5.17257813 -1.09765625 3.94140625 C-1 1 -1 1 0 0 Z " fill="#164762" transform="translate(49,18)"/>
<path d="M0 0 C4.98232221 1.27454754 7.70268484 3.04322181 11 7 C11.8125 9.3125 11.8125 9.3125 12 11 C7.06945173 8.28316728 2.53715638 5.33342102 -2 2 C-1.34 1.34 -0.68 0.68 0 0 Z " fill="#393738" transform="translate(148,13)"/>
<path d="M0 0 C0.33 0 0.66 0 1 0 C1.4375 2.0625 1.4375 2.0625 1 5 C-2.17348886 9.09684862 -6.22850791 12.92011883 -11 15 C-14.3125 15.1875 -14.3125 15.1875 -17 15 C-17 14.34 -17 13.68 -17 13 C-15.989375 12.79375 -14.97875 12.5875 -13.9375 12.375 C-8.25608526 10.75009234 -4.3040419 6.99953091 -1.125 2.125 C-0.75375 1.42375 -0.3825 0.7225 0 0 Z " fill="#466EB0" transform="translate(158,59)"/>
<path d="M0 0 C0.66 0.33 1.32 0.66 2 1 C-0.1167331 5.01065219 -2.38925484 7.29194113 -6 10 C-6.474375 10.495 -6.94875 10.99 -7.4375 11.5 C-9.72115418 13.69230801 -12.34613232 15.28972972 -15 17 C-11.97204597 10.16769346 -6.003649 4.31512272 0 0 Z " fill="#8B8A8B" transform="translate(36,21)"/>
<path d="M0 0 C0.66 0 1.32 0 2 0 C2 0.66 2 1.32 2 2 C2.56203125 2.22429688 3.1240625 2.44859375 3.703125 2.6796875 C6.67275417 4.38671923 8.50344167 6.54806544 10.75 9.125 C11.94882813 10.49011719 11.94882813 10.49011719 13.171875 11.8828125 C14.07679688 12.93082031 14.07679688 12.93082031 15 14 C14.01 14.33 13.02 14.66 12 15 C9.99068029 13.07141188 7.99272731 11.133102 6 9.1875 C5.42765625 8.64029297 4.8553125 8.09308594 4.265625 7.52929688 C2.78599462 6.07608846 1.38703342 4.54183626 0 3 C0 2.01 0 1.02 0 0 Z " fill="#494849" transform="translate(160,22)"/>
<path d="M0 0 C6.625 -0.25 6.625 -0.25 10 2 C10.39507893 6.34586828 10.45331002 8.32003497 8 12 C7.34 12 6.68 12 6 12 C5.67 12.66 5.34 13.32 5 14 C4.67 12.68 4.34 11.36 4 10 C5.32 9.34 6.64 8.68 8 8 C8 6.35 8 4.7 8 3 C5.08365871 2.7497843 5.08365871 2.7497843 2 3 C1.01 4.485 1.01 4.485 0 6 C-1.32 5.67 -2.64 5.34 -4 5 C-3.34 5 -2.68 5 -2 5 C-1.34 3.35 -0.68 1.7 0 0 Z " fill="#D9E0F0" transform="translate(132,46)"/>
<path d="M0 0 C0.66 0.33 1.32 0.66 2 1 C0.71034824 2.37562854 -0.62689293 3.70766393 -2 5 C-2.66 5 -3.32 5 -4 5 C-4.33 7.97 -4.66 10.94 -5 14 C-8.96 14 -12.92 14 -17 14 C-17 13.67 -17 13.34 -17 13 C-14.36 13 -11.72 13 -9 13 C-8.814375 11.96875 -8.62875 10.9375 -8.4375 9.875 C-7.13376221 5.13325738 -3.84535293 2.80690201 0 0 Z " fill="#6197CC" transform="translate(126,35)"/>
<path d="M0 0 C0.66 0 1.32 0 2 0 C3.59887822 11.71352086 3.59887822 11.71352086 1.3125 16.625 C-2.51757812 20.55859375 -2.51757812 20.55859375 -5 22 C-5.99 22 -6.98 22 -8 22 C-8 21.34 -8 20.68 -8 20 C-6.20963542 19.0234375 -4.41927083 18.046875 -2.62890625 17.0703125 C-0.83381685 16.08589976 -0.83381685 16.08589976 0 14 C0.07116382 11.62597499 0.08409085 9.24999323 0.0625 6.875 C0.05347656 5.59367187 0.04445312 4.31234375 0.03515625 2.9921875 C0.02355469 2.00476562 0.01195312 1.01734375 0 0 Z " fill="#91A9D4" transform="translate(148,43)"/>
<path d="M0 0 C0.70189453 0.00451172 1.40378906 0.00902344 2.12695312 0.01367188 C3.85550538 0.02543073 5.58401365 0.04336546 7.3125 0.0625 C7.3125 0.7225 7.3125 1.3825 7.3125 2.0625 C3.31454108 3.01869733 -0.39553922 3.1664592 -4.5 3.125 C-5.66144531 3.11597656 -6.82289062 3.10695312 -8.01953125 3.09765625 C-8.89996094 3.08605469 -9.78039062 3.07445312 -10.6875 3.0625 C-10.6875 2.4025 -10.6875 1.7425 -10.6875 1.0625 C-7.06882441 -0.1437252 -3.76243749 -0.04566918 0 0 Z " fill="#3B393A" transform="translate(102.6875,194.9375)"/>
<path d="M0 0 C1.32 0 2.64 0 4 0 C4 3.3 4 6.6 4 10 C2.35 10.33 0.7 10.66 -1 11 C-0.67 7.37 -0.34 3.74 0 0 Z " fill="#809AB0" transform="translate(98,5)"/>
<path d="M0 0 C4.40625 1.40625 4.40625 1.40625 6 3 C6.04080783 4.99958364 6.04254356 7.00045254 6 9 C5.67 9 5.34 9 5 9 C4.938125 8.21625 4.87625 7.4325 4.8125 6.625 C4.26699606 3.82946546 4.26699606 3.82946546 1.8125 2.6875 C-1.35794004 1.91250355 -3.75183513 1.58534066 -7 2 C-9.84780619 4.23206431 -10.84997666 5.54992999 -12 9 C-12.66 9 -13.32 9 -14 9 C-13.72253508 5.67042093 -13.18903896 4.21195277 -10.9375 1.6875 C-7.12292469 -0.50385177 -4.29940061 -0.59931039 0 0 Z " fill="#ACC2E3" transform="translate(140,41)"/>
<path d="M0 0 C5.28139679 1.48539285 9.28054101 5.08672304 13 9 C13 9.66 13 10.32 13 11 C13.99 11.33 14.98 11.66 16 12 C16.33 13.65 16.66 15.3 17 17 C16.34 16.319375 15.68 15.63875 15 14.9375 C12.02809161 11.93989787 8.81463908 9.25212981 5.57421875 6.55078125 C5.05472656 6.03902344 4.53523437 5.52726562 4 5 C4 4.34 4 3.68 4 3 C2.68 2.34 1.36 1.68 0 1 C0 0.67 0 0.34 0 0 Z " fill="#201C1D" transform="translate(158,19)"/>
<path d="M0 0 C-2.65678338 1.77118892 -4.46372565 2.58611664 -7.44921875 3.5078125 C-8.29677734 3.77207031 -9.14433594 4.03632812 -10.01757812 4.30859375 C-10.89865234 4.57800781 -11.77972656 4.84742188 -12.6875 5.125 C-14.02651367 5.54072266 -14.02651367 5.54072266 -15.39257812 5.96484375 C-17.59375282 6.64756104 -19.79621473 7.32576666 -22 8 C-20.125 4.125 -20.125 4.125 -19 3 C-17.21594402 2.62807954 -15.42223085 2.30189705 -13.625 2 C-1.53549327 -0.04149982 -1.53549327 -0.04149982 0 0 Z " fill="#565456" transform="translate(80,3)"/>
<path d="M0 0 C0.33 0.99 0.66 1.98 1 3 C-0.90726751 4.20253816 -2.8262012 5.38658949 -4.75 6.5625 C-5.81734375 7.22378906 -6.8846875 7.88507813 -7.984375 8.56640625 C-11 10 -11 10 -13.390625 9.71484375 C-13.92171875 9.47894531 -14.4528125 9.24304688 -15 9 C-10.17342499 5.658525 -5.1588796 2.79725916 0 0 Z " fill="#EEEEEF" transform="translate(153,175)"/>
<path d="M0 0 C3.83132316 1.56090944 6.1075134 4.1075134 9 7 C9.99 7.33 10.98 7.66 12 8 C13.3743291 9.29103643 14.70896357 10.6256709 16 12 C16.66 12.66 17.32 13.32 18 14 C13.09403952 13.54363158 10.57311669 12.38505791 7 9 C5.63755204 7.35704805 4.30135125 5.69175663 3 4 C2.4225 3.4225 1.845 2.845 1.25 2.25 C0.8375 1.8375 0.425 1.425 0 1 C0 0.67 0 0.34 0 0 Z " fill="#3B5B99" transform="translate(37,153)"/>
<path d="M0 0 C0.66 0.33 1.32 0.66 2 1 C1.38125 1.0825 0.7625 1.165 0.125 1.25 C-2.16150356 1.78035516 -2.16150356 1.78035516 -2.9375 3.875 C-4 6 -4 6 -6.4375 7.3125 C-10.02417723 9.67445818 -10.56811033 12.00578146 -12 16 C-12.66 16 -13.32 16 -14 16 C-12.33352672 9.16745955 -8.66997383 4.64306082 -2.75 1 C-1.8425 0.67 -0.935 0.34 0 0 Z " fill="#1F83C2" transform="translate(126,32)"/>
<path d="M0 0 C3.63 0 7.26 0 11 0 C11 3.3 11 6.6 11 10 C10.01 10.33 9.02 10.66 8 11 C8 7.7 8 4.4 8 1 C5.36 1 2.72 1 0 1 C0 0.67 0 0.34 0 0 Z " fill="#44677E" transform="translate(87,5)"/>
<path d="M0 0 C0.33 0 0.66 0 1 0 C1.79681084 8.02502344 2.12867289 15.93649887 2 24 C1.34 24 0.68 24 0 24 C-1.38489368 19.04515817 -0.89120615 14.25410852 -0.5625 9.1875 C-0.51029297 8.30384766 -0.45808594 7.42019531 -0.40429688 6.50976562 C-0.27525381 4.33949592 -0.13840044 2.16969307 0 0 Z " fill="#194484" transform="translate(18,93)"/>
<path d="M0 0 C1.47193312 2.94386623 0.84936173 5.37390036 0.5625 8.625 C0.40974609 10.40777344 0.40974609 10.40777344 0.25390625 12.2265625 C0.12822266 13.59941406 0.12822266 13.59941406 0 15 C-0.99 15 -1.98 15 -3 15 C-3.08142927 13.2507786 -3.13938541 11.50045458 -3.1875 9.75 C-3.22230469 8.77546875 -3.25710937 7.8009375 -3.29296875 6.796875 C-2.96075202 3.62531258 -2.11327721 2.32959693 0 0 Z " fill="#2E5A74" transform="translate(45,21)"/>
<path d="M0 0 C0.66 0.66 1.32 1.32 2 2 C1.64624308 7.14463634 -0.01964371 11.80040705 -3 16 C-3.66 15.34 -4.32 14.68 -5 14 C-3.35 9.38 -1.7 4.76 0 0 Z " fill="#484647" transform="translate(190,126)"/>
<path d="M0 0 C6.93860929 4.18284957 12.45946696 9.10581592 18 15 C17.34 15.66 16.68 16.32 16 17 C15.5153125 16.41992188 15.030625 15.83984375 14.53125 15.2421875 C10.51387496 10.56040043 6.58941548 6.64785545 1.46875 3.19140625 C0.9840625 2.79824219 0.499375 2.40507813 0 2 C0 1.34 0 0.68 0 0 Z " fill="#3680B0" transform="translate(144,30)"/>
<path d="M0 0 C1.38592445 2.27022699 2.03309948 3.56594541 1.828125 6.25390625 C1.63734375 7.01574219 1.4465625 7.77757813 1.25 8.5625 C1.06953125 9.32691406 0.8890625 10.09132812 0.703125 10.87890625 C0 13 0 13 -2 16 C-2.66 15.67 -3.32 15.34 -4 15 C-3.79503906 14.25234375 -3.59007812 13.5046875 -3.37890625 12.734375 C-3.10949219 11.74953125 -2.84007812 10.7646875 -2.5625 9.75 C-2.29566406 8.77546875 -2.02882812 7.8009375 -1.75390625 6.796875 C-1.14455416 4.53627347 -0.55761745 2.27377991 0 0 Z " fill="#CBD2DB" transform="translate(189,119)"/>
<path d="M0 0 C5.98993047 -0.3152595 9.63560356 0.31780178 15 3 C15 3.99 15 4.98 15 6 C13.5459375 5.2884375 13.5459375 5.2884375 12.0625 4.5625 C7.80163851 2.71147001 3.59984394 2.30248407 -1 2 C-0.67 1.34 -0.34 0.68 0 0 Z " fill="#86B0DA" transform="translate(132,37)"/>
<path d="M0 0 C2.65802025 1.08011424 4.62427232 2.34731987 7 4 C6.01 4.495 6.01 4.495 5 5 C4.21625 4.71125 3.4325 4.4225 2.625 4.125 C-2.51180435 2.53081934 -7.65203572 2.32883923 -13 2 C-8.74494293 -0.83670471 -4.99776266 -0.64925618 0 0 Z " fill="#2895CE" transform="translate(141,30)"/>
<path d="M0 0 C0.66 0.33 1.32 0.66 2 1 C2 4.3 2 7.6 2 11 C0.02 11.33 -1.96 11.66 -4 12 C-3.01 11.67 -2.02 11.34 -1 11 C-1.01160156 10.28972656 -1.02320312 9.57945312 -1.03515625 8.84765625 C-1.04869141 7.46900391 -1.04869141 7.46900391 -1.0625 6.0625 C-1.07410156 5.14597656 -1.08570312 4.22945312 -1.09765625 3.28515625 C-1 1 -1 1 0 0 Z " fill="#D1DAE4" transform="translate(106,181)"/>
<path d="M0 0 C0.80244141 0.04833984 1.60488281 0.09667969 2.43164062 0.14648438 C3.68170898 0.2305957 3.68170898 0.2305957 4.95703125 0.31640625 C6.22450195 0.3947168 6.22450195 0.3947168 7.51757812 0.47460938 C9.60189424 0.60414314 11.68576307 0.74083802 13.76953125 0.87890625 C13.76953125 1.20890625 13.76953125 1.53890625 13.76953125 1.87890625 C5.84953125 2.20890625 -2.07046875 2.53890625 -10.23046875 2.87890625 C-6.5781377 0.44401888 -4.2799107 -0.27318579 0 0 Z " fill="#E0E4E7" transform="translate(88.23046875,3.12109375)"/>
<path d="M0 0 C1.32 0 2.64 0 4 0 C4 3.63 4 7.26 4 11 C3.01 11 2.02 11 1 11 C0.67 7.37 0.34 3.74 0 0 Z " fill="#66859F" transform="translate(96,181)"/>
<path d="M0 0 C4 4 4 4 4.20703125 6.2890625 C4.07683594 7.05992188 3.94664062 7.83078125 3.8125 8.625 C3.69519531 9.40101562 3.57789063 10.17703125 3.45703125 10.9765625 C3 13 3 13 2 15 C1.34 15 0.68 15 0 15 C0 10.05 0 5.1 0 0 Z " fill="#648EC5" transform="translate(153,44)"/>
<path d="M0 0 C3.87511727 0.54984772 5.59576506 2.27555331 8.25 5.0625 C8.95640625 5.79597656 9.6628125 6.52945312 10.390625 7.28515625 C10.92171875 7.85105469 11.4528125 8.41695312 12 9 C11.34 9.66 10.68 10.32 10 11 C9.52949219 10.51789062 9.05898437 10.03578125 8.57421875 9.5390625 C7.95160156 8.90742187 7.32898438 8.27578125 6.6875 7.625 C6.07261719 6.99851562 5.45773438 6.37203125 4.82421875 5.7265625 C2.91187472 3.81913393 2.91187472 3.81913393 0 2 C0 1.34 0 0.68 0 0 Z " fill="#EEEFF0" transform="translate(158,25)"/>
<path d="M0 0 C2.66735273 2.48952921 4.55746343 4.63408134 6 8 C5.01 8.99 4.02 9.98 3 11 C-1.06153846 5.70769231 -1.06153846 5.70769231 -0.75 2.125 C-0.5025 1.42375 -0.255 0.7225 0 0 Z " fill="#3B393A" transform="translate(13,145)"/>
<path d="M0 0 C0.33 3.63 0.66 7.26 1 11 C0.01 11 -0.98 11 -2 11 C-3.1577506 7.52674819 -3.06866652 4.63932552 -3 1 C-1 0 -1 0 0 0 Z " fill="#565556" transform="translate(3,107)"/>
<path d="M0 0 C-1.09589608 3.28768825 -1.47727309 3.64293383 -4.3125 5.3125 C-4.90675781 5.67988281 -5.50101563 6.04726563 -6.11328125 6.42578125 C-8 7 -8 7 -10.23046875 6.10546875 C-11.10638672 5.55826172 -11.10638672 5.55826172 -12 5 C-10.56705502 4.15885829 -9.12845595 3.32734313 -7.6875 2.5 C-6.88699219 2.0359375 -6.08648437 1.571875 -5.26171875 1.09375 C-3 0 -3 0 0 0 Z " fill="#D8DBDD" transform="translate(60,11)"/>
<path d="M0 0 C0 0.66 0 1.32 0 2 C-3.3 2.66 -6.6 3.32 -10 4 C-10 3.34 -10 2.68 -10 2 C-11.65 2 -13.3 2 -15 2 C-15 1.67 -15 1.34 -15 1 C-13.25021843 0.83105557 -11.50016388 0.66493691 -9.75 0.5 C-8.77546875 0.4071875 -7.8009375 0.314375 -6.796875 0.21875 C-4.53697847 0.04199832 -2.26679807 0 0 0 Z " fill="#494849" transform="translate(121,193)"/>
<path d="M0 0 C1.76462683 3.08809695 2 4.23312136 2 8 C1.34 8 0.68 8 0 8 C0 11.96 0 15.92 0 20 C-0.33 20 -0.66 20 -1 20 C-1.02696009 17.2291017 -1.04681952 14.4584655 -1.0625 11.6875 C-1.07087891 10.90181641 -1.07925781 10.11613281 -1.08789062 9.30664062 C-1.09111328 8.54931641 -1.09433594 7.79199219 -1.09765625 7.01171875 C-1.10289307 6.31522217 -1.10812988 5.61872559 -1.11352539 4.90112305 C-1 3 -1 3 0 0 Z " fill="#696869" transform="translate(195,85)"/>
<path d="M0 0 C2 1.4375 2 1.4375 4 4 C4.35442445 7.02824418 4.23347235 9.96485939 4 13 C3.01 13.495 3.01 13.495 2 14 C1.66179834 12.4176994 1.32964061 10.83410625 1 9.25 C0.814375 8.36828125 0.62875 7.4865625 0.4375 6.578125 C0 4 0 4 0 0 Z " fill="#136FB1" transform="translate(161,46)"/>
<path d="M0 0 C2.64752004 2.57784846 4.94432065 4.91648098 7 8 C6.34 8.66 5.68 9.32 5 10 C3.96704564 8.90716423 2.94892165 7.80029421 1.9375 6.6875 C1.36902344 6.07261719 0.80054687 5.45773438 0.21484375 4.82421875 C-0.38650391 3.92123047 -0.38650391 3.92123047 -1 3 C-0.67 2.01 -0.34 1.02 0 0 Z " fill="#4A494A" transform="translate(18,153)"/>
<path d="M0 0 C-3.3 2.64 -6.6 5.28 -10 8 C-10.66 7.67 -11.32 7.34 -12 7 C-10.38256073 3.479691 -8.92879075 1.68880731 -5.4375 0.125 C-2 -1 -2 -1 0 0 Z " fill="#5B5A5C" transform="translate(47,17)"/>
<path d="M0 0 C2.31 0.33 4.62 0.66 7 1 C7 1.66 7 2.32 7 3 C7.66 3.33 8.32 3.66 9 4 C7.741875 4.04125 6.48375 4.0825 5.1875 4.125 C4.47980469 4.14820313 3.77210937 4.17140625 3.04296875 4.1953125 C1 4 1 4 -2 2 C-1.34 2 -0.68 2 0 2 C0 1.34 0 0.68 0 0 Z " fill="#555355" transform="translate(110,0)"/>
<path d="M0 0 C1.70059431 2.92371406 2.24062963 4.71201607 1.75 8.0625 C1.66234375 8.73410156 1.5746875 9.40570313 1.484375 10.09765625 C1 12 1 12 -1 15 C-2.20220203 11.46905698 -1.79532349 8.87101018 -1.0625 5.25 C-0.86785156 4.26515625 -0.67320312 3.2803125 -0.47265625 2.265625 C-0.31667969 1.51796875 -0.16070312 0.7703125 0 0 Z " fill="#4A484A" transform="translate(193,112)"/>
<path d="M0 0 C0.66 0.33 1.32 0.66 2 1 C-3 4.33333333 -8 7.66666667 -13 11 C-13 10.01 -13 9.02 -13 8 C-10.89407249 6.42203742 -8.87808391 5.08093564 -6.625 3.75 C-6.02171875 3.37359375 -5.4184375 2.9971875 -4.796875 2.609375 C-3.23911092 1.66779316 -1.62217532 0.82568307 0 0 Z " fill="#013B5F" transform="translate(61,25)"/>
<path d="M0 0 C3.14624993 -0.26218749 4.61837017 -0.24754367 7.3125 1.5 C8.1478125 2.2425 8.1478125 2.2425 9 3 C8.67 3.99 8.34 4.98 8 6 C4.5625 4.6875 4.5625 4.6875 1 3 C0.67 2.01 0.34 1.02 0 0 Z " fill="#525152" transform="translate(131,6)"/>
<path d="M0 0 C3 1 3 1 4.6875 3.25 C6.06511203 6.1364252 6.26985151 7.85173236 6 11 C0 3.6 0 3.6 0 0 Z " fill="#E5E7EA" transform="translate(176,44)"/>
<path d="M0 0 C0.99 0.33 1.98 0.66 3 1 C2.90460938 1.62648438 2.80921875 2.25296875 2.7109375 2.8984375 C2.60007812 3.71570313 2.48921875 4.53296875 2.375 5.375 C2.25898437 6.18710938 2.14296875 6.99921875 2.0234375 7.8359375 C2.01570313 8.55007813 2.00796875 9.26421875 2 10 C2.66 10.66 3.32 11.32 4 12 C2.68 12 1.36 12 0 12 C0 8.04 0 4.08 0 0 Z " fill="#CCD6E0" transform="translate(106,5)"/>
<path d="M0 0 C2.8203125 0.0234375 2.8203125 0.0234375 6.125 0.375 C7.22070312 0.48585937 8.31640625 0.59671875 9.4453125 0.7109375 C10.28835937 0.80632812 11.13140625 0.90171875 12 1 C12 1.33 12 1.66 12 2 C10.35 2 8.7 2 7 2 C7 2.66 7 3.32 7 4 C2.545 3.01 2.545 3.01 -2 2 C-1.34 1.34 -0.68 0.68 0 0 Z " fill="#4D4C4D" transform="translate(78,193)"/>
<path d="M0 0 C0.66 0.33 1.32 0.66 2 1 C1.05016642 2.50539661 0.08988109 4.00420347 -0.875 5.5 C-1.40867187 6.3353125 -1.94234375 7.170625 -2.4921875 8.03125 C-2.98976563 8.6809375 -3.48734375 9.330625 -4 10 C-4.66 10 -5.32 10 -6 10 C-4.52307692 3.47692308 -4.52307692 3.47692308 -1.875 1.0625 C-1.25625 0.711875 -0.6375 0.36125 0 0 Z " fill="#87ACD7" transform="translate(128,39)"/>
<path d="M0 0 C0.66 0 1.32 0 2 0 C2 3.63 2 7.26 2 11 C1.01 11 0.02 11 -1 11 C-0.67 7.37 -0.34 3.74 0 0 Z " fill="#0B445E" transform="translate(48,166)"/>
<path d="M0 0 C-1.39332574 3.36720387 -2.9789286 4.9859524 -6 7 C-6.66 6.34 -7.32 5.68 -8 5 C-3.375 0 -3.375 0 0 0 Z " fill="#DDDFE2" transform="translate(169,163)"/>
<path d="M0 0 C0.33 0.66 0.66 1.32 1 2 C0.22265625 3.9453125 0.22265625 3.9453125 -0.9375 6.125 C-1.31777344 6.84945312 -1.69804687 7.57390625 -2.08984375 8.3203125 C-2.39019531 8.87460938 -2.69054687 9.42890625 -3 10 C-3.33 10 -3.66 10 -4 10 C-4 7 -4 4 -4 1 C-2.68 0.67 -1.36 0.34 0 0 Z " fill="#1C5288" transform="translate(29,59)"/>
<path d="M0 0 C1.0326802 2.78823655 1.04509293 3.8677274 0.0625 6.75 C-0.288125 7.4925 -0.63875 8.235 -1 9 C-1.99 9 -2.98 9 -4 9 C-2.25 2.25 -2.25 2.25 0 0 Z " fill="#3F89C5" transform="translate(118,39)"/>
<path d="M0 0 C2.4375 1.5625 2.4375 1.5625 5 4 C5.8125 7.75 5.8125 7.75 6 11 C5.34 11 4.68 11 4 11 C3.52014033 9.72942818 3.0411407 8.45853152 2.5625 7.1875 C2.16224609 6.12595703 2.16224609 6.12595703 1.75390625 5.04296875 C1.13774814 3.37327604 0.56280765 1.68842296 0 0 Z " fill="#4187C2" transform="translate(153,39)"/>
<path d="M0 0 C0.33 0.66 0.66 1.32 1 2 C0.67 2.99 0.34 3.98 0 5 C-0.66 5 -1.32 5 -2 5 C-2 9.29 -2 13.58 -2 18 C-2.33 18 -2.66 18 -3 18 C-3.0809723 15.56183415 -3.14046972 13.12635616 -3.1875 10.6875 C-3.21263672 9.99720703 -3.23777344 9.30691406 -3.26367188 8.59570312 C-3.33834499 3.44325817 -3.33834499 3.44325817 -1.48828125 1.01953125 C-0.99714844 0.68308594 -0.50601563 0.34664062 0 0 Z " fill="#486E87" transform="translate(42,23)"/>
<path d="M0 0 C0.33 0 0.66 0 1 0 C1.04898438 0.85464844 1.09796875 1.70929688 1.1484375 2.58984375 C1.22320312 3.69457031 1.29796875 4.79929688 1.375 5.9375 C1.44460937 7.03964844 1.51421875 8.14179688 1.5859375 9.27734375 C1.72257812 10.17582031 1.85921875 11.07429687 2 12 C2.66 12.33 3.32 12.66 4 13 C4 13.99 4 14.98 4 16 C2.68 15.34 1.36 14.68 0 14 C0 9.38 0 4.76 0 0 Z " fill="#51758E" transform="translate(38,157)"/>
<path d="M0 0 C2.56616632 3.84924948 2.55097676 6.4349304 3 11 C0.9375 9.4375 0.9375 9.4375 -1 7 C-0.75 3.25 -0.75 3.25 0 0 Z " fill="#D2D5D9" transform="translate(190,71)"/>
<path d="M0 0 C-1 2 -1 2 -3.75 3.1875 C-7.04421792 4.01105448 -8.79021705 3.94405381 -12 3 C-12 2.67 -12 2.34 -12 2 C-7.8803623 0.70756464 -4.33168317 -0.26252625 0 0 Z " fill="#3763A9" transform="translate(153,72)"/>
<path d="M0 0 C1.32 0.33 2.64 0.66 4 1 C4.93619813 4.15506142 5.1057123 6.96586502 5.0625 10.25 C5.05347656 11.14203125 5.04445312 12.0340625 5.03515625 12.953125 C5.02355469 13.62859375 5.01195312 14.3040625 5 15 C4.67 15 4.34 15 4 15 C3.87882813 14.16855469 3.75765625 13.33710937 3.6328125 12.48046875 C3.46523437 11.39378906 3.29765625 10.30710937 3.125 9.1875 C2.96257812 8.10855469 2.80015625 7.02960937 2.6328125 5.91796875 C2.14867662 2.82678207 2.14867662 2.82678207 0 0 Z " fill="#9AB4DB" transform="translate(144,42)"/>
<path d="M0 0 C3.91211733 1.15585285 6.8745041 2.35534962 10 5 C7 6 7 6 3.875 4.75 C1 3 1 3 0 0 Z " fill="#3A3839" transform="translate(52,184)"/>
<path d="M0 0 C6.75 1.75 6.75 1.75 9 4 C8.67 4.99 8.34 5.98 8 7 C6.66382648 6.02471263 5.3311249 5.04466681 4 4.0625 C3.2575 3.51722656 2.515 2.97195312 1.75 2.41015625 C1.1725 1.94480469 0.595 1.47945312 0 1 C0 0.67 0 0.34 0 0 Z " fill="#403E40" transform="translate(151,17)"/>
<path d="M0 0 C1.32 0.66 2.64 1.32 4 2 C2.68 3.32 1.36 4.64 0 6 C-0.66 5.34 -1.32 4.68 -2 4 C-1.34 2.68 -0.68 1.36 0 0 Z " fill="#F2F4FA" transform="translate(135,50)"/>
<path d="M0 0 C0.66 0.33 1.32 0.66 2 1 C1.38125 1.0825 0.7625 1.165 0.125 1.25 C-2.17972859 1.79394438 -2.17972859 1.79394438 -3.0625 4 C-3.5265625 4.99 -3.5265625 4.99 -4 6 C-4.99 6.33 -5.98 6.66 -7 7 C-6.875 5.1875 -6.875 5.1875 -6 3 C-3.0625 1.1875 -3.0625 1.1875 0 0 Z " fill="#2390CB" transform="translate(126,32)"/>
<path d="M0 0 C1.32 0.33 2.64 0.66 4 1 C4.33 2.98 4.66 4.96 5 7 C4.34 7 3.68 7 3 7 C0 2.61538462 0 2.61538462 0 0 Z " fill="#454445" transform="translate(9,141)"/>
<path d="M0 0 C0.33 0 0.66 0 1 0 C1.3125 2.75 1.3125 2.75 1 6 C-1.5 8.375 -1.5 8.375 -4 10 C-3.34 7.69 -2.68 5.38 -2 3 C-1.34 3 -0.68 3 0 3 C0 2.01 0 1.02 0 0 Z " fill="#7691C5" transform="translate(152,55)"/>
<path d="M0 0 C2.97 0 5.94 0 9 0 C6.09907498 1.93395001 5.10325263 2.30131941 1.8125 2.625 C0.554375 2.74875 -0.70375 2.8725 -2 3 C-1.34 2.67 -0.68 2.34 0 2 C0 1.34 0 0.68 0 0 Z " fill="#005883" transform="translate(76,19)"/>
<path d="M0 0 C0.33 0 0.66 0 1 0 C0.67 2.31 0.34 4.62 0 7 C-0.99 7 -1.98 7 -3 7 C-2.01 4.69 -1.02 2.38 0 0 Z " fill="#413F40" transform="translate(188,134)"/>
<path d="M0 0 C0.66 0 1.32 0 2 0 C2.33 2.31 2.66 4.62 3 7 C2.01 6.67 1.02 6.34 0 6 C0 4.02 0 2.04 0 0 Z " fill="#434142" transform="translate(2,118)"/>
</svg>
