<svg id="svg" version="1.1" xmlns="http://www.w3.org/2000/svg" xmlns:xlink="http://www.w3.org/1999/xlink" width="400" height="400" viewBox="0, 0, 400,400"><g id="svgg"><path id="path0" d="M188.479 12.823 C 188.365 12.937,187.176 13.078,185.835 13.138 C 181.413 13.333,179.497 13.501,179.102 13.729 C 178.887 13.852,178.131 13.920,177.423 13.880 C 176.714 13.840,176.049 13.945,175.945 14.113 C 175.841 14.281,175.509 14.324,175.207 14.208 C 174.904 14.092,173.723 14.191,172.582 14.427 C 170.123 14.937,168.208 15.251,166.602 15.407 C 165.957 15.470,165.430 15.567,165.430 15.623 C 165.430 15.679,165.078 15.782,164.648 15.853 C 162.413 16.219,161.865 16.333,161.328 16.544 C 160.379 16.917,158.466 17.260,157.520 17.227 C 157.036 17.210,156.641 17.360,156.641 17.560 C 156.641 17.760,156.289 17.856,155.859 17.773 C 155.430 17.691,155.078 17.783,155.078 17.979 C 155.078 18.175,154.812 18.233,154.487 18.108 C 154.162 17.983,153.679 18.053,153.413 18.262 C 153.147 18.472,152.654 18.638,152.318 18.632 C 151.805 18.622,150.176 19.100,146.875 20.232 C 146.553 20.342,146.113 20.452,145.898 20.477 C 144.579 20.627,141.406 21.689,141.406 21.981 C 141.406 22.174,141.187 22.255,140.918 22.163 C 140.649 22.071,139.699 22.307,138.805 22.688 C 137.912 23.068,137.077 23.275,136.950 23.148 C 136.823 23.021,136.719 23.141,136.719 23.414 C 136.719 23.692,136.465 23.814,136.144 23.691 C 135.828 23.570,135.307 23.733,134.986 24.054 C 134.665 24.375,134.353 24.619,134.291 24.596 C 134.230 24.573,133.652 24.758,133.008 25.007 C 132.363 25.256,131.572 25.527,131.250 25.610 C 129.418 26.078,126.953 27.092,126.953 27.378 C 126.953 27.560,126.689 27.609,126.367 27.485 C 126.045 27.361,125.781 27.465,125.781 27.716 C 125.781 27.966,125.620 28.072,125.424 27.950 C 125.227 27.829,125.007 27.908,124.934 28.126 C 124.862 28.345,124.389 28.603,123.885 28.700 C 123.380 28.797,122.721 29.081,122.421 29.330 C 122.121 29.579,121.875 29.677,121.875 29.546 C 121.875 29.237,118.812 30.834,118.530 31.290 C 118.411 31.483,117.972 31.641,117.555 31.641 C 117.138 31.641,116.797 31.827,116.797 32.054 C 116.797 32.282,116.621 32.359,116.406 32.227 C 116.191 32.094,116.016 32.182,116.016 32.422 C 116.016 32.662,115.840 32.750,115.625 32.617 C 115.410 32.484,115.234 32.572,115.234 32.813 C 115.234 33.053,115.074 33.150,114.877 33.028 C 114.681 32.907,114.458 32.994,114.382 33.222 C 114.306 33.450,113.966 33.677,113.626 33.727 C 113.286 33.777,112.542 34.123,111.973 34.496 C 111.403 34.869,110.938 35.074,110.938 34.951 C 110.938 34.828,110.146 35.272,109.180 35.938 C 108.213 36.603,107.416 37.007,107.409 36.835 C 107.403 36.664,107.183 36.804,106.921 37.147 C 106.659 37.490,105.795 38.005,105.001 38.292 C 104.207 38.579,103.647 38.960,103.758 39.138 C 103.868 39.316,103.404 39.573,102.727 39.709 C 102.049 39.844,101.404 40.194,101.292 40.485 C 101.180 40.777,100.862 41.016,100.586 41.016 C 100.310 41.016,99.978 41.290,99.849 41.626 C 99.720 41.962,99.469 42.147,99.292 42.037 C 99.114 41.927,98.396 42.185,97.697 42.611 C 96.284 43.470,96.081 43.624,94.171 45.285 C 93.436 45.924,92.695 46.361,92.524 46.256 C 92.353 46.150,91.989 46.422,91.716 46.860 C 91.442 47.298,91.060 47.656,90.867 47.656 C 90.674 47.656,90.264 47.964,89.956 48.340 C 89.589 48.787,89.483 48.821,89.648 48.438 C 89.788 48.115,89.625 48.193,89.287 48.610 C 88.949 49.027,88.672 49.248,88.672 49.102 C 88.672 48.791,87.348 49.814,86.119 51.074 C 85.648 51.558,85.075 51.953,84.847 51.953 C 84.619 51.953,84.111 52.360,83.720 52.858 C 83.328 53.356,82.920 53.767,82.813 53.770 C 82.250 53.791,80.859 54.945,80.859 55.390 C 80.859 55.674,80.708 55.812,80.524 55.698 C 80.339 55.584,79.733 55.969,79.178 56.554 C 78.622 57.139,77.712 57.969,77.155 58.398 C 76.597 58.828,75.401 59.836,74.497 60.639 C 73.592 61.442,72.709 62.101,72.536 62.104 C 72.362 62.107,72.320 62.273,72.444 62.472 C 72.567 62.671,72.341 62.938,71.942 63.065 C 71.544 63.191,70.794 63.759,70.277 64.328 C 69.759 64.896,69.556 65.234,69.824 65.079 C 70.966 64.421,70.192 65.245,68.943 66.017 C 68.190 66.483,67.657 66.999,67.759 67.164 C 67.861 67.328,67.165 68.023,66.213 68.707 C 65.261 69.390,64.357 70.163,64.205 70.424 C 64.053 70.685,64.354 70.553,64.874 70.131 C 65.395 69.709,64.458 70.701,62.793 72.335 C 61.128 73.970,59.766 75.394,59.766 75.500 C 59.766 75.607,59.019 76.486,58.105 77.454 C 55.241 80.491,53.906 82.180,53.906 82.767 C 53.906 83.078,53.795 83.222,53.658 83.085 C 53.337 82.764,51.172 85.483,51.172 86.210 C 51.172 86.515,50.996 86.656,50.781 86.523 C 50.566 86.391,50.391 86.529,50.391 86.830 C 50.391 87.132,50.039 87.697,49.609 88.086 C 49.180 88.475,48.828 89.023,48.828 89.305 C 48.828 89.586,48.472 90.007,48.036 90.240 C 47.600 90.473,47.347 90.831,47.473 91.035 C 47.599 91.239,47.516 91.406,47.289 91.406 C 47.061 91.406,46.875 91.638,46.875 91.922 C 46.875 92.205,46.436 92.819,45.898 93.286 C 45.361 93.753,44.922 94.370,44.922 94.656 C 44.922 94.942,44.466 95.602,43.908 96.123 C 42.809 97.150,41.711 99.003,42.019 99.311 C 42.124 99.416,41.656 100.095,40.979 100.821 C 39.867 102.011,39.576 102.567,39.483 103.678 C 39.467 103.875,39.340 103.923,39.202 103.785 C 39.063 103.647,38.467 104.506,37.876 105.694 C 37.285 106.883,36.475 108.227,36.076 108.682 C 35.593 109.234,35.546 109.403,35.938 109.189 C 36.260 109.013,36.124 109.257,35.636 109.731 C 35.148 110.206,34.850 110.759,34.975 110.961 C 35.100 111.163,35.035 111.328,34.831 111.328 C 34.627 111.328,34.344 111.789,34.203 112.352 C 34.061 112.915,33.689 113.632,33.376 113.946 C 33.062 114.260,32.905 114.678,33.027 114.875 C 33.149 115.073,33.053 115.234,32.812 115.234 C 32.572 115.234,32.484 115.410,32.617 115.625 C 32.750 115.840,32.662 116.016,32.422 116.016 C 32.182 116.016,32.094 116.191,32.227 116.406 C 32.359 116.621,32.285 116.797,32.062 116.797 C 31.838 116.797,31.545 117.236,31.410 117.773 C 31.276 118.311,30.990 118.750,30.775 118.750 C 30.561 118.750,30.482 119.002,30.600 119.311 C 30.719 119.619,30.640 119.930,30.426 120.001 C 30.211 120.073,29.994 120.418,29.942 120.768 C 29.891 121.119,29.627 121.673,29.355 122.000 C 29.084 122.326,28.835 122.959,28.801 123.406 C 28.768 123.853,28.630 124.219,28.495 124.219 C 28.097 124.219,27.314 126.199,27.557 126.592 C 27.680 126.791,27.633 126.953,27.453 126.953 C 27.116 126.953,25.497 130.777,25.698 131.099 C 25.759 131.197,25.539 131.548,25.209 131.878 C 24.879 132.208,24.609 132.825,24.609 133.250 C 24.609 133.675,24.341 134.542,24.013 135.176 C 23.686 135.810,23.554 136.331,23.720 136.334 C 23.887 136.337,23.795 136.485,23.515 136.662 C 23.236 136.840,22.961 137.416,22.905 137.943 C 22.849 138.469,22.689 139.083,22.551 139.307 C 22.413 139.531,22.195 140.310,22.066 141.038 C 21.938 141.767,21.691 142.455,21.517 142.568 C 21.081 142.851,19.919 146.944,20.162 147.338 C 20.270 147.513,20.162 147.656,19.922 147.656 C 19.682 147.656,19.599 147.840,19.737 148.064 C 19.876 148.288,19.809 148.689,19.588 148.955 C 19.154 149.478,18.675 151.340,18.691 152.441 C 18.697 152.817,18.547 153.125,18.358 153.125 C 18.168 153.125,18.081 153.473,18.162 153.898 C 18.244 154.323,18.157 154.766,17.969 154.883 C 17.780 154.999,17.693 155.442,17.775 155.868 C 17.857 156.293,17.738 156.641,17.510 156.641 C 17.283 156.641,17.188 156.992,17.301 157.422 C 17.413 157.852,17.331 158.203,17.118 158.203 C 16.906 158.203,16.808 158.423,16.902 158.691 C 16.996 158.960,16.853 159.971,16.585 160.938 C 16.316 161.904,16.089 162.959,16.079 163.281 C 16.059 163.939,15.729 165.430,15.603 165.430 C 15.558 165.430,15.472 165.957,15.412 166.602 C 15.254 168.314,14.859 170.803,14.629 171.535 C 14.447 172.119,14.321 173.088,13.849 177.539 C 13.757 178.398,13.580 180.068,13.454 181.250 C 13.328 182.432,13.138 184.629,13.031 186.133 C 12.768 189.826,12.768 210.845,13.031 214.258 C 13.362 218.569,13.551 220.492,13.663 220.703 C 13.721 220.811,13.822 221.602,13.889 222.461 C 14.136 225.643,14.442 227.888,14.789 229.065 C 14.984 229.729,15.160 230.625,15.180 231.055 C 15.241 232.424,15.512 234.161,15.759 234.766 C 15.891 235.088,16.076 235.967,16.171 236.719 C 16.267 237.471,16.463 238.525,16.609 239.063 C 16.754 239.600,16.891 240.435,16.913 240.918 C 16.935 241.401,17.077 241.797,17.229 241.797 C 17.381 241.797,17.413 242.148,17.301 242.578 C 17.178 243.047,17.289 243.359,17.578 243.359 C 17.867 243.359,17.978 243.671,17.856 244.140 C 17.743 244.570,17.814 245.021,18.012 245.144 C 18.210 245.266,18.266 245.538,18.137 245.747 C 18.007 245.957,18.061 246.340,18.255 246.599 C 18.449 246.858,18.640 247.569,18.678 248.179 C 18.716 248.789,19.000 249.756,19.309 250.328 C 19.818 251.271,20.401 253.105,20.508 254.102 C 20.659 255.514,21.623 258.594,21.914 258.594 C 22.107 258.594,22.266 259.023,22.266 259.547 C 22.266 260.072,22.434 260.605,22.639 260.732 C 22.845 260.859,22.921 261.203,22.808 261.496 C 22.695 261.790,22.794 262.148,23.027 262.292 C 23.260 262.436,23.349 262.718,23.226 262.918 C 23.102 263.118,23.197 263.281,23.437 263.281 C 23.678 263.281,23.785 263.426,23.676 263.602 C 23.567 263.779,23.732 264.414,24.043 265.014 C 24.355 265.614,24.609 266.313,24.609 266.568 C 24.609 267.275,25.545 269.134,25.902 269.138 C 26.076 269.139,26.129 269.285,26.020 269.462 C 25.911 269.638,26.065 270.253,26.364 270.829 C 26.663 271.404,26.802 271.875,26.674 271.875 C 26.546 271.875,26.750 272.215,27.126 272.632 C 27.503 273.048,27.695 273.575,27.554 273.804 C 27.413 274.032,27.484 274.219,27.711 274.219 C 27.939 274.219,28.125 274.570,28.125 275.000 C 28.125 275.430,28.311 275.781,28.539 275.781 C 28.766 275.781,28.851 275.945,28.728 276.145 C 28.604 276.345,28.684 276.621,28.906 276.758 C 29.128 276.895,29.208 277.171,29.085 277.371 C 28.961 277.571,29.057 277.734,29.297 277.734 C 29.537 277.734,29.625 277.910,29.492 278.125 C 29.359 278.340,29.398 278.516,29.579 278.516 C 29.839 278.516,30.711 280.169,31.022 281.250 C 31.348 282.383,32.657 284.766,32.953 284.766 C 33.162 284.766,33.216 284.883,33.072 285.027 C 32.928 285.171,33.102 285.610,33.458 286.003 C 33.814 286.397,33.986 286.719,33.841 286.719 C 33.695 286.719,33.881 287.185,34.254 287.754 C 34.627 288.323,34.966 289.016,35.006 289.293 C 35.047 289.570,35.536 290.394,36.093 291.124 C 36.650 291.854,36.989 292.568,36.847 292.710 C 36.705 292.852,36.758 292.969,36.964 292.969 C 37.171 292.969,37.664 293.755,38.060 294.716 C 38.457 295.677,38.915 296.380,39.079 296.279 C 39.243 296.178,39.567 296.578,39.800 297.168 C 40.205 298.198,40.994 299.588,41.406 300.000 C 41.514 300.107,41.937 300.854,42.347 301.660 C 42.756 302.466,43.250 303.125,43.444 303.125 C 43.638 303.125,43.695 303.289,43.571 303.489 C 43.448 303.689,43.677 304.085,44.082 304.368 C 44.486 304.651,44.839 305.059,44.865 305.273 C 44.892 305.488,45.399 306.182,45.992 306.816 C 46.585 307.449,46.807 307.831,46.484 307.665 C 46.162 307.499,46.294 307.712,46.777 308.138 C 47.261 308.565,47.656 309.106,47.656 309.340 C 47.656 309.574,47.832 309.766,48.047 309.766 C 48.262 309.766,48.438 310.002,48.438 310.291 C 48.438 310.580,48.789 311.135,49.219 311.523 C 49.648 311.912,50.000 312.467,50.000 312.756 C 50.000 313.045,50.227 313.281,50.504 313.281 C 50.781 313.281,51.521 314.160,52.148 315.234 C 52.776 316.309,53.400 317.188,53.535 317.188 C 53.670 317.188,53.981 317.627,54.226 318.164 C 54.471 318.701,54.949 319.141,55.288 319.141 C 55.628 319.141,55.797 319.316,55.664 319.531 C 55.531 319.746,55.609 319.922,55.836 319.922 C 56.064 319.922,56.250 320.186,56.250 320.508 C 56.250 320.830,56.524 321.094,56.859 321.094 C 57.194 321.094,57.365 321.261,57.239 321.465 C 57.113 321.669,57.366 322.027,57.802 322.260 C 58.237 322.493,58.594 322.952,58.594 323.279 C 58.594 323.606,58.770 323.766,58.984 323.633 C 59.199 323.500,59.375 323.602,59.375 323.859 C 59.375 324.315,62.323 327.742,62.571 327.574 C 62.639 327.527,63.398 328.190,64.258 329.046 C 65.117 329.902,65.460 330.353,65.020 330.047 C 63.880 329.256,65.340 330.670,66.999 331.963 C 67.640 332.462,67.900 332.756,67.578 332.616 C 66.968 332.352,68.120 333.419,69.387 334.292 C 69.789 334.568,69.854 334.685,69.531 334.550 C 69.209 334.416,69.648 334.947,70.508 335.731 C 71.367 336.515,72.598 337.673,73.242 338.305 C 73.887 338.937,74.623 339.454,74.879 339.453 C 75.135 339.453,75.470 339.656,75.623 339.904 C 75.808 340.203,75.729 340.248,75.391 340.039 C 75.052 339.830,74.974 339.876,75.158 340.174 C 75.311 340.422,75.605 340.625,75.810 340.625 C 76.016 340.625,76.999 341.417,77.995 342.385 C 78.991 343.353,80.564 344.648,81.492 345.262 C 82.419 345.877,83.067 346.491,82.930 346.627 C 82.794 346.763,82.975 346.875,83.333 346.875 C 83.691 346.875,83.984 347.051,83.984 347.266 C 83.984 347.480,84.254 347.656,84.583 347.656 C 84.912 347.656,85.282 347.920,85.406 348.242 C 85.529 348.564,85.834 348.828,86.082 348.828 C 86.330 348.828,86.863 349.268,87.267 349.805 C 87.670 350.342,88.239 350.781,88.531 350.781 C 88.823 350.781,89.063 350.957,89.063 351.172 C 89.063 351.387,89.307 351.563,89.607 351.563 C 89.906 351.563,90.256 351.837,90.385 352.173 C 90.514 352.509,90.797 352.674,91.013 352.541 C 91.229 352.407,91.406 352.484,91.406 352.711 C 91.406 352.939,91.637 353.125,91.919 353.125 C 92.201 353.125,92.948 353.669,93.579 354.333 C 94.210 354.997,96.221 356.422,98.047 357.499 C 99.873 358.576,101.631 359.690,101.953 359.974 C 102.528 360.482,102.709 360.547,103.539 360.547 C 103.766 360.547,103.844 360.723,103.711 360.938 C 103.578 361.152,103.746 361.328,104.084 361.328 C 104.788 361.328,106.312 362.117,106.724 362.695 C 106.877 362.910,107.141 363.101,107.310 363.120 C 108.035 363.199,109.204 363.848,109.497 364.334 C 109.671 364.624,109.979 364.758,110.180 364.634 C 110.382 364.509,110.547 364.593,110.547 364.821 C 110.547 365.048,110.679 365.203,110.840 365.164 C 111.237 365.069,114.225 366.527,114.389 366.897 C 114.461 367.059,114.681 367.093,114.877 366.972 C 115.074 366.850,115.234 366.915,115.234 367.116 C 115.234 367.316,115.741 367.582,116.359 367.705 C 116.978 367.829,117.769 368.215,118.117 368.563 C 118.465 368.912,118.753 369.052,118.756 368.876 C 118.759 368.699,118.891 368.730,119.049 368.945 C 119.360 369.368,121.946 370.884,122.266 370.830 C 122.373 370.812,122.868 370.951,123.365 371.141 C 123.863 371.330,124.434 371.484,124.635 371.484 C 124.836 371.484,125.000 371.660,125.000 371.875 C 125.000 372.090,125.132 372.229,125.293 372.184 C 125.567 372.107,127.832 373.037,129.410 373.874 C 129.795 374.078,130.279 374.141,130.485 374.014 C 130.691 373.886,130.859 373.979,130.859 374.219 C 130.859 374.459,131.035 374.547,131.250 374.414 C 131.465 374.281,131.641 374.340,131.641 374.544 C 131.641 374.862,132.825 375.363,134.180 375.618 C 134.395 375.658,134.746 375.732,134.961 375.782 C 135.176 375.833,135.483 375.853,135.645 375.828 C 135.806 375.802,135.938 375.957,135.938 376.172 C 135.938 376.387,136.333 376.568,136.816 376.575 C 137.300 376.582,138.020 376.833,138.417 377.134 C 138.814 377.435,139.385 377.586,139.686 377.470 C 139.988 377.355,140.234 377.428,140.234 377.634 C 140.234 377.840,141.597 378.326,143.262 378.714 C 144.927 379.102,146.398 379.585,146.531 379.787 C 146.664 379.989,147.235 380.181,147.800 380.214 C 148.365 380.247,148.828 380.367,148.828 380.481 C 148.828 380.595,149.260 380.725,149.787 380.768 C 151.213 380.886,151.734 381.023,151.972 381.341 C 152.090 381.498,152.895 381.696,153.762 381.780 C 154.629 381.865,155.723 382.140,156.193 382.391 C 156.663 382.643,157.187 382.762,157.359 382.656 C 157.530 382.551,158.361 382.701,159.206 382.991 C 161.032 383.618,163.532 384.091,164.727 384.036 C 165.199 384.014,165.698 384.177,165.834 384.397 C 165.970 384.617,166.427 384.688,166.848 384.554 C 167.270 384.420,167.827 384.483,168.085 384.693 C 168.514 385.042,171.487 385.512,174.414 385.692 C 175.059 385.732,175.770 385.879,175.995 386.020 C 176.220 386.161,176.924 386.219,177.558 386.148 C 178.192 386.077,178.887 386.130,179.102 386.266 C 179.316 386.402,180.195 386.564,181.055 386.626 C 181.914 386.688,183.936 386.833,185.547 386.947 C 189.438 387.223,210.741 387.227,214.453 386.953 C 218.874 386.627,220.888 386.434,220.996 386.327 C 221.050 386.274,221.753 386.190,222.559 386.141 C 225.539 385.960,229.113 385.459,229.492 385.170 C 229.707 385.006,230.146 384.857,230.469 384.838 C 231.569 384.774,234.178 384.427,235.547 384.161 C 236.299 384.016,237.090 383.867,237.305 383.832 C 237.520 383.796,237.871 383.663,238.086 383.536 C 238.301 383.408,238.784 383.354,239.160 383.414 C 239.536 383.475,239.844 383.374,239.844 383.191 C 239.844 383.007,240.192 382.924,240.617 383.006 C 241.042 383.088,241.487 382.998,241.606 382.806 C 241.725 382.613,242.062 382.548,242.356 382.661 C 242.649 382.774,243.008 382.675,243.152 382.442 C 243.296 382.209,243.563 382.111,243.745 382.224 C 243.928 382.336,245.102 382.153,246.355 381.816 C 247.608 381.480,248.929 381.139,249.291 381.059 C 249.653 380.979,250.312 380.720,250.756 380.482 C 251.200 380.245,251.563 380.144,251.563 380.258 C 251.563 380.372,252.469 380.121,253.576 379.700 C 254.684 379.280,255.726 379.019,255.893 379.122 C 256.060 379.225,256.308 379.128,256.445 378.906 C 256.582 378.684,256.858 378.604,257.058 378.728 C 257.258 378.851,257.422 378.758,257.422 378.522 C 257.422 378.285,257.642 378.135,257.910 378.190 C 258.179 378.244,258.799 378.068,259.287 377.797 C 259.776 377.527,260.831 377.222,261.631 377.120 C 262.431 377.018,263.145 376.763,263.216 376.553 C 263.288 376.344,263.673 376.172,264.072 376.172 C 264.471 376.172,264.912 375.987,265.052 375.761 C 265.192 375.534,265.510 375.418,265.758 375.502 C 266.007 375.586,266.788 375.331,267.492 374.937 C 268.197 374.542,269.006 374.219,269.290 374.219 C 269.573 374.219,270.628 373.781,271.634 373.246 C 272.640 372.712,273.589 372.291,273.743 372.312 C 274.348 372.394,275.781 371.764,275.781 371.416 C 275.781 371.213,275.926 371.137,276.102 371.246 C 276.278 371.355,276.986 371.101,277.674 370.683 C 278.362 370.264,279.127 369.922,279.373 369.922 C 279.620 369.922,280.173 369.614,280.603 369.238 C 281.100 368.803,281.264 368.759,281.053 369.118 C 280.831 369.494,281.165 369.415,282.060 368.879 C 282.796 368.438,284.014 367.746,284.766 367.340 C 285.518 366.934,286.221 366.510,286.328 366.398 C 286.621 366.094,288.784 365.120,289.446 364.996 C 289.764 364.935,290.087 364.701,290.162 364.474 C 290.238 364.248,290.527 364.062,290.805 364.062 C 291.083 364.062,291.528 363.801,291.793 363.481 C 292.059 363.161,292.432 362.996,292.622 363.113 C 292.813 363.231,292.969 363.177,292.969 362.992 C 292.969 362.808,293.554 362.445,294.270 362.187 C 294.985 361.928,296.610 360.939,297.880 359.989 C 299.149 359.039,300.260 358.332,300.346 358.419 C 300.503 358.576,304.017 356.137,305.008 355.184 C 305.292 354.911,305.754 354.688,306.035 354.688 C 306.316 354.688,306.787 354.344,307.081 353.924 C 307.376 353.504,307.881 353.109,308.203 353.045 C 308.525 352.982,309.141 352.546,309.570 352.078 C 310.000 351.609,310.615 351.169,310.938 351.101 C 311.260 351.033,311.805 350.672,312.149 350.300 C 312.493 349.928,312.889 349.738,313.028 349.877 C 313.167 350.016,313.281 349.870,313.281 349.551 C 313.281 349.233,313.940 348.598,314.746 348.142 C 316.737 347.014,317.879 346.129,319.263 344.643 C 319.906 343.952,320.585 343.482,320.772 343.598 C 320.960 343.713,321.065 343.637,321.006 343.427 C 320.947 343.218,321.074 342.990,321.289 342.920 C 321.822 342.748,322.790 341.936,325.072 339.746 C 326.135 338.726,327.180 337.891,327.393 337.891 C 327.606 337.891,327.714 337.759,327.633 337.598 C 327.552 337.437,328.097 336.689,328.845 335.938 C 329.592 335.186,330.044 334.842,329.848 335.175 C 329.652 335.507,329.880 335.338,330.355 334.798 C 330.829 334.258,331.620 333.488,332.113 333.085 C 332.605 332.683,332.744 332.470,332.422 332.612 C 332.100 332.754,332.177 332.594,332.594 332.256 C 333.011 331.917,333.465 331.641,333.602 331.641 C 333.740 331.641,334.087 331.201,334.375 330.665 C 334.662 330.128,334.985 329.777,335.093 329.884 C 335.342 330.134,336.719 328.902,336.719 328.430 C 336.719 328.234,337.554 327.244,338.574 326.228 C 340.992 323.823,343.050 321.484,342.749 321.484 C 342.618 321.484,343.185 320.830,344.009 320.029 C 344.834 319.229,345.508 318.424,345.508 318.240 C 345.508 318.056,345.815 317.681,346.191 317.406 C 346.567 317.131,346.875 316.706,346.875 316.461 C 346.875 316.216,347.051 316.016,347.266 316.016 C 347.480 316.016,347.656 315.758,347.656 315.443 C 347.656 315.129,348.013 314.680,348.448 314.447 C 348.884 314.214,349.135 313.852,349.005 313.643 C 348.876 313.433,348.915 313.310,349.092 313.369 C 349.269 313.428,349.446 313.331,349.486 313.154 C 349.526 312.977,349.877 312.537,350.267 312.177 C 350.657 311.818,351.030 311.260,351.096 310.938 C 351.161 310.615,351.469 310.156,351.779 309.918 C 352.090 309.679,352.344 309.305,352.344 309.087 C 352.344 308.868,352.739 308.396,353.223 308.037 C 353.706 307.679,353.838 307.516,353.516 307.676 C 353.193 307.835,353.501 307.310,354.199 306.508 C 354.897 305.707,355.469 304.914,355.469 304.748 C 355.469 304.581,355.781 304.103,356.163 303.687 C 357.456 302.277,358.572 300.499,358.322 300.249 C 358.185 300.112,358.278 300.000,358.529 300.000 C 358.779 300.000,358.984 299.764,358.984 299.475 C 358.984 299.186,359.336 298.631,359.766 298.242 C 360.195 297.853,360.547 297.200,360.547 296.791 C 360.547 296.382,360.723 296.156,360.938 296.289 C 361.152 296.422,361.350 296.344,361.377 296.117 C 361.514 294.955,362.166 293.625,362.866 293.079 C 363.202 292.817,363.301 292.595,363.086 292.585 C 362.826 292.572,362.826 292.470,363.086 292.279 C 363.906 291.677,366.441 286.884,366.113 286.556 C 365.988 286.431,366.120 286.328,366.406 286.328 C 366.693 286.328,366.829 286.230,366.709 286.110 C 366.589 285.990,367.082 284.910,367.804 283.710 C 368.527 282.511,369.025 281.378,368.911 281.194 C 368.797 281.010,368.861 280.859,369.054 280.859 C 369.346 280.859,371.267 276.863,371.299 276.189 C 371.305 276.072,371.636 275.488,372.036 274.890 C 372.435 274.293,372.652 273.694,372.517 273.559 C 372.383 273.424,372.485 273.058,372.745 272.744 C 373.186 272.213,374.062 270.091,374.395 268.750 C 374.475 268.428,374.758 267.637,375.025 266.992 C 375.292 266.348,375.567 265.533,375.636 265.181 C 375.706 264.830,376.189 263.701,376.710 262.673 C 377.232 261.644,377.569 260.570,377.459 260.284 C 377.350 259.999,377.474 259.766,377.734 259.766 C 377.995 259.766,378.108 259.502,377.984 259.180 C 377.860 258.857,377.907 258.594,378.088 258.594 C 378.412 258.594,379.074 256.374,378.945 255.721 C 378.909 255.537,379.076 255.149,379.317 254.859 C 379.558 254.569,379.649 254.160,379.519 253.950 C 379.390 253.741,379.463 253.459,379.681 253.324 C 379.899 253.189,380.078 252.685,380.078 252.204 C 380.078 251.722,380.253 251.153,380.467 250.939 C 380.681 250.725,380.914 250.031,380.985 249.396 C 381.056 248.762,381.333 247.715,381.600 247.070 C 381.867 246.426,382.135 245.354,382.195 244.687 C 382.255 244.021,382.428 243.274,382.581 243.027 C 382.734 242.780,382.757 242.414,382.634 242.214 C 382.510 242.014,382.600 241.733,382.833 241.589 C 383.066 241.445,383.169 241.099,383.061 240.819 C 382.954 240.539,382.976 240.201,383.111 240.066 C 383.246 239.931,383.393 239.606,383.438 239.344 C 383.585 238.485,383.910 236.944,384.310 235.208 C 384.526 234.270,384.639 233.171,384.562 232.767 C 384.484 232.362,384.596 232.031,384.812 232.031 C 385.027 232.031,385.122 231.516,385.023 230.886 C 384.923 230.256,384.957 229.627,385.097 229.487 C 385.237 229.347,385.383 228.851,385.421 228.386 C 385.618 225.984,385.859 224.270,386.042 223.969 C 386.155 223.784,386.188 223.110,386.117 222.471 C 386.046 221.832,386.143 221.121,386.335 220.891 C 386.526 220.660,386.683 219.865,386.684 219.123 C 386.685 218.381,386.789 216.367,386.914 214.648 C 387.198 210.763,387.203 189.516,386.921 185.547 C 386.601 181.044,386.432 179.120,386.337 178.906 C 386.289 178.799,386.208 178.184,386.155 177.539 C 386.103 176.895,386.024 176.279,385.980 176.172 C 385.856 175.869,385.459 171.762,385.480 170.996 C 385.490 170.620,385.346 170.313,385.160 170.313 C 384.975 170.313,384.889 169.785,384.971 169.141 C 385.055 168.477,384.938 167.969,384.702 167.969 C 384.472 167.969,384.379 167.606,384.495 167.161 C 384.611 166.717,384.552 165.882,384.364 165.305 C 384.007 164.215,383.568 161.950,383.517 160.938 C 383.501 160.615,383.318 160.137,383.112 159.875 C 382.905 159.612,382.718 158.777,382.697 158.019 C 382.675 157.261,382.561 156.641,382.442 156.641 C 382.324 156.641,382.201 156.245,382.169 155.762 C 382.070 154.250,381.577 152.157,381.271 151.953 C 381.109 151.846,380.961 151.494,380.941 151.172 C 380.908 150.629,380.627 149.281,380.454 148.828 C 380.412 148.721,380.340 148.457,380.294 148.242 C 379.863 146.257,379.533 145.263,379.246 145.086 C 379.059 144.970,378.906 144.400,378.906 143.819 C 378.906 143.237,378.555 142.106,378.125 141.304 C 377.695 140.502,377.372 139.713,377.408 139.552 C 377.523 139.023,376.841 136.920,376.476 136.680 C 376.280 136.551,376.083 136.199,376.037 135.898 C 375.992 135.598,375.817 135.132,375.650 134.863 C 375.482 134.595,375.446 134.375,375.571 134.375 C 375.695 134.375,375.461 133.716,375.050 132.910 C 374.639 132.104,374.295 131.357,374.286 131.250 C 374.269 131.048,374.089 130.447,373.645 129.102 C 373.503 128.672,373.442 128.295,373.510 128.264 C 373.578 128.233,373.325 127.867,372.948 127.451 C 372.572 127.035,372.359 126.600,372.475 126.484 C 372.758 126.200,371.836 124.219,371.422 124.219 C 371.241 124.219,371.094 123.779,371.094 123.242 C 371.094 122.705,370.908 122.266,370.680 122.266 C 370.453 122.266,370.366 122.105,370.487 121.908 C 370.609 121.712,370.575 121.492,370.413 121.420 C 370.250 121.348,369.813 120.710,369.441 120.001 C 369.069 119.293,368.945 118.824,369.165 118.960 C 369.384 119.096,368.950 118.246,368.199 117.072 C 367.447 115.898,366.942 114.829,367.075 114.695 C 367.209 114.562,367.131 114.453,366.904 114.453 C 366.676 114.453,366.385 114.180,366.257 113.847 C 366.099 113.434,366.179 113.334,366.508 113.534 C 366.774 113.696,366.516 113.199,365.935 112.431 C 365.353 111.663,364.962 110.949,365.065 110.846 C 365.169 110.743,364.985 110.436,364.658 110.164 C 364.330 109.892,364.063 109.449,364.063 109.180 C 364.063 108.910,363.795 108.467,363.467 108.195 C 363.140 107.924,362.952 107.621,363.049 107.523 C 363.325 107.248,359.203 100.497,358.400 99.908 C 358.184 99.750,358.144 99.619,358.310 99.615 C 358.732 99.607,357.386 97.569,356.550 96.951 C 356.170 96.670,355.859 96.186,355.859 95.876 C 355.859 95.566,355.673 95.313,355.446 95.313 C 355.218 95.313,355.127 95.159,355.243 94.971 C 355.359 94.783,355.018 94.159,354.485 93.584 C 353.952 93.008,353.516 92.366,353.516 92.155 C 353.516 91.945,353.268 91.677,352.965 91.561 C 352.662 91.445,352.305 90.916,352.172 90.385 C 352.039 89.855,351.760 89.527,351.551 89.656 C 351.343 89.784,351.171 89.572,351.170 89.183 C 351.169 88.795,350.554 87.808,349.803 86.990 C 349.052 86.172,348.438 85.400,348.438 85.274 C 348.438 85.149,347.926 84.557,347.301 83.959 C 346.675 83.362,346.261 82.775,346.380 82.656 C 346.499 82.538,346.307 82.329,345.954 82.194 C 345.601 82.058,345.313 81.703,345.313 81.404 C 345.313 81.104,345.049 80.859,344.727 80.859 C 344.404 80.859,344.138 80.640,344.134 80.371 C 344.130 80.103,343.427 79.193,342.572 78.349 C 341.716 77.506,341.016 76.649,341.016 76.446 C 341.016 76.243,340.141 75.175,339.071 74.073 C 338.002 72.972,336.669 71.543,336.110 70.898 C 335.551 70.254,335.222 69.973,335.380 70.275 C 335.570 70.637,335.514 70.729,335.217 70.545 C 334.969 70.392,334.766 70.110,334.766 69.918 C 334.766 69.409,329.412 64.063,328.902 64.062 C 328.664 64.062,328.557 63.921,328.664 63.748 C 328.771 63.574,328.236 62.915,327.475 62.283 C 326.714 61.650,325.605 60.693,325.012 60.156 C 324.418 59.619,323.249 58.594,322.415 57.879 C 321.581 57.163,320.205 55.977,319.357 55.242 C 318.510 54.507,317.576 53.906,317.283 53.906 C 316.990 53.906,316.859 53.730,316.992 53.516 C 317.125 53.301,317.081 53.125,316.894 53.125 C 316.707 53.125,316.213 52.812,315.796 52.429 C 315.380 52.046,314.380 51.329,313.574 50.835 C 312.769 50.341,312.109 49.794,312.109 49.620 C 312.109 49.446,311.663 49.191,311.117 49.054 C 310.571 48.917,310.218 48.653,310.333 48.468 C 310.448 48.282,310.103 48.020,309.568 47.886 C 309.032 47.751,308.594 47.469,308.594 47.258 C 308.594 47.047,308.336 46.875,308.022 46.875 C 307.707 46.875,307.272 46.544,307.055 46.139 C 306.839 45.734,306.261 45.299,305.772 45.172 C 305.283 45.045,304.268 44.409,303.516 43.760 C 302.764 43.110,301.533 42.288,300.781 41.934 C 300.029 41.580,299.326 41.185,299.219 41.056 C 298.573 40.278,297.167 39.329,297.423 39.844 C 297.583 40.166,297.437 40.088,297.099 39.671 C 296.761 39.254,296.484 39.068,296.484 39.257 C 296.484 39.446,296.128 39.218,295.692 38.750 C 295.257 38.283,294.466 37.791,293.935 37.658 C 293.403 37.524,292.969 37.229,292.969 37.002 C 292.969 36.775,292.857 36.700,292.721 36.836 C 292.585 36.972,292.037 36.740,291.503 36.321 C 290.970 35.901,290.351 35.670,290.128 35.808 C 289.894 35.953,289.840 35.868,290.002 35.607 C 290.245 35.213,289.810 34.991,289.002 35.098 C 288.862 35.116,288.533 34.873,288.271 34.558 C 288.009 34.242,287.455 33.984,287.038 33.984 C 286.622 33.984,286.391 33.809,286.523 33.594 C 286.734 33.254,285.941 33.017,285.059 33.157 C 284.897 33.182,284.766 33.017,284.766 32.789 C 284.766 32.562,284.590 32.484,284.375 32.617 C 284.160 32.750,283.984 32.662,283.984 32.422 C 283.984 32.182,283.809 32.094,283.594 32.227 C 283.379 32.359,283.202 32.326,283.201 32.152 C 283.199 31.978,282.664 31.532,282.010 31.160 C 281.357 30.788,280.928 30.654,281.057 30.863 C 281.188 31.075,281.025 31.139,280.684 31.008 C 280.351 30.880,280.078 30.619,280.078 30.427 C 280.078 30.235,279.741 30.078,279.329 30.078 C 278.918 30.078,278.519 29.893,278.443 29.666 C 278.368 29.440,278.019 29.212,277.669 29.161 C 277.319 29.109,276.717 28.811,276.332 28.499 C 275.726 28.007,275.677 28.006,275.972 28.495 C 276.160 28.807,275.767 28.671,275.096 28.193 C 274.427 27.717,273.736 27.358,273.561 27.396 C 273.385 27.434,272.382 27.067,271.332 26.581 C 270.281 26.094,269.226 25.662,268.988 25.620 C 268.750 25.578,267.978 25.238,267.274 24.865 C 266.569 24.492,265.822 24.292,265.614 24.421 C 265.405 24.550,265.234 24.512,265.234 24.337 C 265.234 24.041,263.047 23.150,261.719 22.904 C 261.396 22.845,260.869 22.694,260.547 22.568 C 258.750 21.870,258.354 21.759,257.910 21.831 C 257.642 21.874,257.422 21.726,257.422 21.501 C 257.422 21.277,257.290 21.125,257.129 21.163 C 256.968 21.201,256.045 21.005,255.078 20.727 C 254.111 20.449,253.145 20.194,252.930 20.159 C 252.715 20.124,252.319 19.958,252.051 19.790 C 251.782 19.622,251.563 19.588,251.563 19.714 C 251.563 19.839,251.079 19.697,250.488 19.397 C 249.897 19.098,249.106 18.902,248.730 18.962 C 248.354 19.022,248.047 18.917,248.047 18.728 C 248.047 18.539,247.783 18.485,247.461 18.609 C 247.139 18.732,246.875 18.655,246.875 18.436 C 246.875 18.217,246.568 18.083,246.192 18.138 C 245.816 18.193,244.981 18.033,244.336 17.782 C 243.692 17.531,242.900 17.349,242.578 17.378 C 242.256 17.407,241.790 17.281,241.543 17.099 C 241.296 16.916,240.488 16.712,239.746 16.646 C 239.005 16.579,238.184 16.393,237.923 16.231 C 237.662 16.070,237.356 16.029,237.243 16.142 C 237.131 16.255,236.395 16.131,235.609 15.868 C 234.823 15.604,233.780 15.418,233.291 15.454 C 232.802 15.490,232.323 15.391,232.226 15.234 C 232.130 15.077,231.584 15.000,231.014 15.063 C 230.444 15.125,229.562 15.019,229.055 14.826 C 228.094 14.461,225.141 14.030,222.461 13.864 C 221.602 13.811,220.898 13.728,220.898 13.679 C 220.898 13.596,220.200 13.529,214.258 13.036 C 210.911 12.759,188.727 12.575,188.479 12.823 M224.023 109.569 C 229.022 109.773,232.456 110.154,234.309 110.710 C 234.667 110.818,235.765 110.998,236.747 111.110 C 237.730 111.222,239.287 111.580,240.207 111.904 C 241.127 112.229,242.037 112.398,242.229 112.279 C 242.421 112.160,242.578 112.244,242.578 112.465 C 242.578 112.685,242.842 112.765,243.164 112.641 C 243.486 112.518,243.750 112.569,243.750 112.756 C 243.750 112.943,244.893 113.423,246.289 113.823 C 247.686 114.223,248.828 114.696,248.828 114.874 C 248.828 115.053,249.442 115.314,250.192 115.455 C 250.973 115.601,251.450 115.881,251.309 116.109 C 251.174 116.328,251.296 116.430,251.581 116.335 C 251.866 116.240,252.418 116.481,252.808 116.870 C 253.197 117.260,253.857 117.578,254.275 117.578 C 254.692 117.578,255.307 117.969,255.642 118.446 C 255.976 118.924,256.250 119.181,256.250 119.017 C 256.250 118.739,256.667 119.026,257.993 120.215 C 258.293 120.483,258.666 120.703,258.822 120.703 C 259.399 120.703,261.726 122.719,261.525 123.044 C 261.411 123.230,261.662 123.491,262.084 123.625 C 262.506 123.759,262.960 124.213,263.094 124.635 C 263.228 125.057,263.501 125.301,263.701 125.177 C 263.901 125.054,264.221 125.366,264.413 125.871 C 264.605 126.377,265.063 127.039,265.430 127.344 C 265.797 127.648,266.254 128.311,266.446 128.816 C 266.656 129.368,266.975 129.623,267.247 129.455 C 267.503 129.297,267.594 129.346,267.457 129.568 C 267.323 129.783,267.516 130.301,267.885 130.718 C 268.253 131.135,268.608 131.733,268.674 132.047 C 268.739 132.360,269.059 132.821,269.383 133.070 C 269.708 133.319,269.951 133.583,269.923 133.656 C 269.894 133.729,269.987 134.141,270.129 134.570 C 270.826 136.689,271.221 137.500,271.555 137.500 C 271.756 137.500,271.814 137.674,271.682 137.886 C 271.551 138.099,271.692 138.846,271.995 139.546 C 273.234 142.410,273.437 143.044,273.224 143.389 C 273.101 143.587,273.149 143.750,273.331 143.750 C 273.512 143.750,273.680 144.058,273.703 144.434 C 273.726 144.810,273.946 146.611,274.191 148.438 C 274.965 154.195,274.788 163.694,273.854 166.523 C 273.594 167.310,273.485 168.121,273.611 168.325 C 273.738 168.529,273.650 168.814,273.417 168.958 C 273.184 169.102,273.088 169.466,273.203 169.766 C 273.319 170.067,273.251 170.313,273.052 170.313 C 272.694 170.313,272.103 172.621,272.338 173.104 C 272.406 173.242,272.126 173.725,271.717 174.178 C 271.308 174.630,271.109 175.000,271.276 175.000 C 271.443 175.000,271.384 175.236,271.145 175.524 C 270.906 175.813,270.826 176.164,270.967 176.305 C 271.108 176.447,271.009 176.563,270.745 176.563 C 270.482 176.563,270.371 176.732,270.499 176.939 C 270.627 177.146,270.418 177.644,270.034 178.046 C 269.650 178.447,269.281 179.025,269.214 179.329 C 269.148 179.634,268.708 180.206,268.238 180.600 C 267.768 180.995,267.646 181.202,267.969 181.060 C 268.348 180.892,268.314 180.999,267.871 181.362 C 267.495 181.670,267.188 182.015,267.188 182.129 C 267.188 182.244,266.045 183.485,264.648 184.888 C 263.252 186.292,262.109 187.366,262.109 187.275 C 262.109 187.184,261.758 187.417,261.328 187.793 C 260.898 188.169,260.195 188.784,259.766 189.160 C 259.336 189.536,258.898 189.846,258.792 189.849 C 258.247 189.863,255.859 191.207,255.859 191.499 C 255.859 191.685,255.332 192.021,254.688 192.246 C 254.043 192.471,253.516 192.863,253.516 193.118 C 253.516 193.658,255.722 195.053,256.153 194.786 C 256.314 194.687,257.061 194.933,257.813 195.333 C 258.565 195.734,259.004 196.075,258.789 196.091 C 258.269 196.131,260.215 197.234,260.837 197.252 C 261.104 197.259,261.719 197.611,262.204 198.032 C 262.689 198.454,263.231 198.794,263.408 198.788 C 263.586 198.782,264.069 199.167,264.483 199.643 C 264.896 200.120,265.235 200.351,265.235 200.157 C 265.235 199.963,265.651 200.288,266.159 200.879 C 266.667 201.470,267.282 201.953,267.526 201.953 C 267.769 201.953,267.925 202.085,267.871 202.246 C 267.817 202.407,267.949 202.593,268.164 202.660 C 268.379 202.727,268.685 203.133,268.844 203.564 C 269.004 203.995,269.311 204.238,269.528 204.104 C 269.745 203.970,269.922 204.055,269.922 204.292 C 269.922 204.530,270.330 205.112,270.830 205.585 C 271.329 206.058,271.864 206.709,272.017 207.031 C 272.742 208.553,273.335 209.347,273.570 209.112 C 273.712 208.970,273.828 209.222,273.828 209.671 C 273.828 210.120,274.283 211.028,274.839 211.689 C 275.396 212.350,275.750 212.891,275.627 212.891 C 275.504 212.891,275.753 213.511,276.179 214.270 C 276.605 215.028,276.953 215.821,276.953 216.032 C 276.953 216.242,277.288 217.160,277.697 218.071 C 278.107 218.981,278.576 220.254,278.740 220.898 C 279.074 222.213,279.159 222.528,279.291 222.949 C 279.342 223.110,279.351 223.638,279.312 224.121 C 279.273 224.604,279.405 225.000,279.605 225.000 C 279.806 225.000,279.886 225.440,279.783 225.979 C 279.680 226.517,279.770 227.176,279.984 227.444 C 280.198 227.711,280.326 228.765,280.268 229.785 C 280.211 230.806,280.285 231.641,280.433 231.641 C 280.706 231.641,280.595 238.749,280.277 241.602 C 280.182 242.461,280.018 243.955,279.913 244.922 C 279.808 245.889,279.459 247.632,279.137 248.797 C 278.815 249.961,278.642 251.060,278.752 251.238 C 278.862 251.417,278.766 251.563,278.539 251.563 C 278.311 251.563,278.125 252.004,278.125 252.544 C 278.125 253.084,277.962 253.831,277.763 254.205 C 277.426 254.835,276.936 256.054,276.743 256.738 C 276.697 256.899,276.617 257.163,276.565 257.324 C 276.513 257.485,276.491 257.749,276.516 257.910 C 276.542 258.071,276.399 258.203,276.198 258.203 C 275.881 258.203,275.233 259.612,275.300 260.156 C 275.313 260.264,275.127 260.589,274.886 260.879 C 274.645 261.169,274.406 261.694,274.355 262.044 C 274.303 262.394,274.076 262.743,273.849 262.818 C 273.623 262.894,273.438 263.108,273.438 263.294 C 273.438 263.480,272.992 264.113,272.447 264.701 C 271.902 265.288,271.533 265.969,271.627 266.214 C 271.720 266.458,271.456 266.870,271.040 267.131 C 270.623 267.391,270.368 267.742,270.473 267.912 C 270.577 268.081,270.364 268.503,270.000 268.848 C 268.923 269.867,268.359 270.641,268.359 271.100 C 268.359 271.337,268.184 271.422,267.969 271.289 C 267.754 271.156,267.578 271.332,267.578 271.680 C 267.578 272.027,267.402 272.203,267.188 272.070 C 266.973 271.938,266.797 272.023,266.797 272.260 C 266.797 272.779,262.652 276.953,262.136 276.953 C 261.936 276.953,261.396 277.480,260.938 278.125 C 260.479 278.770,259.851 279.297,259.544 279.297 C 259.236 279.297,258.984 279.483,258.984 279.711 C 258.984 279.938,258.832 280.030,258.646 279.915 C 258.460 279.800,257.976 280.075,257.572 280.526 C 257.167 280.976,255.913 281.784,254.785 282.320 C 253.657 282.856,252.734 283.460,252.734 283.663 C 252.734 283.865,252.559 283.922,252.344 283.789 C 252.129 283.656,251.953 283.696,251.953 283.878 C 251.953 284.060,251.582 284.237,251.128 284.271 C 250.674 284.305,249.987 284.619,249.600 284.969 C 249.213 285.320,248.574 285.667,248.179 285.742 C 247.784 285.817,247.461 285.914,247.461 285.957 C 247.461 286.001,247.109 286.083,246.680 286.139 C 246.250 286.195,245.371 286.461,244.727 286.731 C 244.082 287.001,242.951 287.283,242.213 287.357 C 241.475 287.431,240.746 287.695,240.592 287.944 C 240.439 288.192,240.037 288.289,239.700 288.160 C 239.363 288.031,238.978 288.101,238.845 288.317 C 238.712 288.533,238.311 288.666,237.954 288.614 C 237.597 288.562,236.602 288.658,235.742 288.828 C 234.883 288.998,233.564 289.214,232.813 289.308 C 232.061 289.402,230.918 289.554,230.273 289.644 C 224.043 290.518,221.885 290.559,174.414 290.697 L 131.836 290.820 131.836 200.000 L 131.836 109.180 176.367 109.311 C 200.859 109.383,222.305 109.499,224.023 109.569 M168.159 141.084 C 168.050 141.369,168.007 150.391,168.062 161.133 L 168.164 180.664 192.969 180.664 C 216.529 180.664,219.986 180.595,220.898 180.109 C 221.113 179.995,221.889 179.861,222.622 179.813 C 223.355 179.764,224.099 179.496,224.276 179.217 C 224.453 178.939,224.600 178.864,224.603 179.052 C 224.607 179.239,224.843 179.199,225.128 178.962 C 225.414 178.725,226.024 178.474,226.485 178.403 C 226.946 178.333,227.445 178.154,227.594 178.005 C 227.743 177.856,228.187 177.734,228.581 177.734 C 228.975 177.734,229.297 177.559,229.297 177.344 C 229.297 177.129,229.657 176.953,230.097 176.953 C 230.537 176.953,231.304 176.514,231.802 175.977 C 232.300 175.439,232.867 175.000,233.063 175.000 C 233.493 175.000,234.766 173.568,234.766 173.084 C 234.766 172.895,235.040 172.634,235.376 172.505 C 235.712 172.377,235.877 172.093,235.742 171.875 C 235.608 171.657,235.771 171.374,236.106 171.245 C 236.440 171.117,236.617 170.855,236.498 170.662 C 236.379 170.470,236.487 170.313,236.737 170.313 C 236.988 170.313,237.092 170.049,236.968 169.727 C 236.844 169.404,236.943 169.141,237.187 169.141 C 237.431 169.141,237.520 169.030,237.385 168.896 C 237.251 168.761,237.396 168.039,237.708 167.292 C 238.021 166.544,238.179 165.776,238.060 165.584 C 237.942 165.391,237.996 165.234,238.181 165.234 C 238.548 165.234,238.616 156.298,238.253 155.664 C 238.130 155.449,237.997 154.746,237.957 154.102 C 237.917 153.457,237.709 152.871,237.494 152.799 C 237.280 152.727,237.205 152.506,237.327 152.307 C 237.450 152.109,237.273 151.671,236.935 151.333 C 236.597 150.995,236.422 150.555,236.545 150.356 C 236.668 150.157,236.494 149.889,236.160 149.761 C 235.825 149.633,235.641 149.382,235.751 149.205 C 235.861 149.027,235.637 148.650,235.254 148.367 C 234.870 148.083,234.250 147.371,233.875 146.784 C 233.500 146.196,232.769 145.609,232.250 145.479 C 231.731 145.349,231.207 144.983,231.086 144.667 C 230.964 144.350,230.688 144.201,230.472 144.334 C 230.255 144.468,230.078 144.381,230.078 144.141 C 230.078 143.900,229.914 143.805,229.714 143.929 C 229.514 144.052,229.245 143.982,229.116 143.773 C 228.987 143.564,228.623 143.493,228.308 143.614 C 227.992 143.735,227.734 143.659,227.734 143.445 C 227.734 143.231,227.075 142.918,226.270 142.750 C 225.464 142.581,224.717 142.421,224.609 142.393 C 224.502 142.365,223.359 142.196,222.070 142.017 C 220.781 141.838,219.287 141.621,218.750 141.535 C 215.567 141.023,211.698 140.913,191.112 140.749 C 172.463 140.600,168.321 140.660,168.159 141.084 M190.723 210.843 L 167.969 210.944 167.969 235.185 L 167.969 259.426 192.871 259.263 C 216.504 259.109,219.968 259.009,222.266 258.410 C 222.803 258.270,223.770 258.103,224.414 258.039 C 225.059 257.974,226.201 257.646,226.953 257.310 C 228.869 256.452,229.835 256.116,230.176 256.188 C 230.337 256.222,230.469 256.064,230.469 255.836 C 230.469 255.609,230.645 255.531,230.859 255.664 C 231.074 255.797,231.250 255.709,231.250 255.469 C 231.250 255.229,231.426 255.141,231.641 255.273 C 231.855 255.406,232.031 255.329,232.031 255.101 C 232.031 254.874,232.220 254.688,232.450 254.688 C 232.680 254.688,233.113 254.468,233.413 254.199 C 234.705 253.040,235.147 252.734,235.530 252.734 C 235.754 252.734,235.938 252.567,235.938 252.362 C 235.938 252.156,236.356 251.570,236.867 251.059 C 237.379 250.548,237.919 249.746,238.067 249.278 C 238.216 248.809,238.483 248.516,238.662 248.627 C 239.030 248.854,239.998 246.566,239.873 245.762 C 239.822 245.434,239.975 245.347,240.275 245.533 C 240.608 245.738,240.683 245.637,240.518 245.207 C 240.386 244.863,240.439 244.526,240.635 244.459 C 240.831 244.391,241.034 243.765,241.086 243.066 C 241.139 242.368,241.283 241.797,241.406 241.797 C 241.529 241.797,241.650 241.489,241.675 241.113 C 241.700 240.737,241.817 239.990,241.935 239.453 C 242.294 237.825,242.573 230.078,242.273 230.078 C 242.118 230.078,241.969 229.595,241.940 229.004 C 241.845 227.044,241.347 225.211,240.559 223.926 C 240.130 223.228,239.887 222.656,240.017 222.656 C 240.148 222.656,239.962 222.085,239.606 221.387 C 238.765 219.742,234.032 215.234,233.144 215.234 C 232.768 215.234,232.282 214.927,232.063 214.551 C 231.844 214.175,231.659 214.021,231.653 214.208 C 231.646 214.395,231.359 214.315,231.015 214.030 C 230.671 213.744,230.188 213.463,229.941 213.404 C 229.694 213.345,227.925 212.859,226.009 212.324 C 223.910 211.738,221.232 211.307,219.273 211.242 C 217.484 211.182,216.019 211.038,216.018 210.922 C 216.017 210.807,215.444 210.719,214.746 210.727 C 214.048 210.735,203.237 210.788,190.723 210.843 " stroke="none" fill="#1c8ce4" fill-rule="evenodd"></path><path id="path1" d="M197.173 12.776 C 197.658 12.870,198.362 12.866,198.735 12.768 C 199.108 12.671,198.711 12.594,197.852 12.599 C 196.992 12.603,196.687 12.683,197.173 12.776 M201.469 12.776 C 201.955 12.870,202.658 12.866,203.032 12.768 C 203.405 12.671,203.008 12.594,202.148 12.599 C 201.289 12.603,200.983 12.683,201.469 12.776 M303.516 43.654 C 303.516 43.829,304.043 44.284,304.688 44.664 C 305.332 45.045,305.859 45.292,305.859 45.213 C 305.859 45.134,305.332 44.679,304.688 44.202 C 304.043 43.726,303.516 43.479,303.516 43.654 M78.495 56.858 C 77.979 57.407,77.821 57.755,78.143 57.631 C 78.651 57.436,79.916 55.859,79.564 55.859 C 79.492 55.859,79.011 56.309,78.495 56.858 M66.377 68.226 L 65.430 69.264 66.699 68.348 C 68.020 67.394,68.189 67.188,67.646 67.188 C 67.469 67.188,66.898 67.655,66.377 68.226 M64.258 70.520 C 63.613 71.048,63.275 71.481,63.506 71.482 C 63.737 71.484,64.339 71.045,64.844 70.508 C 66.001 69.276,65.770 69.281,64.258 70.520 M340.961 76.367 C 341.507 77.355,342.560 78.542,343.560 79.297 C 343.987 79.619,343.652 79.092,342.816 78.125 C 340.744 75.728,340.459 75.458,340.961 76.367 M46.598 91.797 C 46.485 92.227,46.238 92.578,46.048 92.578 C 45.858 92.578,45.703 92.775,45.703 93.017 C 45.703 93.320,45.884 93.305,46.289 92.969 C 46.611 92.701,46.875 92.255,46.875 91.977 C 46.875 91.699,47.095 91.383,47.363 91.274 C 47.730 91.126,47.721 91.070,47.327 91.046 C 47.038 91.030,46.710 91.367,46.598 91.797 M40.820 100.391 C 40.487 101.035,40.295 101.563,40.393 101.563 C 40.491 101.563,40.947 101.035,41.406 100.391 C 41.865 99.746,42.057 99.219,41.834 99.219 C 41.610 99.219,41.154 99.746,40.820 100.391 M253.939 117.721 C 254.726 118.410,256.008 118.821,255.519 118.228 C 255.224 117.871,254.711 117.578,254.379 117.578 C 254.047 117.578,253.849 117.642,253.939 117.721 M259.960 121.927 C 260.727 122.600,261.448 123.057,261.562 122.943 C 261.777 122.728,259.313 120.703,258.836 120.703 C 258.688 120.703,259.194 121.254,259.960 121.927 M377.344 139.746 C 377.344 139.932,377.599 140.426,377.910 140.843 C 378.457 141.575,378.469 141.570,378.254 140.717 C 378.032 139.835,377.344 139.101,377.344 139.746 M210.254 140.894 C 210.630 140.993,211.245 140.993,211.621 140.894 C 211.997 140.796,211.689 140.716,210.938 140.716 C 210.186 140.716,209.878 140.796,210.254 140.894 M21.371 141.797 C 21.259 142.227,21.306 142.578,21.475 142.578 C 21.645 142.578,21.876 142.227,21.988 141.797 C 22.101 141.367,22.054 141.016,21.884 141.016 C 21.714 141.016,21.484 141.367,21.371 141.797 M382.660 158.398 C 382.982 159.835,383.205 160.147,383.197 159.147 C 383.194 158.735,383.013 158.135,382.795 157.813 C 382.505 157.385,382.469 157.543,382.660 158.398 M225.879 178.528 C 224.713 178.996,224.762 179.234,225.977 179.002 C 226.514 178.899,226.953 178.660,226.953 178.470 C 226.953 178.280,226.909 178.136,226.855 178.150 C 226.802 178.163,226.362 178.333,225.879 178.528 M268.587 179.548 C 268.215 180.518,268.625 180.650,269.123 179.721 C 269.363 179.273,269.396 178.906,269.196 178.906 C 268.997 178.906,268.723 179.195,268.587 179.548 M262.756 186.261 C 262.400 186.654,262.109 187.120,262.109 187.298 C 262.109 187.475,262.461 187.214,262.891 186.719 C 263.320 186.223,263.672 185.757,263.672 185.682 C 263.672 185.390,263.374 185.578,262.756 186.261 M252.759 193.344 C 252.430 193.548,252.560 193.716,253.173 193.876 C 254.257 194.159,254.368 194.084,253.730 193.496 C 253.461 193.249,253.024 193.180,252.759 193.344 M256.250 194.723 C 256.250 194.990,258.642 196.176,258.820 195.997 C 258.905 195.912,258.362 195.551,257.612 195.194 C 256.863 194.836,256.250 194.624,256.250 194.723 M179.199 210.840 C 185.483 210.900,195.767 210.900,202.051 210.840 C 208.335 210.779,203.193 210.730,190.625 210.730 C 178.057 210.730,172.915 210.779,179.199 210.840 M236.328 217.773 C 236.596 218.096,236.990 218.359,237.205 218.359 C 237.423 218.359,237.381 218.100,237.109 217.773 C 236.842 217.451,236.447 217.188,236.232 217.188 C 236.015 217.188,236.057 217.447,236.328 217.773 M14.508 228.906 C 14.508 229.229,14.659 229.844,14.844 230.273 C 15.055 230.766,15.179 230.838,15.179 230.469 C 15.179 230.146,15.028 229.531,14.844 229.102 C 14.632 228.609,14.508 228.537,14.508 228.906 M226.953 257.257 L 225.977 257.845 226.953 257.586 C 228.371 257.210,229.299 256.664,228.516 256.666 C 228.193 256.667,227.490 256.933,226.953 257.257 M376.402 263.225 C 375.903 264.032,375.425 265.650,375.744 265.453 C 375.937 265.333,376.279 264.708,376.504 264.063 C 376.894 262.944,376.842 262.513,376.402 263.225 M256.149 281.216 C 254.544 282.246,254.322 282.608,255.737 281.888 C 256.422 281.540,257.091 281.079,257.225 280.862 C 257.538 280.355,257.444 280.386,256.149 281.216 M248.449 285.141 C 248.133 285.341,247.970 285.600,248.087 285.717 C 248.204 285.834,248.638 285.673,249.052 285.360 C 249.876 284.737,249.375 284.555,248.449 285.141 M214.941 290.894 C 215.317 290.993,215.933 290.993,216.309 290.894 C 216.685 290.796,216.377 290.716,215.625 290.716 C 214.873 290.716,214.565 290.796,214.941 290.894 M51.234 314.453 C 51.710 315.098,52.165 315.625,52.244 315.625 C 52.323 315.625,52.076 315.098,51.696 314.453 C 51.315 313.809,50.860 313.281,50.685 313.281 C 50.510 313.281,50.757 313.809,51.234 314.453 M62.891 328.260 C 62.891 328.350,63.550 328.916,64.355 329.518 C 65.555 330.415,65.680 330.452,65.043 329.723 C 64.303 328.876,62.891 327.916,62.891 328.260 M65.983 331.392 C 66.504 332.033,67.969 333.001,67.969 332.704 C 67.969 332.630,67.397 332.151,66.699 331.639 C 65.914 331.064,65.641 330.970,65.983 331.392 M329.222 335.449 C 328.476 336.317,328.022 337.109,328.271 337.109 C 328.376 337.109,328.838 336.582,329.297 335.938 C 330.207 334.659,330.160 334.356,329.222 335.449 M75.975 341.014 C 76.107 341.227,76.601 341.600,77.073 341.843 L 77.930 342.284 77.067 341.454 C 76.167 340.589,75.562 340.344,75.975 341.014 M320.089 343.837 C 319.460 344.525,319.296 344.830,319.725 344.516 C 320.950 343.619,321.593 342.947,321.405 342.759 C 321.310 342.664,320.718 343.149,320.089 343.837 M314.355 348.343 C 313.765 348.709,313.281 349.149,313.281 349.321 C 313.281 349.492,313.809 349.243,314.453 348.766 C 315.483 348.005,315.847 347.633,315.527 347.667 C 315.474 347.672,314.946 347.977,314.355 348.343 M92.578 353.906 C 93.074 354.336,93.567 354.688,93.675 354.688 C 93.783 354.688,93.553 354.336,93.164 353.906 C 92.775 353.477,92.282 353.125,92.067 353.125 C 91.853 353.125,92.083 353.477,92.578 353.906 M299.219 359.004 L 298.242 359.787 299.316 359.323 C 299.907 359.068,300.391 358.711,300.391 358.531 C 300.391 358.085,300.336 358.107,299.219 359.004 M287.500 365.672 C 286.748 366.075,286.421 366.405,286.773 366.406 C 287.125 366.406,287.828 366.061,288.336 365.638 C 289.453 364.707,289.288 364.714,287.500 365.672 M115.658 367.724 C 116.227 368.233,118.359 369.101,118.359 368.823 C 118.359 368.457,116.645 367.578,115.932 367.578 C 115.692 367.578,115.568 367.644,115.658 367.724 M272.438 372.832 C 271.706 373.379,271.711 373.391,272.565 373.176 C 273.051 373.053,273.545 372.798,273.662 372.609 C 273.992 372.075,273.278 372.205,272.438 372.832 M259.863 377.535 C 259.165 377.839,258.594 378.186,258.594 378.307 C 258.594 378.524,261.315 377.487,261.666 377.136 C 262.013 376.789,261.130 376.985,259.863 377.535 M144.922 379.444 C 145.674 379.735,146.362 379.910,146.452 379.831 C 146.738 379.579,146.323 379.394,144.922 379.151 L 143.555 378.913 144.922 379.444 " stroke="none" fill="#148ce4" fill-rule="evenodd"></path><path id="path2" d="" stroke="none" fill="#208ce4" fill-rule="evenodd"></path><path id="path3" d="" stroke="none" fill="#208ce4" fill-rule="evenodd"></path><path id="path4" d="" stroke="none" fill="#208ce4" fill-rule="evenodd"></path></g></svg>