<?xml version="1.0" encoding="UTF-8"?>
<svg version="1.1" xmlns="http://www.w3.org/2000/svg" width="327" height="430">
<path d="M0 0 C30.949705 23.00571658 39.91459902 57.41806825 45.69165039 93.79492188 C48.26332599 114.10851564 48.26332599 114.10851564 53.00415039 133.91992188 C58.16104535 137.35785185 63.37100714 137.02194235 69.42211914 136.87695312 C70.85634986 136.85454925 72.29059569 136.83309557 73.72485352 136.8125 C75.95192593 136.77563037 78.17820057 136.73278242 80.40478516 136.6730957 C100.24230385 136.1678358 100.24230385 136.1678358 108.1328125 142.67553711 C118.81724269 153.34801771 121.25823409 170.47246242 121.37915039 184.91992188 C121.29174548 196.63217979 120.49317356 207.98337987 112.19165039 216.85742188 C109.68624547 218.07433284 107.81797229 218.34392766 105.06665039 217.83398438 C101.2155492 216.12724635 98.4095054 213.06511034 95.43383789 210.14648438 C93.0501318 207.96205918 90.9009914 206.34965308 88.00415039 204.91992188 C84.40314939 205.16826677 81.42209887 205.78060571 78.00415039 206.91992188 C71.90687343 207.50619851 68.95308726 206.18622021 64.00415039 202.91992188 C63.67415039 202.58992187 63.34415039 202.25992188 63.00415039 201.91992188 C66.46351702 238.06677323 85.87874656 272.05146876 104.15942383 302.60327148 C116.90614859 323.98772807 116.90614859 323.98772807 115.00415039 335.91992188 C114.00707248 338.779267 113.24378081 339.74082201 111.00415039 341.91992188 C108.15233018 342.86263369 106.67186403 343.20655616 103.87939453 342.0078125 C103.18966553 341.53537109 102.49993652 341.06292969 101.78930664 340.57617188 C101.02038086 340.07214844 100.25145508 339.568125 99.45922852 339.04882812 C97.86684449 337.96470708 96.27569242 336.87877426 94.68579102 335.79101562 C90.03434176 332.68950303 90.03434176 332.68950303 84.60961914 331.87304688 C80.9065292 333.36094508 79.91488834 334.97299402 78.03149414 338.38476562 C75.42485522 344.81711795 75.17924489 351.85040918 74.58618164 358.70117188 C74.50972412 359.53285889 74.4332666 360.3645459 74.35449219 361.22143555 C74.20806963 362.85302388 74.07713784 364.48610303 73.96435547 366.12036133 C73.37584472 372.86374327 71.1842347 378.0131428 67.12915039 383.41992188 C65.00415039 384.91992188 65.00415039 384.91992188 62.12915039 385.48242188 C58.0001917 384.73920931 55.68207491 383.03730279 53.00415039 379.91992188 C50.78266317 376.02847647 49.01939365 371.97224793 47.25415039 367.85742188 C46.30117118 365.6998054 45.3480519 363.54225077 44.39477539 361.38476562 C43.98259766 360.43206787 43.57041992 359.47937012 43.14575195 358.49780273 C41.36433426 353.87001355 41.36433426 353.87001355 37.87915039 350.66992188 C34.16756428 349.70168202 30.77957531 349.21527479 27.00415039 349.91992188 C21.00084865 353.61426141 18.20055243 358.73574389 16.28051758 365.45068359 C15.63505546 368.24446726 15.05774481 371.04402304 14.50415039 373.85742188 C14.07777114 375.8992357 13.65068151 377.9409013 13.22290039 379.98242188 C12.63812775 382.82587884 12.05539107 385.66974678 11.47290039 388.51367188 C9.43245274 398.33332619 7.56044772 406.72579361 0.12915039 413.91992188 C-3.6913183 416.36502184 -5.53653531 416.63659739 -9.99584961 415.91992188 C-14.9674038 413.1933758 -17.19556226 410.56650538 -19.74584961 405.54492188 C-20.07093506 404.91295898 -20.39602051 404.28099609 -20.73095703 403.62988281 C-24.27130561 396.62714133 -27.44769494 389.4380213 -30.58276367 382.24658203 C-30.98333984 381.33956543 -31.38391602 380.43254883 -31.79663086 379.49804688 C-32.14894775 378.68754883 -32.50126465 377.87705078 -32.86425781 377.04199219 C-34.03849707 374.83994523 -35.04091844 373.4653079 -36.99584961 371.91992188 C-42.36071437 370.62926418 -42.36071437 370.62926418 -47.51538086 371.97070312 C-50.71301505 374.48348968 -52.14018092 377.37248567 -53.80834961 380.98242188 C-54.14455322 381.67835449 -54.48075684 382.37428711 -54.82714844 383.09130859 C-56.67091417 386.94836206 -58.41153402 390.84593618 -60.11303711 394.76757812 C-60.46003662 395.56478271 -60.80703613 396.3619873 -61.16455078 397.18334961 C-61.82682445 398.71849775 -62.4786453 400.25821252 -63.11816406 401.80297852 C-65.41215819 407.17509789 -68.05672468 411.83409128 -72.93334961 415.29492188 C-75.84357073 416.17680706 -77.96201675 416.28398182 -80.99584961 415.91992188 C-88.40242195 411.92037281 -91.45803114 406.72839561 -93.99584961 398.91992188 C-94.72877316 396.07481641 -95.30477018 393.21003629 -95.86303711 390.32617188 C-96.19451852 388.70236162 -96.52656708 387.07866705 -96.85913086 385.45507812 C-97.36798707 382.93533206 -97.87183939 380.41486352 -98.36547852 377.89208984 C-98.85032733 375.42947987 -99.35532304 372.97165518 -99.86303711 370.51367188 C-100.00280975 369.77072876 -100.1425824 369.02778564 -100.28659058 368.2623291 C-101.68762602 361.59488557 -104.6914536 356.4111608 -109.30834961 351.41992188 C-112.19597122 349.80822609 -114.53682211 349.40617129 -117.83569336 349.29101562 C-121.90298349 350.47516338 -124.85900835 353.1886854 -127.14453125 356.66918945 C-128.19037954 358.62078326 -129.13752267 360.59393107 -130.05834961 362.60742188 C-130.39777588 363.31350586 -130.73720215 364.01958984 -131.08691406 364.74707031 C-132.56861815 367.83386569 -134.00533399 370.94045428 -135.44116211 374.04882812 C-139.53649902 382.69024658 -139.53649902 382.69024658 -143.99584961 384.91992188 C-148.4384544 385.07858633 -150.3373424 384.47366657 -153.74584961 381.60742188 C-159.69315445 373.24219638 -159.55245444 361.70601489 -160.17431641 351.83789062 C-160.66926774 344.9220986 -161.4960462 338.6899743 -166.30834961 333.35742188 C-169.85874727 331.45837196 -171.12316893 331.86332399 -174.99584961 332.91992188 C-178.54623403 334.86241326 -181.83807919 337.1996835 -185.16186523 339.50195312 C-190.34478103 342.93754213 -190.34478103 342.93754213 -193.88256836 342.84179688 C-196.55956233 341.67401392 -197.52563171 340.41929231 -198.99584961 337.91992188 C-201.26245253 331.12011311 -200.88023456 325.12189569 -197.79345703 318.60009766 C-195.95014438 314.98839261 -193.99337157 311.44832268 -191.99584961 307.91992188 C-191.27244385 306.63480713 -191.27244385 306.63480713 -190.53442383 305.32373047 C-188.38861351 301.51778707 -186.23563184 297.71605775 -184.07080078 293.92089844 C-178.08579626 283.40331727 -172.47215348 272.70972058 -166.99584961 261.91992188 C-166.64296875 261.23559082 -166.29008789 260.55125977 -165.92651367 259.84619141 C-157.37766826 243.18163042 -147.99584961 220.94218499 -147.99584961 201.91992188 C-148.98584961 202.74492187 -149.97584961 203.56992188 -150.99584961 204.41992188 C-155.23381999 207.44215126 -157.8595853 207.49061791 -162.99584961 206.91992188 C-164.02709961 206.56929687 -165.05834961 206.21867188 -166.12084961 205.85742188 C-169.75540325 204.67224134 -171.35975054 204.68364819 -174.99584961 205.91992188 C-177.8431133 208.06519747 -180.41586811 210.46356449 -182.99584961 212.91992188 C-186.89603191 216.53472498 -189.57039543 218.01510528 -194.99584961 217.91992188 C-199.16853157 215.79267225 -200.46122646 214.2360483 -202.22241211 209.90039062 C-208.59149329 189.85382216 -207.38428604 167.91016829 -197.99584961 148.91992188 C-194.19906531 142.79329267 -189.11575146 139.61036241 -182.34912109 137.3762207 C-179.03680527 136.73396339 -175.77138986 136.83781427 -172.41381836 136.89257812 C-170.9092634 136.90522892 -169.40470599 136.91758954 -167.90014648 136.9296875 C-165.5435405 136.95443713 -163.18706483 136.98236906 -160.83056641 137.01586914 C-158.54580919 137.04628786 -156.26121492 137.06391402 -153.97631836 137.08007812 C-153.28128708 137.09353775 -152.5862558 137.10699738 -151.87016296 137.12086487 C-147.25409039 137.14423871 -143.32100125 136.54898914 -138.99584961 134.91992188 C-136.58117725 131.29791334 -136.14498579 127.95437778 -135.48022461 123.74804688 C-135.34399689 122.92583649 -135.20776917 122.1036261 -135.06741333 121.25650024 C-134.7741954 119.48493462 -134.4839898 117.71286833 -134.19647217 115.94036865 C-133.43708336 111.27161374 -132.64902005 106.60769817 -131.86303711 101.94335938 C-131.70558014 101.00642242 -131.54812317 100.06948547 -131.38589478 99.10415649 C-125.30894389 63.05369702 -118.42814259 24.11991101 -86.50366211 1.34570312 C-59.15451158 -17.20340528 -27.67253534 -19.50707416 0 0 Z " fill="#FEFEFE" transform="translate(205.995849609375,14.080078125)"/>
<path d="M0 0 C5.87554576 2.75790923 8.54473859 7.19932264 11 13 C13.71828294 23.30538914 12.81092812 34.5264258 8 44 C5.77417589 47.40829317 3.92125619 49.73135829 0 51 C-3.23752951 51.66222194 -5.15257478 51.49405872 -8.0234375 49.8203125 C-13.87554166 45.27351039 -16.55162449 40.21454971 -18 33 C-18.89163184 23.89920607 -18.81146645 14.32017191 -13.3125 6.64453125 C-9.10137067 1.6876811 -6.78198189 -0.65211364 0 0 Z " fill="#030303" transform="translate(135,62)"/>
<path d="M0 0 C5.55587988 1.62046497 9.31989122 5.23281776 12.3984375 10.07421875 C16.78199788 19.47866566 16.12623196 30.63662113 13.125 40.390625 C11.02729713 45.02305218 7.6200952 49.5649524 3 51.875 C-0.24139989 52.4924095 -2.23881628 52.34696269 -5.06640625 50.59375 C-11.56203516 45.33025696 -13.63617406 39.92862734 -15 31.875 C-15.71862808 22.2265345 -15.65699697 13.37421983 -9.1640625 5.70703125 C-6.24920174 2.909435 -3.89688367 1.13659107 0 0 Z " fill="#030303" transform="translate(195,61.125)"/>
<path d="M0 0 C2.40625 0.1328125 2.40625 0.1328125 5 1 C6.40625 3.1796875 6.40625 3.1796875 7.5 5.875 C9.25912006 10.18484414 10.69291053 12.07952288 15 14 C21.22802776 14.95353253 27.69066815 14.73693918 33.2421875 11.5546875 C36.80002254 8.40798007 38.88639021 4.19519519 41 0 C43.475 0.495 43.475 0.495 46 1 C45.51259944 8.06730816 43.98800711 12.17350678 38.6875 17.1875 C33.01069688 21.01604164 27.96340812 22.58721714 21.125 22.5625 C20.42536133 22.56008301 19.72572266 22.55766602 19.00488281 22.55517578 C12.57917465 22.3272821 8.50329538 20.49296672 4 16 C-0.02988526 11.46637909 -1.06271675 6.95809099 -1 1 C-0.67 0.67 -0.34 0.34 0 0 Z " fill="#070707" transform="translate(141,129)"/>
</svg>
