<?xml version="1.0" encoding="UTF-8"?>
<svg version="1.1" xmlns="http://www.w3.org/2000/svg" width="817" height="1025">
<path d="M0 0 C8.8911073 6.32575197 14.95229335 15.76262155 17.3125 26.375 C18.20118887 41.07478803 16.79369688 51.82306813 7.6015625 63.85546875 C2.98330065 68.93870919 -2.57687798 72.35906569 -8.6875 75.375 C-7.63771973 75.43034912 -6.58793945 75.48569824 -5.50634766 75.54272461 C-1.6185669 75.74887472 2.26887915 75.96083108 6.15625 76.17456055 C7.84008335 76.26632037 9.52400376 76.35649666 11.20800781 76.44506836 C13.62589662 76.57251303 16.04341708 76.70561395 18.4609375 76.83984375 C19.59382706 76.89772316 19.59382706 76.89772316 20.74960327 76.95677185 C26.08475659 77.26112829 26.08475659 77.26112829 28.3125 78.375 C28.374375 77.488125 28.43625 76.60125 28.5 75.6875 C29.76690183 70.5224387 33.01191197 68.24205868 37.3125 65.375 C48.2007794 64.46798789 59.00042744 65.81070919 69.75 67.4375 C70.49551117 67.54726166 71.24102234 67.65702332 72.00912476 67.77011108 C138.79135997 77.64767943 212.65689106 97.59327301 264.3125 143.375 C265.56160156 144.46167969 265.56160156 144.46167969 266.8359375 145.5703125 C291.3948521 167.25772324 310.56758464 194.01751319 314.3125 227.375 C314.50502888 231.72440244 314.51354261 236.02652285 314.3125 240.375 C314.94414063 240.34019531 315.57578125 240.30539063 316.2265625 240.26953125 C335.72131865 239.67963229 352.48820454 246.97931503 366.5625 260.1875 C377.85719458 272.03653542 384.62178931 287.96959255 384.60302734 304.30688477 C384.61310318 305.58922752 384.61310318 305.58922752 384.62338257 306.8974762 C384.64226712 309.70384659 384.64628258 312.50997639 384.6484375 315.31640625 C384.65487433 317.28686111 384.66160334 319.25731503 384.66860962 321.22776794 C384.68056026 325.35409761 384.68429295 329.48034372 384.68310547 333.60668945 C384.68290294 338.8559837 384.71014696 344.10473257 384.74464989 349.35389805 C384.76705689 353.42494594 384.77093874 357.49586572 384.76988602 361.56696892 C384.7722235 363.4999777 384.78094062 365.43299103 384.79655075 367.36593819 C384.96126571 389.87747929 379.91328142 406.57495128 364.36328125 423.49609375 C350.54326619 437.00022275 332.94493234 440.21047298 314.3125 441.375 C314.3125 487.245 314.3125 533.115 314.3125 580.375 C317.6125 580.705 320.9125 581.035 324.3125 581.375 C336.66403039 584.3339047 347.66285747 590.22433106 357.3125 598.375 C357.90417969 598.82230469 358.49585938 599.26960937 359.10546875 599.73046875 C374.2625595 611.55785536 382.95130569 631.7730416 385.3125 650.375 C385.40266952 652.68560993 385.4470997 654.99832293 385.45294189 657.3106842 C385.45739858 658.30326733 385.45739858 658.30326733 385.4619453 659.31590265 C385.47055667 661.51408172 385.47213409 663.71220585 385.47363281 665.91040039 C385.47826645 667.49460972 385.48329184 669.07881795 385.48867798 670.6630249 C385.50175372 674.95473544 385.50823779 679.24643037 385.51268864 683.5381577 C385.51562792 686.22533007 385.51973438 688.91249825 385.52419281 691.5996685 C385.5378567 700.02411505 385.54752807 708.44855193 385.5513947 716.87300879 C385.55586911 726.56593691 385.573393 736.25872358 385.6023953 745.95160872 C385.62408652 753.46443593 385.63410298 760.97722357 385.63543582 768.49008173 C385.63647878 772.96737683 385.64227694 777.44453876 385.66025543 781.92180061 C385.67686476 786.13997408 385.67883001 790.35791611 385.67011642 794.57611084 C385.6693528 796.1134599 385.67359821 797.65082208 385.68357468 799.18813896 C385.8304187 823.25170326 378.78854263 843.48124898 362.125 861.125 C349.16376545 873.49217797 333.15416723 881.18259174 315.3125 883.375 C313.00669471 889.1199725 311.88024087 893.16854375 313.3125 899.375 C315.81564832 910.55572915 314.55978808 921.12096837 308.734375 931.0703125 C307.02047734 933.59483743 305.21485325 935.9899601 303.3125 938.375 C302.54486328 939.38820313 302.54486328 939.38820313 301.76171875 940.421875 C286.3797778 959.50616899 260.46298806 970.27522644 238.3125 979.375 C237.32830078 979.78202148 237.32830078 979.78202148 236.32421875 980.19726562 C174.13827792 1005.49426486 102.80756616 1013.85413641 36.3125 1017.375 C35.61717163 1017.41596802 34.92184326 1017.45693604 34.20544434 1017.49914551 C15.66887672 1018.58236851 -2.87593956 1018.62042619 -21.4375 1018.625 C-22.67356869 1018.62566278 -22.67356869 1018.62566278 -23.93460846 1018.62633896 C-108.46020366 1018.65002349 -195.445038 1011.02854523 -344.6875 943.375 C-355.15870265 932.4015449 -359.88661396 921.92981727 -359.87109375 906.90625 C-359.71408941 903.88642185 -359.31370518 901.54942462 -358.4375 898.6875 C-357.26757744 893.96349451 -358.00481833 890.16057703 -359.84375 885.6875 C-363.01835524 881.70579173 -367.12244502 881.65215071 -371.9609375 880.9609375 C-389.83767368 878.15012992 -405.52911713 865.44087453 -416.5 851.625 C-426.39378541 837.76292679 -431.78358535 821.68252138 -431.82794189 804.60462952 C-431.83091302 803.96065277 -431.83388414 803.31667602 -431.8369453 802.65318483 C-431.84555331 800.51495148 -431.84713381 798.37677464 -431.84863281 796.23852539 C-431.85326679 794.69696943 -431.85829222 793.1554146 -431.86367798 791.61386108 C-431.87675277 787.43771506 -431.88323791 783.26158508 -431.88768864 779.0854218 C-431.89062882 776.4692579 -431.89473549 773.85309829 -431.89919281 771.23693657 C-431.91285808 763.03139965 -431.92252809 754.82587265 -431.9263947 746.62032515 C-431.93086578 737.18663761 -431.94837351 727.75309566 -431.9773953 718.31945235 C-431.99911067 711.00361977 -432.0091043 703.68782785 -432.01043582 696.37196344 C-432.01147731 692.01421046 -432.01724312 687.6565945 -432.03525543 683.29887581 C-432.05190634 679.1906783 -432.05381048 675.08271827 -432.04511642 670.97449875 C-432.04435491 669.47991607 -432.0485693 667.98531972 -432.05857468 666.49077034 C-432.21581864 641.50461425 -425.50990319 620.08910193 -407.8125 602 C-396.0464456 590.45352403 -378.57354821 580.375 -361.6875 580.375 C-361.6875 534.505 -361.6875 488.635 -361.6875 441.375 C-366.3075 441.045 -370.9275 440.715 -375.6875 440.375 C-392.64726643 437.17968169 -407.43439831 427.96676836 -417.83984375 414.1640625 C-428.48605311 398.09346317 -430.15606797 383.02211269 -430.0859375 364.27734375 C-430.08796366 362.35168854 -430.09087958 360.42603408 -430.09463501 358.50038147 C-430.09903182 354.4854494 -430.09271247 350.47071898 -430.07861328 346.45581055 C-430.06151147 341.33982533 -430.07138589 336.22431209 -430.08933067 331.10834408 C-430.10023047 327.13864153 -430.0966941 323.16904879 -430.0889473 319.19934273 C-430.08696298 317.31411239 -430.08934151 315.4288717 -430.09638596 313.54365349 C-430.16021353 291.67122933 -425.31645199 274.15209277 -409.53125 258.1953125 C-397.70206719 247.15751868 -382.14397967 240.06028493 -365.75 240.3125 C-364.97785156 240.32152344 -364.20570313 240.33054688 -363.41015625 240.33984375 C-362.55744141 240.35724609 -362.55744141 240.35724609 -361.6875 240.375 C-361.73970703 239.12009766 -361.73970703 239.12009766 -361.79296875 237.83984375 C-362.53161411 206.07809331 -346.99901745 178.85710161 -325.6875 156.375 C-324.81738281 155.44042969 -323.94726562 154.50585938 -323.05078125 153.54296875 C-271.17972295 98.97461542 -186.26008184 77.38422521 -114.4375 67.0625 C-113.2721875 66.89081299 -112.106875 66.71912598 -110.90625 66.54223633 C-88.78269624 63.51634788 -88.78269624 63.51634788 -83 67.0625 C-79.23920208 70.82329792 -77.6875 72.97596205 -77.6875 78.375 C-76.2025 77.88 -76.2025 77.88 -74.6875 77.375 C-63.37630258 76.24248209 -52.04158296 76.2567283 -40.6875 76.375 C-40.6875 75.715 -40.6875 75.055 -40.6875 74.375 C-41.8940625 74.0965625 -41.8940625 74.0965625 -43.125 73.8125 C-53.26367186 69.72145697 -59.75981534 61.66329272 -64.5625 52.125 C-68.55057343 41.92174719 -68.5656396 28.91221603 -64.625 18.6875 C-58.65428886 6.7963927 -50.17265906 -1.0486729 -37.6875 -5.625 C-24.75088384 -9.28380706 -11.3127277 -6.74928839 0 0 Z " fill="#1784FA" transform="translate(431.6875,6.625)"/>
<path d="M0 0 C8.8911073 6.32575197 14.95229335 15.76262155 17.3125 26.375 C18.20118887 41.07478803 16.79369688 51.82306813 7.6015625 63.85546875 C2.98330065 68.93870919 -2.57687798 72.35906569 -8.6875 75.375 C-7.63771973 75.43034912 -6.58793945 75.48569824 -5.50634766 75.54272461 C-1.6185669 75.74887472 2.26887915 75.96083108 6.15625 76.17456055 C7.84008335 76.26632037 9.52400376 76.35649666 11.20800781 76.44506836 C13.62589662 76.57251303 16.04341708 76.70561395 18.4609375 76.83984375 C19.59382706 76.89772316 19.59382706 76.89772316 20.74960327 76.95677185 C26.08475659 77.26112829 26.08475659 77.26112829 28.3125 78.375 C28.745625 79.9528125 28.745625 79.9528125 29.1875 81.5625 C30.48188334 85.94902133 32.06287477 89.94044268 36.05639648 92.48706055 C38.89191895 93.60304315 41.50597467 93.92638436 44.53515625 94.26953125 C46.40651245 94.49189453 46.40651245 94.49189453 48.31567383 94.71875 C48.97709381 94.79480469 49.63851379 94.87085937 50.31997681 94.94921875 C65.78779951 96.74272266 81.04809261 99.2839317 96.3125 102.375 C97.13427734 102.53967773 97.95605469 102.70435547 98.80273438 102.87402344 C147.51624428 112.76307502 200.22095459 129.54487294 239.3125 161.375 C240.11010742 162.02251221 240.11010742 162.02251221 240.92382812 162.68310547 C262.64265004 180.40672115 281.46509062 202.55907822 285.3125 231.375 C285.46816072 234.99467975 285.4732562 238.61213719 285.4798584 242.23478699 C285.48565178 243.3306279 285.49144517 244.42646881 285.49741411 245.55551702 C285.5154562 249.2286575 285.52634013 252.90178267 285.53710938 256.57495117 C285.5454385 258.53719791 285.55377388 260.49944466 285.56259376 262.46168926 C285.60440049 271.78042095 285.63169814 281.09917789 285.65625 290.41796875 C285.65921235 291.52179175 285.65921235 291.52179175 285.66223454 292.6479142 C285.70140658 307.27112407 285.73508 321.89434268 285.75731659 336.51758862 C285.76228549 339.72925517 285.76732988 342.94092159 285.77246094 346.15258789 C285.77436694 347.34988332 285.77436694 347.34988332 285.77631146 348.57136653 C285.79766922 361.49996741 285.84666785 374.42831405 285.90670508 387.35678705 C285.96789114 400.64258324 286.00251329 413.92824835 286.0117898 427.21418363 C286.01769191 434.66886552 286.03535944 442.12311622 286.08317566 449.5776577 C286.1238623 455.92631014 286.14062177 462.27446088 286.12652284 468.62323787 C286.12007474 471.85946172 286.12860963 475.09439872 286.16039658 478.33050346 C286.39064468 503.08209774 286.39064468 503.08209774 278.3125 511.375 C277.86023293 511.92522922 277.40796585 512.47545843 276.94199371 513.04236126 C249.8888984 545.26280466 198.61730607 558.86959921 159.5 566.8125 C158.7698468 566.96151764 158.0396936 567.11053528 157.28741455 567.2640686 C128.54378945 573.09805572 99.6868781 576.48195383 70.49612427 579.16676331 C68.1155039 579.39378611 65.73764104 579.64325269 63.35913086 579.89135742 C58.57657859 580.37088118 53.80048148 580.68050354 49 580.91015625 C48.10627182 580.95331467 47.21254364 580.99647308 46.29173279 581.04093933 C-4.43443051 583.40205452 -56.02990835 584.43456592 -106.6875 580.375 C-107.66323975 580.29723328 -108.63897949 580.21946655 -109.64428711 580.13934326 C-259.84186942 568.01276874 -259.84186942 568.01276874 -314.6875 523.375 C-315.69683594 522.59382812 -315.69683594 522.59382812 -316.7265625 521.796875 C-324.07722488 515.90339239 -330.74666797 507.75909942 -332.6875 498.375 C-332.77777976 496.85110891 -332.81827882 495.32383749 -332.82172108 493.7972784 C-332.82617892 492.87793166 -332.83063676 491.95858492 -332.83522969 491.01137918 C-332.83504533 490.00488952 -332.83486097 488.99839987 -332.83467102 487.96141052 C-332.83834771 486.8892572 -332.8420244 485.81710387 -332.8458125 484.71246105 C-332.85685637 481.10704931 -332.8606945 477.50166637 -332.86450195 473.89624023 C-332.8707664 471.3156729 -332.87741319 468.73510646 -332.88441467 466.15454102 C-332.90417131 458.39779933 -332.91424794 450.64105635 -332.92314246 442.88429579 C-332.92752993 439.22522672 -332.93289585 435.56615908 -332.93813133 431.90709114 C-332.95514892 419.72998957 -332.96963804 407.55288888 -332.97688007 395.37577724 C-332.97878979 392.21609432 -332.98071014 389.05641141 -332.98266602 385.89672852 C-332.98314976 385.11146151 -332.9836335 384.3261945 -332.9841319 383.51713151 C-332.99241313 370.82668494 -333.01771527 358.13633322 -333.05024669 345.44592797 C-333.08342663 332.3951945 -333.10133899 319.34450901 -333.10452431 306.29373318 C-333.1066802 298.97527221 -333.11529179 291.65694921 -333.14098549 284.33852959 C-333.16514478 277.44136576 -333.16845001 270.54445249 -333.15822411 263.64725494 C-333.15773151 261.12834664 -333.16396936 258.60942568 -333.17778015 256.09055519 C-333.28789967 234.79857566 -331.41834595 216.9966405 -320.6875 198.375 C-319.90439453 196.93447266 -319.90439453 196.93447266 -319.10546875 195.46484375 C-296.09827064 155.91576143 -244.44327745 131.53162574 -202.6875 118.375 C-201.18628199 117.87866897 -199.68610143 117.37917632 -198.1875 116.875 C-197.48753906 116.64425781 -196.78757813 116.41351563 -196.06640625 116.17578125 C-194.25554672 115.56621441 -192.45209889 114.9345803 -190.65234375 114.29296875 C-161.01069773 103.95285967 -128.73830349 97.63241349 -97.46850586 95.14599609 C-91.51931791 94.60068449 -85.79498287 93.31610265 -81.3125 89.1875 C-79.84428428 86.64635741 -79.2523126 84.93034195 -78.625 82.125 C-78.315625 80.8875 -78.00625 79.65 -77.6875 78.375 C-66.53334325 74.65694775 -52.35157487 76.25349922 -40.6875 76.375 C-40.6875 75.715 -40.6875 75.055 -40.6875 74.375 C-41.8940625 74.0965625 -41.8940625 74.0965625 -43.125 73.8125 C-53.26367186 69.72145697 -59.75981534 61.66329272 -64.5625 52.125 C-68.55057343 41.92174719 -68.5656396 28.91221603 -64.625 18.6875 C-58.65428886 6.7963927 -50.17265906 -1.0486729 -37.6875 -5.625 C-24.75088384 -9.28380706 -11.3127277 -6.74928839 0 0 Z " fill="#FEFEFE" transform="translate(431.6875,6.625)"/>
<path d="M0 0 C3.97180256 3.97180256 5.48806898 6.61425844 5.75 12.25 C5.58734835 17.00932874 4.57372101 19.70799256 1.3125 23.3125 C-2.86675845 26.5063083 -5.84347988 27.82587808 -11.0625 28.3125 C-18.00852535 29.08047121 -24.86194714 30.13199617 -31.75 31.3125 C-38.03341092 32.38585375 -44.29533154 33.42168826 -50.625 34.1875 C-61.46930522 35.68780436 -72.08661116 38.63568428 -82.6875 41.3125 C-83.73373535 41.57643555 -84.7799707 41.84037109 -85.85791016 42.11230469 C-99.67605269 45.61745822 -113.35724053 49.21501329 -126.6875 54.3125 C-127.55463623 54.6427417 -128.42177246 54.9729834 -129.31518555 55.31323242 C-172.57173609 71.9093055 -221.12039187 96.43117987 -241.8828125 140.48242188 C-247.07621478 152.29363047 -248.99690436 164.83632876 -248.94819641 177.64189148 C-248.95202196 178.727787 -248.95584751 179.81368252 -248.95978898 180.93248397 C-248.97004153 184.54187239 -248.96614166 188.15109943 -248.9621582 191.76049805 C-248.96650882 194.35994615 -248.97169313 196.95939297 -248.97764587 199.55883789 C-248.9903475 205.86799611 -248.99219245 212.17711167 -248.98984561 218.48628052 C-248.98805806 223.61514959 -248.98982143 228.74400578 -248.99407005 233.87287331 C-248.99466524 234.60454386 -248.99526043 235.33621442 -248.99587366 236.09005681 C-248.99708547 237.57667909 -248.9982996 239.06330136 -248.99951603 240.54992364 C-249.010373 254.46643703 -249.00823718 268.38292615 -249.00213119 282.2994409 C-248.9969574 295.02272491 -249.00823291 307.74593246 -249.02722941 320.46920135 C-249.04661029 333.55061901 -249.05486377 346.6320005 -249.05110615 359.71343261 C-249.04919529 367.05096666 -249.05167095 374.38843556 -249.06582069 381.72595787 C-249.07898448 388.6215184 -249.07647127 395.51692314 -249.06340981 402.41248322 C-249.06104114 404.94246027 -249.06378905 407.47244807 -249.07203293 410.0024128 C-249.08247655 413.45647366 -249.07441841 416.91001723 -249.0617218 420.36405945 C-249.07278323 421.86450232 -249.07278323 421.86450232 -249.08406812 423.39525717 C-248.99886401 434.41733257 -244.72540487 441.93524519 -237.6875 450.3125 C-230.09679047 457.36285393 -221.54208803 463.00798626 -212.6875 468.3125 C-211.08261719 469.28123047 -211.08261719 469.28123047 -209.4453125 470.26953125 C-131.32517436 514.561665 -26.16080022 514.72844062 263.60644531 493.83300781 C295.65331205 484.89415262 328.09982811 473.81322063 353.3125 451.3125 C353.96605469 450.74144531 354.61960937 450.17039062 355.29296875 449.58203125 C357.09226959 447.90983334 358.68398402 446.15115499 360.3125 444.3125 C360.9125929 443.69945574 361.51268579 443.08641148 362.13096333 442.45479012 C370.16365153 432.52120866 368.2670086 419.72050748 368.1706543 407.64013672 C368.17523192 405.01587761 368.18283359 402.3916223 368.19322205 399.76737976 C368.21272326 393.39482129 368.1949862 387.02289382 368.1642585 380.65040068 C368.12971765 373.21312826 368.13165668 365.77599501 368.13473699 358.3386593 C368.13892226 345.05474361 368.10900899 331.77112219 368.06030273 318.48730469 C368.01318586 305.631441 367.99186686 292.77587145 367.9987793 279.91992188 C368.00747282 263.64586514 367.99315384 247.37198722 367.96002692 231.09796228 C367.95016825 225.92909838 367.94837829 220.76026822 367.94937706 215.59139633 C367.95013965 209.27672859 367.93573414 202.96229069 367.90309789 196.64770441 C367.88677521 193.43334189 367.87852862 190.21934778 367.88352966 187.00493813 C367.90353068 170.54800635 367.77506748 153.88385119 359.625 139.0625 C359.28251221 138.41249023 358.94002441 137.76248047 358.5871582 137.09277344 C332.33783789 88.47720349 276.09841754 63.30532746 225.5625 48.0625 C220.15498547 46.44725558 214.73554338 44.87469058 209.3125 43.3125 C208.35827148 43.03390137 207.40404297 42.75530273 206.42089844 42.46826172 C182.80807867 35.62322831 157.63360448 31.22923894 133.18359375 28.76171875 C132.40580566 28.68268311 131.62801758 28.60364746 130.82666016 28.5222168 C128.79892723 28.32906725 126.76864049 28.16324496 124.73828125 28 C119.55211561 26.95921875 116.39693867 24.53962797 112.9375 20.625 C110.82788584 16.32463267 110.50270656 13.01584572 111.3125 8.3125 C113.06400837 3.45136181 115.63501483 0.51656124 120.3125 -1.6875 C131.10334901 -2.84391069 142.08196741 -1.23945093 152.75 0.375 C153.49551117 0.48476166 154.24102234 0.59452332 155.00912476 0.70761108 C221.79135997 10.58517943 295.65689106 30.53077301 347.3125 76.3125 C348.56160156 77.39917969 348.56160156 77.39917969 349.8359375 78.5078125 C374.3948521 100.19522324 393.56758464 126.95501319 397.3125 160.3125 C397.50502888 164.66190244 397.51354261 168.96402285 397.3125 173.3125 C397.94414063 173.27769531 398.57578125 173.24289063 399.2265625 173.20703125 C418.72131865 172.61713229 435.48820454 179.91681503 449.5625 193.125 C460.85719458 204.97403542 467.62178931 220.90709255 467.60302734 237.24438477 C467.61310318 238.52672752 467.61310318 238.52672752 467.62338257 239.8349762 C467.64226712 242.64134659 467.64628258 245.44747639 467.6484375 248.25390625 C467.65487433 250.22436111 467.66160334 252.19481503 467.66860962 254.16526794 C467.68056026 258.29159761 467.68429295 262.41784372 467.68310547 266.54418945 C467.68290294 271.7934837 467.71014696 277.04223257 467.74464989 282.29139805 C467.76705689 286.36244594 467.77093874 290.43336572 467.76988602 294.50446892 C467.7722235 296.4374777 467.78094062 298.37049103 467.79655075 300.30343819 C467.96126571 322.81497929 462.91328142 339.51245128 447.36328125 356.43359375 C433.54326619 369.93772275 415.94493234 373.14797298 397.3125 374.3125 C397.3125 420.1825 397.3125 466.0525 397.3125 513.3125 C400.6125 513.6425 403.9125 513.9725 407.3125 514.3125 C419.66403039 517.2714047 430.66285747 523.16183106 440.3125 531.3125 C440.90417969 531.75980469 441.49585938 532.20710937 442.10546875 532.66796875 C457.2625595 544.49535536 465.95130569 564.7105416 468.3125 583.3125 C468.40266952 585.62310993 468.4470997 587.93582293 468.45294189 590.2481842 C468.45739858 591.24076733 468.45739858 591.24076733 468.4619453 592.25340265 C468.47055667 594.45158172 468.47213409 596.64970585 468.47363281 598.84790039 C468.47826645 600.43210972 468.48329184 602.01631795 468.48867798 603.6005249 C468.50175372 607.89223544 468.50823779 612.18393037 468.51268864 616.4756577 C468.51562792 619.16283007 468.51973438 621.84999825 468.52419281 624.5371685 C468.5378567 632.96161505 468.54752807 641.38605193 468.5513947 649.81050879 C468.55586911 659.50343691 468.573393 669.19622358 468.6023953 678.88910872 C468.62408652 686.40193593 468.63410298 693.91472357 468.63543582 701.42758173 C468.63647878 705.90487683 468.64227694 710.38203876 468.66025543 714.85930061 C468.67686476 719.07747408 468.67883001 723.29541611 468.67011642 727.51361084 C468.6693528 729.0509599 468.67359821 730.58832208 468.68357468 732.12563896 C468.8304187 756.18920326 461.78854263 776.41874898 445.125 794.0625 C432.16376545 806.42967797 416.15416723 814.12009174 398.3125 816.3125 C396.00669471 822.0574725 394.88024087 826.10604375 396.3125 832.3125 C398.81564832 843.49322915 397.55978808 854.05846837 391.734375 864.0078125 C390.02047734 866.53233743 388.21485325 868.9274601 386.3125 871.3125 C385.54486328 872.32570313 385.54486328 872.32570313 384.76171875 873.359375 C369.3797778 892.44366899 343.46298806 903.21272644 321.3125 912.3125 C320.32830078 912.71952148 320.32830078 912.71952148 319.32421875 913.13476562 C257.13827792 938.43176486 185.80756616 946.79163641 119.3125 950.3125 C118.61717163 950.35346802 117.92184326 950.39443604 117.20544434 950.43664551 C98.66887672 951.51986851 80.12406044 951.55792619 61.5625 951.5625 C60.73845421 951.56294186 59.91440842 951.56338371 59.06539154 951.56383896 C-25.46020366 951.58752349 -112.445038 943.96604523 -261.6875 876.3125 C-272.15870265 865.3390449 -276.88661396 854.86731727 -276.87109375 839.84375 C-276.71408941 836.82392185 -276.31370518 834.48692462 -275.4375 831.625 C-274.26757744 826.90099451 -275.00481833 823.09807703 -276.84375 818.625 C-280.01835524 814.64329173 -284.12244502 814.58965071 -288.9609375 813.8984375 C-306.83767368 811.08762992 -322.52911713 798.37837453 -333.5 784.5625 C-343.39378541 770.70042679 -348.78358535 754.62002138 -348.82794189 737.54212952 C-348.83091302 736.89815277 -348.83388414 736.25417602 -348.8369453 735.59068483 C-348.84555331 733.45245148 -348.84713381 731.31427464 -348.84863281 729.17602539 C-348.85326679 727.63446943 -348.85829222 726.0929146 -348.86367798 724.55136108 C-348.87675277 720.37521506 -348.88323791 716.19908508 -348.88768864 712.0229218 C-348.89062882 709.4067579 -348.89473549 706.79059829 -348.89919281 704.17443657 C-348.91285808 695.96889965 -348.92252809 687.76337265 -348.9263947 679.55782515 C-348.93086578 670.12413761 -348.94837351 660.69059566 -348.9773953 651.25695235 C-348.99911067 643.94111977 -349.0091043 636.62532785 -349.01043582 629.30946344 C-349.01147731 624.95171046 -349.01724312 620.5940945 -349.03525543 616.23637581 C-349.05190634 612.1281783 -349.05381048 608.02021827 -349.04511642 603.91199875 C-349.04435491 602.41741607 -349.0485693 600.92281972 -349.05857468 599.42827034 C-349.21581864 574.44211425 -342.50990319 553.02660193 -324.8125 534.9375 C-313.0464456 523.39102403 -295.57354821 513.3125 -278.6875 513.3125 C-278.6875 467.4425 -278.6875 421.5725 -278.6875 374.3125 C-283.3075 373.9825 -287.9275 373.6525 -292.6875 373.3125 C-309.64726643 370.11718169 -324.43439831 360.90426836 -334.83984375 347.1015625 C-345.48605311 331.03096317 -347.15606797 315.95961269 -347.0859375 297.21484375 C-347.08796366 295.28918854 -347.09087958 293.36353408 -347.09463501 291.43788147 C-347.09903182 287.4229494 -347.09271247 283.40821898 -347.07861328 279.39331055 C-347.06151147 274.27732533 -347.07138589 269.16181209 -347.08933067 264.04584408 C-347.10023047 260.07614153 -347.0966941 256.10654879 -347.0889473 252.13684273 C-347.08696298 250.25161239 -347.08934151 248.3663717 -347.09638596 246.48115349 C-347.16021353 224.60872933 -342.31645199 207.08959277 -326.53125 191.1328125 C-314.70206719 180.09501868 -299.14397967 172.99778493 -282.75 173.25 C-281.97785156 173.25902344 -281.20570313 173.26804688 -280.41015625 173.27734375 C-279.55744141 173.29474609 -279.55744141 173.29474609 -278.6875 173.3125 C-278.73970703 172.05759766 -278.73970703 172.05759766 -278.79296875 170.77734375 C-279.53161411 139.01559331 -263.99901745 111.79460161 -242.6875 89.3125 C-241.81738281 88.37792969 -240.94726562 87.44335938 -240.05078125 86.48046875 C-188.17972295 31.91211542 -103.26008184 10.32172521 -31.4375 0 C-30.2721875 -0.17168701 -29.106875 -0.34337402 -27.90625 -0.52026367 C-5.78269624 -3.54615212 -5.78269624 -3.54615212 0 0 Z M360.9375 484.4375 C336.02261911 502.70975054 305.73673058 512.96811104 276.3125 521.3125 C274.8901001 521.7161377 274.8901001 521.7161377 273.43896484 522.12792969 C183.35617182 547.17650192 84.0812969 547.60707638 -228.375 494.1875 C-234.19735892 490.73986241 -239.73483646 486.93008362 -245.23828125 483 C-247.32903147 481.21793923 -247.32903147 481.21793923 -248.6875 481.3125 C-248.80196678 523.18229616 -248.89005976 565.05207425 -248.94282665 606.9219959 C-248.94908011 611.86612903 -248.95555173 616.81026186 -248.9621582 621.75439453 C-248.96346976 622.7386743 -248.96478131 623.72295407 -248.9661326 624.7370605 C-248.98788382 640.6703405 -249.0273038 656.60353022 -249.07326398 672.53675668 C-249.12003649 688.88807877 -249.14779708 705.2393536 -249.15794247 721.59073985 C-249.16479998 731.67888142 -249.18645168 741.7667678 -249.22708233 751.85483082 C-249.25353049 758.77442129 -249.26149629 765.69387999 -249.25500689 772.61351733 C-249.25180721 776.60470635 -249.25668071 780.5954497 -249.28352737 784.5865593 C-249.30795586 788.24498788 -249.30902643 791.9026734 -249.29199447 795.56113704 C-249.28889943 797.50232314 -249.3103786 799.44350119 -249.33290654 801.38455904 C-249.21686945 815.0153054 -242.7457059 824.04229852 -233.4765625 833.58984375 C-187.50789625 877.03863294 -111.56948068 885.83567486 -51.1875 891.5625 C-50.39177582 891.63963226 -49.59605164 891.71676453 -48.7762146 891.79623413 C-16.88554933 894.83176664 15.1013817 895.65323988 47.11791992 895.57324219 C51.69810267 895.56187445 56.27805203 895.56862801 60.85822678 895.58012676 C140.71364827 895.74939132 227.75518476 892.71353524 355.7109375 832.12109375 C362.14062249 825.17973713 367.56587511 817.17470348 367.55859566 807.49667645 C367.5645688 805.74178749 367.5645688 805.74178749 367.57066262 803.95144624 C367.56192409 802.02976387 367.56192409 802.02976387 367.55300903 800.06925964 C367.55388128 798.69138504 367.55563261 797.31351076 367.55818737 795.93563825 C367.56266118 792.15016844 367.55465676 788.36481172 367.54463124 784.57935631 C367.53599953 780.49692483 367.53891671 776.4144998 367.54043579 772.33206177 C367.54148482 765.25922826 367.53520635 758.18643164 367.52396011 751.11360741 C367.5077105 740.88747836 367.50249766 730.66136716 367.49998413 720.4352266 C367.49560618 703.84425879 367.48229437 687.25331065 367.46337891 670.66235352 C367.44502269 654.54516702 367.43086492 638.42798586 367.42236328 622.31079102 C367.42183783 621.31743511 367.42131239 620.3240792 367.42077102 619.30062159 C367.41816095 614.31727907 367.41563354 609.33393651 367.41314721 604.35059392 C367.3924116 563.00454894 367.35718335 521.65852559 367.3125 480.3125 C365.17536753 480.3125 362.46788111 483.26231846 360.9375 484.4375 Z " fill="#262D32" transform="translate(348.6875,73.6875)"/>
<path d="M0 0 C8.8911073 6.32575197 14.95229335 15.76262155 17.3125 26.375 C18.20118887 41.07478803 16.79369688 51.82306813 7.6015625 63.85546875 C2.98330065 68.93870919 -2.57687798 72.35906569 -8.6875 75.375 C-7.63771973 75.43034912 -6.58793945 75.48569824 -5.50634766 75.54272461 C-1.6185669 75.74887472 2.26887915 75.96083108 6.15625 76.17456055 C7.84008335 76.26632037 9.52400376 76.35649666 11.20800781 76.44506836 C13.62589662 76.57251303 16.04341708 76.70561395 18.4609375 76.83984375 C19.59382706 76.89772316 19.59382706 76.89772316 20.74960327 76.95677185 C26.08475659 77.26112829 26.08475659 77.26112829 28.3125 78.375 C28.745625 79.9528125 28.745625 79.9528125 29.1875 81.5625 C30.48188334 85.94902133 32.06287477 89.94044268 36.05639648 92.48706055 C38.89191895 93.60304315 41.50597467 93.92638436 44.53515625 94.26953125 C46.40651245 94.49189453 46.40651245 94.49189453 48.31567383 94.71875 C48.97709381 94.79480469 49.63851379 94.87085937 50.31997681 94.94921875 C65.78779951 96.74272266 81.04809261 99.2839317 96.3125 102.375 C97.13427734 102.53967773 97.95605469 102.70435547 98.80273438 102.87402344 C147.51624428 112.76307502 200.22095459 129.54487294 239.3125 161.375 C240.11010742 162.02251221 240.11010742 162.02251221 240.92382812 162.68310547 C262.64265004 180.40672115 281.46509062 202.55907822 285.3125 231.375 C285.46816072 234.99467975 285.4732562 238.61213719 285.4798584 242.23478699 C285.48565178 243.3306279 285.49144517 244.42646881 285.49741411 245.55551702 C285.5154562 249.2286575 285.52634013 252.90178267 285.53710938 256.57495117 C285.5454385 258.53719791 285.55377388 260.49944466 285.56259376 262.46168926 C285.60440049 271.78042095 285.63169814 281.09917789 285.65625 290.41796875 C285.65921235 291.52179175 285.65921235 291.52179175 285.66223454 292.6479142 C285.70140658 307.27112407 285.73508 321.89434268 285.75731659 336.51758862 C285.76228549 339.72925517 285.76732988 342.94092159 285.77246094 346.15258789 C285.77436694 347.34988332 285.77436694 347.34988332 285.77631146 348.57136653 C285.79766922 361.49996741 285.84666785 374.42831405 285.90670508 387.35678705 C285.96789114 400.64258324 286.00251329 413.92824835 286.0117898 427.21418363 C286.01769191 434.66886552 286.03535944 442.12311622 286.08317566 449.5776577 C286.1238623 455.92631014 286.14062177 462.27446088 286.12652284 468.62323787 C286.12007474 471.85946172 286.12860963 475.09439872 286.16039658 478.33050346 C286.39064468 503.08209774 286.39064468 503.08209774 278.3125 511.375 C277.86023293 511.92522922 277.40796585 512.47545843 276.94199371 513.04236126 C249.8888984 545.26280466 198.61730607 558.86959921 159.5 566.8125 C158.7698468 566.96151764 158.0396936 567.11053528 157.28741455 567.2640686 C128.54378945 573.09805572 99.6868781 576.48195383 70.49612427 579.16676331 C68.1155039 579.39378611 65.73764104 579.64325269 63.35913086 579.89135742 C58.57657859 580.37088118 53.80048148 580.68050354 49 580.91015625 C48.10627182 580.95331467 47.21254364 580.99647308 46.29173279 581.04093933 C-4.43443051 583.40205452 -56.02990835 584.43456592 -106.6875 580.375 C-107.66323975 580.29723328 -108.63897949 580.21946655 -109.64428711 580.13934326 C-259.84186942 568.01276874 -259.84186942 568.01276874 -314.6875 523.375 C-315.69683594 522.59382812 -315.69683594 522.59382812 -316.7265625 521.796875 C-324.07722488 515.90339239 -330.74666797 507.75909942 -332.6875 498.375 C-332.77777976 496.85110891 -332.81827882 495.32383749 -332.82172108 493.7972784 C-332.82617892 492.87793166 -332.83063676 491.95858492 -332.83522969 491.01137918 C-332.83504533 490.00488952 -332.83486097 488.99839987 -332.83467102 487.96141052 C-332.83834771 486.8892572 -332.8420244 485.81710387 -332.8458125 484.71246105 C-332.85685637 481.10704931 -332.8606945 477.50166637 -332.86450195 473.89624023 C-332.8707664 471.3156729 -332.87741319 468.73510646 -332.88441467 466.15454102 C-332.90417131 458.39779933 -332.91424794 450.64105635 -332.92314246 442.88429579 C-332.92752993 439.22522672 -332.93289585 435.56615908 -332.93813133 431.90709114 C-332.95514892 419.72998957 -332.96963804 407.55288888 -332.97688007 395.37577724 C-332.97878979 392.21609432 -332.98071014 389.05641141 -332.98266602 385.89672852 C-332.98314976 385.11146151 -332.9836335 384.3261945 -332.9841319 383.51713151 C-332.99241313 370.82668494 -333.01771527 358.13633322 -333.05024669 345.44592797 C-333.08342663 332.3951945 -333.10133899 319.34450901 -333.10452431 306.29373318 C-333.1066802 298.97527221 -333.11529179 291.65694921 -333.14098549 284.33852959 C-333.16514478 277.44136576 -333.16845001 270.54445249 -333.15822411 263.64725494 C-333.15773151 261.12834664 -333.16396936 258.60942568 -333.17778015 256.09055519 C-333.28789967 234.79857566 -331.41834595 216.9966405 -320.6875 198.375 C-319.90439453 196.93447266 -319.90439453 196.93447266 -319.10546875 195.46484375 C-296.09827064 155.91576143 -244.44327745 131.53162574 -202.6875 118.375 C-201.18628199 117.87866897 -199.68610143 117.37917632 -198.1875 116.875 C-197.48753906 116.64425781 -196.78757813 116.41351563 -196.06640625 116.17578125 C-194.25554672 115.56621441 -192.45209889 114.9345803 -190.65234375 114.29296875 C-161.01069773 103.95285967 -128.73830349 97.63241349 -97.46850586 95.14599609 C-91.51931791 94.60068449 -85.79498287 93.31610265 -81.3125 89.1875 C-79.84428428 86.64635741 -79.2523126 84.93034195 -78.625 82.125 C-78.315625 80.8875 -78.00625 79.65 -77.6875 78.375 C-66.53334325 74.65694775 -52.35157487 76.25349922 -40.6875 76.375 C-40.6875 75.715 -40.6875 75.055 -40.6875 74.375 C-41.8940625 74.0965625 -41.8940625 74.0965625 -43.125 73.8125 C-53.26367186 69.72145697 -59.75981534 61.66329272 -64.5625 52.125 C-68.55057343 41.92174719 -68.5656396 28.91221603 -64.625 18.6875 C-58.65428886 6.7963927 -50.17265906 -1.0486729 -37.6875 -5.625 C-24.75088384 -9.28380706 -11.3127277 -6.74928839 0 0 Z M-204.5 172.375 C-205.51065521 172.4946109 -206.52131042 172.6142218 -207.56259155 172.73745728 C-228.59224793 175.24733247 -248.3092032 178.78110907 -264.6875 193.375 C-265.35007812 193.94476563 -266.01265625 194.51453125 -266.6953125 195.1015625 C-279.43435402 206.84146351 -288.12005516 224.3068739 -288.96644211 241.62928391 C-289.1130663 246.59027981 -289.09369543 251.55057209 -289.07568359 256.51318359 C-289.07975674 258.41192424 -289.08510276 260.31066251 -289.09161377 262.20939636 C-289.10520667 267.3314311 -289.10002158 272.45328308 -289.09047651 277.57532072 C-289.08283587 282.95879802 -289.08993789 288.34226056 -289.09463501 293.72573853 C-289.10008073 302.76542952 -289.09293305 311.80504679 -289.07861328 320.84472656 C-289.06229898 331.26313041 -289.06757124 341.68135799 -289.0840925 352.09975755 C-289.09775299 361.07684049 -289.0996045 370.05387069 -289.09177649 379.03096068 C-289.08712371 384.37840065 -289.08640846 389.72575808 -289.09638596 395.0731926 C-289.10511968 400.10485042 -289.09891796 405.13628344 -289.08170319 410.16791725 C-289.07777187 412.00316433 -289.07881401 413.83843067 -289.08549118 415.67366982 C-289.13093794 429.44586277 -288.71288919 443.36739217 -281.9375 455.75 C-281.58679443 456.41717041 -281.23608887 457.08434082 -280.87475586 457.77172852 C-278.00163867 463.09843979 -274.77042862 467.89161357 -270.6875 472.375 C-270.01074219 473.13167969 -269.33398438 473.88835937 -268.63671875 474.66796875 C-256.04468351 488.02044662 -239.79878791 494.38487366 -222.0625 497.5 C-220.69098049 497.75002044 -219.31956337 498.00060303 -217.94824219 498.25170898 C-213.86626762 498.99016068 -209.77818548 499.68642336 -205.6875 500.375 C-204.03766113 500.65706299 -204.03766113 500.65706299 -202.35449219 500.94482422 C-177.33718282 505.12484218 -151.94484985 507.23211149 -126.6875 509.375 C-125.66716675 509.46177002 -124.6468335 509.54854004 -123.59558105 509.63793945 C-63.32575432 514.67698468 -2.03521739 513.76211917 58.3125 510.375 C59.08887817 510.33161499 59.86525635 510.28822998 60.66516113 510.24353027 C68.56997274 509.79542339 76.46383497 509.25616051 84.35449219 508.60302734 C87.30038406 508.375934 90.24491049 508.20733924 93.1953125 508.05078125 C131.56021552 505.75336341 164.20578541 483.24664064 189.3125 455.375 C209.10360351 431.97989741 216.0864494 398.14567581 219.09825134 368.48130798 C219.24646444 367.02420468 219.39932744 365.56756962 219.55592346 364.11134338 C221.39102671 346.69665441 221.62540257 329.36547822 221.57324219 311.87792969 C221.56190929 308.03982125 221.56859523 304.20199218 221.58011913 300.36389351 C221.66709141 266.19649159 220.06516509 232.61027441 210.87548828 199.49316406 C210.36450555 197.57066357 209.94077737 195.62549945 209.52734375 193.6796875 C208.44575831 189.25551389 207.55060581 186.3810893 203.95703125 183.4609375 C192.22607049 177.03344753 177.68892577 174.95421664 164.5625 173.5 C163.18788283 173.34208769 161.81329097 173.18395487 160.4387207 173.02563477 C156.36346232 172.56262671 152.28603684 172.12163015 148.20782471 171.68548584 C145.06117482 171.34804865 141.91512299 171.00530554 138.76904297 170.66259766 C103.6619455 166.85902025 68.5950754 163.89160642 33.3125 162.375 C32.46568665 162.33846313 31.61887329 162.30192627 30.74639893 162.26428223 C-47.77428267 158.9465346 -126.52052672 162.92692763 -204.5 172.375 Z " fill="#CAC8D0" transform="translate(431.6875,6.625)"/>
<path d="M0 0 C6.86867566 3.49458937 11.15396978 7.98185976 14.5625 14.8125 C15.59735572 18.11756086 15.70254749 21.17712168 15.7298584 24.6305542 C15.74134918 25.81930145 15.75283997 27.00804871 15.76467896 28.2328186 C15.77208099 29.53367401 15.77948303 30.83452942 15.78710938 32.17480469 C15.79828986 33.5614142 15.80980335 34.94802105 15.82162476 36.33462524 C15.8581201 40.88450385 15.88339203 45.43440974 15.90625 49.984375 C15.91019587 50.7593184 15.91414173 51.5342618 15.91820717 52.33268833 C15.95461869 59.64511242 15.9860504 66.95754634 16.00731659 74.27003098 C16.03489002 83.61187882 16.08566862 92.95296744 16.16779089 102.29449916 C16.22362986 108.8695897 16.25255914 115.44447449 16.2617898 122.01979375 C16.26803887 125.94394605 16.28608381 129.86720698 16.33317566 133.79109955 C16.37696104 137.48505526 16.38729563 141.17763584 16.37254715 144.8718071 C16.37303041 146.86470491 16.40818054 148.85750115 16.44454956 150.85006714 C16.3893804 156.83177977 16.19407866 160.86471463 12.23156738 165.53497314 C8.95321623 168.75201548 5.46825862 171.022841 1.3125 172.9375 C0.62269043 173.26532471 -0.06711914 173.59314941 -0.77783203 173.9309082 C-32.60021957 188.54671514 -69.7431102 190.95542791 -104.25 193.5 C-105.067034 193.56084778 -105.88406799 193.62169556 -106.7258606 193.68438721 C-133.72436935 195.66155502 -160.68652157 196.00075333 -187.74438477 195.99780273 C-191.554655 195.99772204 -195.36480354 196.00459074 -199.17504883 196.01831055 C-219.69381434 196.09094754 -240.15973697 195.91390391 -260.65625 194.88671875 C-261.48668886 194.84510305 -262.31712772 194.80348736 -263.1727314 194.76061058 C-368.74588482 189.33968232 -368.74588482 189.33968232 -392.07037354 166.54049683 C-396.86924048 160.91485772 -396.40736735 155.13282655 -396.31152344 148.02783203 C-396.31774388 146.64386397 -396.32697151 145.25990669 -396.33895874 143.87597656 C-396.36222681 140.13572245 -396.34180319 136.39689344 -396.3119154 132.65673304 C-396.28663523 128.72963557 -396.29732935 124.8026102 -396.30279541 120.87545776 C-396.30637494 114.27985713 -396.28189531 107.6848162 -396.24023438 101.08935547 C-396.19250028 93.484246 -396.1871911 85.88002231 -396.2051847 78.27480423 C-396.22171233 70.93629002 -396.20976954 63.5980901 -396.18445587 56.25960922 C-396.17410329 53.14737004 -396.17322512 50.03534683 -396.18010712 46.92309952 C-396.18680909 43.25043786 -396.16830759 39.57870553 -396.13109207 35.90623474 C-396.1167531 33.93065396 -396.12658182 31.95494302 -396.13735962 29.9793396 C-396.01620709 21.44350831 -394.64220344 14.32958886 -388.66573715 7.9091053 C-382.06230552 1.82749786 -375.33657903 -0.30868013 -366.4375 -0.1875 C-363.64746094 0.35327148 -363.64746094 0.35327148 -360.796875 1.12109375 C-359.74935059 1.39695312 -358.70182617 1.6728125 -357.62255859 1.95703125 C-356.04595459 2.38048828 -356.04595459 2.38048828 -354.4375 2.8125 C-327.04604183 9.87887651 -299.62698431 13.74060776 -271.4375 15.8125 C-270.72168762 15.86577454 -270.00587524 15.91904907 -269.26837158 15.97393799 C-180.36151386 22.47907475 -97.31648118 -0.22671715 0 0 Z " fill="#FEFDFC" transform="translate(596.4375,672.1875)"/>
<path d="M0 0 C6.13637541 0.59183316 11.44793224 3.05358633 17.0625 5.4375 C18.12307617 5.88561035 19.18365234 6.3337207 20.27636719 6.79541016 C42.46789111 16.2564252 64.18399684 26.67914827 83 42 C83.53173828 42.4316748 84.06347656 42.86334961 84.61132812 43.30810547 C106.33015004 61.03172115 125.15259062 83.18407822 129 112 C129.15566072 115.61967975 129.1607562 119.23713719 129.1673584 122.85978699 C129.17315178 123.9556279 129.17894517 125.05146881 129.18491411 126.18051702 C129.2029562 129.8536575 129.21384013 133.52678267 129.22460938 137.19995117 C129.2329385 139.16219791 129.24127388 141.12444466 129.25009376 143.08668926 C129.29190049 152.40542095 129.31919814 161.72417789 129.34375 171.04296875 C129.34671235 172.14679175 129.34671235 172.14679175 129.34973454 173.2729142 C129.38890658 187.89612407 129.42258 202.51934268 129.44481659 217.14258862 C129.44978549 220.35425517 129.45482988 223.56592159 129.45996094 226.77758789 C129.46186694 227.97488332 129.46186694 227.97488332 129.46381146 229.19636653 C129.48516922 242.12496741 129.53416785 255.05331405 129.59420508 267.98178705 C129.65539114 281.26758324 129.69001329 294.55324835 129.6992898 307.83918363 C129.70519191 315.29386552 129.72285944 322.74811622 129.77067566 330.2026577 C129.8113623 336.55131014 129.82812177 342.89946088 129.81402284 349.24823787 C129.80757474 352.48446172 129.81610963 355.71939872 129.84789658 358.95550346 C130.07814468 383.70709774 130.07814468 383.70709774 122 392 C121.32159939 392.82534382 121.32159939 392.82534382 120.62949371 393.66736126 C93.5763984 425.88780466 42.30480607 439.49459921 3.1875 447.4375 C2.0922702 447.66102646 2.0922702 447.66102646 0.97491455 447.8890686 C-27.76871055 453.72305572 -56.6256219 457.10695383 -85.81637573 459.79176331 C-88.1969961 460.01878611 -90.57485896 460.26825269 -92.95336914 460.51635742 C-97.73592141 460.99588118 -102.51201852 461.30550354 -107.3125 461.53515625 C-108.20622818 461.57831467 -109.09995636 461.62147308 -110.02076721 461.66593933 C-160.74693051 464.02705452 -212.34240835 465.05956592 -263 461 C-263.97573975 460.92223328 -264.95147949 460.84446655 -265.95678711 460.76434326 C-416.15436942 448.63776874 -416.15436942 448.63776874 -471 404 C-471.67289063 403.47921875 -472.34578125 402.9584375 -473.0390625 402.421875 C-480.38669882 396.53081857 -487.06554101 388.38288977 -489 379 C-489.08719301 377.45832072 -489.12377757 375.91334831 -489.12304783 374.36920547 C-489.12503888 373.43814145 -489.12702993 372.50707743 -489.12908131 371.54779935 C-489.12616847 370.52834942 -489.12325563 369.50889948 -489.12025452 368.45855713 C-489.12110894 367.37299805 -489.12196337 366.28743898 -489.12284368 365.16898417 C-489.12449522 361.51921503 -489.11898239 357.8694915 -489.11352539 354.21972656 C-489.11324342 351.60833233 -489.11340144 348.99693801 -489.1139679 346.38554382 C-489.1144924 340.75707779 -489.11135323 335.12862334 -489.10573006 329.50016022 C-489.09760516 321.36233473 -489.09499882 313.22451485 -489.09374207 305.08668575 C-489.09155311 291.88379644 -489.08489724 278.6809133 -489.07543945 265.47802734 C-489.06626131 252.6521813 -489.05918244 239.82633694 -489.05493164 227.00048828 C-489.05466892 226.20998535 -489.05440619 225.41948241 -489.05413551 224.60502484 C-489.05283048 220.63932851 -489.05156677 216.67363216 -489.05032361 212.70793581 C-489.03995585 179.80528604 -489.02234176 146.90264385 -489 114 C-488.67 114 -488.34 114 -488 114 C-488.0040642 115.31105933 -488.0081284 116.62211866 -488.01231575 117.97290707 C-488.1066004 149.10838758 -488.14924667 180.24346829 -488.12847102 211.37907323 C-488.12595787 215.21292039 -488.12387965 219.04676768 -488.12207031 222.88061523 C-488.1217028 223.64385182 -488.12133529 224.40708841 -488.12095664 225.19345338 C-488.11604592 237.54504249 -488.1463541 249.89630611 -488.18972255 262.24780928 C-488.23345095 274.92557748 -488.23922814 287.60295525 -488.2099179 300.28076702 C-488.19302913 308.10135081 -488.20559405 315.92074076 -488.25606923 323.74118466 C-488.2916276 329.74230593 -488.27433262 335.74209962 -488.23747826 341.74326134 C-488.23061427 344.20186947 -488.24081327 346.6605941 -488.26943016 349.11904526 C-489.07867896 361.87355883 -489.07867896 361.87355883 -484.83863449 373.4027729 C-482.3216809 375.72263141 -479.99426104 377.36552485 -477 379 C-475.60228744 379.96957709 -474.2091546 380.94585247 -472.82421875 381.93359375 C-471.45417352 382.7826961 -470.07493384 383.61711834 -468.6875 384.4375 C-467.9231665 384.89431152 -467.15883301 385.35112305 -466.37133789 385.82177734 C-432.93778345 405.40597551 -395.35922999 414.95377139 -357.82861328 423.16015625 C-354.76621143 423.83192403 -351.70873578 424.52042516 -348.65234375 425.21875 C-332.78463771 428.73170738 -316.54861321 430.44404613 -300.43652344 432.44482422 C-296.7492451 432.9033636 -293.06576677 433.38672224 -289.3828125 433.87890625 C-282.93379735 434.71876314 -276.47352112 435.38027618 -270 436 C-269.33768372 436.06680969 -268.67536743 436.13361938 -267.99298096 436.20245361 C-204.71473025 442.57594775 -139.23419251 441.15076373 -76 435 C-74.28471925 434.83815996 -72.56938897 434.67684383 -70.85400391 434.51611328 C-62.89017434 433.76293348 -54.94985219 432.90855454 -47 432 C-47 416.82 -47 401.64 -47 386 C-40.07 383.69 -33.14 381.38 -26 379 C8.77430168 363.16990744 35.79082408 338.10051132 50.3984375 302.6015625 C56.56578749 285.74937685 59.97527871 266.93833251 61.78575134 249.10630798 C61.93396444 247.64920468 62.08682744 246.19256962 62.24342346 244.73634338 C64.07852671 227.32165441 64.31290257 209.99047822 64.26074219 192.50292969 C64.24940929 188.66482125 64.25609523 184.82699218 64.26761913 180.98889351 C64.42108883 120.69771592 58.83624408 59.39216015 15 14 C14.3503125 13.31035156 13.700625 12.62070313 13.03125 11.91015625 C9.47309752 8.2145297 5.6878475 5.13331113 1.50390625 2.1640625 C1.00761719 1.77992187 0.51132812 1.39578125 0 1 C0 0.67 0 0.34 0 0 Z " fill="#A29FAA" transform="translate(588,126)"/>
<path d="M0 0 C4.06305023 4.06305023 4.17294832 10.25130773 4.375 15.75 C4.13669022 26.8804684 -0.17046089 35.43759276 -7 44 C-7.51175781 44.67546875 -8.02351562 45.3509375 -8.55078125 46.046875 C-23.9327222 65.13116899 -49.84951194 75.90022644 -72 85 C-72.98419922 85.40702148 -72.98419922 85.40702148 -73.98828125 85.82226562 C-136.17422208 111.11926486 -207.50493384 119.47913641 -274 123 C-274.69532837 123.04096802 -275.39065674 123.08193604 -276.10705566 123.12414551 C-294.64362328 124.20736851 -313.18843956 124.24542619 -331.75 124.25 C-332.57404579 124.25044186 -333.39809158 124.25088371 -334.24710846 124.25133896 C-418.77270366 124.27502349 -505.757538 116.65354523 -655 49 C-665.47961905 38.0177248 -670.26995391 27.49546521 -670.16015625 12.4375 C-669.97817371 8.53153318 -669.50390156 5.59265373 -668 2 C-667.34 1.67 -666.68 1.34 -666 1 C-665.69449219 1.64324219 -665.38898438 2.28648437 -665.07421875 2.94921875 C-646.68635734 39.25877043 -604.29468004 57.90507686 -567.71923828 70.09326172 C-544.85885121 77.47955392 -521.12985833 83.37731362 -497.26171875 86.296875 C-493.43588583 86.77137562 -489.64931346 87.39379751 -485.85209656 88.05256653 C-475.72443391 89.80410565 -465.60084209 91.0497161 -455.375 92.0625 C-454.53883148 92.14682281 -453.70266296 92.23114563 -452.84115601 92.31802368 C-436.25360336 93.98389403 -419.65667446 95.26152157 -403 96 C-401.57723755 96.06355179 -401.57723755 96.06355179 -400.12573242 96.12838745 C-380.87537532 96.96167115 -361.63997937 97.20333901 -342.375 97.1875 C-341.64199173 97.18723312 -340.90898346 97.18696625 -340.15376282 97.18669128 C-282.86654183 97.16065959 -225.8959394 94.38879652 -169.26501465 85.36065674 C-167.10335587 85.01645728 -164.94096989 84.67726548 -162.77832031 84.33935547 C-109.40305858 75.95208677 -44.37203532 60.46900347 -9.046875 15.92578125 C-5.51909046 10.88320373 -2.72570981 5.51277 0 0 Z " fill="#D1CDD7" transform="translate(742,901)"/>
<path d="M0 0 C5.99778733 4.11612856 10.55118374 9.77229553 12 17 C12.10280113 18.93742816 12.15201549 20.87796128 12.1673584 22.8180542 C12.17884918 24.00680145 12.19033997 25.19554871 12.20217896 26.4203186 C12.21328201 28.37160172 12.21328201 28.37160172 12.22460938 30.36230469 C12.23578986 31.7489142 12.24730335 33.13552105 12.25912476 34.52212524 C12.2956201 39.07200385 12.32089203 43.62190974 12.34375 48.171875 C12.34769587 48.9468184 12.35164173 49.7217618 12.35570717 50.52018833 C12.39211869 57.83261242 12.4235504 65.14504634 12.44481659 72.45753098 C12.47239002 81.79937882 12.52316862 91.14046744 12.60529089 100.48199916 C12.66112986 107.0570897 12.69005914 113.63197449 12.6992898 120.20729375 C12.70553887 124.13144605 12.72358381 128.05470698 12.77067566 131.97859955 C12.81446104 135.67255526 12.82479563 139.36513584 12.81004715 143.0593071 C12.81053041 145.05220491 12.84568054 147.04500115 12.88204956 149.03756714 C12.8268804 155.01927977 12.63157866 159.05221463 8.66906738 163.72247314 C5.39071623 166.93951548 1.90575862 169.210341 -2.25 171.125 C-3.28471436 171.61673706 -3.28471436 171.61673706 -4.34033203 172.1184082 C-20.62323795 179.59703654 -41.03444584 186 -59 186 C-59.0093457 184.70376709 -59.01869141 183.40753418 -59.02832031 182.07202148 C-59.06832288 177.24290144 -59.1341106 172.41441158 -59.20751953 167.58569336 C-59.23566962 165.49951296 -59.2569137 163.41322708 -59.27099609 161.3269043 C-59.29250802 158.32025385 -59.33920124 155.31486359 -59.390625 152.30859375 C-59.39185364 151.38227646 -59.39308228 150.45595917 -59.39434814 149.50157166 C-59.53144989 143.38034276 -60.47616005 138.52383995 -65 134 C-69.05814746 133.66194353 -73.12007248 133.60049234 -77.19091797 133.54003906 C-78.55683548 133.51347866 -79.92255417 133.47260144 -81.28759766 133.41699219 C-89.04856658 132.76673252 -89.04856658 132.76673252 -95.93164062 135.5234375 C-97.26828513 137.34783242 -97.26828513 137.34783242 -98.13183594 139.29101562 C-99 141 -99 141 -102 143 C-106.59271203 143.73965025 -110.02462089 143.60961194 -114 141.125 C-117.12629225 137.80331449 -117.43645813 135.28140911 -117.37109375 130.71679688 C-116.61158008 125.15635735 -113.90453771 120.26481127 -111.5 115.25 C-110.30621589 112.69881951 -109.12417981 110.14223754 -107.94140625 107.5859375 C-107.47082542 106.57534775 -107.47082542 106.57534775 -106.99073792 105.54434204 C-104.45377013 100.0678153 -102.06525565 94.53539021 -99.71484375 88.9765625 C-99.35818634 88.13605347 -99.00152893 87.29554443 -98.63406372 86.42956543 C-97.21545316 83.08441242 -95.79777939 79.739052 -94.39941406 76.38537598 C-93.42094844 74.04154665 -92.42861155 71.70402794 -91.43359375 69.3671875 C-91.14548325 68.66534332 -90.85737274 67.96349915 -90.56053162 67.24038696 C-88.95716337 63.51012294 -87.65894579 60.92159513 -84 59 C-77.31879819 58.25764424 -77.31879819 58.25764424 -73.578125 60.36328125 C-69.79205493 64.23539837 -67.90768198 68.73073218 -65.6875 73.625 C-65.23310547 74.59179688 -64.77871094 75.55859375 -64.31054688 76.5546875 C-61 83.68356438 -61 83.68356438 -61 86 C-60.34 86 -59.68 86 -59 86 C-59.33 60.92 -59.66 35.84 -60 10 C-62.475 9.505 -62.475 9.505 -65 9 C-65 8.67 -65 8.34 -65 8 C-64.37770508 7.87995605 -63.75541016 7.75991211 -63.11425781 7.63623047 C-52.00312925 5.46905071 -41.08846715 3.18527639 -30.3125 -0.3125 C-19.89489722 -3.62448432 -10.08418732 -5.13055145 0 0 Z " fill="#D5D5D6" transform="translate(600,674)"/>
<path d="M0 0 C0.33 0 0.66 0 1 0 C1.160332 34.08170419 1.28362324 68.16331431 1.35745731 102.24531208 C1.36621192 106.27185906 1.37527221 110.2984053 1.38452148 114.32495117 C1.38635766 115.12654113 1.38819383 115.92813109 1.39008565 116.75401165 C1.42051886 129.72178145 1.47569637 142.68933334 1.54006957 155.656974 C1.60560306 168.9696896 1.6444268 182.28229133 1.65861946 195.59516162 C1.6682094 203.8055738 1.6984625 212.01536997 1.75541527 220.22559246 C1.79250725 225.86084916 1.80358052 231.49578887 1.79450964 237.13115869 C1.79003959 240.37950317 1.80060179 243.62655212 1.83443832 246.87475395 C2.08054091 271.7226668 2.08054091 271.7226668 -6 280 C-6.6784313 280.82515972 -6.6784313 280.82515972 -7.37056828 281.66698933 C-34.41699992 313.88932135 -85.69995458 327.49556588 -124.8125 335.4375 C-125.9077298 335.66102646 -125.9077298 335.66102646 -127.02508545 335.8890686 C-155.76871055 341.72305572 -184.6256219 345.10695383 -213.81637573 347.79176331 C-216.1969961 348.01878611 -218.57485896 348.26825269 -220.95336914 348.51635742 C-225.73592141 348.99588118 -230.51201852 349.30550354 -235.3125 349.53515625 C-236.20622818 349.57831467 -237.09995636 349.62147308 -238.02076721 349.66593933 C-288.74693051 352.02705452 -340.34240835 353.05956592 -391 349 C-391.97573975 348.92223328 -392.95147949 348.84446655 -393.95678711 348.76434326 C-544.15436942 336.63776874 -544.15436942 336.63776874 -599 292 C-599.67289063 291.47921875 -600.34578125 290.9584375 -601.0390625 290.421875 C-608.38669882 284.53081857 -615.06554101 276.38288977 -617 267 C-617.08719301 265.45832072 -617.12377757 263.91334831 -617.12304783 262.36920547 C-617.12503888 261.43814145 -617.12702993 260.50707743 -617.12908131 259.54779935 C-617.12616847 258.52834942 -617.12325563 257.50889948 -617.12025452 256.45855713 C-617.12110894 255.37299805 -617.12196337 254.28743898 -617.12284368 253.16898417 C-617.12449522 249.51921503 -617.11898239 245.8694915 -617.11352539 242.21972656 C-617.11324342 239.60833233 -617.11340144 236.99693801 -617.1139679 234.38554382 C-617.1144924 228.75707779 -617.11135323 223.12862334 -617.10573006 217.50016022 C-617.09760516 209.36233473 -617.09499882 201.22451485 -617.09374207 193.08668575 C-617.09155311 179.88379644 -617.08489724 166.6809133 -617.07543945 153.47802734 C-617.06626131 140.6521813 -617.05918244 127.82633694 -617.05493164 115.00048828 C-617.05466892 114.20998535 -617.05440619 113.41948241 -617.05413551 112.60502484 C-617.05283048 108.63932851 -617.05156677 104.67363216 -617.05032361 100.70793581 C-617.03995585 67.80528604 -617.02234176 34.90264385 -617 2 C-616.67 2 -616.34 2 -616 2 C-616.0040642 3.31105933 -616.0081284 4.62211866 -616.01231575 5.97290707 C-616.1066004 37.10838758 -616.14924667 68.24346829 -616.12847102 99.37907323 C-616.12595787 103.21292039 -616.12387965 107.04676768 -616.12207031 110.88061523 C-616.1217028 111.64385182 -616.12133529 112.40708841 -616.12095664 113.19345338 C-616.11604592 125.54504249 -616.1463541 137.89630611 -616.18972255 150.24780928 C-616.23345095 162.92557748 -616.23922814 175.60295525 -616.2099179 188.28076702 C-616.19302913 196.10135081 -616.20559405 203.92074076 -616.25606923 211.74118466 C-616.2916276 217.74230593 -616.27433262 223.74209962 -616.23747826 229.74326134 C-616.23061427 232.20186947 -616.24081327 234.6605941 -616.26943016 237.11904526 C-617.07867896 249.87355883 -617.07867896 249.87355883 -612.83863449 261.4027729 C-610.3216809 263.72263141 -607.99426104 265.36552485 -605 267 C-603.60228744 267.96957709 -602.2091546 268.94585247 -600.82421875 269.93359375 C-599.45417352 270.7826961 -598.07493384 271.61711834 -596.6875 272.4375 C-595.9231665 272.89431152 -595.15883301 273.35112305 -594.37133789 273.82177734 C-560.93778345 293.40597551 -523.35922999 302.95377139 -485.82861328 311.16015625 C-482.76621143 311.83192403 -479.70873578 312.52042516 -476.65234375 313.21875 C-460.78463771 316.73170738 -444.54861321 318.44404613 -428.43652344 320.44482422 C-424.7492451 320.9033636 -421.06576677 321.38672224 -417.3828125 321.87890625 C-410.93379735 322.71876314 -404.47352112 323.38027618 -398 324 C-397.33768372 324.06680969 -396.67536743 324.13361938 -395.99298096 324.20245361 C-332.8711166 330.56019625 -267.05570442 329.55555016 -204 323 C-203.04293152 322.90098389 -202.08586304 322.80196777 -201.09979248 322.69995117 C-188.69461027 321.39974757 -176.33503757 319.85057692 -164 318 C-163.32078491 317.89816406 -162.64156982 317.79632812 -161.94177246 317.69140625 C-145.03014697 315.13174236 -128.38956732 311.68597123 -111.77099609 307.65820312 C-109.36956685 307.08778434 -106.96619071 306.55397137 -104.55078125 306.046875 C-84.11411888 301.70017024 -64.15865752 294.25633126 -45 286 C-43.89156738 285.52312744 -43.89156738 285.52312744 -42.76074219 285.03662109 C-27.96192597 278.58056382 -12.5288105 270.5288105 -1 259 C-0.89855226 257.61362247 -0.86603327 256.22212952 -0.8613348 254.83205318 C-0.85312313 253.47576743 -0.85312313 253.47576743 -0.84474558 252.09208196 C-0.84376747 251.0872392 -0.84278936 250.08239643 -0.84178162 249.04710388 C-0.83437465 247.45936215 -0.83437465 247.45936215 -0.82681805 245.83954483 C-0.81135897 242.2633929 -0.80305979 238.68725902 -0.79467773 235.11108398 C-0.78510581 232.55924315 -0.77509615 230.00740393 -0.76467896 227.45556641 C-0.74318121 221.94655835 -0.72475142 216.43755338 -0.70907402 210.92852592 C-0.68640165 202.96331114 -0.65825523 194.99812318 -0.62875474 187.0329311 C-0.58104647 174.11123998 -0.53779109 161.18953791 -0.49731445 148.26782227 C-0.45797596 135.71247505 -0.41655371 123.15713758 -0.37231445 110.60180664 C-0.36822804 109.44175294 -0.36822804 109.44175294 -0.36405908 108.25826382 C-0.35037988 104.37865988 -0.33665955 100.49905608 -0.32291877 96.61945236 C-0.20890319 64.41298831 -0.10210511 32.20650408 0 0 Z " fill="#948E98" transform="translate(716,238)"/>
<path d="M0 0 C11.67331629 8.30924819 21.24814844 21.64551094 23.7109375 35.9296875 C25.30128078 53.82104938 22.8333926 69.66155823 11.8984375 84.3671875 C2.60039348 95.46485294 -11.17725745 103.77009741 -25.76513672 105.16674805 C-43.93903325 106.09453949 -58.16481532 103.0189462 -72.5 91.08984375 C-80.46271203 83.63052156 -85.91071467 74.25147385 -89.2890625 63.9296875 C-89.51464844 63.2490625 -89.74023438 62.5684375 -89.97265625 61.8671875 C-93.91607732 47.5076956 -91.23046436 32.99217857 -84.78515625 19.8671875 C-75.60615441 4.29606149 -62.49050803 -4.5252151 -45.2890625 -9.0703125 C-44.66386719 -9.26238281 -44.03867187 -9.45445312 -43.39453125 -9.65234375 C-27.91455589 -12.72536298 -13.14816957 -8.21319976 0 0 Z " fill="#252D33" transform="translate(578.2890625,272.0703125)"/>
<path d="M0 0 C11.2803663 8.7920502 21.25972177 20.569544 24 35 C25.84864693 55.01717185 22.94384077 71.29623285 10 87 C2.00741742 96.12112905 -12.1708427 104.11807561 -24.39990234 105.21533203 C-41.07552299 105.97738167 -54.29222569 104.16555129 -68 94 C-68.78117187 93.42636719 -69.56234375 92.85273438 -70.3671875 92.26171875 C-82.09358507 82.78727642 -88.92329197 68.76770152 -91 54 C-92.15729572 38.51004189 -88.34789872 24.57372206 -78.859375 12.2109375 C-58.49105088 -11.36219286 -26.58008514 -18.01361192 0 0 Z " fill="#252D33" transform="translate(307,272)"/>
<path d="M0 0 C17.1944572 10.8659417 28.86148688 25.09940005 34 45 C34.33842234 46.20459397 34.67684467 47.40918795 35.02552223 48.65028477 C36.06636559 52.84100846 36.28594626 56.90748795 36.26742554 61.21263123 C36.27195665 61.99968116 36.27648776 62.7867311 36.28115618 63.59763104 C36.29373618 66.21415556 36.29218395 68.83047022 36.29052734 71.44702148 C36.29651686 73.33192713 36.30332338 75.21683034 36.31088257 77.10173035 C36.32851326 82.20968636 36.3332369 87.3175753 36.33451414 92.42555881 C36.33593872 95.62383703 36.34021429 98.82209837 36.34550858 102.02037239 C36.36400388 113.19873251 36.3721804 124.37704501 36.37060547 135.55541992 C36.36940637 145.94019237 36.39046446 156.32475621 36.4220928 166.70947593 C36.44834479 175.65081545 36.45896894 184.59208726 36.45769465 193.53346497 C36.45718735 198.86208532 36.46274064 204.19052046 36.48405075 209.5191021 C36.50358228 214.54006201 36.50345681 219.56066299 36.48901749 224.58163643 C36.48694618 226.4112107 36.49152846 228.24080832 36.5037384 230.07034302 C36.64755176 253.13778737 31.34813916 272.9840447 15 290 C2.04219125 302.64830695 -14.20458261 308.76004752 -31.73046875 311.984375 C-33.0785688 312.23631622 -33.0785688 312.23631622 -34.4539032 312.49334717 C-43.77210996 314.19915908 -53.13232359 315.57782845 -62.51635742 316.86523438 C-65.35779871 317.25623337 -68.197427 317.65894449 -71.03710938 318.0625 C-72.87490412 318.31839787 -74.71279148 318.57363172 -76.55078125 318.828125 C-77.38418533 318.94681946 -78.21758942 319.06551392 -79.07624817 319.18780518 C-84.10076244 319.86754339 -88.92936833 320.10892871 -94 320 C-91.22401749 318.55327239 -88.45603059 317.38450826 -85.5078125 316.3359375 C-63.93488198 308.50917921 -45.94227726 297.39747846 -29.484375 281.43310547 C-28.09947148 280.09603579 -26.69117252 278.78331699 -25.28125 277.47265625 C-0.09153805 253.48800768 8.38946191 216.5576374 11.78575134 183.10630798 C11.93396444 181.64920468 12.08682744 180.19256962 12.24342346 178.73634338 C14.07852671 161.32165441 14.31290257 143.99047822 14.26074219 126.50292969 C14.24940929 122.66482125 14.25609523 118.82699218 14.26761913 114.98889351 C14.36197971 77.91896652 13.16101016 40.23040265 0.57055664 4.94311523 C0 3 0 3 0 0 Z " fill="#CCC9CF" transform="translate(638,192)"/>
<path d="M0 0 C8.8911073 6.32575197 14.95229335 15.76262155 17.3125 26.375 C18.20128992 41.07645949 16.79368568 51.82718696 7.59765625 63.859375 C3.45251621 68.4225719 -1.57999793 72.10622908 -7.30175781 74.44238281 C-10.09412864 76.26473996 -10.09412864 76.26473996 -10.28344727 80.09277344 C-10.29756175 81.63994091 -10.28602454 83.18747654 -10.25390625 84.734375 C-10.26235817 85.96827972 -10.26235817 85.96827972 -10.27098083 87.22711182 C-10.28745747 89.86031743 -10.27188678 92.49185237 -10.25 95.125 C-10.23336175 97.74371547 -10.22439189 100.36130774 -10.23973083 102.9800415 C-10.24894805 104.60842265 -10.24005677 106.23704171 -10.21009827 107.86517334 C-10.23694854 113.49429068 -11.45634515 116.73997425 -14.6875 121.375 C-19.56104066 124.97213715 -24.8379729 125.22151693 -30.6875 124.375 C-35.74589573 121.98375838 -37.64050147 119.50069305 -39.6875 114.375 C-40.13193891 111.26242045 -40.17543861 108.17995296 -40.19921875 105.0390625 C-40.22614555 103.72003433 -40.22614555 103.72003433 -40.25361633 102.37435913 C-40.30752812 99.58295395 -40.34155329 96.79171789 -40.375 94 C-40.40819 92.10023698 -40.44268121 90.20049623 -40.47851562 88.30078125 C-40.56324349 83.65897656 -40.63014561 79.01722035 -40.6875 74.375 C-41.62916016 74.07480957 -42.57082031 73.77461914 -43.54101562 73.46533203 C-53.52890615 70.00428927 -59.97828811 61.22939847 -64.5625 52.125 C-68.55057343 41.92174719 -68.5656396 28.91221603 -64.625 18.6875 C-58.65428886 6.7963927 -50.17265906 -1.0486729 -37.6875 -5.625 C-24.75088384 -9.28380706 -11.3127277 -6.74928839 0 0 Z " fill="#252C31" transform="translate(431.6875,6.625)"/>
<path d="M0 0 C1.74753249 -0.01643447 3.49500133 -0.04355567 5.2421875 -0.08203125 C18.13798573 -0.36424187 29.71053779 0.18570789 39.64794922 9.60009766 C48.61308157 18.29181505 53.31170339 27.07176098 53.71044922 39.60009766 C53.42730845 51.38583213 50.16970318 61.47027841 42.27294922 70.35009766 C33.9266711 78.23647882 24.24527948 81.48057621 12.96435547 81.58837891 C12.16061996 81.59645065 11.35688446 81.6045224 10.52879333 81.61283875 C8.83179866 81.62664214 7.13477665 81.63738097 5.43774414 81.64526367 C3.70458834 81.65680829 1.97146877 81.67729921 0.23852539 81.70678711 C-2.26977622 81.74945422 -4.77702516 81.76562824 -7.28564453 81.77587891 C-8.05661972 81.79338699 -8.82759491 81.81089508 -9.62193298 81.82893372 C-13.37386079 81.81384529 -15.50280667 81.493913 -18.69213867 79.44848633 C-22.09296063 75.94157994 -21.86486168 73.67066584 -21.90405273 68.8684082 C-21.91062393 68.20315125 -21.91719513 67.53789429 -21.92396545 66.85247803 C-21.94370239 64.64725637 -21.95536216 62.44210284 -21.96533203 60.23681641 C-21.96940756 59.4836445 -21.97348309 58.7304726 -21.97768211 57.95447731 C-21.99854508 53.96761982 -22.01284548 49.98079677 -22.0222168 45.99389648 C-22.03327863 41.87787985 -22.06767461 37.76240423 -22.1073885 33.64657879 C-22.13354765 30.48009747 -22.14190799 27.31374516 -22.14549828 24.1471653 C-22.15036653 22.63011842 -22.16198745 21.11307739 -22.18053627 19.59613609 C-22.20491338 17.47031313 -22.20396633 15.34589096 -22.19702148 13.2199707 C-22.20288773 12.01132858 -22.20875397 10.80268646 -22.21479797 9.55741882 C-21.63222627 5.72655199 -20.41543548 4.08659724 -17.72705078 1.35009766 C-12.85954628 -1.08365459 -5.4103775 0.03717437 0 0 Z " fill="#252D33" transform="translate(279.72705078125,734.64990234375)"/>
<path d="M0 0 C0.33 0 0.66 0 1 0 C1.160332 34.08170419 1.28362324 68.16331431 1.35745731 102.24531208 C1.36621192 106.27185906 1.37527221 110.2984053 1.38452148 114.32495117 C1.38635766 115.12654113 1.38819383 115.92813109 1.39008565 116.75401165 C1.42051886 129.72178145 1.47569637 142.68933334 1.54006957 155.656974 C1.60560306 168.9696896 1.6444268 182.28229133 1.65861946 195.59516162 C1.6682094 203.8055738 1.6984625 212.01536997 1.75541527 220.22559246 C1.79250725 225.86084916 1.80358052 231.49578887 1.79450964 237.13115869 C1.79003959 240.37950317 1.80060179 243.62655212 1.83443832 246.87475395 C2.08054091 271.7226668 2.08054091 271.7226668 -6 280 C-6.6784313 280.82515972 -6.6784313 280.82515972 -7.37056828 281.66698933 C-34.54252617 314.03886968 -85.93843295 327.54451372 -125.25 335.5 C-125.98013306 335.64929962 -126.71026611 335.79859924 -127.46252441 335.9524231 C-137.52506402 338.00472714 -147.59967469 339.86734867 -157.75 341.4375 C-158.80735352 341.60121094 -159.86470703 341.76492188 -160.95410156 341.93359375 C-165.77159738 342.64377411 -170.08198737 343 -175 343 C-175 335.41 -175 327.82 -175 320 C-172.41414062 319.56429688 -169.82828125 319.12859375 -167.1640625 318.6796875 C-148.50030943 315.50812694 -129.98172436 312.16550773 -111.59375 307.62597656 C-109.26641061 307.06429563 -106.93668847 306.54640199 -104.59375 306.0546875 C-84.14150355 301.71047976 -64.17209247 294.26212099 -45 286 C-44.26104492 285.68208496 -43.52208984 285.36416992 -42.76074219 285.03662109 C-27.96192597 278.58056382 -12.5288105 270.5288105 -1 259 C-0.89855226 257.61362247 -0.86603327 256.22212952 -0.8613348 254.83205318 C-0.85586036 253.92786268 -0.85038591 253.02367218 -0.84474558 252.09208196 C-0.84376747 251.0872392 -0.84278936 250.08239643 -0.84178162 249.04710388 C-0.83684364 247.9886094 -0.83190566 246.93011491 -0.82681805 245.83954483 C-0.81135897 242.2633929 -0.80305979 238.68725902 -0.79467773 235.11108398 C-0.78510581 232.55924315 -0.77509615 230.00740393 -0.76467896 227.45556641 C-0.74318121 221.94655835 -0.72475142 216.43755338 -0.70907402 210.92852592 C-0.68640165 202.96331114 -0.65825523 194.99812318 -0.62875474 187.0329311 C-0.58104647 174.11123998 -0.53779109 161.18953791 -0.49731445 148.26782227 C-0.45797596 135.71247505 -0.41655371 123.15713758 -0.37231445 110.60180664 C-0.36822804 109.44175294 -0.36822804 109.44175294 -0.36405908 108.25826382 C-0.35037988 104.37865988 -0.33665955 100.49905608 -0.32291877 96.61945236 C-0.20890319 64.41298831 -0.10210511 32.20650408 0 0 Z " fill="#75707B" transform="translate(716,238)"/>
<path d="M0 0 C0.74121094 -0.02191406 1.48242188 -0.04382813 2.24609375 -0.06640625 C5.7263487 0.8784859 7.18603362 2.88110568 9.5625 5.5625 C10.94055192 8.02048108 12.15515701 10.38688566 13.3125 12.94140625 C13.64798355 13.65809982 13.9834671 14.3747934 14.32911682 15.11320496 C15.41776691 17.44560113 16.49062338 19.78485376 17.5625 22.125 C18.31161055 23.74353831 19.06153692 25.36169926 19.81225586 26.97949219 C20.95370544 29.44097393 22.09376407 31.90304152 23.22898865 34.36740112 C25.62485358 39.5655114 28.07422741 44.73419159 30.56640625 49.88671875 C31.17699685 51.15980426 31.78703885 52.43315304 32.39648438 53.70678711 C33.52106063 56.05267224 34.65595485 58.39364831 35.80273438 60.72875977 C38.61035816 66.65148743 40.36744268 70.98754765 39.5625 77.5625 C37.8810707 81.42978738 36.41016221 82.98183877 32.5625 84.5625 C28.06486047 85.25444454 24.61235519 85.20154229 20.6875 82.8125 C18.5625 80.5625 18.5625 80.5625 17.3449707 78.46166992 C15.64098322 76.271985 15.64098322 76.271985 12.56323242 75.99731445 C7.70617756 75.89947753 7.70617756 75.89947753 2.84838867 75.8762207 C0.76534134 75.87500892 -1.31061415 75.81535693 -3.39257812 75.75195312 C-10.39100164 75.50240095 -10.39100164 75.50240095 -16.65380859 78.13427734 C-18.12070475 79.87557618 -19.25990089 81.6220741 -20.4375 83.5625 C-23.97418783 85.33084391 -27.59702262 85.34088821 -31.4375 84.5625 C-34.20446257 82.67108745 -36.06216192 80.62060467 -37.4375 77.5625 C-38.28731992 71.10066175 -36.00572953 66.64893309 -33.25 61 C-32.3318061 59.05211242 -31.41660849 57.10281054 -30.50390625 55.15234375 C-30.01035645 54.10159668 -29.51680664 53.05084961 -29.00830078 51.96826172 C-26.12410658 45.71484097 -23.41225586 39.38661124 -20.6875 33.0625 C-20.15220879 31.82343915 -19.61681058 30.58442453 -19.08129883 29.34545898 C-18.56462646 28.14864502 -18.0479541 26.95183105 -17.515625 25.71875 C-17.00708984 24.54441406 -16.49855469 23.37007812 -15.97460938 22.16015625 C-14.9125472 19.67436396 -13.87151492 17.18707617 -12.85351562 14.68359375 C-12.46181183 13.73389709 -12.46181183 13.73389709 -12.06219482 12.76501465 C-11.341559 11.01477592 -10.63089436 9.2604412 -9.92089844 7.50585938 C-7.60994655 2.92046833 -5.333997 -0.00924436 0 0 Z " fill="#EF7434" transform="translate(376.4375,732.4375)"/>
<path d="M0 0 C4.51338459 2.97324836 6.55301572 6.39750863 8.71484375 11.2109375 C9.04759308 11.92366821 9.38034241 12.63639893 9.72317505 13.37072754 C10.80709757 15.69993361 11.87259903 18.03704385 12.9375 20.375 C13.68372499 21.99155153 14.43105109 23.60759521 15.17944336 25.22314453 C16.32484899 27.69772204 17.46862175 30.1729777 18.60688782 32.65084839 C21.09793863 38.07264707 23.64220189 43.46587683 26.2265625 48.84375 C27.19722711 50.87535007 28.16684059 52.90744784 29.13601685 54.9397583 C29.74957473 56.22136046 30.36661787 57.50130037 30.98727417 58.77947998 C31.84728615 60.55356 32.69158949 62.33522913 33.53515625 64.1171875 C34.013479 65.11347168 34.49180176 66.10975586 34.98461914 67.13623047 C36.11605935 70.32733256 36.31697308 72.63805902 36 76 C33.96006092 79.6578218 32.49580738 81.66946174 29 84 C25.04477672 84.79717679 21.44744446 84.86410526 17.92578125 82.76171875 C15.08872633 80.36479394 13.07003367 78.1050505 11 75 C6.93170088 74.34604628 2.85020934 74.40007285 -1.26635742 74.38916016 C-3.29659852 74.37511004 -5.32061436 74.30788064 -7.34960938 74.23828125 C-14.05632191 73.91561208 -14.05632191 73.91561208 -19.92724609 76.53222656 C-21.44108339 78.61984683 -21.44108339 78.61984683 -23 82 C-27.01858595 84.6790573 -30.27641721 84.69610694 -35 84 C-37.87029869 82.20606332 -39.49131638 81.01736724 -41 78 C-41.8962821 69.55426483 -39.11010366 63.77909319 -35.5 56.25 C-34.30621589 53.69881951 -33.12417981 51.14223754 -31.94140625 48.5859375 C-31.6276857 47.912211 -31.31396515 47.2384845 -30.99073792 46.54434204 C-28.45377013 41.0678153 -26.06525565 35.53539021 -23.71484375 29.9765625 C-23.35818634 29.13605347 -23.00152893 28.29554443 -22.63406372 27.42956543 C-21.21545316 24.08441242 -19.79777939 20.739052 -18.39941406 17.38537598 C-17.42094844 15.04154665 -16.42861155 12.70402794 -15.43359375 10.3671875 C-15.14548325 9.66534332 -14.85737274 8.96349915 -14.56053162 8.24038696 C-11.63369436 1.43104937 -7.66868148 -1.81363603 0 0 Z " fill="#252C32" transform="translate(524,733)"/>
<path d="M0 0 C13.53 0 27.06 0 41 0 C41 30.36 41 60.72 41 92 C27.47 92 13.94 92 0 92 C0 61.64 0 31.28 0 0 Z " fill="#87808D" transform="translate(746,694)"/>
<path d="M0 0 C13.2 0 26.4 0 40 0 C40 30.36 40 60.72 40 92 C26.8 92 13.6 92 0 92 C0 61.64 0 31.28 0 0 Z " fill="#A7A3AE" transform="translate(30,694)"/>
<path d="M0 0 C3.85344811 2.0749336 6.86022494 4.1484049 9 8 C9.4600437 9.90589533 9.91824848 11.81229382 10.359375 13.72265625 C12.67179372 21.94302281 16.86766175 28.24510783 24 33 C30.8091297 36.44502657 39.63621663 35.96268405 46.95703125 34.34765625 C52.8015196 32.25585013 57.44956192 29.14103433 61 24 C63.25905655 19.19153794 64.70693417 14.29786296 65.875 9.125 C67.54566734 4.48425738 70.57310735 2.21344633 75 0 C79.17433895 -0.40137875 81.49551713 -0.26194303 85.25 1.6875 C88.80680424 4.67844902 90.81208523 7.12857487 91.28515625 11.83984375 C90.23731051 26.41776787 84.213806 38.13841552 73.72265625 48.1796875 C60.08103766 59.89777154 45.98588302 61.91850866 28.69335938 61.21777344 C15.94280081 60.18681819 5.32924928 52.76747751 -3.3125 43.75 C-10.84309047 34.76884497 -15.10861186 23.7678109 -16.4375 12.1875 C-15.75113804 7.18686286 -13.56178098 4.2663089 -9.6875 1.125 C-6.16108808 -0.35117243 -3.79611 -0.46618895 0 0 Z " fill="#262E34" transform="translate(369,412)"/>
<path d="M0 0 C14.69419688 1.13032284 23.43870861 2.85887389 33 14 C37.44601725 21.18757759 40.13127232 27.51437447 40.11352539 35.96191406 C40.11344986 37.16285706 40.11337433 38.36380005 40.11329651 39.60113525 C40.10813522 40.89291687 40.10297394 42.18469849 40.09765625 43.515625 C40.09579017 44.85512235 40.09436716 46.19462038 40.09336853 47.53411865 C40.08955835 51.05222472 40.07974091 54.57028921 40.06866455 58.08837891 C40.05841817 61.68130928 40.05380914 65.2742466 40.04882812 68.8671875 C40.03864849 75.91149499 40.01907305 82.95568848 40 90 C26.8 90 13.6 90 0 90 C0 60.3 0 30.6 0 0 Z " fill="#1784FA" transform="translate(746,277)"/>
<path d="M0 0 C0 29.7 0 59.4 0 90 C-12.54 90 -25.08 90 -38 90 C-38.06311821 82.48659477 -38.12319834 74.97416414 -38.15525055 67.46072388 C-38.17101449 63.96100379 -38.1920379 60.46150592 -38.22631836 56.96191406 C-38.26550694 52.93552647 -38.27977447 48.90936985 -38.29296875 44.8828125 C-38.30845261 43.64387238 -38.32393646 42.40493225 -38.33988953 41.12844849 C-38.3422172 29.00207287 -35.83156633 19.20040676 -27.3359375 10.24609375 C-19.51528946 3.12180478 -10.50399017 0 0 0 Z " fill="#1784FA" transform="translate(70,277)"/>
<path d="M0 0 C1.7522438 -0.00956978 1.7522438 -0.00956978 3.53988647 -0.01933289 C4.80756866 -0.02044571 6.07525085 -0.02155853 7.38134766 -0.02270508 C9.32722275 -0.02769768 9.32722275 -0.02769768 11.31240845 -0.03279114 C14.0613081 -0.03878335 16.81017631 -0.04063099 19.55908203 -0.04003906 C23.07866292 -0.03993753 26.59804168 -0.0535804 30.11757469 -0.07081127 C33.47633546 -0.08461731 36.83505886 -0.08402042 40.19384766 -0.08520508 C42.08929825 -0.09598335 42.08929825 -0.09598335 44.02304077 -0.10697937 C45.78474106 -0.10236443 45.78474106 -0.10236443 47.58203125 -0.09765625 C49.13185196 -0.09979378 49.13185196 -0.09979378 50.71298218 -0.10197449 C53.49226048 0.15182493 55.09020491 0.6419403 57.42041016 2.14526367 C59.51424628 4.83733869 60.35459976 6.70339389 60.85791016 10.08276367 C60.29713512 14.00818894 58.91752066 16.09323972 56.42041016 19.14526367 C52.58517918 21.9464863 48.20404229 21.36800367 43.67041016 21.27026367 C42.87763672 21.26124023 42.08486328 21.2522168 41.26806641 21.24291992 C39.31871734 21.21943379 37.36952441 21.18356504 35.42041016 21.14526367 C35.43706474 22.12126022 35.43706474 22.12126022 35.45405579 23.11697388 C35.56479476 29.89774835 35.64013825 36.67826538 35.69506836 43.4597168 C35.7201906 45.98944536 35.75429437 48.51910149 35.79760742 51.04858398 C35.8583557 54.68776331 35.88664401 58.3259818 35.90869141 61.96557617 C35.93449783 63.09391876 35.96030426 64.22226135 35.9868927 65.38479614 C35.99001693 74.159219 35.99001693 74.159219 33.01489258 77.84399414 C29.13271167 81.28743417 26.72357902 81.49140572 21.67822266 81.42651367 C18.26965985 81.00191761 16.67425737 79.67230449 14.42041016 77.14526367 C12.71665952 73.60475819 12.173944 70.80819352 12.19335938 66.89599609 C12.19351044 65.8753154 12.1936615 64.8546347 12.19381714 63.80302429 C12.20413971 62.71326797 12.21446228 61.62351166 12.22509766 60.50073242 C12.22792755 59.37580887 12.23075745 58.25088531 12.2336731 57.09187317 C12.2448518 53.50539431 12.26995253 49.91916683 12.29541016 46.33276367 C12.30544293 43.89852249 12.31456826 41.46427739 12.32275391 39.0300293 C12.34478359 33.06835525 12.37823841 27.10682742 12.42041016 21.14526367 C11.26283203 21.20327148 10.10525391 21.2612793 8.91259766 21.32104492 C7.37357568 21.36796632 5.83450983 21.41346393 4.29541016 21.45776367 C3.53486328 21.4996582 2.77431641 21.54155273 1.99072266 21.5847168 C-2.17552934 21.67450671 -4.77448209 21.43409613 -8.07177734 18.75073242 C-11.51215686 15.17638174 -11.91786953 13.16852919 -11.87255859 8.18432617 C-11.41704018 5.013918 -9.82643327 3.32602347 -7.57958984 1.14526367 C-4.94071773 -0.17417239 -2.95515031 0.01091914 0 0 Z " fill="#242C32" transform="translate(424.57958984375,734.854736328125)"/>
<path d="M0 0 C13.2 0 26.4 0 40 0 C40 28.89173228 40 28.89173228 29 40 C19.52785994 47.78555397 12.60459615 49 0 49 C0 32.83 0 16.66 0 0 Z " fill="#1785FB" transform="translate(746,368)"/>
<path d="M0 0 C12.54 0 25.08 0 38 0 C38 16.17 38 32.34 38 49 C26.41241592 49 18.12812638 47.00793701 9.6796875 38.875 C-0.84524696 27.12623595 0 16.06560541 0 0 Z " fill="#1785FB" transform="translate(32,368)"/>
<path d="M0 0 C15.39746657 3.84936664 26.39358148 10.24477855 34.875 23.875 C39.78255595 32.83612884 41 39.72869872 41 50 C27.47 50 13.94 50 0 50 C0 33.5 0 17 0 0 Z " fill="#958F9A" transform="translate(746,617)"/>
<path d="M0 0 C0 16.17 0 32.34 0 49 C-13.2 49 -26.4 49 -40 49 C-40 34.29717277 -35.78461756 23.04666417 -25.6875 12.1875 C-18.84156441 5.77231991 -9.47708187 0 0 0 Z " fill="#C5C1C9" transform="translate(70,618)"/>
<path d="M0 0 C13.53 0 27.06 0 41 0 C39.83842091 13.9389491 39.83842091 13.9389491 36.375 20.25 C36.015271 20.9311084 35.65554199 21.6122168 35.28491211 22.31396484 C28.25740187 35.22428852 17.92994935 42.44403972 4 47 C2.68 47 1.36 47 0 47 C0 31.49 0 15.98 0 0 Z " fill="#948F99" transform="translate(746,812)"/>
<path d="M0 0 C4.95 0 9.9 0 15 0 C15 30.03 15 60.06 15 91 C23.58 91 32.16 91 41 91 C41 91.33 41 91.66 41 92 C27.47 92 13.94 92 0 92 C0 61.64 0 31.28 0 0 Z " fill="#5C5563" transform="translate(746,694)"/>
<path d="M0 0 C13.2 0 26.4 0 40 0 C40 15.51 40 31.02 40 47 C29.32376674 45.47482382 21.57120838 40.5544949 14 33 C13.46761719 32.47921875 12.93523438 31.9584375 12.38671875 31.421875 C4.30288334 22.815828 0 11.67699775 0 0 Z " fill="#96919B" transform="translate(30,812)"/>
<path d="M0 0 C5.64145041 4.74394694 9.17799739 9.16447648 10.00390625 16.59765625 C10.30606725 22.90404871 9.28226082 28.0190011 5.75 33.3125 C1.28741358 38.09833212 -2.25958188 41.05907474 -8.9375 41.625 C-14.37087197 41.53510965 -18.80515336 39.57166209 -22.79296875 35.88671875 C-27.36525158 30.69764703 -29.11428128 25.1724643 -29.25 18.3125 C-28.70161198 11.34187896 -26.04829531 6.34774817 -21.25 1.3125 C-14.61985378 -3.58117936 -7.26218132 -3.77074799 0 0 Z " fill="#FED5B1" transform="translate(179.25,619.6875)"/>
<path d="M0 0 C4.62 0 9.24 0 14 0 C14 30.36 14 60.72 14 92 C0.8 92 -12.4 92 -26 92 C-26 91.67 -26 91.34 -26 91 C-17.42 91 -8.84 91 0 91 C0 60.97 0 30.94 0 0 Z " fill="#746E7B" transform="translate(56,694)"/>
<path d="M0 0 C8.58 0 17.16 0 26 0 C26 13.53 26 27.06 26 41 C17.42 41 8.84 41 0 41 C0 27.47 0 13.94 0 0 Z " fill="#867F8C" transform="translate(761,694)"/>
<path d="M0 0 C8.58 0 17.16 0 26 0 C26 13.53 26 27.06 26 41 C17.42 41 8.84 41 0 41 C0 27.47 0 13.94 0 0 Z " fill="#A7A3AE" transform="translate(30,694)"/>
<path d="M0 0 C17.79375 0 17.79375 0 23.00390625 4.875 C28.11893339 10.49636316 29.42401356 14.55571857 29.34375 22.140625 C28.63079919 28.07107944 25.59688211 31.70890383 21.0625 35.375 C13.2664518 39.51167864 9.89380962 39 0 39 C0 26.13 0 13.26 0 0 Z " fill="#F9F9FA" transform="translate(281,756)"/>
<path d="M0 0 C5.48784475 2.39469589 8.66535109 6.57886609 11 12 C12.14574628 16.76778293 11.20788657 20.13714611 8.75 24.3125 C6.00350485 28.26931505 3.61226346 30.46257885 -1 32 C-5.96860315 32.52166057 -9.85518979 32.5724051 -14.375 30.3125 C-17.96775803 27.14745126 -21.69412413 23.78798338 -22.23828125 18.828125 C-22.40686859 12.97193326 -22.03495229 9.56586706 -18 5 C-17.175 4.05125 -16.35 3.1025 -15.5 2.125 C-11.02795418 -1.40015857 -5.35958112 -0.7740798 0 0 Z " fill="#FBFBFB" transform="translate(295,287)"/>
<path d="M0 0 C4.8846525 2.26787438 7.73212562 5.1153475 10 10 C10.75381535 15.5997712 10.77303575 20.33499991 8.375 25.5 C4.00562265 30.09934457 0.90522367 32.23927176 -5.5 32.5 C-10.41790102 32.30648693 -13.26561017 31.37005911 -17 28 C-21.28133566 23.25581724 -22.36885699 19.60106098 -22.27734375 13.34765625 C-21.67773536 8.27209793 -19.13307585 5.10474895 -15.5 1.5625 C-10.32575261 -0.74743187 -5.57666708 -0.75070518 0 0 Z " fill="#FCFCFC" transform="translate(566,287)"/>
<path d="M0 0 C11.22 0 22.44 0 34 0 C32.13003656 9.3498172 26.61917253 16.71891189 20.3125 23.6875 C19.84924316 24.20449463 19.38598633 24.72148926 18.90869141 25.25415039 C16.45749491 27.86267827 14.64698192 29.63273953 11 30 C8.00972781 26.48432207 5.83314601 23.02018127 3.8125 18.875 C3.30332031 17.84117187 2.79414062 16.80734375 2.26953125 15.7421875 C-0.54002519 9.67354559 0 7.90403903 0 0 Z " fill="#C6C2CA" transform="translate(31,813)"/>
<path d="M0 0 C4.95 0 9.9 0 15 0 C15 13.2 15 26.4 15 40 C23.58 40 32.16 40 41 40 C41 40.33 41 40.66 41 41 C27.47 41 13.94 41 0 41 C0 27.47 0 13.94 0 0 Z " fill="#5C5563" transform="translate(746,745)"/>
<path d="M0 0 C4.62 0 9.24 0 14 0 C14 13.2 14 26.4 14 40 C0.8 40 -12.4 40 -26 40 C-26 39.67 -26 39.34 -26 39 C-17.42 39 -8.84 39 0 39 C0 26.13 0 13.26 0 0 Z " fill="#746E7B" transform="translate(56,746)"/>
<path d="M0 0 C3.11886578 1.69095133 5.39018854 3.78037709 7 7 C7.51512617 11.09157355 7.94367269 15.23589546 5.953125 18.95703125 C3.55501226 21.85592636 1.60351712 23.79811835 -2.171875 24.2734375 C-9.99982624 24.58181134 -9.99982624 24.58181134 -13.5 22 C-16.49680862 18.40382966 -17.87918394 15.69456707 -18 11 C-17.27563635 6.86077915 -15.96114963 3.93202388 -12.9375 1 C-8.56790944 -0.48752019 -4.55729275 -0.80080224 0 0 Z " fill="#A673B8" transform="translate(412,30)"/>
<path d="M0 0 C8.58 0 17.16 0 26 0 C26 3.96 26 7.92 26 12 C17.42 12 8.84 12 0 12 C0 8.04 0 4.08 0 0 Z " fill="#C2BDC7" transform="translate(761,694)"/>
<path d="M0 0 C8.58 0 17.16 0 26 0 C26 3.96 26 7.92 26 12 C17.42 12 8.84 12 0 12 C0 8.04 0 4.08 0 0 Z " fill="#E1DEE4" transform="translate(30,694)"/>
<path d="M0 0 C8.58 0 17.16 0 26 0 C26 3.63 26 7.26 26 11 C17.42 11 8.84 11 0 11 C0 7.37 0 3.74 0 0 Z " fill="#DEDBE2" transform="translate(30,735)"/>
<path d="M0 0 C8.58 0 17.16 0 26 0 C26 3.3 26 6.6 26 10 C17.42 10 8.84 10 0 10 C0 6.7 0 3.4 0 0 Z " fill="#C4BFC9" transform="translate(761,775)"/>
<path d="M0 0 C8.58 0 17.16 0 26 0 C26 3.3 26 6.6 26 10 C17.42 10 8.84 10 0 10 C0 6.7 0 3.4 0 0 Z " fill="#E3E0E6" transform="translate(30,775)"/>
<path d="M0 0 C8.58 0 17.16 0 26 0 C26 3.3 26 6.6 26 10 C17.42 10 8.84 10 0 10 C0 6.7 0 3.4 0 0 Z " fill="#C2BDC7" transform="translate(761,735)"/>
<path d="M0 0 C4.07390532 1.33327811 5.42613937 2.35369882 7.4375 6.125 C7.4375 9.7198199 6.83744536 11.54046447 4.8125 14.5 C1.4839384 16.77743688 -0.6133385 16.68916593 -4.5625 16.125 C-7 14.5625 -7 14.5625 -8.5625 12.125 C-9.28718526 7.69636786 -9.05704049 5.84433162 -6.5 2.125 C-3.5625 0.125 -3.5625 0.125 0 0 Z " fill="#F6F7F7" transform="translate(240.5625,301.875)"/>
<path d="M0 0 C1.9375 1.0625 1.9375 1.0625 3 3 C3.75471698 9.79245283 3.75471698 9.79245283 1.4375 13.5 C-1.94888329 15.58392818 -4.09385318 15.55802097 -8 15 C-10.4375 13.5 -10.4375 13.5 -12 11 C-12.61014545 8.1910285 -12.65360928 5.80363979 -12 3 C-8.3655827 -1.51548816 -5.40521016 -1.50144727 0 0 Z " fill="#F8F8F8" transform="translate(515,303)"/>
<path d="M0 0 C4.95 0 9.9 0 15 0 C15 3.3 15 6.6 15 10 C23.58 10 32.16 10 41 10 C41 10.33 41 10.66 41 11 C27.47 11 13.94 11 0 11 C0 7.37 0 3.74 0 0 Z " fill="#807B87" transform="translate(746,775)"/>
<path d="M0 0 C4.62 0 9.24 0 14 0 C14 3.63 14 7.26 14 11 C0.8 11 -12.4 11 -26 11 C-26 10.67 -26 10.34 -26 10 C-17.42 10 -8.84 10 0 10 C0 6.7 0 3.4 0 0 Z " fill="#94909A" transform="translate(56,775)"/>
<path d="M0 0 C4.95 0 9.9 0 15 0 C15 3.96 15 7.92 15 12 C10.05 12 5.1 12 0 12 C0 8.04 0 4.08 0 0 Z " fill="#86808D" transform="translate(746,694)"/>
<path d="M0 0 C4.62 0 9.24 0 14 0 C14 3.96 14 7.92 14 12 C9.38 12 4.76 12 0 12 C0 8.04 0 4.08 0 0 Z " fill="#9C96A1" transform="translate(56,694)"/>
<path d="M0 0 C4.62 0 9.24 0 14 0 C14 3.63 14 7.26 14 11 C9.38 11 4.76 11 0 11 C0 7.37 0 3.74 0 0 Z " fill="#9A949F" transform="translate(56,735)"/>
<path d="M0 0 C4.95 0 9.9 0 15 0 C15 3.3 15 6.6 15 10 C10.05 10 5.1 10 0 10 C0 6.7 0 3.4 0 0 Z " fill="#857F8C" transform="translate(746,735)"/>
<path d="M0 0 C4.15976303 4.15976303 5.6542138 8.61103171 8 14 C3.05 14 -1.9 14 -7 14 C-4.69 9.38 -2.38 4.76 0 0 Z " fill="#F5F6F6" transform="translate(520,772)"/>
<path d="M0 0 C0.66 0 1.32 0 2 0 C3.00484204 1.95585325 4.00373805 3.91476237 5 5.875 C5.556875 6.96554687 6.11375 8.05609375 6.6875 9.1796875 C8 12 8 12 8 14 C3.38 14 -1.24 14 -6 14 C-4.7290827 10.1872481 -3.66918099 7.09374991 -1.875 3.625 C-1.34519531 2.59246094 -1.34519531 2.59246094 -0.8046875 1.5390625 C-0.53914063 1.03117188 -0.27359375 0.52328125 0 0 Z " fill="#FEF9F6" transform="translate(376,772)"/>
</svg>
