<?xml version="1.0" encoding="UTF-8"?>
<svg version="1.1" xmlns="http://www.w3.org/2000/svg" width="404" height="679">
<path d="M0 0 C5.34616238 3.1454552 8.59939781 7.48569344 10.5625 13.375 C11.43470409 20.72788335 11.12294741 27.33170772 6.5625 33.375 C3.61629096 36.52602571 0.8263849 38.50200632 -3.4375 39.375 C-3.32474731 39.94462967 -3.21199463 40.51425934 -3.0958252 41.10115051 C-1.9245711 47.02127336 -0.75727261 52.94216625 0.40771484 58.86352539 C0.84321981 61.07433824 1.27973856 63.28495163 1.71728516 65.49536133 C2.34543182 68.66956729 2.96994871 71.84446885 3.59375 75.01953125 C3.88904602 76.50559624 3.88904602 76.50559624 4.19030762 78.02168274 C4.37049438 78.94241074 4.55068115 79.86313873 4.73632812 80.81176758 C4.89621216 81.6222908 5.05609619 82.43281403 5.2208252 83.26789856 C5.5625 85.375 5.5625 85.375 5.5625 88.375 C6.75875 88.560625 7.955 88.74625 9.1875 88.9375 C25.20572271 92.60886659 38.8089199 103.65437572 47.5625 117.375 C53.5625 128.17232739 53.5625 128.17232739 53.5625 131.375 C54.35414551 131.35542236 55.14579102 131.33584473 55.96142578 131.31567383 C66.2169171 131.17736301 76.24644407 132.00609815 86.4375 133.0625 C87.30068848 133.15047852 88.16387695 133.23845703 89.05322266 133.32910156 C101.26116822 134.58246562 113.42661871 136.0498399 125.5625 137.875 C126.86558105 138.06408936 128.16866211 138.25317871 129.51123047 138.44799805 C139.94805169 140.10383321 148.45458493 143.21188929 155.5625 151.375 C163.60054592 163.73720077 162.71371139 174.89116916 161.125 189 C160.97498064 190.39964013 160.82588538 191.79937963 160.67773438 193.19921875 C160.31503303 196.59223133 159.94307555 199.98395379 159.5625 203.375 C160.14765381 203.55023193 160.73280762 203.72546387 161.33569336 203.90600586 C172.60762368 207.44200288 181.23324345 214.35726514 187.5625 224.375 C194.08408604 237.54827854 196.4015371 252.74423992 191.9375 267.0625 C189.83533236 272.32906132 186.98991591 276.87707885 183.5625 281.375 C182.44875 282.921875 182.44875 282.921875 181.3125 284.5 C172.57561864 293.63401234 162.09450917 298.56648328 149.5625 299.375 C149.51351563 300.36757813 149.46453125 301.36015625 149.4140625 302.3828125 C148.4409537 320.76932727 147.0653147 337.25464786 132.5625 350.375 C114.48661616 364.90723036 83.41492214 364.05144596 61.1875 366.125 C60.50615997 366.19002716 59.82481995 366.25505432 59.12283325 366.322052 C49.88118339 367.19214879 40.84028543 367.49533444 31.5625 367.375 C31.5625 371.665 31.5625 375.955 31.5625 380.375 C32.94179687 380.41238281 34.32109375 380.44976562 35.7421875 380.48828125 C76.11710426 381.80316625 76.11710426 381.80316625 91.5625 394.375 C92.00980469 393.98828125 92.45710938 393.6015625 92.91796875 393.203125 C94.17816307 392.11758447 95.44274968 391.03712876 96.7109375 389.9609375 C98.12298718 388.75146035 99.50600113 387.50799896 100.875 386.25 C109.80738595 380.01810282 119.00195813 379.33397097 129.5625 380.375 C138.69695411 382.40621414 146.48375457 388.57549809 151.5625 396.375 C156.58872712 405.17089745 157.27066503 415.74232017 154.76171875 425.484375 C153.48993001 428.80379272 152.21777344 431.58010413 149.94921875 434.33203125 C148.25835449 436.82307916 148.23343005 438.33163956 148.1875 441.3125 C147.89362093 444.92988415 147.59787028 446.31795116 145.625 449.5 C141.35179644 452.11624708 137.46493879 452.16437574 132.5625 451.375 C131.5725 450.715 130.5825 450.055 129.5625 449.375 C126.89275406 449.09803171 124.30078378 448.91071588 121.625 448.8125 C113.550268 448.47090468 113.550268 448.47090468 109.5625 447.375 C109.49446167 448.66482788 109.49446167 448.66482788 109.42504883 449.98071289 C108.74627235 461.82547646 107.70314819 473.62839498 106.57055664 485.43774414 C106.35706822 487.68530732 106.14872337 489.93336507 105.94555664 492.18188477 C102.8284585 526.66085826 93.73311758 555.26291182 66.79296875 578.5625 C59.64008621 584.375 59.64008621 584.375 56.5625 584.375 C56.58344727 585.33277344 56.60439453 586.29054688 56.62597656 587.27734375 C56.69889479 590.86296376 56.74448558 594.44851953 56.78222656 598.03466797 C56.80222503 599.58067887 56.82943331 601.12661527 56.86425781 602.67236328 C57.21655869 618.72277658 57.21655869 618.72277658 52.5625 625.375 C49.01852934 629.02103887 45.89012511 630.562787 40.82421875 631.00390625 C40.02330811 631.07810791 39.22239746 631.15230957 38.3972168 631.22875977 C37.48903198 631.30114868 37.48903198 631.30114868 36.5625 631.375 C36.58868408 632.04966309 36.61486816 632.72432617 36.6418457 633.41943359 C36.74692935 636.5293775 36.81117417 639.63894648 36.875 642.75 C36.9378418 644.34134766 36.9378418 644.34134766 37.00195312 645.96484375 C37.11993223 653.65708139 35.608826 658.84861666 31.5625 665.375 C31.005625 666.2825 30.44875 667.19 29.875 668.125 C24.53402818 673.32162123 17.70462664 677.44350143 10.15795898 677.56787109 C9.2695079 677.58393402 8.38105682 677.59999695 7.46568298 677.61654663 C3.38785734 677.66128052 -0.68980795 677.70209841 -4.76782227 677.72509766 C-6.91018579 677.74160352 -9.05249547 677.76882185 -11.19458008 677.80712891 C-14.29797681 677.86229401 -17.40008317 677.88383642 -20.50390625 677.8984375 C-21.44907608 677.92110687 -22.39424591 677.94377625 -23.36805725 677.96713257 C-31.62954477 677.94127302 -37.27227946 674.93093079 -44.1875 670.6875 C-49.85727176 664.86023458 -53.57828042 657.98249881 -53.53515625 649.83203125 C-53.53193359 648.75888672 -53.52871094 647.68574219 -53.52539062 646.58007812 C-53.51701172 645.46052734 -53.50863281 644.34097656 -53.5 643.1875 C-53.49548828 642.05634766 -53.49097656 640.92519531 -53.48632812 639.75976562 C-53.47453498 636.96479073 -53.4580765 634.1699218 -53.4375 631.375 C-54.34568481 631.30261108 -54.34568481 631.30261108 -55.2722168 631.22875977 C-56.07312744 631.15455811 -56.87403809 631.08035645 -57.69921875 631.00390625 C-58.49030029 630.93502197 -59.28138184 630.8661377 -60.09643555 630.79516602 C-64.06683768 630.0825722 -66.66106228 628.24088305 -69.4375 625.375 C-74.79029494 617.54071397 -73.81892435 608.96578036 -73.32470703 599.85913086 C-72.83300673 591.04676824 -72.83300673 591.04676824 -76.97802734 583.56494141 C-80.03779412 581.28177954 -83.16715783 579.33929092 -86.4375 577.375 C-105.61559081 561.86287797 -118.12048876 540.4791027 -121.91015625 516.0703125 C-122.09914993 514.86071365 -122.09914993 514.86071365 -122.29196167 513.62667847 C-124.03254115 501.97403013 -124.99871911 490.22941175 -126.0625 478.5 C-126.38654378 474.96975517 -126.71236119 471.4396917 -127.04110718 467.90988159 C-127.24335353 465.73431677 -127.44273687 463.5584833 -127.63882446 461.38235474 C-127.72916962 460.40297943 -127.81951477 459.42360413 -127.91259766 458.41455078 C-128.02893051 457.13150558 -128.02893051 457.13150558 -128.14761353 455.82254028 C-128.4460428 453.30287229 -128.90716685 450.8553268 -129.4375 448.375 C-131.87597451 448.48897544 -134.31263174 448.61570974 -136.75 448.75 C-137.78543945 448.79640625 -137.78543945 448.79640625 -138.84179688 448.84375 C-142.50740789 449.05624919 -144.31650792 449.29433861 -147.4375 451.375 C-152.37046654 452.16929122 -156.23577278 452.1352764 -160.5 449.4375 C-162.74385711 445.89075812 -162.89864607 443.58957069 -163.140625 439.49609375 C-163.58069788 436.35188884 -165.40196568 434.75948306 -167.4375 432.375 C-172.57384696 423.6345045 -172.94383749 413.14906209 -170.77734375 403.40625 C-167.4251473 394.00268593 -160.05571034 386.41174096 -151.125 382.125 C-142.75533959 378.97230281 -132.36914647 378.93177417 -123.9375 381.9375 C-119.75247293 383.90650936 -116.45894621 386.60501594 -113.12890625 389.7890625 C-111.32067063 391.57167357 -111.32067063 391.57167357 -108.4375 393.375 C-107.98761719 393.06046875 -107.53773437 392.7459375 -107.07421875 392.421875 C-90.82659176 381.61183059 -70.3943289 381.35215613 -51.4375 380.375 C-51.1075 376.085 -50.7775 371.795 -50.4375 367.375 C-52.0978125 367.40078125 -53.758125 367.4265625 -55.46875 367.453125 C-62.99951765 367.44871589 -70.44505987 366.83122726 -77.9375 366.125 C-78.64905243 366.05908661 -79.36060486 365.99317322 -80.09371948 365.92526245 C-140.19528834 360.31277197 -140.19528834 360.31277197 -154.8125 345.125 C-161.67133538 336.66078521 -164.19491347 327.7544915 -165.25 317.0625 C-165.37052734 316.01771484 -165.49105469 314.97292969 -165.61523438 313.89648438 C-166.15553377 309.03996469 -166.59753847 304.26880788 -166.4375 299.375 C-167.51 299.313125 -168.5825 299.25125 -169.6875 299.1875 C-181.67550432 297.60178514 -191.77127853 290.98910239 -199.5390625 281.921875 C-209.05127977 269.05002355 -210.58620059 255.93410251 -209.4375 240.375 C-207.93292816 232.3018974 -204.37293424 225.85194782 -199.4375 219.375 C-198.695 218.34375 -197.9525 217.3125 -197.1875 216.25 C-191.60757238 210.41643931 -184.99360589 206.16747392 -177.4375 203.375 C-177.28002198 195.0461623 -178.03974378 186.89225799 -178.90234375 178.61328125 C-179.92043558 167.4685694 -178.21574514 159.4276232 -171.4375 150.375 C-163.15165233 141.4168726 -154.1896587 139.68764265 -142.5 137.9375 C-141.81963684 137.83305573 -141.13927368 137.72861145 -140.43829346 137.6210022 C-128.10311837 135.73821625 -115.72514732 134.32333719 -103.3125 133.0625 C-102.05120773 132.93187668 -102.05120773 132.93187668 -100.76443481 132.7986145 C-90.61271231 131.75928775 -80.65255044 131.12237866 -70.4375 131.375 C-70.086875 130.116875 -69.73625 128.85875 -69.375 127.5625 C-63.97863157 111.67181141 -51.15648553 99.77074643 -36.4375 92.375 C-33.13475845 91.12165192 -29.87218485 90.17473852 -26.4375 89.375 C-26.31060791 88.09310791 -26.18371582 86.81121582 -26.05297852 85.49047852 C-25.49054241 80.4438228 -24.58383201 75.50447611 -23.58984375 70.52734375 C-23.41369034 69.63004044 -23.23753693 68.73273712 -23.05604553 67.8082428 C-22.49914929 64.9756353 -21.93716509 62.14406601 -21.375 59.3125 C-20.99380215 57.37832189 -20.61293959 55.44407766 -20.23242188 53.50976562 C-19.30465328 48.79740438 -18.37232397 44.08596648 -17.4375 39.375 C-18.38979492 39.07698486 -19.34208984 38.77896973 -20.32324219 38.47192383 C-23.48144435 37.35952164 -24.63263604 36.60849903 -26.6875 34.0625 C-27.16703125 33.48886719 -27.6465625 32.91523437 -28.140625 32.32421875 C-32.10571097 26.36464677 -32.15946063 20.32387103 -31.4375 13.375 C-29.71899356 7.4188129 -26.45313862 3.85523904 -21.4375 0.375 C-14.81797181 -2.77927182 -6.73098598 -3.07117231 0 0 Z " fill="#D9E2EF" transform="translate(209.4375,1.625)"/>
<path d="M0 0 C27.06 0 54.12 0 82 0 C82 4.29 82 8.58 82 13 C83.37929687 13.03738281 84.75859375 13.07476562 86.1796875 13.11328125 C126.55460426 14.42816625 126.55460426 14.42816625 142 27 C142.44730469 26.61328125 142.89460938 26.2265625 143.35546875 25.828125 C144.61566307 24.74258447 145.88024968 23.66212876 147.1484375 22.5859375 C148.56048718 21.37646035 149.94350113 20.13299896 151.3125 18.875 C160.24488595 12.64310282 169.43945813 11.95897097 180 13 C189.13445411 15.03121414 196.92125457 21.20049809 202 29 C207.02622712 37.79589745 207.70816503 48.36732017 205.19921875 58.109375 C203.92743001 61.42879272 202.65527344 64.20510413 200.38671875 66.95703125 C198.69585449 69.44807916 198.67093005 70.95663956 198.625 73.9375 C198.33112093 77.55488415 198.03537028 78.94295116 196.0625 82.125 C191.78929644 84.74124708 187.90243879 84.78937574 183 84 C182.01 83.34 181.02 82.68 180 82 C177.33025406 81.72303171 174.73828378 81.53571588 172.0625 81.4375 C163.987768 81.09590468 163.987768 81.09590468 160 80 C159.93196167 81.28982788 159.93196167 81.28982788 159.86254883 82.60571289 C159.18377235 94.45047646 158.14064819 106.25339498 157.00805664 118.06274414 C156.79456822 120.31030732 156.58622337 122.55836507 156.38305664 124.80688477 C153.2659585 159.28585826 144.17061758 187.88791182 117.23046875 211.1875 C110.07758621 217 110.07758621 217 107 217 C107.02094727 217.95777344 107.04189453 218.91554688 107.06347656 219.90234375 C107.13639479 223.48796376 107.18198558 227.07351953 107.21972656 230.65966797 C107.23972503 232.20567887 107.26693331 233.75161527 107.30175781 235.29736328 C107.65405869 251.34777658 107.65405869 251.34777658 103 258 C99.45602934 261.64603887 96.32762511 263.187787 91.26171875 263.62890625 C90.46080811 263.70310791 89.65989746 263.77730957 88.8347168 263.85375977 C88.22926025 263.90201904 87.62380371 263.95027832 87 264 C87.02618408 264.67466309 87.05236816 265.34932617 87.0793457 266.04443359 C87.18442935 269.1543775 87.24867417 272.26394648 87.3125 275.375 C87.3753418 276.96634766 87.3753418 276.96634766 87.43945312 278.58984375 C87.55743223 286.28208139 86.046326 291.47361666 82 298 C81.443125 298.9075 80.88625 299.815 80.3125 300.75 C74.97152818 305.94662123 68.14212664 310.06850143 60.59545898 310.19287109 C59.26278236 310.21696548 59.26278236 310.21696548 57.90318298 310.24154663 C53.82535734 310.28628052 49.74769205 310.32709841 45.66967773 310.35009766 C43.52731421 310.36660352 41.38500453 310.39382185 39.24291992 310.43212891 C36.13952319 310.48729401 33.03741683 310.50883642 29.93359375 310.5234375 C28.98842392 310.54610687 28.04325409 310.56877625 27.06944275 310.59213257 C18.80795523 310.56627302 13.16522054 307.55593079 6.25 303.3125 C0.58022824 297.48523458 -3.14078042 290.60749881 -3.09765625 282.45703125 C-3.09282227 280.84731445 -3.09282227 280.84731445 -3.08789062 279.20507812 C-3.07532227 277.52575195 -3.07532227 277.52575195 -3.0625 275.8125 C-3.05798828 274.68134766 -3.05347656 273.55019531 -3.04882812 272.38476562 C-3.03703498 269.58979073 -3.0205765 266.7949218 -3 264 C-3.60545654 263.95174072 -4.21091309 263.90348145 -4.8347168 263.85375977 C-5.63562744 263.77955811 -6.43653809 263.70535645 -7.26171875 263.62890625 C-8.05280029 263.56002197 -8.84388184 263.4911377 -9.65893555 263.42016602 C-13.62933768 262.7075722 -16.22356228 260.86588305 -19 258 C-24.35279494 250.16571397 -23.38142435 241.59078036 -22.88720703 232.48413086 C-22.39550673 223.67176824 -22.39550673 223.67176824 -26.54052734 216.18994141 C-29.60029412 213.90677954 -32.72965783 211.96429092 -36 210 C-55.17809081 194.48787797 -67.68298876 173.1041027 -71.47265625 148.6953125 C-71.59865204 147.88891327 -71.72464783 147.08251404 -71.85446167 146.25167847 C-73.59504115 134.59903013 -74.56121911 122.85441175 -75.625 111.125 C-75.94904378 107.59475517 -76.27486119 104.0646917 -76.60360718 100.53488159 C-76.80585353 98.35931677 -77.00523687 96.1834833 -77.20132446 94.00735474 C-77.29166962 93.02797943 -77.38201477 92.04860413 -77.47509766 91.03955078 C-77.55265289 90.18418732 -77.63020813 89.32882385 -77.71011353 88.44754028 C-78.0085428 85.92787229 -78.46966685 83.4803268 -79 81 C-81.43847451 81.11397544 -83.87513174 81.24070974 -86.3125 81.375 C-87.00279297 81.4059375 -87.69308594 81.436875 -88.40429688 81.46875 C-92.06990789 81.68124919 -93.87900792 81.91933861 -97 84 C-101.93296654 84.79429122 -105.79827278 84.7602764 -110.0625 82.0625 C-112.30635711 78.51575812 -112.46114607 76.21457069 -112.703125 72.12109375 C-113.14319788 68.97688884 -114.96446568 67.38448306 -117 65 C-122.13634696 56.2595045 -122.50633749 45.77406209 -120.33984375 36.03125 C-116.9876473 26.62768593 -109.61821034 19.03674096 -100.6875 14.75 C-92.31783959 11.59730281 -81.93164647 11.55677417 -73.5 14.5625 C-69.31497293 16.53150936 -66.02144621 19.23001594 -62.69140625 22.4140625 C-60.88317063 24.19667357 -60.88317063 24.19667357 -58 26 C-57.55011719 25.68546875 -57.10023437 25.3709375 -56.63671875 25.046875 C-40.38909176 14.23683059 -19.9568289 13.97715613 -1 13 C-0.505 6.565 -0.505 6.565 0 0 Z " fill="#D9E2EF" transform="translate(159,369)"/>
<path d="M0 0 C1.24056656 0.1213028 1.24056656 0.1213028 2.50619507 0.24505615 C5.07626793 0.49696069 7.64564492 0.75496679 10.21484375 1.015625 C10.99394104 1.0931601 11.77303833 1.17069519 12.57574463 1.25057983 C25.76651546 2.63042536 34.13344119 5.56277464 43.16796875 15.48828125 C52.59385797 28.41119547 47.58307546 48.13541629 45.875 63 C45.53228744 66.05665607 45.19232394 69.11360876 44.85282898 72.17062378 C44.61290499 74.33099669 44.37193039 76.49125315 44.12995911 78.65139771 C43.17474685 87.23770803 42.31342707 95.83150259 41.47265625 104.4296875 C41.08725216 108.30853644 40.7005087 112.18724944 40.31329346 116.06591797 C40.06419437 118.59081252 39.82011617 121.11620782 39.58123779 123.64208984 C39.24392366 127.19782758 38.88756187 130.75120724 38.52734375 134.3046875 C38.38523216 135.8815181 38.38523216 135.8815181 38.24024963 137.49020386 C37.28748348 146.57698293 34.75201242 154.54155334 28 161 C19.40436496 167.40566433 8.2990304 167.82657353 -2 169 C-3.27520508 169.14864502 -3.27520508 169.14864502 -4.57617188 169.30029297 C-23.32036223 171.44279584 -42.01653843 172.16494612 -60.87109375 172.203125 C-61.83692949 172.20595238 -62.80276524 172.20877975 -63.79786873 172.21169281 C-68.92164491 172.22656176 -74.0453939 172.23586542 -79.16918945 172.24023438 C-83.31771775 172.24459173 -87.46603488 172.25839479 -91.61450195 172.28125 C-116.10577804 172.41350969 -140.2618569 171.93516613 -164.62921143 169.35273743 C-168.54727354 168.94273036 -172.46849855 168.59257314 -176.39373779 168.25949097 C-186.54161565 167.33774848 -195.60215347 165.1590813 -202.5234375 157.26171875 C-211.02289959 145.59050617 -210.10599095 127.84835959 -211.23583984 113.98022461 C-211.82501485 106.76253201 -212.56075529 99.57062598 -213.375 92.375 C-213.49786377 91.28074707 -213.62072754 90.18649414 -213.74731445 89.05908203 C-214.33403963 83.849551 -214.92581193 78.64062773 -215.52587891 73.43261719 C-215.99572161 69.35004118 -216.45659976 65.26651702 -216.91314697 61.18243408 C-217.0929496 59.58829076 -217.27574364 57.99448136 -217.46185303 56.40106201 C-221.07404144 25.44214874 -221.07404144 25.44214874 -213.45703125 14.85546875 C-205.19646253 4.6668039 -195.63079619 2.25485673 -183.03173828 0.85864258 C-176.35873039 0.18100891 -169.68420695 -0.44481473 -163 -1 C-162.33665649 -1.05540955 -161.67331299 -1.11081909 -160.98986816 -1.16790771 C-107.99979085 -5.49259546 -52.88356862 -5.3211922 0 0 Z " fill="#4C617F" transform="translate(287,166)"/>
<path d="M0 0 C4.33091153 3.33856681 8.19015192 7.08656089 12 11 C12.68835938 11.6909375 13.37671875 12.381875 14.0859375 13.09375 C18.81895827 18.13679396 21.9454908 23.82882589 25 30 C25.3815625 30.74121094 25.763125 31.48242188 26.15625 32.24609375 C33.80343277 48.03289152 34.57522379 67.69402342 29.39453125 84.37109375 C25.39262119 94.78502777 20.55308791 104.68675121 13 113 C12.34644531 113.74507812 11.69289063 114.49015625 11.01953125 115.2578125 C-1.78072451 129.01400721 -20.74948883 137.42900925 -39.4453125 138.21484375 C-62.22250625 138.84150818 -81.48412591 131.00733626 -98.125 115.375 C-112.55686433 100.37762374 -119.44845022 80.67963536 -119.36352539 60.16577148 C-119.00387972 41.84302315 -112.34061162 25.6116484 -100 12 C-99.31164062 11.23042969 -98.62328125 10.46085937 -97.9140625 9.66796875 C-72.51523039 -17.24379019 -30.24295455 -20.93478796 0 0 Z " fill="#43B4E2" transform="translate(245,426)"/>
<path d="M0 0 C2.85956135 1.40273077 5.26133247 2.94109523 7.78125 4.8828125 C10.010878 6.319001 10.010878 6.319001 12.64453125 5.25 C13.81048828 4.63125 13.81048828 4.63125 15 4 C19.85653454 1.50235366 24.65132999 1.31719106 30 2 C34.0537986 3.44681027 37.43302009 5.6220134 41 8 C41 8.66 41 9.32 41 10 C42.01578125 9.93039062 43.0315625 9.86078125 44.078125 9.7890625 C54.52635444 9.29098182 62.79611816 10.48680878 70.96484375 17.74609375 C77.07769809 24.45678225 78.50701849 30.64376733 78.28125 39.58984375 C77.64747723 47.27433853 74.74562098 52.83398114 69 58 C63.21380656 62.33964508 57.81141589 63.47596904 50.7421875 64.40234375 C46.68909763 65.28570949 44.89535107 67.10464893 42 70 C38.7021342 71.0992886 36.09240986 71.10418695 32.625 71.1875 C27.27745828 71.44347621 27.27745828 71.44347621 23.25 74.8125 C22.5075 75.864375 21.765 76.91625 21 78 C14.65393236 82.37705714 7.50201521 83.1487773 0 82 C-4.9379696 80.24973928 -8.18998364 78.09461671 -11.3125 73.875 C-14.36818815 70.60612431 -15.55793156 70.42936832 -19.8125 69.5625 C-26.9628078 68.04976575 -31.1826457 65.00192373 -35.375 59.046875 C-38.43077838 53.65682148 -38.85136533 48.65045854 -37.45703125 42.671875 C-36.36693702 39.03421249 -35.45321282 36.51868634 -32.91796875 33.6171875 C-30.58196513 30.42956545 -30.56725699 28.71798754 -30.5625 24.8125 C-30.20356661 17.60935948 -28.42808965 11.82434733 -23.546875 6.37890625 C-22.0625 5.0625 -22.0625 5.0625 -19 3 C-18.154375 2.401875 -17.30875 1.80375 -16.4375 1.1875 C-10.95449793 -0.70662799 -5.72487967 -0.88023385 0 0 Z " fill="#10A2DC" transform="translate(181,448)"/>
<path d="M0 0 C0.1164248 7.78055619 0.20498161 15.56090406 0.25906086 23.3421154 C0.28503134 26.95625701 0.32019409 30.56979782 0.37719727 34.18359375 C0.431973 37.67849662 0.46151462 41.17282578 0.47438622 44.66812515 C0.48796899 46.63448279 0.5269284 48.60061318 0.56648254 50.56661987 C0.56897266 58.61420967 -0.67054623 64.1900574 -5 71 C-5.556875 71.9075 -6.11375 72.815 -6.6875 73.75 C-12.02847182 78.94662123 -18.85787336 83.06850143 -26.40454102 83.19287109 C-27.2929921 83.20893402 -28.18144318 83.22499695 -29.09681702 83.24154663 C-33.17464266 83.28628052 -37.25230795 83.32709841 -41.33032227 83.35009766 C-43.47268579 83.36660352 -45.61499547 83.39382185 -47.75708008 83.43212891 C-50.86047681 83.48729401 -53.96258317 83.50883642 -57.06640625 83.5234375 C-58.01157608 83.54610687 -58.95674591 83.56877625 -59.93055725 83.59213257 C-68.19204477 83.56627302 -73.83477946 80.55593079 -80.75 76.3125 C-86.54831814 70.35311747 -90.13094306 63.45983924 -90.11352539 55.15161133 C-90.11344986 53.9505928 -90.11337433 52.74957428 -90.11329651 51.51216125 C-90.10813522 50.21521835 -90.10297394 48.91827545 -90.09765625 47.58203125 C-90.09579077 46.24110466 -90.09436748 44.90017739 -90.09336853 43.55924988 C-90.08955356 40.03290927 -90.07973199 36.50660996 -90.06866455 32.98028564 C-90.0584285 29.38074299 -90.05386621 25.78119365 -90.04882812 22.18164062 C-90.0381088 15.12107687 -90.02104462 8.06054113 -90 1 C-88.58460938 1.30744141 -88.58460938 1.30744141 -87.140625 1.62109375 C-73.15146566 4.55656996 -59.56023808 5.20943076 -45.29174805 5.24023438 C-42.57114405 5.24996907 -39.85128818 5.28110383 -37.13085938 5.3125 C-27.28410692 5.37148074 -18.48981204 4.86379485 -9 2 C-7.88117432 1.68301147 -7.88117432 1.68301147 -6.73974609 1.35961914 C-1.95044065 0 -1.95044065 0 0 0 Z " fill="#4C617F" transform="translate(246,596)"/>
<path d="M0 0 C5.34616238 3.1454552 8.59939781 7.48569344 10.5625 13.375 C11.43470409 20.72788335 11.12294741 27.33170772 6.5625 33.375 C3.61629096 36.52602571 0.8263849 38.50200632 -3.4375 39.375 C-3.32474731 39.94462967 -3.21199463 40.51425934 -3.0958252 41.10115051 C-1.9245711 47.02127336 -0.75727261 52.94216625 0.40771484 58.86352539 C0.84321981 61.07433824 1.27973856 63.28495163 1.71728516 65.49536133 C2.34543182 68.66956729 2.96994871 71.84446885 3.59375 75.01953125 C3.79061401 76.01024124 3.98747803 77.00095123 4.19030762 78.02168274 C4.37049438 78.94241074 4.55068115 79.86313873 4.73632812 80.81176758 C4.89621216 81.6222908 5.05609619 82.43281403 5.2208252 83.26789856 C5.5625 85.375 5.5625 85.375 5.5625 88.375 C6.75875 88.560625 7.955 88.74625 9.1875 88.9375 C25.20572271 92.60886659 38.8089199 103.65437572 47.5625 117.375 C53.5625 128.17232739 53.5625 128.17232739 53.5625 131.375 C46.67089861 131.47191314 39.87709233 131.44113743 33.0078125 130.87890625 C20.91449779 130.02973708 8.77595639 130.2248196 -3.34033203 130.24462891 C-6.81758904 130.25024807 -10.2947681 130.24699684 -13.77202225 130.24117661 C-32.6810398 130.21459987 -51.54306458 130.61477957 -70.4375 131.375 C-69.97012412 129.93451305 -69.49943012 128.49510242 -69.02734375 127.05615234 C-68.63470337 125.8536232 -68.63470337 125.8536232 -68.23413086 124.62680054 C-63.10298544 110.12282309 -49.79471983 99.08650947 -36.4375 92.375 C-33.13475845 91.12165192 -29.87218485 90.17473852 -26.4375 89.375 C-26.31060791 88.09310791 -26.18371582 86.81121582 -26.05297852 85.49047852 C-25.49054241 80.4438228 -24.58383201 75.50447611 -23.58984375 70.52734375 C-23.41369034 69.63004044 -23.23753693 68.73273712 -23.05604553 67.8082428 C-22.49914929 64.9756353 -21.93716509 62.14406601 -21.375 59.3125 C-20.99380215 57.37832189 -20.61293959 55.44407766 -20.23242188 53.50976562 C-19.30465328 48.79740438 -18.37232397 44.08596648 -17.4375 39.375 C-18.38979492 39.07698486 -19.34208984 38.77896973 -20.32324219 38.47192383 C-23.48144435 37.35952164 -24.63263604 36.60849903 -26.6875 34.0625 C-27.16703125 33.48886719 -27.6465625 32.91523437 -28.140625 32.32421875 C-32.10571097 26.36464677 -32.15946063 20.32387103 -31.4375 13.375 C-29.71899356 7.4188129 -26.45313862 3.85523904 -21.4375 0.375 C-14.81797181 -2.77927182 -6.73098598 -3.07117231 0 0 Z " fill="#BBC8DC" transform="translate(209.4375,1.625)"/>
<path d="M0 0 C1.24056656 0.1213028 1.24056656 0.1213028 2.50619507 0.24505615 C5.07626793 0.49696069 7.64564492 0.75496679 10.21484375 1.015625 C10.99394104 1.0931601 11.77303833 1.17069519 12.57574463 1.25057983 C25.70503834 2.62399443 34.50351124 5.45274266 43.23046875 15.71484375 C48.27704778 22.23194912 48.38637127 28.08654406 48 36 C47.34 36 46.68 36 46 36 C45.5978125 35.03900391 45.5978125 35.03900391 45.1875 34.05859375 C41.34735888 25.58249279 36.616004 20.31866315 27.95223999 16.68501282 C24.81248053 15.58331657 21.6193088 15.22337175 18.328125 14.91015625 C17.59764954 14.83273697 16.86717407 14.75531769 16.11456299 14.67555237 C7.00927485 13.74146898 -2.1197355 13.07143358 -11.25 12.4375 C-12.17117615 12.37307709 -13.09235229 12.30865417 -14.04144287 12.24227905 C-30.02145711 11.13321091 -45.97915754 10.21251912 -62 10 C-62.82163635 9.98904297 -63.64327271 9.97808594 -64.48980713 9.96679688 C-95.04175699 9.58670538 -125.498587 10.18721379 -156 12 C-156.8976709 12.05327454 -157.7953418 12.10654907 -158.72021484 12.16143799 C-163.91345203 12.47528015 -169.10368934 12.81807739 -174.29238892 13.19979858 C-175.85893719 13.31439096 -177.42581255 13.42461696 -178.99301147 13.52993774 C-190.7929419 14.34040763 -203.5009999 15.84723066 -212 25 C-213.97590864 28.2192853 -215.56493234 31.50892195 -217 35 C-217.66 35 -218.32 35 -219 35 C-219.5759412 25.92892616 -217.53261825 19.80294171 -211.75 12.75 C-199.26396067 -0.61458794 -180.04006885 0.41533547 -163 -1 C-162.33665649 -1.05540955 -161.67331299 -1.11081909 -160.98986816 -1.16790771 C-107.99979085 -5.49259546 -52.88356862 -5.3211922 0 0 Z " fill="#3E4F67" transform="translate(287,166)"/>
<path d="M0 0 C7.83768574 5.76220102 13.61502843 12.42360906 16 22 C16.92929899 31.17218102 16.74619545 39.8092413 12 48 C11.46761719 48.64582031 10.93523437 49.29164063 10.38671875 49.95703125 C8.69585449 52.44807916 8.67093005 53.95663956 8.625 56.9375 C8.33112093 60.55488415 8.03537028 61.94295116 6.0625 65.125 C1.78929644 67.74124708 -2.09756121 67.78937574 -7 67 C-7.99 66.34 -8.98 65.68 -10 65 C-12.66974594 64.72303171 -15.26171622 64.53571588 -17.9375 64.4375 C-26.012232 64.09590468 -26.012232 64.09590468 -30 63 C-30.00410889 62.37134033 -30.00821777 61.74268066 -30.01245117 61.0949707 C-30.21011959 43.80610012 -31.63230594 30.80907802 -43 17 C-43.75152344 16.33097656 -44.50304687 15.66195313 -45.27734375 14.97265625 C-47 13 -47 13 -46.97265625 11 C-43.69165948 4.25353274 -36.87606382 -0.44314434 -30 -3 C-20.74358294 -6.04433272 -8.26471218 -5.06546875 0 0 Z " fill="#8496B0" transform="translate(349,386)"/>
<path d="M0 0 C5.19435096 3.18153996 9.70372227 6.67683052 12.1875 12.33984375 C11.69121094 12.778125 11.19492188 13.21640625 10.68359375 13.66796875 C1.15036565 22.56806026 -5.57332954 34.03831727 -6.2890625 47.21484375 C-6.35195228 49.25614134 -6.40126777 51.29789904 -6.4375 53.33984375 C-6.48824049 55.40244463 -6.54271363 57.46495829 -6.6015625 59.52734375 C-6.62790771 60.87892578 -6.62790771 60.87892578 -6.65478516 62.2578125 C-6.8125 64.33984375 -6.8125 64.33984375 -7.8125 65.33984375 C-10.96408451 65.57677671 -14.10794912 65.73574451 -17.265625 65.85742188 C-20.93193226 66.04644355 -22.68715937 66.25628333 -25.8125 68.33984375 C-30.74546654 69.13413497 -34.61077278 69.10012015 -38.875 66.40234375 C-41.11885711 62.85560187 -41.27364607 60.55441444 -41.515625 56.4609375 C-41.95569788 53.31673259 -43.77696568 51.72432681 -45.8125 49.33984375 C-50.94884696 40.59934825 -51.31883749 30.11390584 -49.15234375 20.37109375 C-45.8001473 10.96752968 -38.43071034 3.37658471 -29.5 -0.91015625 C-20.35954098 -4.35319911 -8.85363421 -4.20248516 0 0 Z " fill="#8496B0" transform="translate(87.8125,384.66015625)"/>
<path d="M0 0 C9.89244255 1.47948995 18.5335639 7.54943391 24.84375 15.25 C34.48480943 28.32262295 36.16923867 41.16271003 35 57 C33.49542816 65.0731026 29.93543424 71.52305218 25 78 C24.2575 79.03125 23.515 80.0625 22.75 81.125 C14.01311864 90.25901234 3.53200917 95.19148328 -9 96 C-9.07970928 89.92252064 -8.82447461 84.03135821 -8.17382812 77.99194336 C-8.08604599 77.14206848 -7.99826385 76.2921936 -7.90782166 75.41656494 C-7.62000166 72.64051589 -7.32568465 69.86519833 -7.03125 67.08984375 C-6.82906419 65.15218746 -6.62728827 63.21448835 -6.42590332 61.27674866 C-5.89733353 56.20143972 -5.36323135 51.12672804 -4.82794189 46.05212402 C-4.28166617 40.86387723 -3.74067036 35.67508018 -3.19921875 30.48632812 C-2.13795464 20.32367591 -1.07084013 10.16164733 0 0 Z " fill="#8496B0" transform="translate(368,205)"/>
<path d="M0 0 C1.46021611 0.88003008 2.90215377 1.79208167 4.3125 2.75 C5.67375 3.5853125 5.67375 3.5853125 7.0625 4.4375 C14.185239 11.75809286 16.62796377 19.53339098 16.70410156 29.48168945 C16.58622901 35.86046325 14.91138135 40.45135544 11.3125 45.75 C10.755625 46.6575 10.19875 47.565 9.625 48.5 C2.30440714 55.622739 -5.47089098 58.06546377 -15.41918945 58.14160156 C-21.79796325 58.02372901 -26.38885544 56.34888135 -31.6875 52.75 C-32.595 52.193125 -33.5025 51.63625 -34.4375 51.0625 C-41.560239 43.74190714 -44.00296377 35.96660902 -44.07910156 26.01831055 C-43.96122901 19.63953675 -42.28638135 15.04864456 -38.6875 9.75 C-38.130625 8.8425 -37.57375 7.935 -37 7 C-27.41092884 -2.32990707 -12.34699777 -6.08024362 0 0 Z " fill="#BBC8DC" transform="translate(387.6875,488.25)"/>
<path d="M0 0 C1.46021611 0.88003008 2.90215377 1.79208167 4.3125 2.75 C5.67375 3.5853125 5.67375 3.5853125 7.0625 4.4375 C14.185239 11.75809286 16.62796377 19.53339098 16.70410156 29.48168945 C16.58622901 35.86046325 14.91138135 40.45135544 11.3125 45.75 C10.755625 46.6575 10.19875 47.565 9.625 48.5 C2.30440714 55.622739 -5.47089098 58.06546377 -15.41918945 58.14160156 C-21.79796325 58.02372901 -26.38885544 56.34888135 -31.6875 52.75 C-32.595 52.193125 -33.5025 51.63625 -34.4375 51.0625 C-41.560239 43.74190714 -44.00296377 35.96660902 -44.07910156 26.01831055 C-43.96122901 19.63953675 -42.28638135 15.04864456 -38.6875 9.75 C-38.130625 8.8425 -37.57375 7.935 -37 7 C-27.41092884 -2.32990707 -12.34699777 -6.08024362 0 0 Z " fill="#BBC8DC" transform="translate(44.6875,488.25)"/>
<path d="M0 0 C1.17893287 11.18738431 2.3528231 22.37528531 3.52036285 33.56386471 C4.06271362 38.75971631 4.60676871 43.95537743 5.15478516 49.15063477 C5.68405249 54.16875977 6.2087561 59.18734327 6.73036194 64.20627022 C6.92968379 66.11647967 7.13062121 68.02652129 7.33323669 69.9363842 C7.6177745 72.62113765 7.89644728 75.30644232 8.17382812 77.99194336 C8.25798477 78.77310013 8.34214142 79.5542569 8.42884827 80.35908508 C8.96172297 85.59726577 9.06906084 90.73441699 9 96 C-3.33219033 95.28852748 -13.32196663 89.59590687 -22 81 C-33.23919611 67.88064097 -35.23144044 53.67981049 -34 37 C-32.49542816 28.9268974 -28.93543424 22.47694782 -24 16 C-23.2575 14.96875 -22.515 13.9375 -21.75 12.875 C-16.58477269 7.47498963 -7.96246107 0 0 0 Z " fill="#8496B0" transform="translate(34,205)"/>
<path d="M0 0 C5.34616238 3.1454552 8.59939781 7.48569344 10.5625 13.375 C11.43470409 20.72788335 11.12294741 27.33170772 6.5625 33.375 C3.61629096 36.52602571 0.8263849 38.50200632 -3.4375 39.375 C-3.32474731 39.94462967 -3.21199463 40.51425934 -3.0958252 41.10115051 C-1.9245711 47.02127336 -0.75727261 52.94216625 0.40771484 58.86352539 C0.84321981 61.07433824 1.27973856 63.28495163 1.71728516 65.49536133 C2.34543182 68.66956729 2.96994871 71.84446885 3.59375 75.01953125 C3.79061401 76.01024124 3.98747803 77.00095123 4.19030762 78.02168274 C4.37049438 78.94241074 4.55068115 79.86313873 4.73632812 80.81176758 C4.89621216 81.6222908 5.05609619 82.43281403 5.2208252 83.26789856 C5.5625 85.375 5.5625 85.375 5.5625 88.375 C4.94842285 88.36976318 4.3343457 88.36452637 3.70166016 88.35913086 C0.86361759 88.33807871 -1.97440846 88.32525137 -4.8125 88.3125 C-5.77800781 88.30412109 -6.74351562 88.29574219 -7.73828125 88.28710938 C-14.03886706 88.26596647 -20.1819362 88.63993771 -26.4375 89.375 C-25.80688441 83.00438117 -24.84312445 76.80281417 -23.58984375 70.52734375 C-23.32561363 69.18138878 -23.32561363 69.18138878 -23.05604553 67.8082428 C-22.49914929 64.9756353 -21.93716509 62.14406601 -21.375 59.3125 C-20.99380215 57.37832189 -20.61293959 55.44407766 -20.23242188 53.50976562 C-19.30465328 48.79740438 -18.37232397 44.08596648 -17.4375 39.375 C-18.38979492 39.07698486 -19.34208984 38.77896973 -20.32324219 38.47192383 C-23.48144435 37.35952164 -24.63263604 36.60849903 -26.6875 34.0625 C-27.40679687 33.20205078 -27.40679687 33.20205078 -28.140625 32.32421875 C-32.10571097 26.36464677 -32.15946063 20.32387103 -31.4375 13.375 C-29.71899356 7.4188129 -26.45313862 3.85523904 -21.4375 0.375 C-14.81797181 -2.77927182 -6.73098598 -3.07117231 0 0 Z " fill="#BBC8DC" transform="translate(209.4375,1.625)"/>
<path d="M0 0 C4.33091153 3.33856681 8.19015192 7.08656089 12 11 C12.68835938 11.6909375 13.37671875 12.381875 14.0859375 13.09375 C25.52437151 25.28142641 31.48600409 41.55686174 31 58 C28.75219688 55.75219688 28.5922289 54.82789192 27.875 51.8125 C22.69092958 34.02754554 10.48032898 18.89362202 -5.6953125 9.90625 C-24.95896546 -0.37712757 -45.84877138 -2.61293369 -67 3 C-72.65193741 5.05382301 -77.84127721 7.93872945 -83 11 C-83.87140625 11.49628906 -84.7428125 11.99257813 -85.640625 12.50390625 C-101.64183031 22.32282769 -112.58938338 39.95656837 -117 58 C-117.33 58 -117.66 58 -118 58 C-119.04201729 41.67506239 -112.6138233 26.76798594 -102.12109375 14.37109375 C-101.42113281 13.58863281 -100.72117188 12.80617188 -100 12 C-99.31035156 11.22785156 -98.62070313 10.45570313 -97.91015625 9.66015625 C-72.49093504 -17.2299783 -30.25275233 -20.94157018 0 0 Z " fill="#25A5DD" transform="translate(245,426)"/>
<path d="M0 0 C2.03833424 1.2739589 4.03852126 2.61061923 6 4 C9.15373007 4.71319647 12.28336853 5.18366597 15.48828125 5.60546875 C18 6 18 6 19 7 C20.38921589 7.32171315 21.78682781 7.60753496 23.1875 7.875 C30.89921534 9.57108929 35.43687052 12.60886985 40 19 C43.22754859 24.14870847 42.55960761 30.15210045 42 36 C40.32683394 41.97016071 37.01104472 45.52294856 32 49 C28.46558693 50.81030914 25.9239777 51.07181989 22 51 C22.01160156 49.84242188 22.02320313 48.68484375 22.03515625 47.4921875 C22.04454077 45.95312662 22.05364026 44.41406399 22.0625 42.875 C22.07506836 41.73417969 22.07506836 41.73417969 22.08789062 40.5703125 C22.10646509 36.2610356 21.86117265 32.24483526 21 28 C20.01 28.66 19.02 29.32 18 30 C17.8311953 32.86079547 17.81207913 35.52581647 17.9375 38.375 C18.30314358 47.64834358 18.30314358 47.64834358 16 51 C6.89948778 47.4485806 2.73412541 39.9984833 -1.5 31.6875 C-1.86270996 30.98149658 -2.22541992 30.27549316 -2.59912109 29.5480957 C-5.12533244 24.37599732 -5.12533244 24.37599732 -4 21 C-3.34 21 -2.68 21 -2 21 C-2.33 19.02 -2.66 17.04 -3 15 C-3.99 15.99 -4.98 16.98 -6 18 C-9.8809456 16.70635147 -10.56689295 15.09296658 -12.75 11.6875 C-13.70132813 10.23923828 -13.70132813 10.23923828 -14.671875 8.76171875 C-16 6 -16 6 -15.890625 3.76953125 C-13.00639394 -1.96098046 -5.37283704 -0.60417445 0 0 Z " fill="#42B4E3" transform="translate(212,455)"/>
<path d="M0 0 C27.72 0 55.44 0 84 0 C79.47383863 7.9207824 79.47383863 7.9207824 76.1875 10.25 C75.56230469 10.70890625 74.93710938 11.1678125 74.29296875 11.640625 C67.55605024 15.63457328 62.3509868 16.46708804 54.60546875 16.46875 C53.61807205 16.47636353 52.63067535 16.48397705 51.61335754 16.49182129 C49.53157061 16.50258832 47.44972981 16.50548927 45.36791992 16.50097656 C42.20723874 16.50000606 39.0490021 16.54163035 35.88867188 16.5859375 C33.85677584 16.5911468 31.82487146 16.59383266 29.79296875 16.59375 C28.86034714 16.61014526 27.92772552 16.62654053 26.96684265 16.64343262 C18.26224154 16.55319256 10.21822476 13.21822476 4 7 C2.02 3.535 2.02 3.535 0 0 Z " fill="#4C617F" transform="translate(159,663)"/>
<path d="M0 0 C4.62 0 9.24 0 14 0 C15.28534391 6.49546874 16.5669985 12.99165028 17.84521484 19.48852539 C18.28071981 21.69933824 18.71723856 23.90995163 19.15478516 26.12036133 C19.78293182 29.29456729 20.40744871 32.46946885 21.03125 35.64453125 C21.22811401 36.63524124 21.42497803 37.62595123 21.62780762 38.64668274 C21.89808777 40.02777473 21.89808777 40.02777473 22.17382812 41.43676758 C22.33371216 42.2472908 22.49359619 43.05781403 22.6583252 43.89289856 C23 46 23 46 23 49 C22.07888428 48.99214478 22.07888428 48.99214478 21.13916016 48.98413086 C18.30111759 48.96307871 15.46309154 48.95025137 12.625 48.9375 C11.65949219 48.92912109 10.69398438 48.92074219 9.69921875 48.91210938 C3.39863294 48.89096647 -2.7444362 49.26493771 -9 50 C-8.36938441 43.62938117 -7.40562445 37.42781417 -6.15234375 31.15234375 C-5.97619034 30.25504044 -5.80003693 29.35773712 -5.61854553 28.4332428 C-5.06164929 25.6006353 -4.49966509 22.76906601 -3.9375 19.9375 C-3.55630215 18.00332189 -3.17543959 16.06907766 -2.79492188 14.13476562 C-1.86715328 9.42240438 -0.93482397 4.71096648 0 0 Z " fill="#DAE3F0" transform="translate(192,41)"/>
<path d="M0 0 C5.58086801 3.0758193 8.8375544 7.17099668 10.875 13.19921875 C12.11116284 20.13996914 10.94470253 25.91288582 7.48828125 32.02734375 C4.4269018 36.14871657 0.86619875 38.56558695 -4.171875 39.6328125 C-9.1925411 39.95390161 -13.38860535 38.48106417 -17.125 35.19921875 C-22.48589707 28.31455249 -24.15621839 21.87767467 -23.125 13.19921875 C-21.10717592 7.66485479 -18.16147567 3.38015075 -13.125 0.19921875 C-8.58753051 -1.31327108 -4.49137955 -1.69252354 0 0 Z " fill="#019BDA" transform="translate(268.125,244.80078125)"/>
<path d="M0 0 C5.58086801 3.0758193 8.8375544 7.17099668 10.875 13.19921875 C12.11116284 20.13996914 10.94470253 25.91288582 7.48828125 32.02734375 C4.4269018 36.14871657 0.86619875 38.56558695 -4.171875 39.6328125 C-9.1925411 39.95390161 -13.38860535 38.48106417 -17.125 35.19921875 C-22.48589707 28.31455249 -24.15621839 21.87767467 -23.125 13.19921875 C-21.10717592 7.66485479 -18.16147567 3.38015075 -13.125 0.19921875 C-8.58753051 -1.31327108 -4.49137955 -1.69252354 0 0 Z " fill="#019BDA" transform="translate(147.125,244.80078125)"/>
<path d="M0 0 C27.06 0 54.12 0 82 0 C82 4.29 82 8.58 82 13 C54.94 13.33 27.88 13.66 0 14 C0 9.38 0 4.76 0 0 Z " fill="#8496B0" transform="translate(159,369)"/>
<path d="M0 0 C0.09958121 4.55315922 0.17179985 9.10567152 0.21972656 13.65966797 C0.23972503 15.20567887 0.26693331 16.75161527 0.30175781 18.29736328 C0.65405869 34.34777658 0.65405869 34.34777658 -4 41 C-8.9398714 46.08214229 -12.59628849 46.17736539 -20 47 C-20 34.79 -20 22.58 -20 10 C-14.72 7.36 -9.44 4.72 -4 2 C-1 0 -1 0 0 0 Z " fill="#A2B0C3" transform="translate(266,586)"/>
<path d="M0 0 C2.75028114 1.29107084 5.50023373 2.58283341 8.25 3.875 C9.02730469 4.23980469 9.80460938 4.60460937 10.60546875 4.98046875 C11.35957031 5.33496094 12.11367187 5.68945312 12.890625 6.0546875 C13.92751465 6.54171143 13.92751465 6.54171143 14.98535156 7.03857422 C17.00219339 8.00104672 19.0011995 9.00059975 21 10 C20.67 21.88 20.34 33.76 20 46 C8.59437322 44.73270814 8.59437322 44.73270814 4 40 C-1.26240487 32.40293251 -0.45591522 24.35046913 -0.25 15.5 C-0.22990494 13.99481542 -0.21165948 12.48960495 -0.1953125 10.984375 C-0.15155298 7.32237263 -0.08269216 3.66135422 0 0 Z " fill="#A2B0C3" transform="translate(136,587)"/>
<path d="M0 0 C29.7 0 59.4 0 90 0 C88 7 88 7 87 8 C84.38311559 8.09509559 81.792711 8.12556 79.17553711 8.11352539 C78.35609116 8.11367142 77.5366452 8.11381744 76.69236755 8.1139679 C73.97066647 8.11326852 71.24903295 8.10547501 68.52734375 8.09765625 C66.64547259 8.09579216 64.76360094 8.09436821 62.88172913 8.09336853 C57.91851471 8.08954267 52.95532936 8.07971181 47.99212646 8.06866455 C42.93160394 8.0584519 37.87107673 8.05387122 32.81054688 8.04882812 C22.87368512 8.0380896 12.93684497 8.02101236 3 8 C0 2.25 0 2.25 0 0 Z " fill="#4C617F" transform="translate(156,655)"/>
<path d="M0 0 C0 3.63 0 7.26 0 11 C-29.7 11 -59.4 11 -90 11 C-90 7.7 -90 4.4 -90 1 C-88.58460938 1.30744141 -88.58460938 1.30744141 -87.140625 1.62109375 C-85.85671875 1.89050781 -84.5728125 2.15992188 -83.25 2.4375 C-81.99703125 2.70433594 -80.7440625 2.97117187 -79.453125 3.24609375 C-68.18142069 5.30954596 -56.71088312 5.21558211 -45.29174805 5.24023438 C-42.57114405 5.24996907 -39.85128818 5.28110383 -37.13085938 5.3125 C-27.28410692 5.37148074 -18.48981204 4.86379485 -9 2 C-7.88117432 1.68301147 -7.88117432 1.68301147 -6.73974609 1.35961914 C-1.95044065 0 -1.95044065 0 0 0 Z " fill="#5F799E" transform="translate(246,596)"/>
<path d="M0 0 C5.3759434 1.85377358 5.3759434 1.85377358 7.1484375 5.109375 C7.42945313 5.73328125 7.71046875 6.3571875 8 7 C5.2053318 11.41886359 2.33333634 15.95061517 -2 19 C-6.03095962 19.77937473 -9.31639548 19.66497113 -13.38671875 19.2265625 C-17.54283285 18.96596291 -20.09797431 19.66760098 -24 21 C-24.25 13.375 -24.25 13.375 -22 10 C-21.34 11.32 -20.68 12.64 -20 14 C-18.00045254 14.04254356 -15.99958364 14.04080783 -14 14 C-12.70366379 12.93354885 -12.70366379 12.93354885 -12.9375 10.4375 C-12.958125 9.633125 -12.97875 8.82875 -13 8 C-14.98 7.34 -16.96 6.68 -19 6 C-12.72814392 -0.43690492 -8.86619898 -0.64818165 0 0 Z " fill="#41B3E2" transform="translate(180,453)"/>
<path d="M0 0 C29.7 0 59.4 0 90 0 C90 1.32 90 2.64 90 4 C60.3 4 30.6 4 0 4 C0 2.68 0 1.36 0 0 Z " fill="#5F799E" transform="translate(156,651)"/>
<path d="M0 0 C29.7 0 59.4 0 90 0 C90 1.32 90 2.64 90 4 C60.3 4 30.6 4 0 4 C0 2.68 0 1.36 0 0 Z " fill="#5F799E" transform="translate(156,639)"/>
<path d="M0 0 C29.7 0 59.4 0 90 0 C90 1.32 90 2.64 90 4 C60.3 4 30.6 4 0 4 C0 2.68 0 1.36 0 0 Z " fill="#5F799E" transform="translate(156,627)"/>
<path d="M0 0 C29.7 0 59.4 0 90 0 C90 1.32 90 2.64 90 4 C60.3 4 30.6 4 0 4 C0 2.68 0 1.36 0 0 Z " fill="#5F799E" transform="translate(156,615)"/>
<path d="M0 0 C3.125 1.875 3.125 1.875 5 5 C5.98876625 10.02622846 5.7769173 13.70513784 3.125 18.125 C-1.29486216 20.7769173 -4.97377154 20.98876625 -10 20 C-13.125 18.125 -13.125 18.125 -15 15 C-15.98876625 9.97377154 -15.7769173 6.29486216 -13.125 1.875 C-8.70513784 -0.7769173 -5.02622846 -0.98876625 0 0 Z " fill="#BCC8DD" transform="translate(365,456)"/>
<path d="M0 0 C3.125 1.875 3.125 1.875 5 5 C5.98876625 10.02622846 5.7769173 13.70513784 3.125 18.125 C-1.29486216 20.7769173 -4.97377154 20.98876625 -10 20 C-13.125 18.125 -13.125 18.125 -15 15 C-15.98876625 9.97377154 -15.7769173 6.29486216 -13.125 1.875 C-8.70513784 -0.7769173 -5.02622846 -0.98876625 0 0 Z " fill="#BCC8DD" transform="translate(49,456)"/>
<path d="M0 0 C2.26017813 2.15927732 4.14639748 4.42258616 6 6.9375 C6.495 7.60652344 6.99 8.27554687 7.5 8.96484375 C8.2425 9.97224609 8.2425 9.97224609 9 11 C9.55300781 11.57363281 10.10601562 12.14726562 10.67578125 12.73828125 C12.65278423 16.11493236 12.31810903 19.45898921 12.1875 23.25 C12.16719727 24.36761719 12.16719727 24.36761719 12.14648438 25.5078125 C12.11127204 27.33885416 12.05746851 29.16952169 12 31 C4.91998901 30.34935812 1.69231255 28.14286247 -3 23 C-5.3700042 19.049993 -5.44773874 15.55201057 -5 11 C-2.07929515 2.07929515 -2.07929515 2.07929515 0 0 Z " fill="#41B3E2" transform="translate(153,482)"/>
<path d="M0 0 C27.72 0 55.44 0 84 0 C83.34 1.32 82.68 2.64 82 4 C55.6 4 29.2 4 2 4 C1.34 2.68 0.68 1.36 0 0 Z " fill="#5F799E" transform="translate(159,663)"/>
<path d="M0 0 C3.02519989 2.05971056 4.66926776 3.51573824 5.48046875 7.15625 C5.73438693 11.27384208 5.30530777 13.50133064 3.125 17.0625 C-1.18393754 19.73404128 -5.03931002 19.79875517 -10 19 C-13.69834949 16.53443367 -14.03308783 15.27052877 -15 11 C-14.86179793 6.99213997 -14.62625703 4.7932589 -12.125 1.625 C-8.00350797 -1.5267292 -4.89272372 -1.18100228 0 0 Z " fill="#BBC7DC" transform="translate(352,434)"/>
<path d="M0 0 C3.22882279 2.20919454 3.88878483 3.5710272 4.875 7.375 C5.00644244 11.18683079 4.60264141 13.55432097 3 17 C-1.25518213 19.83678809 -5.00776826 19.74724488 -10 19 C-13.125 17.0625 -13.125 17.0625 -15 14 C-15.68503711 10.84312066 -15.72521205 8.15210276 -15 5 C-10.55362386 -0.76827175 -6.97901168 -1.59170442 0 0 Z " fill="#BBC7DC" transform="translate(62,434)"/>
<path d="M0 0 C3.57619114 0.56268742 6.18788283 1.44656743 9.25 3.375 C9.93578125 3.79523438 10.6215625 4.21546875 11.328125 4.6484375 C13 6 13 6 14 9 C13.01196289 10.80932617 13.01196289 10.80932617 11.47265625 12.79296875 C10.92802734 13.50517578 10.38339844 14.21738281 9.82226562 14.95117188 C9.24154297 15.68916016 8.66082031 16.42714844 8.0625 17.1875 C7.48564453 17.93708984 6.90878906 18.68667969 6.31445312 19.45898438 C4.88533497 21.31329471 3.44703996 23.15966362 2 25 C-2.48885556 23.99122289 -4.56915386 22.04097726 -8 19 C-7.38188466 14.44684052 -5.53234107 10.71540233 -3.4375 6.6875 C-2.9434668 5.71973633 -2.9434668 5.71973633 -2.43945312 4.73242188 C-1.63175745 3.15214772 -0.81662387 1.57567895 0 0 Z " fill="#41B3E2" transform="translate(179,478)"/>
<path d="M0 0 C2.96045738 2.59040021 3.85478339 4.12870035 4.5 8 C3.85478339 11.87129965 2.96045738 13.40959979 0 16 C-2.74602615 17.03764245 -5.08381535 17.38188132 -8 17 C-11.67463619 14.49812004 -12.77405243 12.74429789 -14.0625 8.5 C-13.98656644 4.24772053 -13.0047581 2.91890787 -10 0 C-6.72154211 -1.63922894 -3.40869581 -0.97680018 0 0 Z " fill="#10A2DD" transform="translate(228,465)"/>
<path d="M0 0 C4.42265284 0.46418514 8.07094796 1.71663184 12.125 3.5 C15.40046572 4.93353716 18.49511321 6.2621291 22 7 C21.01526648 9.85572721 20.0416157 10.97012206 17.5625 12.75 C11.93365837 14.72503215 6.21589745 15.30921835 0.58203125 13.015625 C-3.17605894 10.79773571 -5.25321289 9.06714612 -7 5 C-6.030625 4.360625 -5.06125 3.72125 -4.0625 3.0625 C-1.23963731 1.3034741 -1.23963731 1.3034741 0 0 Z " fill="#41B3E2" transform="translate(179,511)"/>
<path d="M0 0 C0 2.31 0 4.62 0 7 C-29.7 7 -59.4 7 -90 7 C-90 5.02 -90 3.04 -90 1 C-88.58460938 1.30744141 -88.58460938 1.30744141 -87.140625 1.62109375 C-85.85671875 1.89050781 -84.5728125 2.15992188 -83.25 2.4375 C-81.99703125 2.70433594 -80.7440625 2.97117187 -79.453125 3.24609375 C-68.18142069 5.30954596 -56.71088312 5.21558211 -45.29174805 5.24023438 C-42.57114405 5.24996907 -39.85128818 5.28110383 -37.13085938 5.3125 C-27.28410692 5.37148074 -18.48981204 4.86379485 -9 2 C-7.88117432 1.68301147 -7.88117432 1.68301147 -6.73974609 1.35961914 C-1.95044065 0 -1.95044065 0 0 0 Z " fill="#536785" transform="translate(246,596)"/>
<path d="M0 0 C3.61768405 1.20589468 3.92921767 1.9763212 5.6875 5.25 C8.68247454 11.43722284 8.47526942 17.26173584 8 24 C6.54096742 23.69078116 5.08279278 23.37751201 3.625 23.0625 C2.40683594 22.80146484 2.40683594 22.80146484 1.1640625 22.53515625 C-1 22 -1 22 -3 21 C-2.9175 19.9275 -2.835 18.855 -2.75 17.75 C-2.61979198 13.50220187 -2.61979198 13.50220187 -7 10 C-3.535 5.05 -3.535 5.05 0 0 Z " fill="#41B3E2" transform="translate(196,490)"/>
<path d="M0 0 C2.36682925 2.87348994 3.97966125 5.88940388 5.6015625 9.23022461 C9.54703072 17.26650985 13.78014757 22.54072634 21 28 C18.1928938 30.87001054 16.14927906 32.87211583 11.96484375 33.12109375 C9.97615591 33.12460114 7.98758702 33.0662529 6 33 C5.97421875 32.09378906 5.9484375 31.18757812 5.921875 30.25390625 C5.4999817 21.19278871 4.08293208 14.78386013 -0.8125 7.1875 C-2 5 -2 5 -1.75 2.75 C-1 1 -1 1 0 0 Z " fill="#40B2E2" transform="translate(203,482)"/>
<path d="M0 0 C19.8 0 39.6 0 60 0 C55.78697901 3.15976575 53.60830286 4.11736242 48.54785156 4.16113281 C47.20065033 4.17554413 47.20065033 4.17554413 45.82623291 4.19024658 C44.37310699 4.1966214 44.37310699 4.1966214 42.890625 4.203125 C41.39036774 4.21167511 41.39036774 4.21167511 39.85980225 4.22039795 C37.74150653 4.22984744 35.62319611 4.23638173 33.50488281 4.24023438 C30.27642877 4.24992071 27.0486166 4.28093699 23.8203125 4.3125 C21.76042044 4.31903222 19.70052383 4.32428183 17.640625 4.328125 C16.67997131 4.3404718 15.71931763 4.3528186 14.72955322 4.36553955 C9.03461228 4.34677346 5.0649528 3.64326679 0 1 C0 0.67 0 0.34 0 0 Z " fill="#5F799E" transform="translate(171,675)"/>
<path d="M0 0 C0.66 0 1.32 0 2 0 C3.53342557 2.05645445 4.90108447 4.07778086 6.25 6.25 C6.63929688 6.83652344 7.02859375 7.42304688 7.4296875 8.02734375 C8.515625 9.765625 8.515625 9.765625 10 13 C9.13488036 16.43709695 8.01531094 16.9897927 5 19 C3.58235006 18.06398754 2.16592432 17.1261208 0.75 16.1875 C-0.03890625 15.66542969 -0.8278125 15.14335937 -1.640625 14.60546875 C-3.81092481 13.12865878 -5.91413768 11.59310127 -8 10 C-6.85500893 8.52018126 -5.708983 7.04116318 -4.5625 5.5625 C-3.60537109 4.32693359 -3.60537109 4.32693359 -2.62890625 3.06640625 C-1 1 -1 1 0 0 Z " fill="#41B3E2" transform="translate(191,463)"/>
<path d="M0 0 C1.75570312 0.02707031 1.75570312 0.02707031 3.546875 0.0546875 C4.88492188 0.08949219 4.88492188 0.08949219 6.25 0.125 C4.88408831 3.66743452 3.34068516 7.05127929 1.625 10.4375 C1.17898437 11.32050781 0.73296875 12.20351563 0.2734375 13.11328125 C-0.06429687 13.77714844 -0.40203125 14.44101562 -0.75 15.125 C-1.74 15.125 -2.73 15.125 -3.75 15.125 C-5.57421875 13.04296875 -5.57421875 13.04296875 -7.4375 10.3125 C-8.06011719 9.41917969 -8.68273437 8.52585937 -9.32421875 7.60546875 C-10.75 5.125 -10.75 5.125 -10.75 2.125 C-7.15537669 -0.13498595 -4.18404325 -0.08368087 0 0 Z " fill="#3FB2E2" transform="translate(168.75,475.875)"/>
<path d="M0 0 C3 0.25 3 0.25 5 2.25 C5.25 5.25 5.25 5.25 5 8.25 C3 10.25 3 10.25 0 10.5 C-3 10.25 -3 10.25 -5 8.25 C-5.25 5.25 -5.25 5.25 -5 2.25 C-3 0.25 -3 0.25 0 0 Z " fill="#FFFFFF" transform="translate(172,29.75)"/>
<path d="M0 0 C2.625 0.375 2.625 0.375 5 1 C5.625 3.375 5.625 3.375 6 6 C5.34 6.66 4.68 7.32 4 8 C1.375 7.625 1.375 7.625 -1 7 C-1.625 4.625 -1.625 4.625 -2 2 C-1.34 1.34 -0.68 0.68 0 0 Z " fill="#45B6E4" transform="translate(221,469)"/>
<path d="M0 0 C4.85714286 2.42857143 4.85714286 2.42857143 7 5 C7 5.66 7 6.32 7 7 C2.61538462 10 2.61538462 10 0 10 C0 6.7 0 3.4 0 0 Z " fill="#3FB2E2" transform="translate(169,502)"/>
</svg>
