<?xml version="1.0" encoding="UTF-8"?>
<svg version="1.1" xmlns="http://www.w3.org/2000/svg" width="100" height="104">
<path d="M0 0 C1.81615814 -0.00642769 1.81615814 -0.00642769 3.66900635 -0.01298523 C6.2275734 -0.01871994 8.78615676 -0.01923513 11.34472656 -0.01489258 C15.23791715 -0.01174118 19.13034124 -0.03517425 23.0234375 -0.06054688 C25.51562405 -0.06282095 28.00781262 -0.06352286 30.5 -0.0625 C31.65449646 -0.07170975 32.80899292 -0.08091949 33.99847412 -0.09040833 C44.63824864 -0.03021716 54.45273366 1.93430087 62.515625 9.30078125 C64.92549106 12.45668602 66.7323858 15.76140376 68.515625 19.30078125 C69.13630859 20.33138672 69.13630859 20.33138672 69.76953125 21.3828125 C73.90953144 28.92713341 73.98569665 38.99418114 71.71484375 47.19140625 C70.39827968 50.26169466 69.01261356 52.72574368 66.82421875 55.2578125 C65.29013248 57.19661831 65.29013248 57.19661831 65.6953125 59.421875 C65.92476563 60.18628906 66.15421875 60.95070312 66.390625 61.73828125 C68.76881942 71.98860024 67.09689284 80.44946252 62.18359375 89.64453125 C59.56343233 93.81715365 56.98567193 97.36383058 52.765625 99.98828125 C52.15203125 100.38402344 51.5384375 100.77976562 50.90625 101.1875 C44.28288688 104.2719093 37.71566623 104.60899136 30.5390625 104.6015625 C29.14574203 104.60799019 29.14574203 104.60799019 27.72427368 104.61454773 C25.77289644 104.62025891 23.82149792 104.62081516 21.87011719 104.61645508 C18.89220986 104.61328294 15.91528572 104.63683647 12.9375 104.66210938 C11.03385541 104.66438155 9.13020817 104.66508624 7.2265625 104.6640625 C6.34205414 104.67327225 5.45754578 104.68248199 4.54623413 104.69197083 C-1.32662926 104.64814137 -5.51723022 103.71621203 -10.20703125 99.8984375 C-17.63880118 91.38331919 -20.20019143 80.78579467 -21.72265625 69.84375 C-21.89314987 68.69771805 -22.06364349 67.5516861 -22.23930359 66.3709259 C-22.59364467 63.96445451 -22.94030184 61.55684006 -23.27954102 59.14819336 C-23.79450405 55.50505468 -24.33768552 51.86695452 -24.88476562 48.22851562 C-29.5562705 16.46127689 -29.5562705 16.46127689 -25.796875 9.11328125 C-18.47765919 0.21153229 -10.88419522 -0.00853259 0 0 Z " fill="#FBFD77" transform="translate(27.484375,-0.30078125)"/>
<path d="M0 0 C1.81615814 -0.00642769 1.81615814 -0.00642769 3.66900635 -0.01298523 C6.2275734 -0.01871994 8.78615676 -0.01923513 11.34472656 -0.01489258 C15.23791715 -0.01174118 19.13034124 -0.03517425 23.0234375 -0.06054688 C25.51562405 -0.06282095 28.00781262 -0.06352286 30.5 -0.0625 C31.65449646 -0.07170975 32.80899292 -0.08091949 33.99847412 -0.09040833 C44.63824864 -0.03021716 54.45273366 1.93430087 62.515625 9.30078125 C64.92549106 12.45668602 66.7323858 15.76140376 68.515625 19.30078125 C69.13630859 20.33138672 69.13630859 20.33138672 69.76953125 21.3828125 C73.90953144 28.92713341 73.98569665 38.99418114 71.71484375 47.19140625 C70.39827968 50.26169466 69.01261356 52.72574368 66.82421875 55.2578125 C65.29013248 57.19661831 65.29013248 57.19661831 65.6953125 59.421875 C65.92476563 60.18628906 66.15421875 60.95070312 66.390625 61.73828125 C68.76881942 71.98860024 67.09689284 80.44946252 62.18359375 89.64453125 C59.56343233 93.81715365 56.98567193 97.36383058 52.765625 99.98828125 C52.15203125 100.38402344 51.5384375 100.77976562 50.90625 101.1875 C44.28288688 104.2719093 37.71566623 104.60899136 30.5390625 104.6015625 C29.14574203 104.60799019 29.14574203 104.60799019 27.72427368 104.61454773 C25.77289644 104.62025891 23.82149792 104.62081516 21.87011719 104.61645508 C18.89220986 104.61328294 15.91528572 104.63683647 12.9375 104.66210938 C11.03385541 104.66438155 9.13020817 104.66508624 7.2265625 104.6640625 C6.34205414 104.67327225 5.45754578 104.68248199 4.54623413 104.69197083 C-1.32662926 104.64814137 -5.51723022 103.71621203 -10.20703125 99.8984375 C-17.63880118 91.38331919 -20.20019143 80.78579467 -21.72265625 69.84375 C-21.89314987 68.69771805 -22.06364349 67.5516861 -22.23930359 66.3709259 C-22.59364467 63.96445451 -22.94030184 61.55684006 -23.27954102 59.14819336 C-23.79450405 55.50505468 -24.33768552 51.86695452 -24.88476562 48.22851562 C-29.5562705 16.46127689 -29.5562705 16.46127689 -25.796875 9.11328125 C-18.47765919 0.21153229 -10.88419522 -0.00853259 0 0 Z M-12.484375 15.30078125 C-14.28880785 24.28314183 -11.79369717 34.04502124 -10.12353516 42.89331055 C-8.4303705 52.02616057 -7.408741 61.18524668 -6.52416992 70.4284668 C-6.41564697 71.51297119 -6.30712402 72.59747559 -6.1953125 73.71484375 C-6.06068604 75.1527124 -6.06068604 75.1527124 -5.92333984 76.61962891 C-5.24072313 80.78898196 -3.82109145 83.79570657 -1.484375 87.30078125 C1.5743799 87.54596472 4.41474746 87.60294754 7.46875 87.515625 C8.36172791 87.49867081 9.25470581 87.48171661 10.17474365 87.46424866 C12.06800992 87.42368103 13.96112105 87.37523423 15.85400391 87.31958008 C18.73998822 87.23899708 21.62493041 87.19501495 24.51171875 87.15429688 C26.35161711 87.11030035 28.19146538 87.06414532 30.03125 87.015625 C30.89083313 87.0049852 31.75041626 86.9943454 32.63604736 86.98338318 C39.55877036 86.73331649 43.262788 84.55361825 48.203125 79.61328125 C52.51441789 74.10595226 54.29781768 67.21014995 53.515625 60.30078125 C51.88431512 56.14094106 49.94720135 53.17887754 46.515625 50.30078125 C45.855625 50.30078125 45.195625 50.30078125 44.515625 50.30078125 C44.515625 49.64078125 44.515625 48.98078125 44.515625 48.30078125 C45.216875 48.23890625 45.918125 48.17703125 46.640625 48.11328125 C51.64618008 46.69866786 54.55779326 43.89414116 57.1640625 39.55859375 C59.64760538 33.57225051 59.95262611 26.10085086 57.63671875 19.9765625 C54.90346177 15.8180428 51.16030604 13.09105293 46.515625 11.30078125 C42.3223028 10.71718822 38.16988417 10.73987235 33.94140625 10.76953125 C32.13931953 10.76379089 32.13931953 10.76379089 30.30082703 10.75793457 C27.77012287 10.75522031 25.23939042 10.7625472 22.70874023 10.77929688 C18.83058506 10.80076763 14.95427075 10.77944753 11.07617188 10.75390625 C8.61457924 10.75654851 6.15298775 10.76167137 3.69140625 10.76953125 C2.53095291 10.76143433 1.37049957 10.7533374 0.17488098 10.74499512 C-0.90336441 10.75760376 -1.9816098 10.7702124 -3.0925293 10.78320312 C-4.51313911 10.78797668 -4.51313911 10.78797668 -5.96244812 10.79284668 C-9.23426545 11.45181469 -10.4323673 12.72044567 -12.484375 15.30078125 Z " fill="#3C7FC9" transform="translate(27.484375,-0.30078125)"/>
<path d="M0 0 C1.07179001 -0.01906403 2.14358002 -0.03812805 3.24784851 -0.05776978 C4.40202774 -0.05594696 5.55620697 -0.05412415 6.74536133 -0.05224609 C7.93913895 -0.06081635 9.13291656 -0.0693866 10.36286926 -0.07821655 C12.89048731 -0.08970484 15.4181715 -0.09070236 17.94580078 -0.08203125 C21.79616739 -0.07573466 25.64342445 -0.12253614 29.4934082 -0.17333984 C31.95238872 -0.17788852 34.41137746 -0.17929157 36.87036133 -0.17724609 C38.58644844 -0.20487534 38.58644844 -0.20487534 40.33720398 -0.23306274 C47.99603058 -0.1453331 52.86839244 1.42291543 58.63989258 6.54931641 C62.58621931 11.30767575 62.19116576 16.13609436 62.05395508 22.09228516 C61.38173469 27.70469122 59.29041811 31.23010657 55.07739258 34.91650391 C52.45401815 36.81845037 50.9141652 37.54931641 47.63989258 37.54931641 C47.14489258 38.53931641 47.14489258 38.53931641 46.63989258 39.54931641 C45.64989258 39.05431641 45.64989258 39.05431641 44.63989258 38.54931641 C44.37176758 37.72431641 44.10364258 36.89931641 43.82739258 36.04931641 C43.43551758 35.22431641 43.04364258 34.39931641 42.63989258 33.54931641 C40.09213952 32.65545477 40.09213952 32.65545477 37.63989258 32.54931641 C38.46489258 31.86869141 39.28989258 31.18806641 40.13989258 30.48681641 C42.94924174 27.73184819 42.94924174 27.73184819 43.07739258 23.98681641 C42.68584412 19.88866105 42.68584412 19.88866105 40.63989258 16.54931641 C35.1796889 14.19393443 32.15384933 14.71133082 26.63989258 16.54931641 C23.8308251 17.11272823 21.0144999 17.60118701 18.19067383 18.08447266 C15.97484004 18.48827698 13.81626371 18.97336807 11.63989258 19.54931641 C11.30989258 18.55931641 10.97989258 17.56931641 10.63989258 16.54931641 C8.63972792 15.34049544 8.63972792 15.34049544 6.63989258 14.54931641 C2.76001098 17.07698414 -0.71983772 19.86437786 -1.8371582 24.54980469 C-2.49956217 29.8665603 -2.44181221 35.20105735 -2.36010742 40.54931641 C-2.35754134 42.23811654 -2.35746403 43.92692264 -2.36010742 45.61572266 C-2.36010742 46.91380859 -2.36010742 48.21189453 -2.36010742 49.54931641 C-2.69010742 49.54931641 -3.02010742 49.54931641 -3.36010742 49.54931641 C-4.36065371 44.59391793 -5.35481804 39.63736222 -6.33666992 34.67822266 C-6.89341348 31.8676311 -7.46498689 29.06468108 -8.07104492 26.26416016 C-9.54090477 19.20244219 -10.43681244 11.7121422 -9.36010742 4.54931641 C-6.48485719 0.88724148 -4.60708245 0.0451131 0 0 Z " fill="#FCEC46" transform="translate(24.360107421875,10.45068359375)"/>
<path d="M0 0 C1.62814636 -0.01441132 1.62814636 -0.01441132 3.28918457 -0.02911377 C5.05159485 -0.03548859 5.05159485 -0.03548859 6.84960938 -0.04199219 C8.06225464 -0.04769226 9.2748999 -0.05339233 10.52429199 -0.05926514 C13.09658942 -0.06872181 15.668899 -0.07525176 18.24121094 -0.07910156 C22.14995989 -0.08875995 26.05817243 -0.1197584 29.96679688 -0.15136719 C32.46939793 -0.15790213 34.97200274 -0.16315067 37.47460938 -0.16699219 C38.63335571 -0.17933899 39.79210205 -0.19168579 40.98596191 -0.20440674 C49.25493476 -0.18206303 57.16871434 0.64744113 64.50585938 4.72363281 C67.8995438 8.50516688 70.27312521 12.71188042 72.69335938 17.16113281 C73.32177734 18.19560547 73.32177734 18.19560547 73.96289062 19.25097656 C78.07500555 26.82133656 78.13272595 36.79288297 75.92773438 45.01660156 C74.16472247 49.19326071 71.85946749 52.88948776 68.69335938 56.16113281 C68.03335938 56.16113281 67.37335938 56.16113281 66.69335938 56.16113281 C67.02335937 56.82113281 67.35335937 57.48113281 67.69335938 58.16113281 C68.37330932 67.68043208 65.76691656 76.69423016 59.69335938 84.16113281 C57.06835938 86.22363281 57.06835938 86.22363281 54.69335938 87.16113281 C53.20835938 86.66613281 53.20835938 86.66613281 51.69335938 86.16113281 C52.97398422 84.45363302 54.31103494 82.78739685 55.69335938 81.16113281 C56.35335937 81.16113281 57.01335937 81.16113281 57.69335938 81.16113281 C58.5112642 75.43579903 58.85302883 69.75478785 58.94335938 63.97363281 C58.96462891 63.296875 58.98589844 62.62011719 59.0078125 61.92285156 C59.04000411 57.23207398 58.04014958 54.18760534 55.69335938 50.16113281 C54.81835938 48.09863281 54.81835938 48.09863281 54.69335938 46.16113281 C56.16965943 43.28623271 57.95022649 40.81619697 59.88085938 38.22363281 C63.01023731 32.73815952 62.38065987 26.23716169 61.69335938 20.16113281 C59.25340525 13.95034051 53.61686454 10.80063504 47.69335938 8.16113281 C43.49041221 7.36689231 39.41813321 7.3635981 35.15039062 7.43457031 C33.98255539 7.4335733 32.81472015 7.43257629 31.61149597 7.43154907 C29.15832667 7.43620433 26.70514546 7.45550593 24.25219727 7.48876953 C20.50580294 7.53613353 16.76224467 7.52985177 13.015625 7.51660156 C10.62302998 7.52775156 8.23044688 7.54196909 5.83789062 7.55957031 C4.72420609 7.5577475 3.61052155 7.55592468 2.46308899 7.55404663 C-3.9791687 7.67120166 -8.08603951 8.27735545 -13.30664062 12.16113281 C-15.7160834 16.10385735 -15.84636312 20.63507069 -16.30664062 25.16113281 C-19.14664666 20.90112376 -18.93755499 17.16171334 -18.30664062 12.16113281 C-16.06020958 7.58506957 -13.72993405 5.55210223 -9.30664062 3.16113281 C-8.97664062 2.50113281 -8.64664062 1.84113281 -8.30664062 1.16113281 C-5.26727714 0.14801165 -3.18142615 0.02274652 0 0 Z " fill="#3C80CC" transform="translate(23.306640625,1.8388671875)"/>
<path d="M0 0 C0.99 0.33 1.98 0.66 3 1 C2.51789062 1.36351562 2.03578125 1.72703125 1.5390625 2.1015625 C-4.31495355 6.76088139 -5.74784313 10.49995741 -6.625 17.875 C-6.75654223 19.24938955 -6.88382356 20.62422639 -7 22 C-6.34 22 -5.68 22 -5 22 C-4.93530518 22.58974609 -4.87061035 23.17949219 -4.80395508 23.78710938 C-3.38490168 36.54275505 -1.75613679 49.2617702 0.17861938 61.94921875 C0.39119624 63.34704628 0.60085936 64.74532034 0.8074646 66.14404297 C1.99434428 78.75517152 1.99434428 78.75517152 8.4375 88.875 C9.283125 89.24625 10.12875 89.6175 11 90 C12.1446875 90.5878125 12.1446875 90.5878125 13.3125 91.1875 C13.869375 91.455625 14.42625 91.72375 15 92 C15 92.66 15 93.32 15 94 C21.36924819 93.83960826 27.73661127 93.64226205 34.10400391 93.42016602 C36.2665055 93.3489865 38.42929463 93.28601863 40.59228516 93.23168945 C43.71630245 93.15175263 46.8380656 93.04152357 49.9609375 92.92578125 C50.91551849 92.90784012 51.87009949 92.88989899 52.85360718 92.87141418 C59.7016917 92.57623748 65.3252021 90.95608758 71 87 C79.03345819 77.72859173 81.20887524 67.95230562 81 56 C82.485 56.495 82.485 56.495 84 57 C87.02849239 64.87408021 86.72933909 73.46647107 83.73046875 81.328125 C80.64508096 87.67074495 77.3938531 93.86663268 71.25 97.6875 C70.63640625 98.08324219 70.0228125 98.47898437 69.390625 98.88671875 C62.76726188 101.97112805 56.20004123 102.30821011 49.0234375 102.30078125 C47.63011703 102.30720894 47.63011703 102.30720894 46.20864868 102.31376648 C44.25727144 102.31947766 42.30587292 102.32003391 40.35449219 102.31567383 C37.37658486 102.31250169 34.39966072 102.33605522 31.421875 102.36132812 C29.51823041 102.3636003 27.61458317 102.36430499 25.7109375 102.36328125 C24.82642914 102.372491 23.94192078 102.38170074 23.03060913 102.39118958 C17.15774574 102.34736012 12.96714478 101.41543078 8.27734375 97.59765625 C0.84557382 89.08253794 -1.71581643 78.48501342 -3.23828125 67.54296875 C-3.40877487 66.3969368 -3.57926849 65.25090485 -3.75492859 64.07014465 C-4.10926967 61.66367326 -4.45592684 59.25605881 -4.79516602 56.84741211 C-5.31012905 53.20427343 -5.85331052 49.56617327 -6.40039062 45.92773438 C-11.0718955 14.16049564 -11.0718955 14.16049564 -7.3125 6.8125 C-5.03534112 4.04298244 -3.05816205 1.88194588 0 0 Z " fill="#486491" transform="translate(9,2)"/>
<path d="M0 0 C1.0743631 -0.00630432 2.1487262 -0.01260864 3.25564575 -0.019104 C4.987043 -0.01303131 4.987043 -0.01303131 6.75341797 -0.00683594 C8.5356929 -0.00970612 8.5356929 -0.00970612 10.35397339 -0.01263428 C12.8639141 -0.01399478 15.37386188 -0.01030777 17.88378906 -0.00195312 C21.73762696 0.00876687 25.59100067 -0.00186301 29.44482422 -0.01464844 C31.88102317 -0.01332719 34.31722183 -0.01076552 36.75341797 -0.00683594 C37.91173126 -0.0108844 39.07004456 -0.01493286 40.26345825 -0.019104 C41.86554642 -0.00964752 41.86554642 -0.00964752 43.5 0 C44.91419724 0.00238678 44.91419724 0.00238678 46.35696411 0.00482178 C48.62060547 0.25878906 48.62060547 0.25878906 50.62060547 2.25878906 C49.61582405 2.26758842 49.61582405 2.26758842 48.59074402 2.27656555 C41.63158515 2.34039887 34.67289306 2.42479234 27.71411133 2.52124023 C25.11554104 2.5545365 22.5168976 2.5825536 19.91821289 2.60522461 C16.18718228 2.63868357 12.45682486 2.69099635 8.72607422 2.74707031 C6.97752388 2.7566552 6.97752388 2.7566552 5.19364929 2.76643372 C3.57230827 2.79612495 3.57230827 2.79612495 1.91821289 2.82641602 C0.96557053 2.83751907 0.01292816 2.84862213 -0.96858215 2.86006165 C-3.79736247 3.32791733 -4.70135103 3.96879629 -6.37939453 6.25878906 C-7.93662382 15.4057575 -5.71372923 24.87373045 -4.01831055 33.85107422 C-2.32598241 42.98415591 -1.30377038 52.14315151 -0.41918945 61.38647461 C-0.3106665 62.470979 -0.20214355 63.5554834 -0.09033203 64.67285156 C-0.00058105 65.63143066 0.08916992 66.59000977 0.18164062 67.57763672 C0.64078469 70.38204169 1.48925626 72.66021288 2.62060547 75.25878906 C2.95060547 76.24878906 3.28060547 77.23878906 3.62060547 78.25878906 C4.23266846 78.18732666 4.84473145 78.11586426 5.4753418 78.04223633 C13.75970191 77.17319443 21.98648004 77.14351341 30.30810547 77.19628906 C31.70328614 77.20131879 33.09846858 77.20587907 34.49365234 77.20996094 C37.86934984 77.22164155 41.24495373 77.23802074 44.62060547 77.25878906 C44.29060547 77.91878906 43.96060547 78.57878906 43.62060547 79.25878906 C37.76744608 79.40762731 31.91539903 79.51623636 26.06079102 79.58837891 C24.0713379 79.61846577 22.08201649 79.6593466 20.09301758 79.71142578 C17.22558032 79.78460031 14.35990303 79.81832585 11.49169922 79.84472656 C10.60912949 79.87569427 9.72655975 79.90666199 8.81724548 79.93856812 C3.34413233 79.94151969 -0.02575882 79.04188138 -3.97488403 75.13749695 C-8.13732983 69.56970678 -8.94887534 62.19502032 -9.98486328 55.48144531 C-10.11379471 54.67122421 -10.24272614 53.86100311 -10.37556458 53.02622986 C-10.64415487 51.32012098 -10.90864658 49.6133622 -11.16918945 47.90600586 C-11.56153291 45.35613465 -11.9765003 42.81065904 -12.39306641 40.26464844 C-13.70708397 31.96838693 -14.67903526 23.72123986 -14.86767578 15.31738281 C-14.89895065 14.57827164 -14.93022552 13.83916046 -14.96244812 13.07765198 C-14.97004042 9.19623891 -14.53386422 7.45377377 -12.09887695 4.38012695 C-7.94328299 1.13854728 -5.29603724 0.00892321 0 0 Z " fill="#888E42" transform="translate(22.37939453125,8.7412109375)"/>
<path d="M0 0 C1.734375 0.05859375 1.734375 0.05859375 4 1 C11.07855957 11.03657078 13.80841236 20.81981089 12 33 C10.50583444 38.40887931 7.92128245 42.94800813 4 47 C3.34 47 2.68 47 2 47 C2.33 47.66 2.66 48.32 3 49 C3.67994995 58.51929926 1.07355718 67.53309735 -5 75 C-7.625 77.0625 -7.625 77.0625 -10 78 C-10.99 77.67 -11.98 77.34 -13 77 C-11.71937515 75.2925002 -10.38232443 73.62626404 -9 72 C-8.34 72 -7.68 72 -7 72 C-6.731875 71.175 -6.46375 70.35 -6.1875 69.5 C-5 66 -5 66 -3.375 62.375 C-1.07442711 56.36794856 -0.97250684 49.08247947 -3 43 C-3.67588451 37.02968686 -3.67588451 37.02968686 -1.91796875 34.3515625 C-0.6279524 32.88681771 0.68546562 31.44278164 2 30 C3.35758558 25.95335067 3.22112629 21.78888992 3.25 17.5625 C3.270625 16.81162109 3.29125 16.06074219 3.3125 15.28710938 C3.34585709 10.5462335 2.69547718 8.02193569 0 4 C0 2.68 0 1.36 0 0 Z " fill="#4F83C8" transform="translate(88,11)"/>
<path d="M0 0 C2.55710298 2.88705175 2.96664249 4.72837454 3.4375 8.5625 C3 12 3 12 1.125 14.4375 C-1 16 -1 16 -3 16 C-3.33 16.99 -3.66 17.98 -4 19 C-6.31 19 -8.62 19 -11 19 C-11 18.34 -11 17.68 -11 17 C-12.134375 17.04125 -13.26875 17.0825 -14.4375 17.125 C-19.11097366 17.13334549 -23.52605198 16.34120542 -28 15 C-29 14 -29 14 -29.09765625 11.71484375 C-29.08605469 10.79832031 -29.07445312 9.88179687 -29.0625 8.9375 C-29.05347656 8.01839844 -29.04445312 7.09929688 -29.03515625 6.15234375 C-29.02355469 5.44207031 -29.01195312 4.73179688 -29 4 C-23.90743463 1.51030138 -19.14365011 0.33150794 -13.55078125 -0.5703125 C-11.05484255 -0.9438557 -11.05484255 -0.9438557 -8.890625 -1.59375 C-5.55262043 -2.31100718 -3.09745095 -1.23898038 0 0 Z " fill="#E7D03F" transform="translate(65,26)"/>
<path d="M0 0 C1.0886586 -0.00960754 2.1773172 -0.01921509 3.29896545 -0.02911377 C4.47704269 -0.03336365 5.65511993 -0.03761353 6.86889648 -0.04199219 C8.08391342 -0.04769226 9.29893036 -0.05339233 10.55076599 -0.05926514 C13.12725961 -0.06872111 15.70376535 -0.07525148 18.28027344 -0.07910156 C22.20000738 -0.08876858 26.11920838 -0.11977136 30.03881836 -0.15136719 C32.54467463 -0.15790123 35.05053464 -0.16315012 37.55639648 -0.16699219 C39.30225792 -0.18551239 39.30225792 -0.18551239 41.08338928 -0.20440674 C57.35591793 -0.16043949 57.35591793 -0.16043949 62.67749023 5.16113281 C60.87646851 4.67217529 60.87646851 4.67217529 59.0390625 4.17333984 C52.6761793 2.76749377 46.38047075 2.91198688 39.89233398 2.96582031 C37.9470858 2.97006516 37.9470858 2.97006516 35.96253967 2.97439575 C32.54472895 2.9819666 29.12709308 3.00155722 25.70935059 3.02380371 C22.20982222 3.04440477 18.71026511 3.0534277 15.21069336 3.06347656 C8.36622131 3.08481059 1.52186421 3.11886555 -5.32250977 3.16113281 C-5.60094727 3.79019531 -5.87938477 4.41925781 -6.16625977 5.06738281 C-7.68488227 7.81732086 -9.66095958 8.5642027 -12.32250977 10.16113281 C-14.35298523 13.28281619 -14.54427002 15.734243 -14.44750977 19.41113281 C-14.42946289 20.30316406 -14.41141602 21.19519531 -14.39282227 22.11425781 C-14.36961914 22.78972656 -14.34641602 23.46519531 -14.32250977 24.16113281 C-13.99250977 22.51113281 -13.66250977 20.86113281 -13.32250977 19.16113281 C-12.99250977 19.16113281 -12.66250977 19.16113281 -12.32250977 19.16113281 C-11.11128221 30.60014626 -10.01046211 41.92173842 -10.39672852 53.43603516 C-10.4987881 57.60183249 -9.89144387 60.35512536 -8.32250977 64.16113281 C-8.1041081 66.78471736 -7.95807122 69.34771806 -7.88500977 71.97363281 C-7.63664931 77.95192691 -6.73171456 82.68566736 -4.32250977 88.16113281 C-4.81750977 89.15113281 -4.81750977 89.15113281 -5.32250977 90.16113281 C-8.62242092 85.59563074 -9.37649291 81.02546914 -10.32250977 75.59863281 C-10.48984619 74.67187744 -10.65718262 73.74512207 -10.82958984 72.7902832 C-11.34115199 69.91612768 -11.83407251 67.03930008 -12.32250977 64.16113281 C-12.47252441 63.29875 -12.62253906 62.43636719 -12.77709961 61.54785156 C-14.91946698 49.09549252 -15.93300739 36.78638227 -16.32250977 24.16113281 C-16.98250977 24.16113281 -17.64250977 24.16113281 -18.32250977 24.16113281 C-18.6928204 18.11272578 -18.43678657 13.55921261 -15.32250977 8.16113281 C-13.42586853 6.29906577 -11.44657248 4.77726749 -9.32250977 3.16113281 C-8.99250977 2.50113281 -8.66250977 1.84113281 -8.32250977 1.16113281 C-5.27879802 0.14656223 -3.18644033 0.02271064 0 0 Z " fill="#336FB4" transform="translate(20.322509765625,-0.1611328125)"/>
<path d="M0 0 C2.05972986 3.0895948 2.30421298 4.07492733 2.5625 7.625 C2.67271484 9.07712891 2.67271484 9.07712891 2.78515625 10.55859375 C3.0816195 15.30739591 3.36651326 20.05711508 3.60766602 24.80908203 C3.86265267 29.57817303 4.36247235 34.26635722 5 39 C5.94206299 39.02505615 6.88412598 39.0501123 7.85473633 39.07592773 C11.40153576 39.17194017 14.94821937 39.27111048 18.49487305 39.37231445 C20.02022942 39.41521661 21.54562019 39.45691568 23.07104492 39.49731445 C31.74850402 39.7279919 40.36455728 40.04648614 49 41 C45.17477178 44.92639345 40.8924294 44.53990079 35.74609375 44.65234375 C34.84883072 44.67978165 33.95156769 44.70721954 33.02711487 44.73548889 C31.13358473 44.7887673 29.23983017 44.83452874 27.34594727 44.87329102 C24.4434747 44.9373681 21.54386216 45.03858328 18.64257812 45.14257812 C16.80213979 45.18975653 14.96164396 45.23475283 13.12109375 45.27734375 C12.25230087 45.31045151 11.383508 45.34355927 10.48838806 45.37767029 C4.52334872 45.45624621 4.52334872 45.45624621 1.98925781 43.24707031 C1.01282494 41.02913148 0.41729333 39.16166029 0.05078125 36.76953125 C-0.07490234 35.96580078 -0.20058594 35.16207031 -0.33007812 34.33398438 C-0.44802734 33.50189453 -0.56597656 32.66980469 -0.6875 31.8125 C-0.81705078 30.99974609 -0.94660156 30.18699219 -1.08007812 29.34960938 C-2.11226218 22.48476622 -2.78832399 15.76863428 -1 9 C-0.95858349 7.60478125 -0.95811768 6.20770485 -1 4.8125 C-1 1 -1 1 0 0 Z " fill="#D5E568" transform="translate(22,42)"/>
<path d="M0 0 C3.22103855 -0.0097956 6.44146155 -0.04094018 9.66235352 -0.07226562 C11.7268029 -0.07878923 13.79125678 -0.08404221 15.85571289 -0.08789062 C16.81000687 -0.10023743 17.76430084 -0.11258423 18.74751282 -0.12530518 C24.41426728 -0.106445 28.35692889 0.61472766 33.39868164 3.24023438 C33.39868164 3.90023438 33.39868164 4.56023438 33.39868164 5.24023438 C34.05868164 5.24023438 34.71868164 5.24023438 35.39868164 5.24023438 C35.39868164 5.90023438 35.39868164 6.56023438 35.39868164 7.24023438 C36.38868164 7.24023438 37.37868164 7.24023438 38.39868164 7.24023438 C41.60199875 14.31422633 42.96444678 21.20522489 40.60180664 28.80273438 C38.97411415 32.60903066 37.13133503 36.09768298 34.39868164 39.24023438 C32.41868164 38.74523438 32.41868164 38.74523438 30.39868164 38.24023438 C31.01743164 37.49773438 31.63618164 36.75523438 32.27368164 35.99023438 C37.33733349 29.43727315 37.11825939 23.36388843 36.39868164 15.24023438 C33.96097339 9.03515883 28.32973716 5.85692576 22.39868164 3.24023438 C18.14318162 2.48302422 14.02641167 2.53510691 9.71508789 2.65429688 C8.53776596 2.66278656 7.36044403 2.67127625 6.14744568 2.68002319 C2.4177249 2.71336643 -1.30976202 2.78857526 -5.03881836 2.86523438 C-7.5693857 2.89536211 -10.09998746 2.92273294 -12.63061523 2.94726562 C-18.17364229 3.00604249 -23.71553407 3.09113144 -29.25779724 3.19985962 C-31.0387575 3.23054244 -32.82009381 3.24023438 -34.60131836 3.24023438 C-28.29395868 -3.0671253 -8.44291747 0.01554984 0 0 Z " fill="#3771AB" transform="translate(48.601318359375,6.759765625)"/>
<path d="M0 0 C0.99 0.33 1.98 0.66 3 1 C2.51789062 1.36351562 2.03578125 1.72703125 1.5390625 2.1015625 C-4.31495355 6.76088139 -5.74784313 10.49995741 -6.625 17.875 C-6.75654223 19.24938955 -6.88382356 20.62422639 -7 22 C-6.34 22 -5.68 22 -5 22 C-4.93530518 22.58974609 -4.87061035 23.17949219 -4.80395508 23.78710938 C-3.38490168 36.54275505 -1.75613679 49.2617702 0.17861938 61.94921875 C0.39119624 63.34704628 0.60085936 64.74532034 0.8074646 66.14404297 C2.36919265 79.24351811 2.36919265 79.24351811 8.6875 90.5 C9.450625 91.325 10.21375 92.15 11 93 C6.47422215 91.57761268 3.88056132 89.79021227 1 86 C-2.72931315 75.70988039 -3.65431967 64.17766959 -5.21704102 53.41088867 C-5.68514902 50.20360796 -6.17116162 46.99937497 -6.65820312 43.79492188 C-11.0702371 14.10069171 -11.0702371 14.10069171 -7.3125 6.8125 C-5.03534112 4.04298244 -3.05816205 1.88194588 0 0 Z " fill="#2C4975" transform="translate(9,2)"/>
<path d="M0 0 C2 2 2 2 2.23046875 3.91015625 C2.11111111 9.88888889 2.11111111 9.88888889 1 11 C-0.78071246 11.08726223 -2.5648314 11.10699041 -4.34765625 11.09765625 C-5.42724609 11.09443359 -6.50683594 11.09121094 -7.61914062 11.08789062 C-8.75544922 11.07951172 -9.89175781 11.07113281 -11.0625 11.0625 C-12.20267578 11.05798828 -13.34285156 11.05347656 -14.51757812 11.04882812 C-17.34510351 11.03699747 -20.1725264 11.0205141 -23 11 C-23 8.03 -23 5.06 -23 2 C-21.95199219 1.93941406 -20.90398438 1.87882812 -19.82421875 1.81640625 C-18.44529952 1.73198262 -17.06639395 1.64733553 -15.6875 1.5625 C-14.99720703 1.52318359 -14.30691406 1.48386719 -13.59570312 1.44335938 C-8.910854 1.1491418 -4.6827222 -0.3602094 0 0 Z " fill="#869D44" transform="translate(61,55)"/>
<path d="M0 0 C0.66 0.33 1.32 0.66 2 1 C1.01 2.485 1.01 2.485 0 4 C-0.39110063 10.36090303 0.49587407 16.43190297 1.4609375 22.7109375 C1.61156647 23.7191153 1.76219543 24.72729309 1.91738892 25.76602173 C2.23579283 27.889351 2.5570001 30.01226158 2.88085938 32.13476562 C3.37227704 35.35714471 3.85485571 38.58075083 4.3359375 41.8046875 C4.64791747 43.8776825 4.96040105 45.95060178 5.2734375 48.0234375 C5.41623138 48.97479584 5.55902527 49.92615417 5.70614624 50.90634155 C6.84293888 58.33151683 8.13061323 65.7202874 10 73 C1.32424793 66.66904578 1.52295696 52.97989199 -0.04296875 43.03393555 C-0.25922681 41.62700703 -0.4740482 40.219857 -0.6875 38.8125 C-0.79739258 38.09131989 -0.90728516 37.37013977 -1.02050781 36.62710571 C-2.29160197 28.17224387 -3.46786419 19.75490613 -3.5 11.1875 C-3.50604248 10.49052002 -3.51208496 9.79354004 -3.51831055 9.07543945 C-3.41615236 5.14360742 -2.71804541 2.86985113 0 0 Z " fill="#1C333E" transform="translate(11,12)"/>
<path d="M0 0 C1.8125 0.1875 1.8125 0.1875 4 1 C9.27586764 7.83908769 8.8238348 17.77070508 8 26 C6.38586736 30.71775447 3.91982391 34.65092493 1.125 38.75 C-0.41747893 41.83495787 0.39700382 43.62561738 1 47 C1.16131325 49.35094224 1.26379122 51.70653335 1.3125 54.0625 C1.36857422 55.84333984 1.36857422 55.84333984 1.42578125 57.66015625 C0.92588462 61.58136379 -0.30187921 63.18480099 -3 66 C-2.835 64.9275 -2.67 63.855 -2.5 62.75 C-1.69916753 56.35478067 -0.94485575 49.16543275 -3 43 C-3.67588451 37.02968686 -3.67588451 37.02968686 -1.91796875 34.3515625 C-0.6279524 32.88681771 0.68546562 31.44278164 2 30 C3.35758558 25.95335067 3.22112629 21.78888992 3.25 17.5625 C3.270625 16.81162109 3.29125 16.06074219 3.3125 15.28710938 C3.34585709 10.5462335 2.69547718 8.02193569 0 4 C0 2.68 0 1.36 0 0 Z " fill="#62A1EB" transform="translate(88,11)"/>
<path d="M0 0 C3.62493334 -0.05787784 7.24974857 -0.0935542 10.875 -0.125 C11.90753906 -0.14175781 12.94007812 -0.15851562 14.00390625 -0.17578125 C14.99003906 -0.18222656 15.97617187 -0.18867188 16.9921875 -0.1953125 C18.35899658 -0.21102295 18.35899658 -0.21102295 19.75341797 -0.22705078 C22 0 22 0 24 2 C23.43181818 7.56818182 23.43181818 7.56818182 22 9 C20.36527118 9.08700342 18.72685945 9.10701063 17.08984375 9.09765625 C16.10048828 9.09443359 15.11113281 9.09121094 14.09179688 9.08789062 C13.05087891 9.07951172 12.00996094 9.07113281 10.9375 9.0625 C9.89271484 9.05798828 8.84792969 9.05347656 7.77148438 9.04882812 C5.1809334 9.03699913 2.59049441 9.02051689 0 9 C0 6.03 0 3.06 0 0 Z " fill="#3F6D7E" transform="translate(37,31)"/>
<path d="M0 0 C4.30570547 2.3920586 4.30570547 2.3920586 6 5 C6.78993397 8.46786616 6.99767658 11.57222852 6 15 C3.11553092 18.2642942 1.60049448 18.9614988 -2.77734375 19.2421875 C-4.16584175 19.14197302 -5.55285717 19.01899257 -6.9375 18.875 C-7.62779297 18.82601562 -8.31808594 18.77703125 -9.02929688 18.7265625 C-13.27576423 18.3723548 -17.02125903 17.50681583 -21 16 C-21 15.67 -21 15.34 -21 15 C-13.41 14.67 -5.82 14.34 2 14 C2 11.36 2 8.72 2 6 C1.67 5.67 1.34 5.34 1 5 C-0.75288421 5.24540379 -2.50562257 5.49187465 -4.2578125 5.7421875 C-10.14139106 6.29534446 -16.09490115 6.06920038 -22 6 C-22 7.98 -22 9.96 -22 12 C-22.33 12 -22.66 12 -23 12 C-23 9.03 -23 6.06 -23 3 C-22.35933594 2.95101562 -21.71867187 2.90203125 -21.05859375 2.8515625 C-14.08314885 2.24861793 -6.86537531 -1.02250271 0 0 Z " fill="#EBF766" transform="translate(60,51)"/>
<path d="M0 0 C1.0886586 -0.00960754 2.1773172 -0.01921509 3.29896545 -0.02911377 C4.47704269 -0.03336365 5.65511993 -0.03761353 6.86889648 -0.04199219 C8.08391342 -0.04769226 9.29893036 -0.05339233 10.55076599 -0.05926514 C13.12725961 -0.06872111 15.70376535 -0.07525148 18.28027344 -0.07910156 C22.20000738 -0.08876858 26.11920838 -0.11977136 30.03881836 -0.15136719 C32.54467463 -0.15790123 35.05053464 -0.16315012 37.55639648 -0.16699219 C39.30225792 -0.18551239 39.30225792 -0.18551239 41.08338928 -0.20440674 C57.35591793 -0.16043949 57.35591793 -0.16043949 62.67749023 5.16113281 C60.87646851 4.67217529 60.87646851 4.67217529 59.0390625 4.17333984 C52.6761793 2.76749377 46.38047075 2.91198688 39.89233398 2.96582031 C37.9470858 2.97006516 37.9470858 2.97006516 35.96253967 2.97439575 C32.54472895 2.9819666 29.12709308 3.00155722 25.70935059 3.02380371 C22.20982222 3.04440477 18.71026511 3.0534277 15.21069336 3.06347656 C8.36622131 3.08481059 1.52186421 3.11886555 -5.32250977 3.16113281 C-5.59063477 3.77730469 -5.85875977 4.39347656 -6.13500977 5.02832031 C-7.84540816 8.10028585 -10.38126277 9.32285344 -13.32250977 11.16113281 C-15.84731669 13.68593974 -15.8798961 15.29936315 -16.44750977 18.78613281 C-16.61508789 19.78902344 -16.78266602 20.79191406 -16.95532227 21.82519531 C-17.07649414 22.59605469 -17.19766602 23.36691406 -17.32250977 24.16113281 C-17.65250977 24.16113281 -17.98250977 24.16113281 -18.32250977 24.16113281 C-18.6928204 18.11272578 -18.43678657 13.55921261 -15.32250977 8.16113281 C-13.42586853 6.29906577 -11.44657248 4.77726749 -9.32250977 3.16113281 C-8.99250977 2.50113281 -8.66250977 1.84113281 -8.32250977 1.16113281 C-5.27879802 0.14656223 -3.18644033 0.02271064 0 0 Z " fill="#3567A5" transform="translate(20.322509765625,-0.1611328125)"/>
<path d="M0 0 C1.65125885 0.00045319 1.65125885 0.00045319 3.33587646 0.00091553 C4.51828918 0.02156067 5.7007019 0.04220581 6.91894531 0.06347656 C8.13406799 0.06913635 9.34919067 0.07479614 10.60113525 0.08062744 C14.48351374 0.10302422 18.36497059 0.15322969 22.24707031 0.20410156 C24.87856741 0.22416216 27.51007896 0.24241369 30.14160156 0.25878906 C36.59373912 0.30290003 43.04533888 0.36984637 49.49707031 0.45410156 C49.49707031 0.78410156 49.49707031 1.11410156 49.49707031 1.45410156 C48.27189697 1.4739209 47.04672363 1.49374023 45.78442383 1.51416016 C41.20512591 1.59067919 36.62612672 1.67932255 32.04711914 1.77148438 C30.07159354 1.80958391 28.09600305 1.8444687 26.12036133 1.87597656 C23.26783173 1.92204315 20.41574156 1.97996573 17.56347656 2.04003906 C16.25510582 2.05736588 16.25510582 2.05736588 14.92030334 2.07504272 C5.31071591 2.1174297 5.31071591 2.1174297 -3.23529053 5.81034851 C-5.3700071 8.57844451 -4.86708667 11.83650081 -4.79589844 15.18457031 C-4.79165359 15.934991 -4.78740875 16.68541168 -4.78303528 17.45857239 C-4.76625419 19.85328182 -4.72860459 22.2471469 -4.69042969 24.64160156 C-4.67538204 26.26593836 -4.66169377 27.89028836 -4.64941406 29.51464844 C-4.61635274 33.49479104 -4.56457562 37.47430319 -4.50292969 41.45410156 C-4.83292969 41.45410156 -5.16292969 41.45410156 -5.50292969 41.45410156 C-11.12501745 12.52875905 -11.12501745 12.52875905 -9.50292969 4.45410156 C-6.55811031 0.72894814 -4.698695 -0.04310729 0 0 Z " fill="#CFB138" transform="translate(24.5029296875,10.5458984375)"/>
<path d="M0 0 C1.42873695 -0.01210762 1.42873695 -0.01210762 2.88633728 -0.02445984 C4.89075944 -0.03822821 6.89520433 -0.04898242 8.8996582 -0.05688477 C10.94497571 -0.06845128 12.99026196 -0.0889759 15.03540039 -0.1184082 C18.00297383 -0.16105739 20.96965831 -0.17724435 23.9375 -0.1875 C24.8470192 -0.20500809 25.75653839 -0.22251617 26.69361877 -0.24055481 C32.40938615 -0.22106241 35.47573629 0.5636106 39.90234375 4.23828125 C37.0407192 5.66909352 35.20441889 4.88264801 32.0625 4.32421875 C23.38207785 3.0095743 14.79917991 2.86607004 6.03100586 2.86767578 C3.31238054 2.8632364 0.59529995 2.82659055 -2.12304688 2.7890625 C-3.86587995 2.78320424 -5.6087206 2.77922823 -7.3515625 2.77734375 C-8.55940147 2.7557872 -8.55940147 2.7557872 -9.79164124 2.73379517 C-13.69645561 2.7656083 -15.63802938 2.94860916 -19.01928711 5.07958984 C-21.23740937 7.25562435 -21.23740937 7.25562435 -23.09765625 10.23828125 C-22.81749977 6.87640351 -22.32131734 5.47509887 -19.97265625 2.98828125 C-14.07462489 -0.60182479 -6.73032839 0.0547843 0 0 Z " fill="#F5CC34" transform="translate(42.09765625,11.76171875)"/>
<path d="M0 0 C1.0743631 -0.00630432 2.1487262 -0.01260864 3.25564575 -0.019104 C4.987043 -0.01303131 4.987043 -0.01303131 6.75341797 -0.00683594 C8.5356929 -0.00970612 8.5356929 -0.00970612 10.35397339 -0.01263428 C12.8639141 -0.01399478 15.37386188 -0.01030777 17.88378906 -0.00195312 C21.73762696 0.00876687 25.59100067 -0.00186301 29.44482422 -0.01464844 C31.88102317 -0.01332719 34.31722183 -0.01076552 36.75341797 -0.00683594 C37.91173126 -0.0108844 39.07004456 -0.01493286 40.26345825 -0.019104 C41.86554642 -0.00964752 41.86554642 -0.00964752 43.5 0 C44.91419724 0.00238678 44.91419724 0.00238678 46.35696411 0.00482178 C48.62060547 0.25878906 48.62060547 0.25878906 50.62060547 2.25878906 C49.94266434 2.24546539 49.26472321 2.23214172 48.5662384 2.21841431 C41.50992811 2.08566873 34.45397243 1.99517532 27.39672852 1.92919922 C24.76311842 1.89902666 22.12960881 1.8580829 19.49633789 1.80615234 C15.7106854 1.73336506 11.92636126 1.69933558 8.14013672 1.67285156 C6.96288528 1.64188385 5.78563385 1.61091614 4.57270813 1.57901001 C-1.13368705 1.42044579 -1.13368705 1.42044579 -6.25360107 3.52253723 C-8.53372625 6.10577249 -9.35642542 8.01879132 -9.68408203 11.44238281 C-9.54228516 12.51617187 -9.40048828 13.58996094 -9.25439453 14.69628906 C-9.12033203 15.83066406 -8.98626953 16.96503906 -8.84814453 18.13378906 C-8.49476339 20.48966331 -8.12785094 22.84351368 -7.75439453 25.19628906 C-7.35487596 28.45902407 -7.67756052 31.06154523 -8.37939453 34.25878906 C-8.70939453 34.25878906 -9.03939453 34.25878906 -9.37939453 34.25878906 C-9.88726499 31.25993492 -10.38586078 28.2600078 -10.87939453 25.25878906 C-11.02248047 24.41960938 -11.16556641 23.58042969 -11.31298828 22.71582031 C-13.43428032 9.68502637 -13.43428032 9.68502637 -11.12939453 4.38378906 C-7.94123175 0.51244854 -4.88231417 0.00822613 0 0 Z " fill="#525642" transform="translate(22.37939453125,8.7412109375)"/>
<path d="M0 0 C-0.061875 0.7425 -0.12375 1.485 -0.1875 2.25 C0.03431931 5.50334985 0.9525091 6.54301092 3 9 C5.12838262 15.38514787 4.93209715 22.66401965 2.3125 28.875 C0.27266029 32.79776867 -1.75042776 35.97714211 -5 39 C-8.8125 39.875 -8.8125 39.875 -12 40 C-11.278125 39.46375 -10.55625 38.9275 -9.8125 38.375 C-2.73745382 32.40051656 0.43771735 26.5291127 1.375 17.3125 C0.79071159 12.1512857 -0.6940991 9.09331238 -4.6875 5.75 C-5.450625 5.1725 -6.21375 4.595 -7 4 C-7 3.34 -7 2.68 -7 2 C-2.25 0 -2.25 0 0 0 Z " fill="#4D7666" transform="translate(79,46)"/>
<path d="M0 0 C0.99 0.33 1.98 0.66 3 1 C2.51789062 1.36351562 2.03578125 1.72703125 1.5390625 2.1015625 C0.90742188 2.60429688 0.27578125 3.10703125 -0.375 3.625 C-1.00148438 4.11226563 -1.62796875 4.59953125 -2.2734375 5.1015625 C-6.58768467 9.84528224 -6.18962177 15.35723933 -5.97241211 21.40234375 C-5.91964111 22.46582031 -5.86687012 23.52929688 -5.8125 24.625 C-5.76424072 25.72714844 -5.71598145 26.82929688 -5.66625977 27.96484375 C-5.26073877 35.85458739 -4.39973546 43.58847264 -3.0168457 51.36572266 C-2.09005354 56.6566139 -1.87734475 61.62450048 -2 67 C-2.33 67 -2.66 67 -3 67 C-3.86894381 61.43775819 -4.7227001 55.87345407 -5.56347656 50.30688477 C-5.85049969 48.42020535 -6.14140405 46.53411158 -6.43652344 44.64868164 C-11.18369197 14.26841769 -11.18369197 14.26841769 -7.3125 6.8125 C-5.03534112 4.04298244 -3.05816205 1.88194588 0 0 Z " fill="#384868" transform="translate(9,2)"/>
<path d="M0 0 C1.1471196 0.00707474 2.2942392 0.01414948 3.47612 0.0214386 C7.13448713 0.04939312 10.79131538 0.11213839 14.44921875 0.17578125 C16.9316185 0.20086253 19.41404227 0.22367599 21.89648438 0.24414062 C27.97708621 0.29922347 34.05679253 0.38286227 40.13671875 0.48828125 C40.13671875 0.81828125 40.13671875 1.14828125 40.13671875 1.48828125 C39.5044487 1.49414749 38.87217865 1.50001373 38.2207489 1.50605774 C31.65085583 1.56990112 25.08145675 1.65429706 18.51196289 1.75073242 C16.05890406 1.78402451 13.60576784 1.81204295 11.15258789 1.8347168 C7.63003497 1.86818354 4.1081941 1.9204964 0.5859375 1.9765625 C-1.06418083 1.98614738 -1.06418083 1.98614738 -2.74763489 1.9959259 C-3.76846664 2.01572006 -4.7892984 2.03551422 -5.84106445 2.0559082 C-6.74041214 2.06701126 -7.63975983 2.07811432 -8.56636047 2.08955383 C-11.32825066 2.56899629 -12.23495521 3.23232167 -13.86328125 5.48828125 C-14.26590135 8.7480946 -14.26590135 8.7480946 -14.11328125 12.36328125 C-14.0978125 13.57757813 -14.08234375 14.791875 -14.06640625 16.04296875 C-13.89301672 18.98392196 -13.46636638 21.61759602 -12.86328125 24.48828125 C-12.74649326 27.16506198 -12.81783065 29.80669582 -12.86328125 32.48828125 C-13.85328125 32.98328125 -13.85328125 32.98328125 -14.86328125 33.48828125 C-15.4006572 30.13655077 -15.91514923 26.78168164 -16.42578125 23.42578125 C-16.57724609 22.48283203 -16.72871094 21.53988281 -16.88476562 20.56835938 C-18.73284216 8.23352296 -18.73284216 8.23352296 -15.04833984 2.82324219 C-10.22956741 -0.70939154 -5.82336736 -0.13518913 0 0 Z " fill="#938037" transform="translate(29.86328125,9.51171875)"/>
<path d="M0 0 C0.33 0 0.66 0 1 0 C2.72765875 6.17020983 3.60975299 12.2675552 4.33984375 18.6328125 C5.0782816 22.39928248 6.21028283 26.21028283 9 29 C11.80976518 29.16017166 14.59773596 29.25950534 17.41015625 29.31640625 C18.25219101 29.33718735 19.09422577 29.35796844 19.96177673 29.37937927 C22.66193179 29.44496812 25.36218717 29.50380276 28.0625 29.5625 C29.88868241 29.60567637 31.71485454 29.64929036 33.54101562 29.69335938 C38.02723992 29.80065894 42.5135655 29.90189966 47 30 C47 30.33 47 30.66 47 31 C41.21658856 31.24165624 35.43303504 31.45668799 29.64770508 31.64697266 C27.67933699 31.71547998 25.71120906 31.79128936 23.7434082 31.87451172 C20.91649038 31.99280473 18.08975183 32.08490455 15.26171875 32.171875 C14.38037766 32.21439392 13.49903656 32.25691284 12.59098816 32.30072021 C6.52158791 32.45102978 6.52158791 32.45102978 3.98046875 30.25366211 C3.01517975 28.03489151 2.41676286 26.15819801 2.05078125 23.76953125 C1.92509766 22.96580078 1.79941406 22.16207031 1.66992188 21.33398438 C1.49299805 20.08584961 1.49299805 20.08584961 1.3125 18.8125 C1.18294922 17.99974609 1.05339844 17.18699219 0.91992188 16.34960938 C0.09250266 10.84661489 -0.11740676 5.56284411 0 0 Z " fill="#A5B75B" transform="translate(20,55)"/>
<path d="M0 0 C5.07629905 0.24762434 7.90533276 1.90656826 11.51953125 5.2734375 C15.43714568 9.84226488 15.37999751 15.82761725 15.2578125 21.5703125 C14.70252999 26.80342945 12.37335779 30.98409787 9 35 C7.68 34.67 6.36 34.34 5 34 C5.61875 33.2575 6.2375 32.515 6.875 31.75 C11.92957561 25.2087845 11.74522706 19.11259836 11 11 C8.62713643 5.49495652 5.1695225 3.58476125 0 1 C0 0.67 0 0.34 0 0 Z " fill="#516446" transform="translate(74,11)"/>
<path d="M0 0 C2.33991708 3.65612044 2.37437949 6.73207376 2 11 C0.6875 13.9375 0.6875 13.9375 -1 16 C-1.99 16 -2.98 16 -4 16 C-6.44723163 10.95258476 -6.77882289 6.33646866 -5 1 C-3 0 -3 0 0 0 Z " fill="#FEFE65" transform="translate(81,21)"/>
<path d="M0 0 C1.63001953 0.01353516 1.63001953 0.01353516 3.29296875 0.02734375 C4.12441406 0.03894531 4.95585938 0.05054687 5.8125 0.0625 C6.19383299 2.0539056 6.52575582 4.05529077 6.8125 6.0625 C5.8125 7.0625 5.8125 7.0625 3.1953125 7.1953125 C2.12023437 7.19273438 1.04515625 7.19015625 -0.0625 7.1875 C-1.13242187 7.19007812 -2.20234375 7.19265625 -3.3046875 7.1953125 C-6.1875 7.0625 -6.1875 7.0625 -9.1875 6.0625 C-9.1875 4.4125 -9.1875 2.7625 -9.1875 1.0625 C-5.90230525 -0.03256492 -3.45086585 -0.03710608 0 0 Z " fill="#3E82C1" transform="translate(49.1875,31.9375)"/>
<path d="M0 0 C4.62 0 9.24 0 14 0 C14.33 1.65 14.66 3.3 15 5 C13 7 13 7 9.9609375 7.1953125 C8.77757812 7.17210938 7.59421875 7.14890625 6.375 7.125 C5.18648437 7.10695313 3.99796875 7.08890625 2.7734375 7.0703125 C1.85820313 7.04710938 0.94296875 7.02390625 0 7 C0 4.69 0 2.38 0 0 Z " fill="#3C84B8" transform="translate(39,58)"/>
<path d="M0 0 C2 1 2 1 3.125 4.0625 C5.50415909 13.42687017 3.4232194 22.18819535 -1.375 30.4375 C-3.47737146 33.56572742 -5.41159503 35.58352435 -9 37 C-9.99 36.67 -10.98 36.34 -12 36 C-10.71937515 34.2925002 -9.38232443 32.62626404 -8 31 C-7.34 31 -6.68 31 -6 31 C-5.566875 29.576875 -5.566875 29.576875 -5.125 28.125 C-3.97858469 24.94051302 -3.04843927 23.78123994 -0.390625 21.80078125 C1.74819756 19.0311262 1.32323315 16.62579643 1.25 13.1875 C1.23453125 11.98480469 1.2190625 10.78210938 1.203125 9.54296875 C1.01655853 6.28881891 0.60752306 3.19929483 0 0 Z " fill="#4B92E6" transform="translate(87,52)"/>
<path d="M0 0 C0.2475 0.61875 0.495 1.2375 0.75 1.875 C2.20628639 4.35068687 3.37812506 4.95125002 6 6 C6 6.66 6 7.32 6 8 C6.91809448 7.8928064 6.91809448 7.8928064 7.85473633 7.78344727 C16.13909644 6.91440537 24.36587457 6.88472435 32.6875 6.9375 C34.08268067 6.94252972 35.47786311 6.94709 36.87304688 6.95117188 C40.24874437 6.96285249 43.62434826 6.97923167 47 7 C46.67 7.66 46.34 8.32 46 9 C40.07349874 9.04939701 34.14711703 9.08571817 28.22045898 9.10986328 C26.20383619 9.11992773 24.18722801 9.13358047 22.1706543 9.15087891 C19.27388911 9.17510769 16.37731669 9.18647859 13.48046875 9.1953125 C12.12564644 9.21079636 12.12564644 9.21079636 10.74345398 9.22659302 C9.4824865 9.22681961 9.4824865 9.22681961 8.19604492 9.22705078 C7.08684944 9.23371262 7.08684944 9.23371262 5.95524597 9.24050903 C4 9 4 9 1 7 C0.3125 3.375 0.3125 3.375 0 0 Z " fill="#456C6B" transform="translate(20,79)"/>
<path d="M0 0 C1.52337108 4.64265472 0.12438622 7.76856948 -2 12 C-4 14.5 -4 14.5 -6 16 C-6.99 16 -7.98 16 -9 16 C-9 16.66 -9 17.32 -9 18 C-11.3300998 19.1650499 -12.67247077 19.1209358 -15.26611328 19.11352539 C-16.58725632 19.11341209 -16.58725632 19.11341209 -17.93508911 19.11329651 C-18.88721283 19.10813522 -19.83933655 19.10297394 -20.8203125 19.09765625 C-21.79410858 19.0962413 -22.76790466 19.09482635 -23.77120972 19.09336853 C-26.88917073 19.08775973 -30.0070606 19.07520573 -33.125 19.0625 C-35.23567605 19.05748613 -37.34635322 19.05292303 -39.45703125 19.04882812 C-44.63804521 19.03778745 -49.81901752 19.02104073 -55 19 C-55 18.67 -55 18.34 -55 18 C-53.86570557 17.9906543 -52.73141113 17.98130859 -51.56274414 17.97167969 C-47.31870525 17.93154048 -43.07537316 17.86571734 -38.83178711 17.79248047 C-37.00180197 17.76440876 -35.17169869 17.74312616 -33.34155273 17.72900391 C-30.69714471 17.7073816 -28.05413664 17.66063653 -25.41015625 17.609375 C-24.20021751 17.60753204 -24.20021751 17.60753204 -22.96583557 17.60565186 C-16.00904509 17.42981136 -9.75739119 15.61226534 -4.625 10.75 C-2.56688245 7.26703183 -1.2989218 3.83181931 0 0 Z " fill="#3C7CB4" transform="translate(82,70)"/>
<path d="M0 0 C2.25389302 3.75648836 1.98380069 6.14579381 1.5 10.5 C-0.01992199 12.56541546 -0.86254399 13.39049835 -3.41015625 13.828125 C-4.12042969 13.80234375 -4.83070312 13.7765625 -5.5625 13.75 C-6.34625 13.72421875 -7.13 13.6984375 -7.9375 13.671875 C-12.13783491 13.39014522 -16.31892882 12.98880999 -20.5 12.5 C-20.5 12.17 -20.5 11.84 -20.5 11.5 C-11.095 11.005 -11.095 11.005 -1.5 10.5 C-1.5 7.86 -1.5 5.22 -1.5 2.5 C-1.83 2.17 -2.16 1.84 -2.5 1.5 C-4.31995202 1.74037102 -6.13952648 1.98396278 -7.95703125 2.2421875 C-12.7900513 2.7321711 -17.64797624 2.57278036 -22.5 2.5 C-22.5 2.17 -22.5 1.84 -22.5 1.5 C-5.45454545 -3.27272727 -5.45454545 -3.27272727 0 0 Z " fill="#CDDE5B" transform="translate(63.5,54.5)"/>
<path d="M0 0 C2 2 2 2 2.3125 5.4375 C2 9 2 9 0.8269043 10.7043457 C-1.70654605 12.50108779 -3.45704249 12.34195171 -6.54296875 12.29296875 C-8.15268555 12.2784668 -8.15268555 12.2784668 -9.79492188 12.26367188 C-10.91447266 12.23853516 -12.03402344 12.21339844 -13.1875 12.1875 C-14.31865234 12.17396484 -15.44980469 12.16042969 -16.61523438 12.14648438 C-19.41063317 12.11109958 -22.20507892 12.06172948 -25 12 C-25 11.67 -25 11.34 -25 11 C-17.74 10.67 -10.48 10.34 -3 10 C-2.67 8.02 -2.34 6.04 -2 4 C-3.54950268 2.45049732 -5.09990594 2.78344807 -7.25390625 2.68359375 C-8.10791016 2.64169922 -8.96191406 2.59980469 -9.84179688 2.55664062 C-10.73962891 2.51732422 -11.63746094 2.47800781 -12.5625 2.4375 C-13.46419922 2.39431641 -14.36589844 2.35113281 -15.29492188 2.30664062 C-17.52978485 2.20021858 -19.76476308 2.09820012 -22 2 C-22 1.67 -22 1.34 -22 1 C-19.6460153 0.83034345 -17.29186616 0.6642065 -14.9375 0.5 C-13.62652344 0.4071875 -12.31554687 0.314375 -10.96484375 0.21875 C-3.67431193 -0.18348624 -3.67431193 -0.18348624 0 0 Z " fill="#9C9337" transform="translate(62,29)"/>
<path d="M0 0 C2 2 2 2 3 4 C2.9129796 5.71233688 2.75902838 7.42175406 2.5625 9.125 C2.46066406 10.03507812 2.35882813 10.94515625 2.25390625 11.8828125 C2.17011719 12.58148438 2.08632813 13.28015625 2 14 C1.67 14 1.34 14 1 14 C1 11.36 1 8.72 1 6 C0.34 6 -0.32 6 -1 6 C-1 5.01 -1 4.02 -1 3 C-1.99 3 -2.98 3 -4 3 C-4.33 6.63 -4.66 10.26 -5 14 C-5.66 14 -6.32 14 -7 14 C-7 12.35 -7 10.7 -7 9 C-7.99 9.66 -8.98 10.32 -10 11 C-10.36416047 13.43693311 -10.36416047 13.43693311 -10.1875 16.125 C-10.16042969 17.03507812 -10.13335938 17.94515625 -10.10546875 18.8828125 C-10.07066406 19.58148438 -10.03585938 20.28015625 -10 21 C-12.32142317 17.51786525 -12.71015456 15.59957803 -12.65625 11.49609375 C-11.23928087 6.10655043 -5.71286787 0 0 0 Z " fill="#FEFD5D" transform="translate(34,24)"/>
<path d="M0 0 C0.33 0 0.66 0 1 0 C1.04898437 1.00160156 1.09796875 2.00320312 1.1484375 3.03515625 C1.22354079 4.37762759 1.29908526 5.7200743 1.375 7.0625 C1.44460938 8.37347656 1.51421875 9.68445313 1.5859375 11.03515625 C1.99153235 14.91891829 2.88985296 18.26702466 4 22 C4.90713038 27.02630102 5.10765989 31.83443264 5.0625 36.9375 C5.05798828 37.62134766 5.05347656 38.30519531 5.04882812 39.00976562 C5.0371956 40.67321604 5.01926694 42.3366205 5 44 C4.67 44 4.34 44 4 44 C1.42167227 29.24661672 -0.69751186 14.99650506 0 0 Z " fill="#1C354F" transform="translate(8,16)"/>
<path d="M0 0 C1.58433618 3.06965135 1.36248449 5.55431143 1 8.9375 C-0.5234375 10.65625 -0.5234375 10.65625 -2 11.9375 C-1.98839844 11.29941406 -1.97679688 10.66132812 -1.96484375 10.00390625 C-1.95582031 9.17761719 -1.94679688 8.35132813 -1.9375 7.5 C-1.92589844 6.67628906 -1.91429688 5.85257813 -1.90234375 5.00390625 C-1.76732652 2.94586062 -1.76732652 2.94586062 -3 1.9375 C-4.85583223 1.92075706 -6.71239363 1.97474393 -8.56640625 2.05859375 C-9.69111328 2.10693359 -10.81582031 2.15527344 -11.97460938 2.20507812 C-13.15861328 2.26115234 -14.34261719 2.31722656 -15.5625 2.375 C-16.75037109 2.42720703 -17.93824219 2.47941406 -19.16210938 2.53320312 C-22.10831066 2.6633566 -25.05421276 2.7983364 -28 2.9375 C-28 5.9075 -28 8.8775 -28 11.9375 C-28.33 11.9375 -28.66 11.9375 -29 11.9375 C-29 8.6375 -29 5.3375 -29 1.9375 C-25.00155161 1.26124354 -21.00127233 0.59682915 -17 -0.0625 C-15.7625 -0.26875 -14.525 -0.475 -13.25 -0.6875 C-3.42750929 -1.82086431 -3.42750929 -1.82086431 0 0 Z " fill="#C5B23A" transform="translate(65,28.0625)"/>
<path d="M0 0 C0.33 0 0.66 0 1 0 C0.98839844 0.68707031 0.97679688 1.37414062 0.96484375 2.08203125 C0.95582031 2.98308594 0.94679688 3.88414063 0.9375 4.8125 C0.92589844 5.70582031 0.91429688 6.59914063 0.90234375 7.51953125 C0.88990033 10.13413791 0.88990033 10.13413791 2 13 C2.08315752 15.06498892 2.10735878 17.1325789 2.09765625 19.19921875 C2.09443359 20.40771484 2.09121094 21.61621094 2.08789062 22.86132812 C2.07951172 24.12396484 2.07113281 25.38660156 2.0625 26.6875 C2.05798828 27.96173828 2.05347656 29.23597656 2.04882812 30.54882812 C2.03702873 33.69926564 2.02056597 36.84960949 2 40 C1.67 40 1.34 40 1 40 C-0.4969159 30.67100625 -1.19369496 21.57386138 -1.1875 12.125 C-1.18814453 11.1561084 -1.18878906 10.1872168 -1.18945312 9.18896484 C-1.13527801 2.27055601 -1.13527801 2.27055601 0 0 Z " fill="#E3D84B" transform="translate(20,20)"/>
<path d="M0 0 C0.33 0 0.66 0 1 0 C3.90003409 10.87512783 4.53816495 20.85343502 -1 31 C-1.66 31.66 -2.32 32.32 -3 33 C-2.34 29.04 -1.68 25.08 -1 21 C-0.34 21 0.32 21 1 21 C0.85923685 19.0412957 0.7122324 17.08303907 0.5625 15.125 C0.48128906 14.03445312 0.40007812 12.94390625 0.31640625 11.8203125 C0.16998297 9.05271029 0.16998297 9.05271029 -1 7 C-1.125 3.9375 -1.125 3.9375 -1 1 C-0.67 0.67 -0.34 0.34 0 0 Z " fill="#4084CD" transform="translate(84,48)"/>
<path d="M0 0 C4.83822352 7.25733528 3.12048436 18.57948161 3 27 C0.17118638 21.34237277 -0.32753041 17.26747787 -0.625 10.9375 C-0.6765625 10.00099609 -0.728125 9.06449219 -0.78125 8.09960938 C-0.82507813 7.20951172 -0.86890625 6.31941406 -0.9140625 5.40234375 C-0.9548291 4.58241943 -0.9955957 3.76249512 -1.03759766 2.91772461 C-1 1 -1 1 0 0 Z " fill="#E8F064" transform="translate(22,42)"/>
<path d="M0 0 C0.66 0.33 1.32 0.66 2 1 C1.01 2.485 1.01 2.485 0 4 C-0.51248886 10.98266068 0.79796779 17.63704582 2 24.5 C3.21058716 31.41179829 4.27293668 37.97188051 4 45 C3.67 45 3.34 45 3 45 C2.88406494 44.2479126 2.76812988 43.4958252 2.64868164 42.72094727 C2.12418454 39.33412715 1.59342853 35.94831759 1.0625 32.5625 C0.88009766 31.37849609 0.69769531 30.19449219 0.50976562 28.97460938 C0.33251953 27.84990234 0.15527344 26.72519531 -0.02734375 25.56640625 C-0.18968506 24.52427979 -0.35202637 23.48215332 -0.51928711 22.40844727 C-0.75669811 20.0582937 -0.75669811 20.0582937 -2 19 C-2.12663091 16.17583618 -2.18520548 13.38705207 -2.1875 10.5625 C-2.19974609 9.77294922 -2.21199219 8.98339844 -2.22460938 8.16992188 C-2.22987279 6.11192565 -2.12206285 4.05437991 -2 2 C-1.34 1.34 -0.68 0.68 0 0 Z " fill="#1D2824" transform="translate(11,12)"/>
<path d="M0 0 C2.66666667 1.33333333 5.33333333 2.66666667 8 4 C8 4.66 8 5.32 8 6 C9.6396875 5.89171875 9.6396875 5.89171875 11.3125 5.78125 C24.54886269 4.96730728 37.74183115 4.88935923 51 5 C51 5.33 51 5.66 51 6 C43.33556208 6.39925584 35.66962816 6.71890219 28 7 C26.43185547 7.0633252 26.43185547 7.0633252 24.83203125 7.12792969 C21.8463529 7.23861548 18.86202801 7.31227494 15.875 7.375 C14.49997314 7.43204102 14.49997314 7.43204102 13.09716797 7.49023438 C8.52276941 7.54853974 6.65434816 7.51377208 2.9453125 4.6015625 C1 2 1 2 0 0 Z " fill="#345C93" transform="translate(16,90)"/>
<path d="M0 0 C4 1 4 1 5 2 C5.23961213 6.23314767 5.32488647 9.36736489 3 13 C1.68 13 0.36 13 -1 13 C-0.67 8.71 -0.34 4.42 0 0 Z " fill="#FEFEA5" transform="translate(72,59)"/>
<path d="M0 0 C0.33 0.66 0.66 1.32 1 2 C0.34 2 -0.32 2 -1 2 C-0.690625 3.27875 -0.38125 4.5575 -0.0625 5.875 C0.19853516 6.95394531 0.19853516 6.95394531 0.46484375 8.0546875 C0.94846992 10.0585657 0.94846992 10.0585657 2 12 C2.07065617 14.04055005 2.08421976 16.08334257 2.0625 18.125 C2.05347656 19.22070312 2.04445313 20.31640625 2.03515625 21.4453125 C2.02355469 22.28835937 2.01195313 23.13140625 2 24 C1.34 24 0.68 24 0 24 C-0.05607422 22.91332031 -0.05607422 22.91332031 -0.11328125 21.8046875 C-0.49830109 16.14263107 -1.08373423 11.98195403 -4 7 C-4.75 4.75 -4.75 4.75 -5 3 C-4.67 2.34 -4.34 1.68 -4 1 C-1.9375 0.375 -1.9375 0.375 0 0 Z " fill="#3C7AAC" transform="translate(83,45)"/>
<path d="M0 0 C0.33 0 0.66 0 1 0 C1.33 1.65 1.66 3.3 2 5 C2.33 5 2.66 5 3 5 C3.75667376 12.53181418 4.14364008 19.50280391 3 27 C2.67 27 2.34 27 2 27 C0.60950893 17.91214765 -0.30892527 9.21627045 0 0 Z " fill="#70753A" transform="translate(14,37)"/>
<path d="M0 0 C0.66 0 1.32 0 2 0 C4.00963018 7.78731695 5.15339715 15.9946418 4 24 C1.9765625 26.91796875 1.9765625 26.91796875 0 29 C0.165 27.9275 0.33 26.855 0.5 25.75 C1.56707659 17.13716754 1.14368321 8.57762411 0 0 Z " fill="#8FBFF8" transform="translate(85,48)"/>
<path d="M0 0 C0.33 0 0.66 0 1 0 C1.41394456 10.91587131 1.36639342 18.44547861 -6 27 C-6.70885894 28.31138904 -7.39456452 29.63777017 -8 31 C-8 29.02 -8 27.04 -8 25 C-7.34 25 -6.68 25 -6 25 C-5.9175 24.360625 -5.835 23.72125 -5.75 23.0625 C-5.08056512 20.32897423 -4.23652809 18.37045704 -3 15.875 C-0.58829402 10.69332738 -0.21145431 5.65640269 0 0 Z " fill="#3D80C6" transform="translate(90,22)"/>
<path d="M0 0 C3.63 0.33 7.26 0.66 11 1 C11 1.66 11 2.32 11 3 C11.66 3 12.32 3 13 3 C13 3.66 13 4.32 13 5 C13.99 5 14.98 5 16 5 C18.95671348 11.52940894 19.35368021 16.87399867 19 24 C18.67 24 18.34 24 18 24 C17.87882812 23.26394531 17.75765625 22.52789063 17.6328125 21.76953125 C17.46523437 20.79371094 17.29765625 19.81789063 17.125 18.8125 C16.88136719 17.36810547 16.88136719 17.36810547 16.6328125 15.89453125 C15.7485969 11.8500636 14.84411624 8.86969552 11.9375 5.875 C8.15644194 3.46155869 4.28932662 2.23353184 0 1 C0 0.67 0 0.34 0 0 Z " fill="#3F73A4" transform="translate(71,9)"/>
<path d="M0 0 C0.99 0.33 1.98 0.66 3 1 C2.51789062 1.36351562 2.03578125 1.72703125 1.5390625 2.1015625 C0.90742188 2.60429688 0.27578125 3.10703125 -0.375 3.625 C-1.00148438 4.11226563 -1.62796875 4.59953125 -2.2734375 5.1015625 C-6.84205663 10.12497629 -6.2496447 16.50853245 -6.125 22.875 C-6.11597656 23.75414063 -6.10695313 24.63328125 -6.09765625 25.5390625 C-6.07424577 27.6928271 -6.0383801 29.84645014 -6 32 C-6.33 32 -6.66 32 -7 32 C-7.89188838 26.64866975 -8.22114271 21.29474707 -8.375 15.875 C-8.41302734 15.194375 -8.45105469 14.51375 -8.49023438 13.8125 C-8.55373906 9.97233443 -8.04046553 7.57256388 -5.6640625 4.6328125 C-3 2 -3 2 0 0 Z " fill="#27426E" transform="translate(9,2)"/>
<path d="M0 0 C0 1.79170499 -0.00863721 3.58349127 -0.03515625 5.375 C-0.04417969 6.24125 -0.05320312 7.1075 -0.0625 8 C-0.07410156 8.86625 -0.08570313 9.7325 -0.09765625 10.625 C-0.10362625 13.15076351 -0.10362625 13.15076351 1 16 C1.34710744 22.47933884 1.34710744 22.47933884 -1 26 C-2.54548476 17.96603374 -3.82944198 10.09970683 -2 2 C-1.34 1.34 -0.68 0.68 0 0 Z " fill="#3778C2" transform="translate(6,11)"/>
<path d="M0 0 C2.31 0.33 4.62 0.66 7 1 C7.625 3.375 7.625 3.375 8 6 C6 8 6 8 2.875 8.125 C1.451875 8.063125 1.451875 8.063125 0 8 C0.185625 7.05125 0.37125 6.1025 0.5625 5.125 C1.28686632 2.10131207 1.28686632 2.10131207 0 0 Z " fill="#26463E" transform="translate(52,57)"/>
<path d="M0 0 C2.875 -0.125 2.875 -0.125 6 0 C6.66 0.66 7.32 1.32 8 2 C7.43181818 7.56818182 7.43181818 7.56818182 6 9 C4.00041636 9.04080783 1.99954746 9.04254356 0 9 C0.66 8.34 1.32 7.68 2 7 C2.16681109 3.91652174 2.16681109 3.91652174 2 1 C1.34 0.67 0.68 0.34 0 0 Z " fill="#1C2C27" transform="translate(53,31)"/>
<path d="M0 0 C0.33 0 0.66 0 1 0 C1.17015625 1.15757813 1.3403125 2.31515625 1.515625 3.5078125 C1.75964221 5.04699798 2.00447736 6.58605394 2.25 8.125 C2.35957031 8.88554688 2.46914062 9.64609375 2.58203125 10.4296875 C3.41281124 15.50181795 4.79738972 18.8466148 8 23 C8.86625 24.175625 8.86625 24.175625 9.75 25.375 C10.1625 25.91125 10.575 26.4475 11 27 C7.70528194 26.08480054 6.11684009 25.13019324 3.8125 22.5625 C0.20946288 15.48066842 -0.29590365 7.84144665 0 0 Z " fill="#294B7B" transform="translate(9,68)"/>
<path d="M0 0 C2.76669035 2.37033864 3.72666067 4.46545585 4.75 7.9375 C5.14445312 9.21947266 5.14445312 9.21947266 5.546875 10.52734375 C6.01667187 13.09097669 5.83746128 14.56117696 5 17 C1.20624918 13.20624918 0.69579642 11.82853921 0.375 6.375 C0.30023437 5.18648438 0.22546875 3.99796875 0.1484375 2.7734375 C0.09945313 1.85820313 0.05046875 0.94296875 0 0 Z " fill="#6D7941" transform="translate(17,66)"/>
<path d="M0 0 C7.41834582 -0.09377123 14.66236293 -0.17402193 22 1 C21.67 1.99 21.34 2.98 21 4 C18.69 4 16.38 4 14 4 C14 3.34 14 2.68 14 2 C12.80375 2.020625 11.6075 2.04125 10.375 2.0625 C6.81995131 2.06882571 3.49444376 1.69888875 0 1 C0 0.67 0 0.34 0 0 Z " fill="#E8E254" transform="translate(40,41)"/>
<path d="M0 0 C0.33 0 0.66 0 1 0 C1.65655389 8.68761489 2.16311941 17.28217363 2 26 C-1.10881257 22.89118743 -0.87664075 19.205429 -1 15 C-0.79070543 9.98689664 -0.42815974 4.99958834 0 0 Z " fill="#4275B2" transform="translate(7,19)"/>
<path d="M0 0 C1.09658936 3.28976808 0.79953138 4.71303767 0 8 C-0.4640625 7.0409375 -0.4640625 7.0409375 -0.9375 6.0625 C-1.8345163 4.06389179 -1.8345163 4.06389179 -3 3 C-4.41327947 2.84379445 -5.8335459 2.74943827 -7.25390625 2.68359375 C-8.10791016 2.64169922 -8.96191406 2.59980469 -9.84179688 2.55664062 C-10.73962891 2.51732422 -11.63746094 2.47800781 -12.5625 2.4375 C-13.46419922 2.39431641 -14.36589844 2.35113281 -15.29492188 2.30664062 C-17.52978485 2.20021858 -19.76476308 2.09820012 -22 2 C-22 1.67 -22 1.34 -22 1 C-19.6460153 0.83034345 -17.29186616 0.6642065 -14.9375 0.5 C-13.62652344 0.4071875 -12.31554687 0.314375 -10.96484375 0.21875 C-7.29924005 0.0165098 -3.67009048 -0.0381804 0 0 Z " fill="#8D7F29" transform="translate(62,29)"/>
<path d="M0 0 C2.47999067 2.47999067 2.54722102 3.95418162 3.125 7.375 C3.37636719 8.80972656 3.37636719 8.80972656 3.6328125 10.2734375 C4 13 4 13 4 17 C3.34 17 2.68 17 2 17 C0.14868517 13.07142246 -0.22004943 10.01224888 -0.125 5.6875 C-0.10695313 4.61886719 -0.08890625 3.55023438 -0.0703125 2.44921875 C-0.04710937 1.64097656 -0.02390625 0.83273438 0 0 Z " fill="#427FC7" transform="translate(9,47)"/>
<path d="M0 0 C0.33 0 0.66 0 1 0 C1.45965517 8.46106005 0.62312669 14.30580156 -5 21 C-6.32 20.67 -7.64 20.34 -9 20 C-8.236875 19.505 -7.47375 19.01 -6.6875 18.5 C-1.34655594 13.53167995 -0.62553809 7.00602658 0 0 Z " fill="#4F7272" transform="translate(88,25)"/>
<path d="M0 0 C0.66 0 1.32 0 2 0 C1.85691406 0.70511719 1.71382812 1.41023437 1.56640625 2.13671875 C0.99522944 5.02411601 0.46094689 7.91609386 -0.0625 10.8125 C-0.32740234 12.27623047 -0.32740234 12.27623047 -0.59765625 13.76953125 C-0.79681641 14.87361328 -0.79681641 14.87361328 -1 16 C-3.20914 12.68629 -3.22481553 11.6553979 -3.125 7.8125 C-3.10695313 6.91144531 -3.08890625 6.01039062 -3.0703125 5.08203125 C-3.04710937 4.39496094 -3.02390625 3.70789063 -3 3 C-2.01 2.67 -1.02 2.34 0 2 C0 1.34 0 0.68 0 0 Z " fill="#689EE1" transform="translate(8,11)"/>
<path d="M0 0 C0.2475 0.61875 0.495 1.2375 0.75 1.875 C2.20628639 4.35068687 3.37812506 4.95125002 6 6 C6 6.66 6 7.32 6 8 C8.97 8 11.94 8 15 8 C15 8.33 15 8.66 15 9 C13.22950311 9.05410687 11.45853151 9.09284119 9.6875 9.125 C8.20830078 9.15980469 8.20830078 9.15980469 6.69921875 9.1953125 C4 9 4 9 1 7 C0.3125 3.375 0.3125 3.375 0 0 Z " fill="#556F55" transform="translate(20,79)"/>
<path d="M0 0 C0.33 0 0.66 0 1 0 C2.90120099 7.12950371 3.22424141 13.63740707 3 21 C2.67 21 2.34 21 2 21 C1.92652344 19.86111328 1.92652344 19.86111328 1.8515625 18.69921875 C1.73941406 17.20841797 1.73941406 17.20841797 1.625 15.6875 C1.55539063 14.70136719 1.48578125 13.71523438 1.4140625 12.69921875 C1.16134528 9.78471567 1.16134528 9.78471567 -1 7 C-1.1875 3.875 -1.1875 3.875 -1 1 C-0.67 0.67 -0.34 0.34 0 0 Z " fill="#5090DB" transform="translate(84,48)"/>
<path d="M0 0 C0.66 0 1.32 0 2 0 C2 3.3 2 6.6 2 10 C1.01 10 0.02 10 -1 10 C-1.02689216 8.52093108 -1.04634621 7.04172517 -1.0625 5.5625 C-1.07410156 4.73878906 -1.08570312 3.91507813 -1.09765625 3.06640625 C-1 1 -1 1 0 0 Z " fill="#FEFEB3" transform="translate(32,56)"/>
<path d="M0 0 C0.33 0.66 0.66 1.32 1 2 C0.34 2.61875 -0.32 3.2375 -1 3.875 C-3.79514062 8.24240721 -3.35288244 11.95182061 -3 17 C-5.66301861 13.00547208 -5.84758428 9.69874395 -5 5 C-2.5 1.9375 -2.5 1.9375 0 0 Z " fill="#FCF553" transform="translate(27,28)"/>
<path d="M0 0 C0.99 0.33 1.98 0.66 3 1 C2.67 3.31 2.34 5.62 2 8 C1.01 8.33 0.02 8.66 -1 9 C-1.09765625 2.84765625 -1.09765625 2.84765625 -1 1 C-0.67 0.67 -0.34 0.34 0 0 Z " fill="#FEFEA8" transform="translate(79,26)"/>
<path d="M0 0 C0.66 0 1.32 0 2 0 C0.55527654 3.80881639 -1.32603071 5.29742886 -5 7 C-5.99 6.67 -6.98 6.34 -8 6 C-6.37660195 4.29115995 -4.70680947 2.62553283 -3 1 C-2.34 1 -1.68 1 -1 1 C-0.67 0.67 -0.34 0.34 0 0 Z " fill="#478DDE" transform="translate(83,82)"/>
<path d="M0 0 C0.99 0 1.98 0 3 0 C3 0.66 3 1.32 3 2 C2.01 2.495 2.01 2.495 1 3 C0.53476937 4.89533342 0.53476937 4.89533342 0.375 7.0625 C0.25125 8.361875 0.1275 9.66125 0 11 C1.32 10.01 2.64 9.02 4 8 C3.6875 9.875 3.6875 9.875 3 12 C2.01 12.66 1.02 13.32 0 14 C-1 13 -1 13 -1.1328125 10.3125 C-1.13023438 9.219375 -1.12765625 8.12625 -1.125 7 C-1.12757812 5.906875 -1.13015625 4.81375 -1.1328125 3.6875 C-1 1 -1 1 0 0 Z " fill="#FEFE7B" transform="translate(78,24)"/>
<path d="M0 0 C0.33 0 0.66 0 1 0 C2.59162079 5.57067277 3.20674944 10.21101581 3 16 C2.34 16 1.68 16 1 16 C0.08342019 10.61509359 -0.11138159 5.45769811 0 0 Z " fill="#B5C055" transform="translate(20,55)"/>
<path d="M0 0 C0.66 0 1.32 0 2 0 C2.14285714 8.57142857 2.14285714 8.57142857 1 12 C1.99 12 2.98 12 4 12 C4 12.66 4 13.32 4 14 C2.35 14 0.7 14 -1 14 C-0.67 9.38 -0.34 4.76 0 0 Z " fill="#FEFE93" transform="translate(70,60)"/>
<path d="M0 0 C0.99 0 1.98 0 3 0 C3.33 1.32 3.66 2.64 4 4 C3.01 4 2.02 4 1 4 C0.67 6.31 0.34 8.62 0 11 C-2 8 -2 8 -1.6875 4.375 C-1 1 -1 1 0 0 Z " fill="#FEFE92" transform="translate(31,53)"/>
<path d="M0 0 C0.99 0.33 1.98 0.66 3 1 C2.52949219 1.39832031 2.05898437 1.79664063 1.57421875 2.20703125 C0.95160156 2.73683594 0.32898437 3.26664062 -0.3125 3.8125 C-0.92738281 4.33457031 -1.54226562 4.85664062 -2.17578125 5.39453125 C-3.85424679 6.87172469 -5.43882034 8.40039131 -7 10 C-7 6.04435836 -5.59478606 4.89133304 -3 2 C-2.01 1.34 -1.02 0.68 0 0 Z " fill="#33476C" transform="translate(9,2)"/>
<path d="M0 0 C0.99 0 1.98 0 3 0 C3.1875 2.8125 3.1875 2.8125 3 6 C2.01 6.99 1.02 7.98 0 9 C0 6.03 0 3.06 0 0 Z " fill="#FEFECA" transform="translate(73,61)"/>
<path d="M0 0 C0 0.66 0 1.32 0 2 C-0.99 2 -1.98 2 -3 2 C-2.2265625 3.175625 -2.2265625 3.175625 -1.4375 4.375 C-0.963125 5.24125 -0.48875 6.1075 0 7 C-0.33 7.66 -0.66 8.32 -1 9 C-3.04119788 7.38405168 -5.04072937 5.7143618 -7 4 C-7 3.34 -7 2.68 -7 2 C-2.25 0 -2.25 0 0 0 Z " fill="#58774A" transform="translate(79,46)"/>
<path d="M0 0 C0.33 0 0.66 0 1 0 C1.08097324 2.27024968 1.13917704 4.54132075 1.1875 6.8125 C1.22230469 8.07707031 1.25710937 9.34164063 1.29296875 10.64453125 C1 14 1 14 -2 17 C-1.34 11.39 -0.68 5.78 0 0 Z " fill="#3A7ABB" transform="translate(90,22)"/>
<path d="M0 0 C0.66 0.33 1.32 0.66 2 1 C1.34 2.65 0.68 4.3 0 6 C-0.33 5.34 -0.66 4.68 -1 4 C-1.66 4 -2.32 4 -3 4 C-3.33 4.66 -3.66 5.32 -4 6 C-3.6875 4.125 -3.6875 4.125 -3 2 C-2.01 1.34 -1.02 0.68 0 0 Z " fill="#4287D4" transform="translate(11,7)"/>
<path d="M0 0 C1.36813282 2.66457309 2.59974369 5.33397649 3.6875 8.125 C4.09548828 9.14980469 4.09548828 9.14980469 4.51171875 10.1953125 C5 12 5 12 4 14 C0.68557793 9.53273547 0.33990833 5.37992836 0 0 Z " fill="#2F69AC" transform="translate(11,76)"/>
<path d="M0 0 C0.66 0.99 1.32 1.98 2 3 C-1.75 8.875 -1.75 8.875 -4 10 C-2.8905928 6.51329166 -1.73662334 3.22515763 0 0 Z " fill="#66A0EB" transform="translate(84,75)"/>
<path d="M0 0 C1.32 0.33 2.64 0.66 4 1 C4 2.65 4 4.3 4 6 C3.01 6 2.02 6 1 6 C0.67 4.02 0.34 2.04 0 0 Z " fill="#243E4E" transform="translate(55,32)"/>
<path d="M0 0 C1.485 0.99 1.485 0.99 3 2 C3.1875 4.625 3.1875 4.625 3 7 C1.68 6.34 0.36 5.68 -1 5 C-0.67 3.35 -0.34 1.7 0 0 Z " fill="#478DDA" transform="translate(17,82)"/>
<path d="M0 0 C0.66 0 1.32 0 2 0 C2 1.98 2 3.96 2 6 C1.01 6 0.02 6 -1 6 C-1.042721 4.33388095 -1.04063832 2.66617115 -1 1 C-0.67 0.67 -0.34 0.34 0 0 Z " fill="#FEFE98" transform="translate(65,45)"/>
<path d="M0 0 C0.33 0 0.66 0 1 0 C1.33 2.97 1.66 5.94 2 9 C1.34 9 0.68 9 0 9 C-1.125 3.375 -1.125 3.375 0 0 Z " fill="#467CBD" transform="translate(11,55)"/>
<path d="M0 0 C1.32 0.33 2.64 0.66 4 1 C4 2.32 4 3.64 4 5 C2.68 5 1.36 5 0 5 C0 3.35 0 1.7 0 0 Z " fill="#4C95B1" transform="translate(39,59)"/>
</svg>
