<?xml version="1.0" encoding="UTF-8"?>
<svg version="1.1" xmlns="http://www.w3.org/2000/svg" width="100" height="92">
<path d="M0 0 C0.86496094 0.42410156 1.72992188 0.84820313 2.62109375 1.28515625 C12.22674047 6.53390385 19.50963704 14.01554588 24 24 C24.31839844 24.63808594 24.63679688 25.27617187 24.96484375 25.93359375 C29.29622845 36.17322669 28.30577529 50.25041792 24.328125 60.390625 C22.09536611 64.77733952 19.29204044 68.36328011 16 72 C15.24976562 72.92232422 15.24976562 72.92232422 14.484375 73.86328125 C7.7139891 81.57399853 -4.26778529 87.30636338 -14.41943359 88.21704102 C-25.34620393 88.70640437 -36.00107107 88.96082873 -46 84 C-46.86496094 83.57589844 -47.72992188 83.15179688 -48.62109375 82.71484375 C-58.22674047 77.46609615 -65.50963704 69.98445412 -70 60 C-70.47759766 59.04287109 -70.47759766 59.04287109 -70.96484375 58.06640625 C-75.29622845 47.82677331 -74.30577529 33.74958208 -70.328125 23.609375 C-68.09536611 19.22266048 -65.29204044 15.63671989 -62 12 C-61.24976563 11.07767578 -61.24976563 11.07767578 -60.484375 10.13671875 C-46.63931233 -5.63126929 -18.33258744 -9.09545683 0 0 Z " fill="#000001" transform="translate(73,4)"/>
<path d="M0 0 C1.12341042 -0.0099852 1.12341042 -0.0099852 2.26951599 -0.02017212 C3.840053 -0.03022123 5.41063205 -0.03499156 6.98120117 -0.03466797 C9.36904343 -0.03905873 11.75505955 -0.07550483 14.14257812 -0.11328125 C15.67837918 -0.11914786 17.21418889 -0.1231183 18.75 -0.125 C19.45435684 -0.13937103 20.15871368 -0.15374207 20.88441467 -0.16854858 C26.38198201 -0.11838672 29.37422136 1.32547123 33.80859375 4.3359375 C39.5736177 10.36300799 41.97801789 14.86892837 41.99609375 23.2109375 C41.9481259 25.25299727 41.89035432 27.29495141 41.80859375 29.3359375 C41.14859375 29.3359375 40.48859375 29.3359375 39.80859375 29.3359375 C37.66215547 32.54325907 37.74356894 35.09589669 37.98925781 38.87036133 C38.47346754 46.54867218 37.71692197 51.22752148 32.73046875 57.41796875 C32.09625 58.05089844 31.46203125 58.68382812 30.80859375 59.3359375 C30.256875 59.903125 29.70515625 60.4703125 29.13671875 61.0546875 C25.50889243 63.05120937 21.88956561 62.91346403 17.80859375 63.0234375 C16.96151855 63.05469727 16.11444336 63.08595703 15.24169922 63.11816406 C13.54645551 63.17687659 11.85095377 63.22860268 10.15527344 63.27294922 C8.12501976 63.32744417 6.0955337 63.40925218 4.06640625 63.49609375 C3.03257813 63.52574219 1.99875 63.55539063 0.93359375 63.5859375 C0.04929687 63.61171875 -0.835 63.6375 -1.74609375 63.6640625 C-5.61004846 63.14557656 -7.93545353 61.7650374 -10.51782227 58.82666016 C-14.80706491 52.79598659 -15.82738461 46.14090972 -17.00390625 38.9609375 C-17.21547363 37.72682129 -17.42704102 36.49270508 -17.64501953 35.22119141 C-21.54969834 11.05252168 -21.54969834 11.05252168 -18.19140625 4.3359375 C-17.53140625 4.3359375 -16.87140625 4.3359375 -16.19140625 4.3359375 C-16.19140625 3.6759375 -16.19140625 3.0159375 -16.19140625 2.3359375 C-10.66732533 0.78546753 -5.72472656 0.01814129 0 0 Z " fill="#FBFC70" transform="translate(39.19140625,15.6640625)"/>
<path d="M0 0 C1.12341042 -0.0099852 1.12341042 -0.0099852 2.26951599 -0.02017212 C3.840053 -0.03022123 5.41063205 -0.03499156 6.98120117 -0.03466797 C9.36904343 -0.03905873 11.75505955 -0.07550483 14.14257812 -0.11328125 C15.67837918 -0.11914786 17.21418889 -0.1231183 18.75 -0.125 C19.45435684 -0.13937103 20.15871368 -0.15374207 20.88441467 -0.16854858 C26.38198201 -0.11838672 29.37422136 1.32547123 33.80859375 4.3359375 C39.5736177 10.36300799 41.97801789 14.86892837 41.99609375 23.2109375 C41.9481259 25.25299727 41.89035432 27.29495141 41.80859375 29.3359375 C41.14859375 29.3359375 40.48859375 29.3359375 39.80859375 29.3359375 C37.66215547 32.54325907 37.74356894 35.09589669 37.98925781 38.87036133 C38.47346754 46.54867218 37.71692197 51.22752148 32.73046875 57.41796875 C32.09625 58.05089844 31.46203125 58.68382812 30.80859375 59.3359375 C30.256875 59.903125 29.70515625 60.4703125 29.13671875 61.0546875 C25.50889243 63.05120937 21.88956561 62.91346403 17.80859375 63.0234375 C16.96151855 63.05469727 16.11444336 63.08595703 15.24169922 63.11816406 C13.54645551 63.17687659 11.85095377 63.22860268 10.15527344 63.27294922 C8.12501976 63.32744417 6.0955337 63.40925218 4.06640625 63.49609375 C3.03257813 63.52574219 1.99875 63.55539063 0.93359375 63.5859375 C0.04929687 63.61171875 -0.835 63.6375 -1.74609375 63.6640625 C-5.61004846 63.14557656 -7.93545353 61.7650374 -10.51782227 58.82666016 C-14.80706491 52.79598659 -15.82738461 46.14090972 -17.00390625 38.9609375 C-17.21547363 37.72682129 -17.42704102 36.49270508 -17.64501953 35.22119141 C-21.54969834 11.05252168 -21.54969834 11.05252168 -18.19140625 4.3359375 C-17.53140625 4.3359375 -16.87140625 4.3359375 -16.19140625 4.3359375 C-16.19140625 3.6759375 -16.19140625 3.0159375 -16.19140625 2.3359375 C-10.66732533 0.78546753 -5.72472656 0.01814129 0 0 Z M-10.19140625 8.3359375 C-10.59322243 11.00181018 -10.59322243 11.00181018 -10.43359375 14.1171875 C-10.40620117 15.28765625 -10.37880859 16.458125 -10.35058594 17.6640625 C-10.10202281 23.39778863 -9.76217109 29.11417988 -9.31640625 34.8359375 C-9.23777344 35.97546875 -9.15914062 37.115 -9.078125 38.2890625 C-8.99433594 39.38734375 -8.91054688 40.485625 -8.82421875 41.6171875 C-8.75090332 42.59751953 -8.67758789 43.57785156 -8.60205078 44.58789062 C-8.1780208 47.42551335 -7.36152101 49.72563574 -6.19140625 52.3359375 C-1.62912084 52.45219686 2.93278303 52.52321158 7.49609375 52.5859375 C8.78966797 52.61945313 10.08324219 52.65296875 11.41601562 52.6875 C12.66318359 52.70039062 13.91035156 52.71328125 15.1953125 52.7265625 C16.34217529 52.74750977 17.48903809 52.76845703 18.6706543 52.79003906 C22.50496898 52.23516274 24.08501318 51.04289429 26.80859375 48.3359375 C29.17019138 43.93847984 30.56880682 40.33162342 29.80859375 35.3359375 C27.93090233 32.48673697 27.93090233 32.48673697 25.80859375 30.3359375 C26.95328125 29.500625 26.95328125 29.500625 28.12109375 28.6484375 C31.34466272 25.87466885 33.37400005 23.68560894 34.1640625 19.4140625 C34.44792862 15.33252801 34.15612611 13.78000663 31.55859375 10.4609375 C26.69534303 6.70297104 23.74347708 6.08110115 17.5234375 6.0703125 C16.47718956 6.06744232 16.47718956 6.06744232 15.4098053 6.06451416 C13.93978513 6.06315677 12.4697528 6.06682201 10.99975586 6.07519531 C8.75021493 6.08591786 6.50146959 6.07527716 4.25195312 6.0625 C2.82161282 6.06382136 1.39127302 6.06638326 -0.0390625 6.0703125 C-1.33851807 6.07256836 -2.63797363 6.07482422 -3.97680664 6.07714844 C-7.34316662 6.08600723 -7.34316662 6.08600723 -10.19140625 8.3359375 Z " fill="#3979BD" transform="translate(39.19140625,15.6640625)"/>
<path d="M0 0 C2.21498699 -0.00435259 4.4279464 -0.04061715 6.64257812 -0.07861328 C8.06444636 -0.08448612 9.486324 -0.08845239 10.90820312 -0.09033203 C12.19307617 -0.0985498 13.47794922 -0.10676758 14.80175781 -0.11523438 C19.31157539 0.47942087 21.70520374 1.90781115 25.48632812 4.37060547 C25.4263749 6.16320679 25.33760402 7.95486342 25.23632812 9.74560547 C25.18992188 10.74333984 25.14351562 11.74107422 25.09570312 12.76904297 C24.48632812 15.37060547 24.48632812 15.37060547 22.68945312 16.59716797 C21.96242187 16.85240234 21.23539063 17.10763672 20.48632812 17.37060547 C19.85210937 17.73927734 19.21789062 18.10794922 18.56445312 18.48779297 C15.9925567 19.58036551 14.01900317 19.56883376 11.23632812 19.49560547 C10.34429687 19.47755859 9.45226562 19.45951172 8.53320312 19.44091797 C7.85773437 19.41771484 7.18226562 19.39451172 6.48632812 19.37060547 C7.14632812 18.93748047 7.80632813 18.50435547 8.48632812 18.05810547 C9.14632812 17.50123047 9.80632813 16.94435547 10.48632812 16.37060547 C10.48632812 15.38060547 10.48632812 14.39060547 10.48632812 13.37060547 C3.55632813 12.87560547 3.55632813 12.87560547 -3.51367188 12.37060547 C-3.51367188 14.35060547 -3.51367188 16.33060547 -3.51367188 18.37060547 C-3.84367187 18.37060547 -4.17367187 18.37060547 -4.51367188 18.37060547 C-4.51367188 14.74060547 -4.51367188 11.11060547 -4.51367188 7.37060547 C-9.57375827 8.8469955 -9.57375827 8.8469955 -11.51367188 12.37060547 C-11.80395491 15.74470978 -11.50998406 19.11718411 -11.32617188 22.49560547 C-11.27879883 23.86458984 -11.27879883 23.86458984 -11.23046875 25.26123047 C-10.92882825 31.39895897 -9.77403814 36.65770776 -7.51367188 42.37060547 C-6.64415894 42.4081897 -6.64415894 42.4081897 -5.75708008 42.4465332 C-3.1132508 42.56306781 -0.46972779 42.68553229 2.17382812 42.80810547 C3.08583984 42.84742188 3.99785156 42.88673828 4.9375 42.92724609 C6.2668457 42.99008789 6.2668457 42.99008789 7.62304688 43.05419922 C8.43475342 43.09085693 9.24645996 43.12751465 10.08276367 43.1652832 C12.60777298 43.38097978 15.01233509 43.82959999 17.48632812 44.37060547 C15.48632812 46.37060547 15.48632812 46.37060547 12.68896484 46.59765625 C11.5263916 46.58718262 10.36381836 46.57670898 9.16601562 46.56591797 C7.28076172 46.55625 7.28076172 46.55625 5.35742188 46.54638672 C3.37935547 46.52125 3.37935547 46.52125 1.36132812 46.49560547 C0.02149092 46.48557529 -1.31835339 46.47644951 -2.65820312 46.46826172 C-5.9435376 46.44462622 -9.22851653 46.41167781 -12.51367188 46.37060547 C-14.14519563 42.73098866 -14.8495624 39.6221265 -15.14648438 35.65185547 C-15.23027344 34.55357422 -15.3140625 33.45529297 -15.40039062 32.32373047 C-15.47902344 31.18419922 -15.55765625 30.04466797 -15.63867188 28.87060547 C-15.72503906 27.76201172 -15.81140625 26.65341797 -15.90039062 25.51123047 C-16.32391941 19.72972638 -16.62022445 13.9474559 -16.75585938 8.15185547 C-16.78276855 7.0903125 -16.80967773 6.02876953 -16.83740234 4.93505859 C-16.73057129 4.08878906 -16.62374023 3.24251953 -16.51367188 2.37060547 C-11.59512246 -0.90842748 -5.75963042 -0.00126864 0 0 Z " fill="#FBE23E" transform="translate(45.513671875,21.62939453125)"/>
<path d="M0 0 C1.98 0.33 3.96 0.66 6 1 C6 1.66 6 2.32 6 3 C6.66 2.67 7.32 2.34 8 2 C9.32860925 1.64830932 10.66158328 1.31229724 12 1 C17.21412055 8.20665947 17.60754437 14.2648621 17 23 C16.34 23 15.68 23 15 23 C12.85349856 26.20741595 12.93521836 28.76013388 13.18041992 32.53466797 C13.66990595 40.28139514 12.86689095 44.94242 7.82421875 51.1796875 C5.14586444 53.85230658 3.64961472 54.97452491 -0.1875 55.125 C-1.115625 55.08375 -2.04375 55.0425 -3 55 C-3 54.01 -3 53.02 -3 52 C-3.82201904 52.02618408 -4.64403809 52.05236816 -5.4909668 52.0793457 C-9.22294938 52.1834144 -12.9546266 52.24836128 -16.6875 52.3125 C-18.62786133 52.3753418 -18.62786133 52.3753418 -20.60742188 52.43945312 C-22.47817383 52.46362305 -22.47817383 52.46362305 -24.38671875 52.48828125 C-25.53358154 52.51446533 -26.68044434 52.54064941 -27.86206055 52.56762695 C-31.97101236 51.824352 -33.41125953 50.20041606 -36 47 C-37.00496852 43.98509443 -37.10335303 41.95818308 -37.0625 38.8125 C-37.05347656 37.91144531 -37.04445313 37.01039062 -37.03515625 36.08203125 C-37.02355469 35.39496094 -37.01195313 34.70789062 -37 34 C-34.85989425 37.21015862 -33.5086681 40.45790968 -32 44 C-29.22711719 46.77288281 -20.97932254 45.33446389 -17.25 45.375 C-15.9609375 45.41238281 -14.671875 45.44976562 -13.34375 45.48828125 C-12.10109375 45.49988281 -10.8584375 45.51148438 -9.578125 45.5234375 C-8.43762695 45.54325684 -7.29712891 45.56307617 -6.12207031 45.58349609 C-2.04563384 44.82163473 -0.60633636 43.145073 2 40 C4.00492108 36.27657514 4.51448809 33.20165277 4 29 C2.11586085 25.67191761 2.11586085 25.67191761 0 23 C0.763125 22.608125 1.52625 22.21625 2.3125 21.8125 C5.40334874 19.72797411 6.55246486 18.42837269 8 15 C8.41587194 11.13617158 8.23843817 7.7153145 7 4 C5.35448038 3.28272222 3.68577711 2.61674772 2 2 C1.34 1.34 0.68 0.68 0 0 Z " fill="#4372B0" transform="translate(64,22)"/>
<path d="M0 0 C0.33 0 0.66 0 1 0 C1.10957031 0.69867188 1.21914063 1.39734375 1.33203125 2.1171875 C1.49058594 3.02726562 1.64914063 3.93734375 1.8125 4.875 C1.96332031 5.77992187 2.11414062 6.68484375 2.26953125 7.6171875 C2.83051301 10.34412478 2.83051301 10.34412478 6 12 C6.99 11.34 7.98 10.68 9 10 C9 10.66 9 11.32 9 12 C11.97 12 14.94 12 18 12 C18 12.66 18 13.32 18 14 C19.98 13.67 21.96 13.34 24 13 C24.83796731 8.34462607 25.0161692 4.62921525 24 0 C24.99 0 25.98 0 27 0 C27 0.66 27 1.32 27 2 C27.66 2 28.32 2 29 2 C30.35432675 3.31200404 31.68733482 4.64631404 33 6 C33.66 6.33 34.32 6.66 35 7 C34.93883714 8.37616443 34.84975557 9.75109379 34.75 11.125 C34.70359375 11.89070313 34.6571875 12.65640625 34.609375 13.4453125 C33.67501061 17.36245552 32.9527108 19.14681878 30 22 C25.5450296 22.61607945 21.21856252 22.237832 16.75 21.875 C15.52796875 21.80023438 14.3059375 21.72546875 13.046875 21.6484375 C10.02833225 21.45977858 7.01460314 21.24266351 4 21 C-0.54612756 10.64948747 -0.54612756 10.64948747 -0.25 4.875 C-0.21390625 3.94429687 -0.1778125 3.01359375 -0.140625 2.0546875 C-0.09421875 1.37664063 -0.0478125 0.69859375 0 0 Z " fill="#F9FC77" transform="translate(34,44)"/>
<path d="M0 0 C0.66 0.33 1.32 0.66 2 1 C1.91195873 2.5634915 1.80376854 4.12585389 1.6875 5.6875 C1.60048828 6.99267578 1.60048828 6.99267578 1.51171875 8.32421875 C1 11 1 11 -0.546875 13.30859375 C-2.83623281 17.54882905 -2.09594612 21.91799985 -1.79492188 26.5859375 C-1.58605909 32.29145747 -2.57929375 35.36767622 -6 40 C-10.47503829 43.59411886 -13.48590203 44.51041477 -19.19140625 44.53125 C-19.85913559 44.5350769 -20.52686493 44.53890381 -21.21482849 44.54284668 C-22.61743693 44.54555282 -24.02009697 44.53828284 -25.42260742 44.52148438 C-27.56088227 44.50001624 -29.69581152 44.52134165 -31.83398438 44.546875 C-33.20313236 44.54423215 -34.57227827 44.53910803 -35.94140625 44.53125 C-37.17576416 44.52673828 -38.41012207 44.52222656 -39.68188477 44.51757812 C-43.59097867 43.90781585 -45.24654193 42.79623823 -48 40 C-49.00496852 36.98509443 -49.10335303 34.95818308 -49.0625 31.8125 C-49.05347656 30.91144531 -49.04445313 30.01039062 -49.03515625 29.08203125 C-49.02355469 28.39496094 -49.01195313 27.70789063 -49 27 C-46.85989425 30.21015862 -45.5086681 33.45790968 -44 37 C-41.25271096 39.74728904 -33.06966731 38.28492786 -29.375 38.3125 C-28.10269531 38.34150391 -26.83039062 38.37050781 -25.51953125 38.40039062 C-16.03730725 38.47239795 -16.03730725 38.47239795 -8 34 C-6.97680967 30.93042902 -6.86628061 28.77559677 -6.875 25.5625 C-6.87242188 24.61503906 -6.86984375 23.66757812 -6.8671875 22.69140625 C-6.98526525 20.29859541 -7.31887365 18.28663847 -8 16 C-6.47005208 14.76302083 -4.94010417 13.52604167 -3.41015625 12.2890625 C-0.85817132 9.95622309 -0.76834298 7.68342975 -0.4375 4.375 C-0.35371094 3.55773438 -0.26992187 2.74046875 -0.18359375 1.8984375 C-0.09271484 0.95871094 -0.09271484 0.95871094 0 0 Z " fill="#3E7DB8" transform="translate(76,29)"/>
<path d="M0 0 C0.66 0 1.32 0 2 0 C1.835 0.763125 1.67 1.52625 1.5 2.3125 C0.49986904 9.68846584 0.65369801 16.56009915 2.50390625 23.76953125 C3.02590469 26.11646911 3.21670982 28.35248291 3.375 30.75 C3.93627007 37.02243917 5.45328211 43.23552426 8 49 C10.04250814 50.73481687 10.04250814 50.73481687 12 52 C12 52.66 12 53.32 12 54 C21.24 54 30.48 54 40 54 C40 54.99 40 55.98 40 57 C41.65 57 43.3 57 45 57 C45 57.33 45 57.66 45 58 C27.05256571 59.05131414 27.05256571 59.05131414 19.125 59.25 C18.24070312 59.27578125 17.35640625 59.3015625 16.4453125 59.328125 C12.58135779 58.80963906 10.25595272 57.4290999 7.67358398 54.49072266 C3.38434134 48.46004909 2.36402164 41.80497222 1.1875 34.625 C0.97593262 33.39088379 0.76436523 32.15676758 0.54638672 30.88525391 C-3.35829209 6.71658418 -3.35829209 6.71658418 0 0 Z " fill="#364665" transform="translate(21,20)"/>
<path d="M0 0 C0.66 0.33 1.32 0.66 2 1 C2.42034404 7.09498863 2.07814737 10.12887953 -2 15 C-4.25 16.875 -4.25 16.875 -6 18 C-5.01 18.99 -4.02 19.98 -3 21 C-3.33 21.66 -3.66 22.32 -4 23 C-6 21.625 -6 21.625 -8 20 C-8 19.34 -8 18.68 -8 18 C-8.66 18 -9.32 18 -10 18 C-10 16.68 -10 15.36 -10 14 C-10.99 14.495 -10.99 14.495 -12 15 C-17.89681367 15.36855085 -23.2587975 14.29379211 -29 13 C-29 10.69 -29 8.38 -29 6 C-24.38 6 -19.76 6 -15 6 C-14.67 7.32 -14.34 8.64 -14 10 C-14.66 10.66 -15.32 11.32 -16 12 C-11.71308042 12.16488152 -8.70250838 12.24795152 -5 10 C-4.01 9.67 -3.02 9.34 -2 9 C-2 6.69 -2 4.38 -2 2 C-1.34 2 -0.68 2 0 2 C0 1.34 0 0.68 0 0 Z " fill="#E6E65B" transform="translate(71,28)"/>
<path d="M0 0 C0.72822464 0.00141495 1.45644928 0.0028299 2.20674133 0.00428772 C4.52979664 0.00987966 6.85275513 0.02243063 9.17578125 0.03515625 C10.75195173 0.04017229 12.32812373 0.04473502 13.90429688 0.04882812 C17.76566223 0.05984645 21.62695533 0.07710551 25.48828125 0.09765625 C25.48828125 0.42765625 25.48828125 0.75765625 25.48828125 1.09765625 C24.5346167 1.1227124 23.58095215 1.14776855 22.59838867 1.17358398 C19.05919018 1.26777696 15.5201825 1.36796856 11.98120117 1.4699707 C10.44967107 1.51327458 8.9180941 1.55495292 7.38647461 1.5949707 C5.18458943 1.65278357 2.98293914 1.71644594 0.78125 1.78125 C0.09677292 1.79796249 -0.58770416 1.81467499 -1.29292297 1.83189392 C-4.28291979 1.92501175 -6.65234186 2.14453062 -9.51171875 3.09765625 C-9.42869507 4.15339844 -9.42869507 4.15339844 -9.34399414 5.23046875 C-8.30240813 18.51421287 -7.27533571 31.79464508 -6.51171875 45.09765625 C-7.17171875 44.76765625 -7.83171875 44.43765625 -8.51171875 44.09765625 C-9.70965801 40.30773453 -10.37032851 36.36996287 -11.13671875 32.47265625 C-11.36037109 31.33940918 -11.58402344 30.20616211 -11.81445312 29.03857422 C-14.94608507 12.34526259 -14.94608507 12.34526259 -13.51171875 4.09765625 C-10.0833507 -0.54658652 -5.28346644 -0.03860614 0 0 Z " fill="#37443D" transform="translate(38.51171875,20.90234375)"/>
<path d="M0 0 C1.05904289 0.00424484 1.05904289 0.00424484 2.13948059 0.00857544 C4.39133758 0.01975786 6.64279477 0.0448583 8.89453125 0.0703125 C10.42252029 0.08034483 11.95051558 0.08947024 13.47851562 0.09765625 C17.22150788 0.11969078 20.96420181 0.15420683 24.70703125 0.1953125 C24.70703125 0.5253125 24.70703125 0.8553125 24.70703125 1.1953125 C23.30626343 1.23289673 23.30626343 1.23289673 21.87719727 1.27124023 C18.42377936 1.36618178 14.97054165 1.46542508 11.51733398 1.56762695 C10.02063856 1.61103063 8.52389186 1.65270163 7.02709961 1.69262695 C4.87988813 1.75019866 2.73293604 1.81392966 0.5859375 1.87890625 C-1.35430298 1.93389282 -1.35430298 1.93389282 -3.33374023 1.98999023 C-6.17851883 1.8620403 -6.17851883 1.8620403 -7.29296875 3.1953125 C-7.37404793 7.49028754 -7.19390981 11.78309868 -7.05102539 16.07592773 C-6.98155281 18.22428913 -6.92676082 20.37267896 -6.87304688 22.52148438 C-6.65296108 32.53636545 -6.65296108 32.53636545 -4.29296875 42.1953125 C-1.00549459 44.38696194 0.1919795 44.48210636 4.03125 44.609375 C5.05927734 44.64804688 6.08730469 44.68671875 7.14648438 44.7265625 C8.21833984 44.7575 9.29019531 44.7884375 10.39453125 44.8203125 C11.47798828 44.85898438 12.56144531 44.89765625 13.67773438 44.9375 C16.35399592 45.03181759 19.03024968 45.11741255 21.70703125 45.1953125 C21.70703125 45.5253125 21.70703125 45.8553125 21.70703125 46.1953125 C12.46703125 46.1953125 3.22703125 46.1953125 -6.29296875 46.1953125 C-7.951219 42.04968688 -8.60666809 39.74356135 -8.92578125 35.4765625 C-9.00957031 34.37828125 -9.09335937 33.28 -9.1796875 32.1484375 C-9.25832031 31.00890625 -9.33695313 29.869375 -9.41796875 28.6953125 C-9.50433594 27.58671875 -9.59070313 26.478125 -9.6796875 25.3359375 C-10.10321629 19.55443341 -10.39952133 13.77216293 -10.53515625 7.9765625 C-10.56206543 6.91501953 -10.58897461 5.85347656 -10.61669922 4.75976562 C-10.50986816 3.91349609 -10.40303711 3.06722656 -10.29296875 2.1953125 C-6.69852692 -0.20098205 -4.14435223 -0.06250081 0 0 Z " fill="#919D50" transform="translate(39.29296875,21.8046875)"/>
<path d="M0 0 C0.99 0.66 1.98 1.32 3 2 C2.125 8.875 2.125 8.875 1 10 C-0.99958364 10.04080783 -3.00045254 10.04254356 -5 10 C-5 9.34 -5 8.68 -5 8 C-7.97 8 -10.94 8 -14 8 C-14 6.02 -14 4.04 -14 2 C-9.5048914 -0.32005605 -4.96364462 -0.6320746 0 0 Z " fill="#B7C958" transform="translate(57,48)"/>
<path d="M0 0 C0.33 0 0.66 0 1 0 C1.85942038 8.70333651 1.27231755 14.09562678 -4.17578125 21.07421875 C-6.81068995 23.85582472 -8.30658958 24.97280743 -12.1875 25.125 C-13.5796875 25.063125 -13.5796875 25.063125 -15 25 C-15 24.01 -15 23.02 -15 22 C-24.24 22 -33.48 22 -43 22 C-43 21.67 -43 21.34 -43 21 C-41.6385083 20.98598145 -41.6385083 20.98598145 -40.24951172 20.97167969 C-36.86073186 20.92749516 -33.47318774 20.86580889 -30.08496094 20.79248047 C-28.62251295 20.7643689 -27.1599158 20.74310569 -25.69726562 20.72900391 C-23.58646831 20.70743581 -21.47744571 20.66072344 -19.3671875 20.609375 C-18.09987793 20.58842773 -16.83256836 20.56748047 -15.52685547 20.54589844 C-10.65151772 19.79127742 -7.38447042 17.77909382 -4.35546875 13.88671875 C-1.85068289 9.17034938 -0.34142683 5.34902038 0 0 Z " fill="#4875B1" transform="translate(76,52)"/>
<path d="M0 0 C0.33 0 0.66 0 1 0 C1.33 1.65 1.66 3.3 2 5 C2.33 5 2.66 5 3 5 C3.12117188 6.26714844 3.24234375 7.53429688 3.3671875 8.83984375 C3.5361734 10.53909086 3.70546037 12.23830805 3.875 13.9375 C3.95363281 14.76830078 4.03226563 15.59910156 4.11328125 16.45507812 C4.61684786 21.43264036 5.40385206 26.15864691 6.69970703 30.99438477 C7.27053052 34.80683597 6.11476559 36.82785162 4 40 C2.41162894 35.64693286 1.53204366 31.52897582 0.9375 26.9375 C0.31939 22.1542681 0.31939 22.1542681 -0.55078125 17.4140625 C-1.0537701 14.71104417 -1.13264412 12.18556252 -1.125 9.4375 C-1.12757812 8.50808594 -1.13015625 7.57867187 -1.1328125 6.62109375 C-1.01309964 4.25852524 -0.66993233 2.25969237 0 0 Z " fill="#3669A7" transform="translate(22,22)"/>
<path d="M0 0 C2.97 0.495 2.97 0.495 6 1 C6 1.66 6 2.32 6 3 C6.66 2.67 7.32 2.34 8 2 C9.32860925 1.64830932 10.66158328 1.31229724 12 1 C12 1.99 12 2.98 12 4 C11.67 4.33 11.34 4.66 11 5 C11.08536929 7.08418822 11.19343131 9.16746522 11.3125 11.25 C11.40036186 17.40708874 11.40036186 17.40708874 9.66796875 19.97265625 C8 21.3125 8 21.3125 5 23 C5.16113281 23.5465625 5.32226562 24.093125 5.48828125 24.65625 C6.07045671 27.3227025 6.16876003 29.77146089 6.1875 32.5 C6.20167969 33.4384375 6.21585937 34.376875 6.23046875 35.34375 C5.99479903 38.05994337 5.38484654 39.67915046 4 42 C3.34 42 2.68 42 2 42 C2.33 40.96875 2.66 39.9375 3 38.875 C3.95189881 35.4467847 4.456734 32.57774963 4 29 C2.11586085 25.67191761 2.11586085 25.67191761 0 23 C0.763125 22.608125 1.52625 22.21625 2.3125 21.8125 C5.40334874 19.72797411 6.55246486 18.42837269 8 15 C8.41587194 11.13617158 8.23843817 7.7153145 7 4 C5.35448038 3.28272222 3.68577711 2.61674772 2 2 C1.34 1.34 0.68 0.68 0 0 Z " fill="#49769A" transform="translate(64,22)"/>
<path d="M0 0 C0.33 0 0.66 0 1 0 C1.04487549 0.589021 1.08975098 1.17804199 1.13598633 1.78491211 C1.34981994 4.50350163 1.58105974 7.22035495 1.8125 9.9375 C1.88275391 10.86369141 1.95300781 11.78988281 2.02539062 12.74414062 C2.56279685 18.87057164 3.76978193 24.26629276 6 30 C6.57967529 30.02505615 7.15935059 30.0501123 7.7565918 30.07592773 C10.40042107 30.19246234 13.04394409 30.31492682 15.6875 30.4375 C17.05551758 30.49647461 17.05551758 30.49647461 18.45117188 30.55664062 C19.33740234 30.59853516 20.22363281 30.64042969 21.13671875 30.68359375 C21.94842529 30.72025146 22.76013184 30.75690918 23.59643555 30.79467773 C26.12144485 31.01037431 28.52600697 31.45899452 31 32 C31 32.33 31 32.66 31 33 C26.93787788 33.14547545 22.87642713 33.23413226 18.8125 33.3125 C17.66201172 33.35439453 16.51152344 33.39628906 15.32617188 33.43945312 C6.84909725 33.56230928 6.84909725 33.56230928 2.76171875 30.85546875 C-1.03298918 24.70484458 -0.12129484 17.63515431 -0.0625 10.625 C-0.05798828 9.60277344 -0.05347656 8.58054687 -0.04882812 7.52734375 C-0.037103 5.01816806 -0.02069176 2.5091151 0 0 Z " fill="#D7E161" transform="translate(32,34)"/>
<path d="M0 0 C0.99 0 1.98 0 3 0 C3 0.66 3 1.32 3 2 C3.66 2 4.32 2 5 2 C6.35432675 3.31200404 7.68733482 4.64631404 9 6 C9.66 6.33 10.32 6.66 11 7 C10.67 9.97 10.34 12.94 10 16 C8.02 16.33 6.04 16.66 4 17 C2.82428549 13.32589215 2.92633254 9.83070817 3 6 C2.34 6 1.68 6 1 6 C0.67 4.02 0.34 2.04 0 0 Z " fill="#FDFD81" transform="translate(58,44)"/>
<path d="M0 0 C0.75842697 -0.00191345 1.51685394 -0.0038269 2.29826355 -0.00579834 C3.88561336 -0.00714864 5.47297466 -0.00353373 7.06030273 0.00488281 C9.49162294 0.01567451 11.92221689 0.00491041 14.35351562 -0.0078125 C15.90234538 -0.00649216 17.45117468 -0.00393237 19 0 C19.72500198 -0.00404846 20.45000397 -0.00809692 21.19697571 -0.01226807 C24.90431979 0.02237406 26.50017818 0.15376462 29.66796875 2.265625 C28.11335938 2.24822266 28.11335938 2.24822266 26.52734375 2.23046875 C25.15755389 2.22108663 23.78776207 2.21198688 22.41796875 2.203125 C21.73605469 2.19474609 21.05414063 2.18636719 20.3515625 2.17773438 C16.50804032 2.1359092 16.50804032 2.1359092 12.73681641 2.7722168 C10.3691841 3.33688341 8.3259311 3.32989995 5.89453125 3.2578125 C4.98703125 3.24105469 4.07953125 3.22429688 3.14453125 3.20703125 C1.25109915 3.16293763 -0.64216577 3.11091769 -2.53515625 3.05078125 C-7.94656196 2.96646756 -11.61980456 3.2554735 -16.33203125 6.265625 C-16.33203125 4.945625 -16.33203125 3.625625 -16.33203125 2.265625 C-10.7431848 0.68595526 -5.79284989 -0.03280565 0 0 Z " fill="#336EB2" transform="translate(39.33203125,15.734375)"/>
<path d="M0 0 C2.97 0.495 2.97 0.495 6 1 C5.93993922 2.45947705 5.8511311 3.91779272 5.75 5.375 C5.68039063 6.59316406 5.68039063 6.59316406 5.609375 7.8359375 C5 10 5 10 3.08203125 11.21484375 C2.39496094 11.47394531 1.70789063 11.73304687 1 12 C0.319375 12.391875 -0.36125 12.78375 -1.0625 13.1875 C-3 14 -3 14 -6 13 C-5.34 12.34 -4.68 11.68 -4 11 C-3.31060191 8.67328146 -2.64533078 6.33932406 -2 4 C-1.37530495 2.64649406 -0.7283669 1.30065517 0 0 Z " fill="#FDF954" transform="translate(65,27)"/>
<path d="M0 0 C4.62 0 9.24 0 14 0 C14.33 1.32 14.66 2.64 15 4 C13 6 13 6 9.9609375 6.1953125 C8.77757812 6.17210937 7.59421875 6.14890625 6.375 6.125 C5.18648437 6.10695313 3.99796875 6.08890625 2.7734375 6.0703125 C1.85820313 6.04710937 0.94296875 6.02390625 0 6 C0 4.02 0 2.04 0 0 Z " fill="#577C86" transform="translate(42,34)"/>
<path d="M0 0 C0.72680969 0.0028299 1.45361938 0.00565979 2.20245361 0.00857544 C4.51534751 0.01973727 6.82784888 0.04483399 9.140625 0.0703125 C10.71223398 0.08034749 12.28384904 0.08947244 13.85546875 0.09765625 C17.70067122 0.11966346 21.54558164 0.15416535 25.390625 0.1953125 C25.390625 0.5253125 25.390625 0.8553125 25.390625 1.1953125 C24.43696045 1.22036865 23.4832959 1.2454248 22.50073242 1.27124023 C18.96153393 1.36543321 15.42252625 1.46562481 11.88354492 1.56762695 C10.35201482 1.61093083 8.82043785 1.65260917 7.28881836 1.69262695 C5.08693318 1.75043982 2.88528289 1.81410219 0.68359375 1.87890625 C-0.00088333 1.89561874 -0.68536041 1.91233124 -1.39057922 1.92955017 C-4.38057604 2.022668 -6.74999811 2.24218687 -9.609375 3.1953125 C-8.949375 11.7753125 -8.289375 20.3553125 -7.609375 29.1953125 C-8.269375 29.5253125 -8.929375 29.8553125 -9.609375 30.1953125 C-9.9482981 26.84168641 -10.27949464 23.48733918 -10.609375 20.1328125 C-10.70476563 19.18986328 -10.80015625 18.24691406 -10.8984375 17.27539062 C-11.39162778 12.22019028 -11.72208432 7.27427642 -11.609375 2.1953125 C-7.89562804 -0.21112891 -4.27088666 -0.06287391 0 0 Z " fill="#6B6A49" transform="translate(38.609375,20.8046875)"/>
<path d="M0 0 C0.66 0.33 1.32 0.66 2 1 C1.91195873 2.5634915 1.80376854 4.12585389 1.6875 5.6875 C1.62949219 6.55761719 1.57148437 7.42773438 1.51171875 8.32421875 C1 11 1 11 -0.53125 13.28125 C-2.61729556 17.14265348 -2.32838711 20.50279943 -2.1875 24.8125 C-2.17396484 25.60076172 -2.16042969 26.38902344 -2.14648438 27.20117188 C-2.11133456 29.13441169 -2.05753361 31.06729682 -2 33 C-2.66 33 -3.32 33 -4 33 C-4.33 33.99 -4.66 34.98 -5 36 C-5.93423645 32.98968256 -6.04449911 32.13349732 -5 29 C-5.03103887 26.72851879 -5.09805647 24.45743175 -5.1875 22.1875 C-5.24757664 16.32402 -4.6053334 13.69785867 -1 9 C-0.37813114 6.01005453 -0.13545908 3.0478292 0 0 Z " fill="#76ABEE" transform="translate(76,29)"/>
<path d="M0 0 C1.05904289 0.00424484 1.05904289 0.00424484 2.13948059 0.00857544 C4.39133758 0.01975786 6.64279477 0.0448583 8.89453125 0.0703125 C10.42252029 0.08034483 11.95051558 0.08947024 13.47851562 0.09765625 C17.22150788 0.11969078 20.96420181 0.15420683 24.70703125 0.1953125 C24.70703125 0.5253125 24.70703125 0.8553125 24.70703125 1.1953125 C23.30626343 1.23289673 23.30626343 1.23289673 21.87719727 1.27124023 C18.42377936 1.36618178 14.97054165 1.46542508 11.51733398 1.56762695 C10.02063856 1.61103063 8.52389186 1.65270163 7.02709961 1.69262695 C4.87988813 1.75019866 2.73293604 1.81392966 0.5859375 1.87890625 C-1.35430298 1.93389282 -1.35430298 1.93389282 -3.33374023 1.98999023 C-6.17851883 1.8620403 -6.17851883 1.8620403 -7.29296875 3.1953125 C-7.37948486 4.61101373 -7.40001779 6.0309075 -7.390625 7.44921875 C-7.38740234 8.30322266 -7.38417969 9.15722656 -7.38085938 10.03710938 C-7.37248047 10.93494141 -7.36410156 11.83277344 -7.35546875 12.7578125 C-7.35095703 13.65951172 -7.34644531 14.56121094 -7.34179688 15.49023438 C-7.329971 17.72532564 -7.31349095 19.96028687 -7.29296875 22.1953125 C-7.62296875 22.1953125 -7.95296875 22.1953125 -8.29296875 22.1953125 C-10.68219789 15.77425919 -11.17710655 8.99271599 -10.29296875 2.1953125 C-6.69852692 -0.20098205 -4.14435223 -0.06250081 0 0 Z " fill="#C4A93B" transform="translate(39.29296875,21.8046875)"/>
<path d="M0 0 C2 2 2 2 2.1875 5.5625 C2 9 2 9 1 10 C-1.33297433 10.04092937 -3.66705225 10.04241723 -6 10 C-5.34 9.566875 -4.68 9.13375 -4 8.6875 C-3.01 7.8521875 -3.01 7.8521875 -2 7 C-2 6.01 -2 5.02 -2 4 C-5.96 3.67 -9.92 3.34 -14 3 C-14 2.67 -14 2.34 -14 2 C-9.23057011 0.6842952 -4.99206251 -0.47543452 0 0 Z " fill="#D8C13C" transform="translate(58,31)"/>
<path d="M0 0 C4.29 0 8.58 0 13 0 C13 1.32 13 2.64 13 4 C8.71 4 4.42 4 0 4 C0 2.68 0 1.36 0 0 Z " fill="#407175" transform="translate(43,51)"/>
<path d="M0 0 C0 0.33 0 0.66 0 1 C-1.32064453 1.11214844 -1.32064453 1.11214844 -2.66796875 1.2265625 C-10.28447696 1.76506459 -10.28447696 1.76506459 -16.1875 6 C-16.785625 6.99 -17.38375 7.98 -18 9 C-18.66 9.66 -19.32 10.32 -20 11 C-20.375 7.75 -20.375 7.75 -20 4 C-14.86915968 -1.88537567 -7.22146663 -0.35612712 0 0 Z " fill="#3B80CC" transform="translate(43,18)"/>
<path d="M0 0 C0.33 0.66 0.66 1.32 1 2 C0.484375 2.5775 -0.03125 3.155 -0.5625 3.75 C-1.036875 4.4925 -1.51125 5.235 -2 6 C-1.70247533 7.34177791 -1.36201809 8.67416751 -1 10 C-0.88423251 11.83074172 -0.82509859 13.6656449 -0.8125 15.5 C-0.79832031 16.4384375 -0.78414063 17.376875 -0.76953125 18.34375 C-1.00520097 21.05994337 -1.61515346 22.67915046 -3 25 C-3.66 25 -4.32 25 -5 25 C-4.67 23.96875 -4.34 22.9375 -4 21.875 C-3.04810119 18.4467847 -2.543266 15.57774963 -3 12 C-4.88413915 8.67191761 -4.88413915 8.67191761 -7 6 C-6.21625 5.566875 -5.4325 5.13375 -4.625 4.6875 C-1.78301625 3.10779753 -1.78301625 3.10779753 0 0 Z " fill="#5C8170" transform="translate(71,39)"/>
<path d="M0 0 C0 0.66 0 1.32 0 2 C-0.99 2.66 -1.98 3.32 -3 4 C-3.144375 5.155 -3.28875 6.31 -3.4375 7.5 C-3.623125 8.655 -3.80875 9.81 -4 11 C-6.0625 12.4375 -6.0625 12.4375 -8 13 C-8.48590022 5.8329718 -8.48590022 5.8329718 -6.25 2 C-4 0 -4 0 0 0 Z " fill="#FDF654" transform="translate(41,29)"/>
<path d="M0 0 C-0.33 0.99 -0.66 1.98 -1 3 C-0.34 3.33 0.32 3.66 1 4 C-0.98 4 -2.96 4 -5 4 C-5 3.01 -5 2.02 -5 1 C-14.24 1 -23.48 1 -33 1 C-33 0.67 -33 0.34 -33 0 C-28.62196815 -0.16750929 -24.24375401 -0.32807935 -19.86523438 -0.48217773 C-18.37525558 -0.53560003 -16.88534391 -0.59092962 -15.39550781 -0.64819336 C-13.25600663 -0.73009836 -11.11635907 -0.80517709 -8.9765625 -0.87890625 C-7.04417725 -0.94960327 -7.04417725 -0.94960327 -5.07275391 -1.02172852 C-2 -1 -2 -1 0 0 Z " fill="#3566A4" transform="translate(66,73)"/>
<path d="M0 0 C1.38594529 0.00031696 2.77191535 0.01163319 4.15771484 0.03173828 C4.88735443 0.03456818 5.61699402 0.03739807 6.3687439 0.04031372 C8.70221262 0.05152076 11.03529937 0.07662568 13.36865234 0.10205078 C14.94937597 0.11207993 16.53010561 0.1212059 18.11083984 0.12939453 C21.98859149 0.15146173 25.86605712 0.18599463 29.74365234 0.22705078 C29.74365234 0.55705078 29.74365234 0.88705078 29.74365234 1.22705078 C19.18365234 1.22705078 8.62365234 1.22705078 -2.25634766 1.22705078 C-2.91634766 4.85705078 -3.57634766 8.48705078 -4.25634766 12.22705078 C-4.58634766 12.22705078 -4.91634766 12.22705078 -5.25634766 12.22705078 C-5.31030244 10.60241236 -5.3491196 8.97726537 -5.38134766 7.35205078 C-5.40455078 6.44712891 -5.42775391 5.54220703 -5.45166016 4.60986328 C-5.1280051 0.66127162 -3.80676441 0.26542892 0 0 Z " fill="#EDC534" transform="translate(36.25634765625,22.77294921875)"/>
<path d="M0 0 C4 2 4 2 4.86328125 3.76953125 C5.74201029 7.76583808 6.44554311 11.02475645 5 15 C4.01 15.495 4.01 15.495 3 16 C3 12.7 3 9.4 3 6 C2.67 8.64 2.34 11.28 2 14 C1.67 14 1.34 14 1 14 C0.67 9.38 0.34 4.76 0 0 Z " fill="#4880C6" transform="translate(74,24)"/>
<path d="M0 0 C2.93014571 2.93014571 3.13489635 6.30176561 4.0234375 10.2734375 C5.13376577 13.37347404 6.53743772 14.86172576 9 17 C6.6875 17.3125 6.6875 17.3125 4 17 C1.17427772 13.30482471 0.56448986 10.2737154 0.3125 5.6875 C0.24675781 4.61886719 0.18101563 3.55023438 0.11328125 2.44921875 C0.07589844 1.64097656 0.03851562 0.83273438 0 0 Z " fill="#27446D" transform="translate(24,56)"/>
<path d="M0 0 C2.475 0.99 2.475 0.99 5 2 C4.67 4.97 4.34 7.94 4 11 C3.01 10.67 2.02 10.34 1 10 C1.33 7.36 1.66 4.72 2 2 C1.01 1.67 0.02 1.34 -1 1 C-0.67 0.67 -0.34 0.34 0 0 Z M-2 8 C-1.67 8.99 -1.34 9.98 -1 11 C-0.34 11.33 0.32 11.66 1 12 C-0.32 11.67 -1.64 11.34 -3 11 C-2.67 10.01 -2.34 9.02 -2 8 Z " fill="#F3F489" transform="translate(64,49)"/>
<path d="M0 0 C0.33 0.99 0.66 1.98 1 3 C-2.17320782 6.53586014 -4.16743695 8.58578031 -9 9 C-7.61918777 4.8575633 -5.40174442 3.67796901 -2 1 C-1.67 1.33 -1.34 1.66 -1 2 C-0.67 1.34 -0.34 0.68 0 0 Z " fill="#498BD9" transform="translate(72,62)"/>
<path d="M0 0 C1.32 0.33 2.64 0.66 4 1 C4 2.98 4 4.96 4 7 C2.02 7.99 2.02 7.99 0 9 C0 6.03 0 3.06 0 0 Z " fill="#FEFE87" transform="translate(66,30)"/>
<path d="M0 0 C0.66 0.99 1.32 1.98 2 3 C1.01 3.495 1.01 3.495 0 4 C-0.33 4.66 -0.66 5.32 -1 6 C-1.66 5.67 -2.32 5.34 -3 5 C-3 4.34 -3 3.68 -3 3 C-3.66 3 -4.32 3 -5 3 C-5 2.34 -5 1.68 -5 1 C-5.99 0.67 -6.98 0.34 -8 0 C-5.06791253 -1.46604374 -3.11702298 -0.77925574 0 0 Z " fill="#3D7EC6" transform="translate(73,20)"/>
<path d="M0 0 C0.99 0.33 1.98 0.66 3 1 C3.1875 3.875 3.1875 3.875 3 7 C2.01 7.66 1.02 8.32 0 9 C-1 8 -1 8 -1.125 4.5 C-1 1 -1 1 0 0 Z " fill="#FEFE9D" transform="translate(39,48)"/>
<path d="M0 0 C0.99 0 1.98 0 3 0 C3 2.64 3 5.28 3 8 C2.01 8.33 1.02 8.66 0 9 C0 6.03 0 3.06 0 0 Z " fill="#FEFEAD" transform="translate(63,51)"/>
<path d="M0 0 C2.97 0 5.94 0 9 0 C9 0.99 9 1.98 9 3 C6.36 3 3.72 3 1 3 C0.67 2.01 0.34 1.02 0 0 Z " fill="#3E81C1" transform="translate(45,36)"/>
<path d="M0 0 C1.66611905 -0.042721 3.33382885 -0.04063832 5 0 C6 1 6 1 6.1875 3.4375 C6 6 6 6 4 8 C1.375 8.125 1.375 8.125 -1 8 C-0.34 7.566875 0.32 7.13375 1 6.6875 C1.99 5.8521875 1.99 5.8521875 3 5 C3 4.01 3 3.02 3 2 C2.01 1.34 1.02 0.68 0 0 Z " fill="#9E9030" transform="translate(53,33)"/>
<path d="M0 0 C2.31 0 4.62 0 7 0 C7 0.99 7 1.98 7 3 C4.36 3 1.72 3 -1 3 C-0.67 2.01 -0.34 1.02 0 0 Z " fill="#3E85BE" transform="translate(46,51)"/>
<path d="M0 0 C1.32 0 2.64 0 4 0 C2.62845496 2.95409701 1.01136276 5.44008376 -1 8 C-1.04241723 5.66705225 -1.04092937 3.33297433 -1 1 C-0.67 0.67 -0.34 0.34 0 0 Z " fill="#5891D4" transform="translate(24,21)"/>
<path d="M0 0 C1.90318884 2.85478326 2.4619099 4.41941308 3.125 7.6875 C3.29257812 8.49574219 3.46015625 9.30398437 3.6328125 10.13671875 C3.75398438 10.75160156 3.87515625 11.36648437 4 12 C2.29159719 10.36587557 1.06546953 9.13093906 0 7 C-0.04022391 4.6670134 -0.04320247 2.33293334 0 0 Z " fill="#5088CC" transform="translate(27,56)"/>
<path d="M0 0 C-2.35277269 2.72426311 -4.62496331 3.8141763 -8 5 C-8 3.68 -8 2.36 -8 1 C-5.29120665 -0.35439668 -2.99066732 -0.06501451 0 0 Z " fill="#2C5B94" transform="translate(31,17)"/>
<path d="M0 0 C1.485 0.99 1.485 0.99 3 2 C2.67 5.96 2.34 9.92 2 14 C1.67 14 1.34 14 1 14 C0.67 9.38 0.34 4.76 0 0 Z " fill="#5694DF" transform="translate(74,24)"/>
<path d="M0 0 C0.66 0.33 1.32 0.66 2 1 C1.67 1.99 1.34 2.98 1 4 C1.66 4.33 2.32 4.66 3 5 C1.02 5 -0.96 5 -3 5 C-3 4.01 -3 3.02 -3 2 C-2.01 1.34 -1.02 0.68 0 0 Z " fill="#466390" transform="translate(64,72)"/>
<path d="M0 0 C0 0.99 0 1.98 0 3 C-2 4.6875 -2 4.6875 -4 6 C-4.66 5.67 -5.32 5.34 -6 5 C-3.375 1.125 -3.375 1.125 0 0 Z " fill="#477FA3" transform="translate(68,63)"/>
<path d="M0 0 C2.475 0.495 2.475 0.495 5 1 C4.67 2.32 4.34 3.64 4 5 C3.01 5 2.02 5 1 5 C0.67 3.35 0.34 1.7 0 0 Z " fill="#374338" transform="translate(52,34)"/>
<path d="M0 0 C0.99 0 1.98 0 3 0 C3 1.32 3 2.64 3 4 C2.34 4 1.68 4 1 4 C0.67 4.99 0.34 5.98 0 7 C-0.93423645 3.98968256 -1.04449911 3.13349732 0 0 Z " fill="#659FE8" transform="translate(71,58)"/>
</svg>
